<?xml version="1.0" encoding="UTF-8"?>
<svg id="Layer_2" data-name="Layer 2" xmlns="http://www.w3.org/2000/svg" viewBox="0 0 84.83 40.3">
  <defs>
    <style>
      .cls-1 {
        fill: none;
        stroke: #231f20;
        stroke-linecap: round;
        stroke-linejoin: round;
        stroke-width: .25px;
      }

      .cls-2 {
        stroke-width: 0px;
      }
    </style>
  </defs>
  <g id="Layer_1-2" data-name="Layer 1">
    <rect class="cls-1" x="70.13" y="10.13" width="10" height="10" rx="1" ry="1" transform="translate(150.25 30.25) rotate(-180)"/>
    <rect class="cls-1" x="70.13" y="20.13" width="10" height="10" rx="1" ry="1" transform="translate(150.25 50.25) rotate(-180)"/>
    <rect class="cls-1" x="70.12" y="30.17" width="10" height="10" rx="1" ry="1" transform="translate(150.25 70.34) rotate(-180)"/>
    <rect class="cls-1" x="60.13" y="20.13" width="10" height="10" rx="1" ry="1" transform="translate(130.25 50.25) rotate(-180)"/>
    <rect class="cls-1" x="60.12" y="30.13" width="10" height="10" rx="1" ry="1" transform="translate(130.25 70.25) rotate(-180)"/>
    <rect class="cls-1" x="50.13" y="20.13" width="10" height="10" rx="1" ry="1" transform="translate(110.25 50.25) rotate(-180)"/>
    <rect class="cls-1" x="40.13" y="20.13" width="10" height="10" rx="1" ry="1" transform="translate(90.25 50.25) rotate(-180)"/>
    <rect class="cls-1" x="35.12" y="30.13" width="10" height="10" rx="1" ry="1" transform="translate(80.25 70.25) rotate(-180)"/>
    <rect class="cls-1" x=".13" y="10.13" width="10" height="10" rx="1" ry="1"/>
    <rect class="cls-1" x=".13" y="20.13" width="10" height="10" rx="1" ry="1"/>
    <rect class="cls-1" x=".13" y="30.13" width="10" height="10" rx="1" ry="1"/>
    <rect class="cls-1" x="10.13" y="20.13" width="10" height="10" rx="1" ry="1"/>
    <rect class="cls-1" x="10.13" y="30.13" width="10" height="10" rx="1" ry="1"/>
    <rect class="cls-1" x="20.13" y="20.13" width="10" height="10" rx="1" ry="1"/>
    <rect class="cls-1" x="30.13" y="20.13" width="10" height="10" rx="1" ry="1"/>
    <rect class="cls-1" x="10.13" y="10.13" width="60" height="10" rx="1" ry="1" transform="translate(80.25 30.25) rotate(-180)"/>
    <g>
      <path class="cls-2" d="m41.54,13.66c.06,0,.15,0,.26.02.33.04.62.17.83.38.26.26.44.66.44,1.17,0,.68-.36,1.11-.92,1.11s-.86-.44-.86-.92.32-.84.78-.84c.29,0,.5.14.63.3h.01c-.06-.43-.35-.83-.9-.92-.1-.02-.19-.02-.26-.02v-.29Zm.61,2.41c.37,0,.56-.32.57-.74,0-.06-.02-.12-.04-.16-.1-.19-.29-.32-.5-.32-.32,0-.54.22-.54.6,0,.37.2.62.51.62Z"/>
      <path class="cls-2" d="m40.1,13.66c.53,0,.9.48.9,1.35,0,.86-.35,1.34-.86,1.34-.58,0-.9-.49-.9-1.37s.31-1.32.86-1.32Zm.02.27c-.36,0-.53.42-.53,1.06s.17,1.08.53,1.08c.32,0,.53-.38.53-1.06,0-.71-.22-1.08-.53-1.08Z"/>
      <path class="cls-2" d="m38.05,13.66c.53,0,.9.48.9,1.35,0,.86-.35,1.34-.86,1.34-.58,0-.9-.49-.9-1.37s.31-1.32.86-1.32Zm.02.27c-.36,0-.53.42-.53,1.06s.17,1.08.53,1.08c.32,0,.53-.38.53-1.06,0-.71-.22-1.08-.53-1.08Z"/>
    </g>
    <rect class="cls-1" x="45.13" y="30.13" width="15" height="10" rx="1" ry="1" transform="translate(105.25 70.25) rotate(-180)"/>
    <g>
      <path class="cls-2" d="m54.76,36.3h-.34v-2.6h.3l.57.3-.07.27-.45-.24h0v2.27Z"/>
      <path class="cls-2" d="m51.92,33.7h1.24l.17,1.25c-.1-.01-.21-.03-.36-.03-.52,0-.74.24-.75.58,0,.35.28.56.62.56.24,0,.45-.08.56-.14l.09.27c-.12.08-.36.16-.65.16-.56,0-.97-.38-.97-.89,0-.33.17-.55.37-.67.16-.1.36-.14.56-.14.1,0,.15,0,.21.02l-.1-.67h-.99v-.3Z"/>
      <path class="cls-2" d="m50.55,33.66c.53,0,.9.48.9,1.35,0,.86-.35,1.34-.86,1.34-.58,0-.9-.49-.9-1.37,0-.83.31-1.32.86-1.32Zm.02.27c-.36,0-.53.42-.53,1.06s.17,1.08.53,1.08c.32,0,.53-.38.53-1.06,0-.71-.22-1.08-.53-1.08Z"/>
    </g>
    <rect class="cls-1" x="25.13" y=".13" width="30" height="10" rx="1" ry="1"/>
    <g>
      <path class="cls-2" d="m43.04,6.17c-.13.08-.38.18-.68.18-.62,0-.95-.36-.95-.78,0-.36.26-.6.58-.67h0c-.32-.12-.48-.35-.48-.62,0-.32.23-.62.74-.62.28,0,.54.1.68.2l-.09.26c-.11-.08-.31-.17-.52-.17-.32,0-.46.18-.46.39,0,.31.32.44.58.44h.2v.26h-.2c-.34,0-.67.16-.67.52,0,.22.14.5.59.5.24,0,.48-.1.58-.16l.1.27Z"/>
      <path class="cls-2" d="m40.1,3.66c.53,0,.9.48.9,1.35,0,.86-.35,1.34-.86,1.34-.58,0-.9-.49-.9-1.37,0-.83.31-1.32.86-1.32Zm.02.27c-.36,0-.53.42-.53,1.06s.17,1.08.53,1.08c.32,0,.53-.38.53-1.06,0-.71-.22-1.08-.53-1.08Z"/>
      <path class="cls-2" d="m38.05,3.66c.53,0,.9.48.9,1.35,0,.86-.35,1.34-.86,1.34-.58,0-.9-.49-.9-1.37,0-.83.31-1.32.86-1.32Zm.02.27c-.36,0-.53.42-.53,1.06s.17,1.08.53,1.08c.32,0,.53-.38.53-1.06,0-.71-.22-1.08-.53-1.08Z"/>
    </g>
    <rect class="cls-1" x="55.13" y=".13" width="12.5" height="10" rx="1" ry="1" transform="translate(122.75 10.25) rotate(-180)"/>
    <g>
      <path class="cls-2" d="m63.51,6.3h-.34v-2.6h.3l.57.3-.07.27-.45-.24h0v2.27Z"/>
      <path class="cls-2" d="m60.56,6.3v-.29h1.17s0,0,0,0l-.21-.19c-.55-.53-.9-.92-.9-1.4,0-.37.24-.76.8-.76.3,0,.56.11.74.26l-.11.25c-.12-.1-.32-.22-.55-.22-.39,0-.52.24-.52.51,0,.39.3.73.97,1.36l.28.27v.22h-1.66Z"/>
      <path class="cls-2" d="m58.62,3.7h1.24l.17,1.25c-.1-.01-.21-.03-.36-.03-.52,0-.74.24-.75.58,0,.35.28.56.62.56.24,0,.45-.08.56-.14l.09.27c-.12.08-.36.16-.65.16-.56,0-.97-.38-.97-.89,0-.33.17-.55.37-.67.16-.1.36-.14.56-.14.1,0,.15,0,.21.02l-.1-.67h-.99v-.3Z"/>
    </g>
    <rect class="cls-1" x="67.63" y=".13" width="12.5" height="10" rx="1" ry="1" transform="translate(147.75 10.25) rotate(-180)"/>
    <g>
      <path class="cls-2" d="m76.01,6.3h-.34v-2.6h.3l.57.3-.07.27-.45-.24h0v2.27Z"/>
      <path class="cls-2" d="m73.06,6.3v-.29h1.17s0,0,0,0l-.21-.19c-.55-.53-.9-.92-.9-1.4,0-.37.24-.76.8-.76.3,0,.56.11.74.26l-.11.25c-.12-.1-.32-.22-.55-.22-.39,0-.52.24-.52.51,0,.39.3.73.97,1.36l.28.27v.22h-1.66Z"/>
      <path class="cls-2" d="m71.12,3.7h1.24l.17,1.25c-.1-.01-.21-.03-.36-.03-.52,0-.74.24-.75.58,0,.35.28.56.62.56.24,0,.45-.08.56-.14l.09.27c-.12.08-.36.16-.65.16-.56,0-.97-.38-.97-.89,0-.33.17-.55.37-.67.16-.1.36-.14.56-.14.1,0,.15,0,.21.02l-.1-.67h-.99v-.3Z"/>
    </g>
    <rect class="cls-1" x=".13" y=".13" width="12.5" height="10" rx="1" ry="1" transform="translate(12.75 10.25) rotate(-180)"/>
    <g>
      <path class="cls-2" d="m8.51,6.3h-.34v-2.6h.3l.57.3-.07.27-.45-.24h0s0,2.27,0,2.27Z"/>
      <path class="cls-2" d="m5.56,6.3v-.29h1.17s0,0,0,0l-.21-.19c-.55-.53-.9-.92-.9-1.4,0-.37.24-.76.8-.76.3,0,.56.11.74.26l-.11.25c-.12-.1-.32-.22-.55-.22-.39,0-.52.24-.52.51,0,.39.3.73.97,1.36l.28.27v.22h-1.66Z"/>
      <path class="cls-2" d="m3.62,3.7h1.24l.17,1.25c-.1-.01-.21-.03-.36-.03-.52,0-.74.24-.75.58,0,.35.28.56.62.56.24,0,.45-.08.56-.14l.09.27c-.12.08-.36.16-.65.16-.56,0-.97-.38-.97-.89,0-.33.17-.55.37-.67.16-.1.36-.14.56-.14.1,0,.15,0,.21.02l-.1-.67h-.99v-.3Z"/>
    </g>
    <rect class="cls-1" x="12.63" y=".13" width="12.5" height="10" rx="1" ry="1" transform="translate(37.75 10.25) rotate(-180)"/>
    <g>
      <path class="cls-2" d="m21.01,6.3h-.34v-2.6h.3l.57.3-.07.27-.45-.24h0v2.27Z"/>
      <path class="cls-2" d="m18.06,6.3v-.29h1.17s0,0,0,0l-.21-.19c-.55-.53-.9-.92-.9-1.4,0-.37.24-.76.8-.76.3,0,.56.11.74.26l-.11.25c-.12-.1-.32-.22-.55-.22-.39,0-.52.24-.52.51,0,.39.3.73.97,1.36l.28.27v.22h-1.66Z"/>
      <path class="cls-2" d="m16.12,3.7h1.24l.17,1.25c-.1-.01-.21-.03-.36-.03-.52,0-.74.24-.75.58,0,.35.28.56.62.56.24,0,.45-.08.56-.14l.09.27c-.12.08-.36.16-.65.16-.56,0-.97-.38-.97-.89,0-.33.17-.55.37-.67.16-.1.36-.14.56-.14.1,0,.15,0,.21.02l-.1-.67h-.99v-.3Z"/>
    </g>
    <rect class="cls-1" x="20.13" y="30.12" width="15" height="10" rx="1" ry="1" transform="translate(55.25 70.25) rotate(-180)"/>
    <g>
      <path class="cls-2" d="m29.76,36.3h-.34v-2.6h.3l.57.3-.07.27-.45-.24h0s0,2.27,0,2.27Z"/>
      <path class="cls-2" d="m26.92,33.7h1.24l.17,1.25c-.1-.01-.21-.03-.36-.03-.52,0-.74.24-.75.58,0,.35.28.56.62.56.24,0,.45-.08.56-.14l.09.27c-.12.08-.36.16-.65.16-.56,0-.97-.38-.97-.89,0-.33.17-.55.37-.67.16-.1.36-.14.56-.14.1,0,.15,0,.21.02l-.1-.67h-.99v-.3Z"/>
      <path class="cls-2" d="m25.55,33.66c.53,0,.9.48.9,1.35,0,.86-.35,1.34-.86,1.34-.58,0-.9-.49-.9-1.37,0-.83.31-1.32.86-1.32Zm.02.27c-.36,0-.53.42-.53,1.06s.17,1.08.53,1.08c.32,0,.53-.38.53-1.06,0-.71-.22-1.08-.53-1.08Z"/>
    </g>
    <path class="cls-2" d="m83.29,6.3v-.71s-.36,0-.36,0v-.28h.36s0-1.62,0-1.62h.38s1.16,1.66,1.16,1.66v.23h-1.21s0,.71,0,.71h-.33Zm1.18-.98h0s-.64-.89-.64-.89c-.07-.12-.14-.23-.22-.38h-.01c0,.14.01.27.01.41v.87s.85,0,.85,0Z"/>
    <path class="cls-2" d="m83.16,13.7h1.24l.17,1.25c-.1-.01-.21-.03-.36-.03-.52,0-.74.24-.75.58,0,.35.28.56.62.56.24,0,.45-.08.56-.14l.09.27c-.12.08-.36.16-.65.16-.56,0-.97-.38-.97-.89,0-.33.17-.55.37-.67.16-.1.36-.14.56-.14.1,0,.15,0,.21.02l-.1-.67h-.99v-.3Z"/>
    <path class="cls-2" d="m83.22,23.66c.06,0,.15,0,.26.02.33.04.62.17.83.38.26.26.44.66.44,1.17,0,.68-.36,1.11-.92,1.11s-.86-.44-.86-.92c0-.51.32-.84.78-.84.29,0,.5.14.63.3h.01c-.06-.43-.35-.83-.9-.92-.1-.02-.19-.02-.26-.02v-.29Zm.61,2.41c.37,0,.56-.32.57-.74,0-.06-.02-.12-.04-.16-.1-.19-.29-.32-.5-.32-.32,0-.54.22-.54.6s.2.62.51.62Z"/>
    <path class="cls-2" d="m84.66,33.75v.29h-1.27s0,0,0,0l1.13,2.3h-.36s-1.13-2.37-1.13-2.37v-.23h1.64Z"/>
  </g>
</svg>