<?xml version="1.0" encoding="UTF-8"?>
<svg id="Layer_2" data-name="Layer 2" xmlns="http://www.w3.org/2000/svg" viewBox="0 0 84.83 75.71">
  <defs>
    <style>
      .cls-1 {
        fill: none;
        stroke: #231f20;
        stroke-linecap: round;
        stroke-linejoin: round;
        stroke-width: .25px;
      }

      .cls-2 {
        stroke-width: 0px;
      }
    </style>
  </defs>
  <g id="Layer_1-2" data-name="Layer 1">
    <rect class="cls-1" x="4.7" y="5.54" width="10" height="10" rx="1" ry="1"/>
    <rect class="cls-1" x="4.7" y="15.54" width="10" height="10" rx="1" ry="1"/>
    <rect class="cls-1" x="4.7" y="25.54" width="10" height="10" rx="1" ry="1"/>
    <rect class="cls-1" x="4.7" y="45.54" width="10" height="10" rx="1" ry="1"/>
    <rect class="cls-1" x="4.7" y="55.54" width="10" height="10" rx="1" ry="1"/>
    <rect class="cls-1" x="4.7" y="65.59" width="10" height="10" rx="1" ry="1"/>
    <rect class="cls-1" x="14.7" y="15.54" width="10" height="10" rx="1" ry="1"/>
    <rect class="cls-1" x="14.7" y="55.54" width="10" height="10" rx="1" ry="1"/>
    <rect class="cls-1" x="14.7" y="65.54" width="10" height="10" rx="1" ry="1"/>
    <rect class="cls-1" x="24.7" y="55.54" width="10" height="10" rx="1" ry="1"/>
    <rect class="cls-1" x="34.7" y="55.54" width="10" height="10" rx="1" ry="1"/>
    <rect class="cls-1" x="39.7" y="65.54" width="10" height="10" rx="1" ry="1"/>
    <rect class="cls-1" x="74.7" y="5.54" width="10" height="10" rx="1" ry="1" transform="translate(159.4 21.09) rotate(-180)"/>
    <rect class="cls-1" x="74.7" y="15.54" width="10" height="10" rx="1" ry="1" transform="translate(159.4 41.09) rotate(-180)"/>
    <rect class="cls-1" x="74.7" y="25.54" width="10" height="10" rx="1" ry="1" transform="translate(159.4 61.09) rotate(-180)"/>
    <rect class="cls-1" x="74.7" y="45.54" width="10" height="10" rx="1" ry="1" transform="translate(159.4 101.09) rotate(-180)"/>
    <rect class="cls-1" x="74.7" y="55.54" width="10" height="10" rx="1" ry="1" transform="translate(159.4 121.09) rotate(-180)"/>
    <rect class="cls-1" x="74.7" y="65.54" width="10" height="10" rx="1" ry="1" transform="translate(159.4 141.09) rotate(-180)"/>
    <rect class="cls-1" x="64.7" y="15.54" width="10" height="10" rx="1" ry="1" transform="translate(139.4 41.09) rotate(-180)"/>
    <rect class="cls-1" x="64.7" y="55.54" width="10" height="10" rx="1" ry="1" transform="translate(139.4 121.09) rotate(-180)"/>
    <rect class="cls-1" x="64.7" y="65.54" width="10" height="10" rx="1" ry="1" transform="translate(139.4 141.09) rotate(-180)"/>
    <rect class="cls-1" x="54.7" y="55.54" width="10" height="10" rx="1" ry="1" transform="translate(119.4 121.09) rotate(-180)"/>
    <rect class="cls-1" x="44.7" y="55.54" width="10" height="10" rx="1" ry="1" transform="translate(99.4 121.09) rotate(-180)"/>
    <rect class="cls-1" x="14.7" y="5.54" width="12.5" height="10" rx="1" ry="1"/>
    <g>
      <path class="cls-2" d="m18.82,9.45h0l-.45.24-.07-.27.57-.3h.3v2.6h-.34v-2.27Z"/>
      <path class="cls-2" d="m20.1,11.72v-.22l.28-.27c.66-.63.96-.97.97-1.36,0-.26-.13-.51-.52-.51-.24,0-.43.12-.55.22l-.11-.25c.18-.15.44-.26.74-.26.56,0,.8.38.8.76,0,.48-.35.87-.9,1.4l-.21.19h0s1.17,0,1.17,0v.29h-1.66Z"/>
      <path class="cls-2" d="m23.71,9.42h-.99l-.1.67c.06,0,.12-.02.21-.02.2,0,.4.04.56.14.2.12.37.34.37.67,0,.51-.4.89-.97.89-.28,0-.52-.08-.65-.16l.09-.27c.11.06.32.14.56.14.33,0,.62-.22.62-.56,0-.34-.23-.58-.75-.58-.15,0-.26.02-.36.03l.17-1.25h1.24v.3Z"/>
    </g>
    <rect class="cls-1" x="27.2" y="5.54" width="17.5" height="10" rx="1" ry="1"/>
    <g>
      <path class="cls-2" d="m33.82,9.45h0l-.45.24-.07-.27.57-.3h.3v2.6h-.34v-2.27Z"/>
      <path class="cls-2" d="m36.79,9.12v.23l-1.13,2.37h-.36l1.13-2.3h0s-1.27,0-1.27,0v-.29h1.64Z"/>
      <path class="cls-2" d="m38.71,9.42h-.99l-.1.67c.06,0,.12-.02.21-.02.2,0,.4.04.56.14.2.12.37.34.37.67,0,.51-.4.89-.97.89-.28,0-.52-.08-.65-.16l.09-.27c.11.06.32.14.56.14.33,0,.62-.22.62-.56,0-.34-.23-.58-.75-.58-.15,0-.26.02-.36.03l.17-1.25h1.24v.3Z"/>
    </g>
    <rect class="cls-1" x="24.7" y="15.54" width="20" height="10" rx="1" ry="1"/>
    <g>
      <path class="cls-2" d="m31.8,21.72v-.22l.28-.27c.66-.63.96-.97.97-1.36,0-.26-.13-.51-.52-.51-.24,0-.43.12-.55.22l-.11-.25c.18-.15.44-.26.74-.26.56,0,.8.38.8.76,0,.48-.35.87-.9,1.4l-.21.19h0s1.17,0,1.17,0v.29h-1.66Z"/>
      <path class="cls-2" d="m35.58,20.39c0,.88-.33,1.37-.9,1.37-.51,0-.85-.48-.86-1.34,0-.87.38-1.35.9-1.35s.86.49.86,1.32Zm-1.41.04c0,.68.21,1.06.53,1.06.36,0,.53-.42.53-1.08s-.16-1.06-.53-1.06c-.31,0-.53.38-.53,1.08Z"/>
      <path class="cls-2" d="m37.63,20.39c0,.88-.33,1.37-.9,1.37-.51,0-.85-.48-.86-1.34,0-.87.38-1.35.9-1.35s.86.49.86,1.32Zm-1.41.04c0,.68.21,1.06.53,1.06.36,0,.53-.42.53-1.08s-.16-1.06-.53-1.06c-.31,0-.53.38-.53,1.08Z"/>
    </g>
    <rect class="cls-1" x="44.7" y="25.54" width="30" height="10" rx="1" ry="1" transform="translate(119.4 61.09) rotate(-180)"/>
    <g>
      <path class="cls-2" d="m56.89,31.31c.1.06.33.16.58.16.45,0,.59-.29.59-.5,0-.36-.33-.52-.67-.52h-.2v-.26h.2c.26,0,.58-.13.58-.44,0-.21-.13-.39-.46-.39-.21,0-.41.09-.52.17l-.09-.26c.14-.1.4-.2.68-.2.51,0,.74.3.74.62,0,.27-.16.5-.48.61h0c.32.07.58.31.58.68,0,.42-.32.78-.95.78-.29,0-.55-.09-.68-.18l.1-.27Z"/>
      <path class="cls-2" d="m60.58,30.39c0,.88-.33,1.37-.9,1.37-.51,0-.85-.48-.86-1.34,0-.87.38-1.35.9-1.35s.86.49.86,1.32Zm-1.41.04c0,.68.21,1.06.53,1.06.36,0,.53-.42.53-1.08s-.16-1.06-.53-1.06c-.31,0-.53.38-.53,1.08Z"/>
      <path class="cls-2" d="m62.63,30.39c0,.88-.33,1.37-.9,1.37-.51,0-.85-.48-.86-1.34,0-.87.38-1.35.9-1.35s.86.49.86,1.32Zm-1.41.04c0,.68.21,1.06.53,1.06.36,0,.53-.42.53-1.08s-.16-1.06-.53-1.06c-.31,0-.53.38-.53,1.08Z"/>
    </g>
    <rect class="cls-1" x="14.7" y="45.54" width="60" height="10" rx="1" ry="1"/>
    <g>
      <path class="cls-2" d="m43.29,49.37c-.07,0-.16,0-.26.02-.55.09-.84.5-.9.92h.01c.12-.16.34-.3.63-.3.46,0,.78.33.78.84,0,.48-.32.92-.86.92s-.92-.43-.92-1.11c0-.51.18-.92.44-1.17.22-.21.5-.34.83-.38.1-.02.19-.02.26-.02v.29Zm-.1,1.5c0-.37-.21-.6-.54-.6-.21,0-.41.13-.5.32-.02.04-.04.09-.04.16,0,.43.2.74.57.74.3,0,.51-.25.51-.62Z"/>
      <path class="cls-2" d="m45.58,50.39c0,.88-.33,1.37-.9,1.37-.51,0-.85-.48-.86-1.34,0-.87.38-1.35.9-1.35s.86.49.86,1.32Zm-1.41.04c0,.68.21,1.06.53,1.06.36,0,.53-.42.53-1.08s-.16-1.06-.53-1.06c-.31,0-.53.38-.53,1.08Z"/>
      <path class="cls-2" d="m47.63,50.39c0,.88-.33,1.37-.9,1.37-.51,0-.85-.48-.86-1.34,0-.87.38-1.35.9-1.35s.86.49.86,1.32Zm-1.41.04c0,.68.21,1.06.53,1.06.36,0,.53-.42.53-1.08s-.16-1.06-.53-1.06c-.31,0-.53.38-.53,1.08Z"/>
    </g>
    <rect class="cls-1" x="24.7" y="65.54" width="15" height="10" rx="1" ry="1"/>
    <g>
      <path class="cls-2" d="m30.07,69.45h0l-.45.24-.07-.27.57-.3h.3v2.6h-.34v-2.27Z"/>
      <path class="cls-2" d="m32.91,69.42h-.99l-.1.67c.06,0,.12-.02.21-.02.2,0,.4.04.56.14.2.12.37.34.37.67,0,.51-.4.89-.97.89-.28,0-.52-.08-.65-.16l.09-.27c.11.06.32.14.56.14.33,0,.62-.22.62-.56,0-.34-.23-.58-.75-.58-.15,0-.26.02-.36.03l.17-1.25h1.24v.3Z"/>
      <path class="cls-2" d="m35.13,70.39c0,.88-.33,1.37-.9,1.37-.51,0-.85-.48-.86-1.34,0-.87.38-1.35.9-1.35s.86.49.86,1.32Zm-1.41.04c0,.68.21,1.06.53,1.06.36,0,.53-.42.53-1.08s-.16-1.06-.53-1.06c-.31,0-.53.38-.53,1.08Z"/>
    </g>
    <rect class="cls-1" x="14.7" y="25.54" width="30" height="10" rx="1" ry="1" transform="translate(59.4 61.09) rotate(-180)"/>
    <g>
      <path class="cls-2" d="m26.89,31.31c.1.06.33.16.58.16.45,0,.59-.29.59-.5,0-.36-.33-.52-.67-.52h-.2v-.26h.2c.26,0,.58-.13.58-.44,0-.21-.13-.39-.46-.39-.21,0-.41.09-.52.17l-.09-.26c.14-.1.4-.2.68-.2.51,0,.74.3.74.62,0,.27-.16.5-.48.61h0c.32.07.58.31.58.68,0,.42-.32.78-.95.78-.29,0-.55-.09-.68-.18l.1-.27Z"/>
      <path class="cls-2" d="m30.58,30.39c0,.88-.33,1.37-.9,1.37-.51,0-.85-.48-.86-1.34,0-.87.38-1.35.9-1.35s.86.49.86,1.32Zm-1.41.04c0,.68.21,1.06.53,1.06.36,0,.53-.42.53-1.08s-.16-1.06-.53-1.06c-.31,0-.53.38-.53,1.08Z"/>
      <path class="cls-2" d="m32.63,30.39c0,.88-.33,1.37-.9,1.37-.51,0-.85-.48-.86-1.34,0-.87.38-1.35.9-1.35s.86.49.86,1.32Zm-1.41.04c0,.68.21,1.06.53,1.06.36,0,.53-.42.53-1.08s-.16-1.06-.53-1.06c-.31,0-.53.38-.53,1.08Z"/>
    </g>
    <rect class="cls-1" x="29.7" y="35.54" width="30" height="10" rx="1" ry="1" transform="translate(89.4 81.09) rotate(-180)"/>
    <g>
      <path class="cls-2" d="m41.89,41.31c.1.06.33.16.58.16.45,0,.59-.29.59-.5,0-.36-.33-.52-.67-.52h-.2v-.26h.2c.26,0,.58-.13.58-.44,0-.21-.13-.39-.46-.39-.21,0-.41.09-.52.17l-.09-.26c.14-.1.4-.2.68-.2.51,0,.74.3.74.62,0,.27-.16.5-.48.61h0c.32.07.58.31.58.68,0,.42-.32.78-.95.78-.29,0-.55-.09-.68-.18l.1-.27Z"/>
      <path class="cls-2" d="m45.58,40.39c0,.88-.33,1.37-.9,1.37-.51,0-.85-.48-.86-1.34,0-.87.38-1.35.9-1.35s.86.49.86,1.32Zm-1.41.04c0,.68.21,1.06.53,1.06.36,0,.53-.42.53-1.08s-.16-1.06-.53-1.06c-.31,0-.53.38-.53,1.08Z"/>
      <path class="cls-2" d="m47.63,40.39c0,.88-.33,1.37-.9,1.37-.51,0-.85-.48-.86-1.34,0-.87.38-1.35.9-1.35s.86.49.86,1.32Zm-1.41.04c0,.68.21,1.06.53,1.06.36,0,.53-.42.53-1.08s-.16-1.06-.53-1.06c-.31,0-.53.38-.53,1.08Z"/>
    </g>
    <rect class="cls-1" x="17.2" y="35.54" width="12.5" height="10" rx="1" ry="1"/>
    <g>
      <path class="cls-2" d="m21.32,39.45h0l-.45.24-.07-.27.57-.3h.3v2.6h-.34v-2.27Z"/>
      <path class="cls-2" d="m22.6,41.72v-.22l.28-.27c.66-.63.96-.97.97-1.36,0-.26-.13-.51-.52-.51-.24,0-.43.12-.55.22l-.11-.25c.18-.15.44-.26.74-.26.56,0,.8.38.8.76,0,.48-.35.87-.9,1.4l-.21.19h0s1.17,0,1.17,0v.29h-1.66Z"/>
      <path class="cls-2" d="m26.21,39.42h-.99l-.1.67c.06,0,.12-.02.21-.02.2,0,.4.04.56.14.2.12.37.34.37.67,0,.51-.4.89-.97.89-.28,0-.52-.08-.65-.16l.09-.27c.11.06.32.14.56.14.33,0,.62-.22.62-.56,0-.34-.23-.58-.75-.58-.15,0-.26.02-.36.03l.17-1.25h1.24v.3Z"/>
    </g>
    <rect class="cls-1" x="4.7" y="35.54" width="12.5" height="10" rx="1" ry="1"/>
    <g>
      <path class="cls-2" d="m8.82,39.45h0l-.45.24-.07-.27.57-.3h.3v2.6h-.34v-2.27Z"/>
      <path class="cls-2" d="m10.1,41.72v-.22l.28-.27c.66-.63.96-.97.97-1.36,0-.26-.13-.51-.52-.51-.24,0-.43.12-.55.22l-.11-.25c.18-.15.44-.26.74-.26.56,0,.8.38.8.76,0,.48-.35.87-.9,1.4l-.21.19h0s1.17,0,1.17,0v.29h-1.66Z"/>
      <path class="cls-2" d="m13.71,39.42h-.99l-.1.67c.06,0,.12-.02.21-.02.2,0,.4.04.56.14.2.12.37.34.37.67,0,.51-.4.89-.97.89-.28,0-.52-.08-.65-.16l.09-.27c.11.06.32.14.56.14.33,0,.62-.22.62-.56,0-.34-.23-.58-.75-.58-.15,0-.26.02-.36.03l.17-1.25h1.24v.3Z"/>
    </g>
    <rect class="cls-1" x="44.7" y="15.54" width="20" height="10" rx="1" ry="1"/>
    <g>
      <path class="cls-2" d="m51.8,21.72v-.22l.28-.27c.66-.63.96-.97.97-1.36,0-.26-.13-.51-.52-.51-.24,0-.43.12-.55.22l-.11-.25c.18-.15.44-.26.74-.26.56,0,.8.38.8.76,0,.48-.35.87-.9,1.4l-.21.19h0s1.17,0,1.17,0v.29h-1.66Z"/>
      <path class="cls-2" d="m55.58,20.39c0,.88-.33,1.37-.9,1.37-.51,0-.85-.48-.86-1.34,0-.87.38-1.35.9-1.35s.86.49.86,1.32Zm-1.41.04c0,.68.21,1.06.53,1.06.36,0,.53-.42.53-1.08s-.16-1.06-.53-1.06c-.31,0-.53.38-.53,1.08Z"/>
      <path class="cls-2" d="m57.63,20.39c0,.88-.33,1.37-.9,1.37-.51,0-.85-.48-.86-1.34,0-.87.38-1.35.9-1.35s.86.49.86,1.32Zm-1.41.04c0,.68.21,1.06.53,1.06.36,0,.53-.42.53-1.08s-.16-1.06-.53-1.06c-.31,0-.53.38-.53,1.08Z"/>
    </g>
    <rect class="cls-1" x="44.7" y="5.54" width="17.5" height="10" rx="1" ry="1"/>
    <g>
      <path class="cls-2" d="m51.32,9.45h0l-.45.24-.07-.27.57-.3h.3v2.6h-.34v-2.27Z"/>
      <path class="cls-2" d="m54.29,9.12v.23l-1.13,2.37h-.36l1.13-2.3h0s-1.27,0-1.27,0v-.29h1.64Z"/>
      <path class="cls-2" d="m56.21,9.42h-.99l-.1.67c.06,0,.12-.02.21-.02.2,0,.4.04.56.14.2.12.37.34.37.67,0,.51-.4.89-.97.89-.28,0-.52-.08-.65-.16l.09-.27c.11.06.32.14.56.14.33,0,.62-.22.62-.56,0-.34-.23-.58-.75-.58-.15,0-.26.02-.36.03l.17-1.25h1.24v.3Z"/>
    </g>
    <rect class="cls-1" x="62.2" y="5.54" width="12.5" height="10" rx="1" ry="1"/>
    <g>
      <path class="cls-2" d="m66.32,9.45h0l-.45.24-.07-.27.57-.3h.3v2.6h-.34v-2.27Z"/>
      <path class="cls-2" d="m67.6,11.72v-.22l.28-.27c.66-.63.96-.97.97-1.36,0-.26-.13-.51-.52-.51-.24,0-.43.12-.55.22l-.11-.25c.18-.15.44-.26.74-.26.56,0,.8.38.8.76,0,.48-.35.87-.9,1.4l-.21.19h0s1.17,0,1.17,0v.29h-1.66Z"/>
      <path class="cls-2" d="m71.21,9.42h-.99l-.1.67c.06,0,.12-.02.21-.02.2,0,.4.04.56.14.2.12.37.34.37.67,0,.51-.4.89-.97.89-.28,0-.52-.08-.65-.16l.09-.27c.11.06.32.14.56.14.33,0,.62-.22.62-.56,0-.34-.23-.58-.75-.58-.15,0-.26.02-.36.03l.17-1.25h1.24v.3Z"/>
    </g>
    <rect class="cls-1" x="72.2" y="35.54" width="12.5" height="10" rx="1" ry="1"/>
    <g>
      <path class="cls-2" d="m76.32,39.45h0l-.45.24-.07-.27.57-.3h.3v2.6h-.34v-2.27Z"/>
      <path class="cls-2" d="m77.6,41.72v-.22l.28-.27c.66-.63.96-.97.97-1.36,0-.26-.13-.51-.52-.51-.24,0-.43.12-.55.22l-.11-.25c.18-.15.44-.26.74-.26.56,0,.8.38.8.76,0,.48-.35.87-.9,1.4l-.21.19h0s1.17,0,1.17,0v.29h-1.66Z"/>
      <path class="cls-2" d="m81.21,39.42h-.99l-.1.67c.06,0,.12-.02.21-.02.2,0,.4.04.56.14.2.12.37.34.37.67,0,.51-.4.89-.97.89-.28,0-.52-.08-.65-.16l.09-.27c.11.06.32.14.56.14.33,0,.62-.22.62-.56,0-.34-.23-.58-.75-.58-.15,0-.26.02-.36.03l.17-1.25h1.24v.3Z"/>
    </g>
    <rect class="cls-1" x="59.7" y="35.54" width="12.5" height="10" rx="1" ry="1"/>
    <g>
      <path class="cls-2" d="m63.82,39.45h0l-.45.24-.07-.27.57-.3h.3v2.6h-.34v-2.27Z"/>
      <path class="cls-2" d="m65.1,41.72v-.22l.28-.27c.66-.63.96-.97.97-1.36,0-.26-.13-.51-.52-.51-.24,0-.43.12-.55.22l-.11-.25c.18-.15.44-.26.74-.26.56,0,.8.38.8.76,0,.48-.35.87-.9,1.4l-.21.19h0s1.17,0,1.17,0v.29h-1.66Z"/>
      <path class="cls-2" d="m68.71,39.42h-.99l-.1.67c.06,0,.12-.02.21-.02.2,0,.4.04.56.14.2.12.37.34.37.67,0,.51-.4.89-.97.89-.28,0-.52-.08-.65-.16l.09-.27c.11.06.32.14.56.14.33,0,.62-.22.62-.56,0-.34-.23-.58-.75-.58-.15,0-.26.02-.36.03l.17-1.25h1.24v.3Z"/>
    </g>
    <rect class="cls-1" x="49.7" y="65.54" width="15" height="10" rx="1" ry="1"/>
    <g>
      <path class="cls-2" d="m55.07,69.45h0l-.45.24-.07-.27.57-.3h.3v2.6h-.34v-2.27Z"/>
      <path class="cls-2" d="m57.91,69.42h-.99l-.1.67c.06,0,.12-.02.21-.02.2,0,.4.04.56.14.2.12.37.34.37.67,0,.51-.4.89-.97.89-.28,0-.52-.08-.65-.16l.09-.27c.11.06.32.14.56.14.33,0,.62-.22.62-.56,0-.34-.23-.58-.75-.58-.15,0-.26.02-.36.03l.17-1.25h1.24v.3Z"/>
      <path class="cls-2" d="m60.13,70.39c0,.88-.33,1.37-.9,1.37-.51,0-.85-.48-.86-1.34,0-.87.38-1.35.9-1.35s.86.49.86,1.32Zm-1.41.04c0,.68.21,1.06.53,1.06.36,0,.53-.42.53-1.08s-.16-1.06-.53-1.06c-.31,0-.53.38-.53,1.08Z"/>
    </g>
    <path class="cls-2" d="m.88,9.45h0l-.45.24-.07-.27.57-.3h.3v2.6h-.34v-2.27Z"/>
    <path class="cls-2" d="m.12,21.72v-.22l.28-.27c.66-.63.96-.97.97-1.36,0-.26-.13-.51-.52-.51-.24,0-.43.12-.55.22l-.11-.25c.18-.15.44-.26.74-.26.56,0,.8.38.8.76,0,.48-.35.87-.9,1.4l-.21.19h0s1.17,0,1.17,0v.29H.12Z"/>
    <path class="cls-2" d="m.2,31.31c.1.06.33.16.58.16.45,0,.59-.29.59-.5,0-.36-.33-.52-.67-.52h-.2v-.26h.2c.26,0,.58-.13.58-.44,0-.21-.13-.39-.46-.39-.21,0-.41.09-.52.17l-.09-.26c.14-.1.4-.2.68-.2.51,0,.74.3.74.62,0,.27-.16.5-.48.61h0c.32.07.58.31.58.68,0,.42-.32.78-.95.78-.29,0-.55-.09-.68-.18l.1-.27Z"/>
    <path class="cls-2" d="m1.21,41.72v-.71H0v-.23l1.16-1.66h.38v1.62h.36v.28h-.36v.71h-.33Zm0-.98v-.87c0-.14,0-.27.01-.41h-.01c-.08.15-.14.26-.22.38l-.64.88H.36s.85,0,.85,0Z"/>
    <path class="cls-2" d="m1.67,49.42h-.99l-.1.67c.06,0,.12-.02.21-.02.2,0,.4.04.56.14.2.12.37.34.37.67,0,.51-.4.89-.97.89-.28,0-.52-.08-.65-.16l.09-.27c.11.06.32.14.56.14.33,0,.62-.22.62-.56,0-.34-.23-.58-.75-.58-.15,0-.26.02-.36.03l.17-1.25h1.24v.3Z"/>
    <path class="cls-2" d="m1.6,59.37c-.07,0-.16,0-.26.02-.55.09-.84.5-.9.92h.01c.12-.16.34-.3.63-.3.46,0,.78.33.78.84,0,.48-.32.92-.86.92s-.92-.43-.92-1.11c0-.51.18-.92.44-1.17.22-.21.5-.34.83-.38.1-.02.19-.02.26-.02v.29Zm-.1,1.5c0-.37-.21-.6-.54-.6-.21,0-.41.13-.5.32-.02.04-.04.09-.04.16,0,.43.2.74.57.74.3,0,.51-.25.51-.62Z"/>
    <path class="cls-2" d="m1.81,69.17v.23l-1.13,2.37h-.36l1.13-2.3h0s-1.27,0-1.27,0v-.29h1.64Z"/>
    <g>
      <path class="cls-2" d="m27.6.08c.15-.03.39-.06.64-.06.35,0,.57.06.74.2.14.1.22.26.22.48,0,.26-.17.49-.46.59h0c.26.07.56.28.56.68,0,.23-.09.41-.23.54-.19.17-.49.25-.93.25-.24,0-.42-.02-.54-.03V.08Zm.35,1.1h.32c.37,0,.58-.19.58-.45,0-.32-.24-.44-.59-.44-.16,0-.25.01-.31.02v.87Zm0,1.29c.07.01.17.02.29.02.36,0,.69-.13.69-.52,0-.37-.32-.52-.7-.52h-.29v1.03Z"/>
      <path class="cls-2" d="m31.53,1.75c0,.72-.5,1.03-.96,1.03-.52,0-.93-.38-.93-1,0-.65.42-1.03.96-1.03s.93.4.93,1Zm-1.54.02c0,.42.24.74.59.74s.59-.32.59-.75c0-.33-.16-.74-.58-.74s-.6.38-.6.75Z"/>
      <path class="cls-2" d="m32.4.25v.56h.5v.27h-.5v1.04c0,.24.07.38.26.38.09,0,.16-.01.2-.02l.02.26c-.07.03-.18.05-.31.05-.16,0-.3-.05-.38-.15-.1-.1-.14-.28-.14-.5v-1.06h-.3v-.27h.3v-.46l.34-.09Z"/>
      <path class="cls-2" d="m33.72.25v.56h.5v.27h-.5v1.04c0,.24.07.38.26.38.09,0,.16-.01.2-.02l.02.26c-.07.03-.18.05-.31.05-.16,0-.3-.05-.38-.15-.1-.1-.14-.28-.14-.5v-1.06h-.3v-.27h.3v-.46l.34-.09Z"/>
      <path class="cls-2" d="m36.35,1.75c0,.72-.5,1.03-.96,1.03-.52,0-.93-.38-.93-1,0-.65.42-1.03.96-1.03s.93.4.93,1Zm-1.54.02c0,.42.24.74.59.74s.59-.32.59-.75c0-.33-.16-.74-.58-.74s-.6.38-.6.75Z"/>
      <path class="cls-2" d="m36.79,1.33c0-.2,0-.36-.02-.52h.31l.02.31h.01c.11-.18.29-.36.61-.36.26,0,.46.16.55.39h0c.06-.11.14-.19.22-.25.12-.09.24-.14.43-.14.26,0,.64.17.64.84v1.14h-.34v-1.1c0-.37-.14-.6-.42-.6-.2,0-.36.15-.42.32-.02.05-.03.11-.03.18v1.2h-.34v-1.16c0-.31-.14-.53-.4-.53-.22,0-.38.18-.44.35-.02.05-.03.11-.03.17v1.17h-.34v-1.41Z"/>
      <path class="cls-2" d="m40.99.08c.18-.04.43-.06.67-.06.37,0,.61.07.78.22.14.12.21.3.21.51,0,.36-.22.59-.51.69h0c.21.08.33.28.4.56.09.38.15.64.21.74h-.36c-.04-.08-.1-.31-.18-.64-.08-.37-.22-.51-.54-.52h-.33v1.17h-.35V.08Zm.35,1.23h.36c.37,0,.61-.2.61-.51,0-.35-.25-.5-.62-.5-.17,0-.29.02-.34.03v.98Z"/>
      <path class="cls-2" d="m44.89,1.75c0,.72-.5,1.03-.96,1.03-.52,0-.93-.38-.93-1,0-.65.42-1.03.96-1.03s.93.4.93,1Zm-1.54.02c0,.42.24.74.59.74s.59-.32.59-.75c0-.33-.16-.74-.58-.74s-.6.38-.6.75Z"/>
      <path class="cls-2" d="m45.45.8l.26.98c.06.22.11.42.14.62h.01c.04-.2.11-.4.17-.61l.32-.99h.3l.3.97c.07.23.13.44.17.63h.01c.03-.2.08-.4.15-.63l.28-.97h.35l-.62,1.94h-.32l-.3-.92c-.07-.22-.12-.41-.17-.64h0c-.05.23-.11.43-.18.64l-.31.92h-.32l-.58-1.94h.36Z"/>
      <path class="cls-2" d="m51.42,1.36c0,.93-.56,1.42-1.25,1.42s-1.21-.55-1.21-1.37c0-.86.53-1.42,1.25-1.42s1.21.56,1.21,1.36Zm-2.09.04c0,.58.31,1.09.86,1.09s.86-.51.86-1.12c0-.54-.28-1.1-.86-1.1s-.86.53-.86,1.12Z"/>
      <path class="cls-2" d="m51.86,1.44c0-.25,0-.45-.02-.63h.32l.02.33h0c.14-.24.37-.38.69-.38.47,0,.82.4.82.98,0,.7-.42,1.04-.88,1.04-.26,0-.48-.11-.6-.3h0v1.05h-.35V1.44Zm.35.52c0,.05,0,.1.02.14.06.24.28.41.53.41.37,0,.59-.3.59-.75,0-.39-.2-.72-.58-.72-.24,0-.46.17-.53.44-.01.04-.02.1-.02.14v.33Z"/>
      <path class="cls-2" d="m54.56.25v.56h.5v.27h-.5v1.04c0,.24.07.38.26.38.09,0,.16-.01.2-.02l.02.26c-.07.03-.18.05-.31.05-.16,0-.3-.05-.38-.15-.1-.1-.14-.28-.14-.5v-1.06h-.3v-.27h.3v-.46l.34-.09Z"/>
      <path class="cls-2" d="m55.85.26c0,.12-.08.22-.22.22-.12,0-.21-.1-.21-.22s.09-.22.22-.22.22.1.22.22Zm-.39,2.48V.8h.35v1.94h-.35Z"/>
      <path class="cls-2" d="m58.15,1.75c0,.72-.5,1.03-.96,1.03-.52,0-.93-.38-.93-1,0-.65.42-1.03.96-1.03s.93.4.93,1Zm-1.54.02c0,.42.24.74.59.74s.59-.32.59-.75c0-.33-.16-.74-.58-.74s-.6.38-.6.75Z"/>
      <path class="cls-2" d="m58.59,1.33c0-.2,0-.36-.02-.52h.31l.02.32h0c.1-.18.32-.36.64-.36.27,0,.68.16.68.82v1.16h-.35v-1.12c0-.31-.12-.57-.45-.57-.23,0-.41.16-.47.36-.02.04-.02.1-.02.16v1.16h-.35v-1.41Z"/>
      <path class="cls-2" d="m60.76,2.38c.1.07.29.14.46.14.26,0,.38-.13.38-.29s-.1-.26-.36-.36c-.35-.12-.51-.32-.51-.55,0-.31.25-.57.67-.57.2,0,.37.06.48.12l-.09.26c-.08-.05-.22-.11-.4-.11-.21,0-.32.12-.32.26,0,.16.12.23.37.33.34.13.51.3.51.58,0,.34-.26.58-.72.58-.21,0-.41-.05-.54-.13l.09-.27Z"/>
    </g>
  </g>
</svg>