<?xml version="1.0" encoding="UTF-8"?>
<svg id="Layer_2" data-name="Layer 2" xmlns="http://www.w3.org/2000/svg" viewBox="0 0 84.72 35.67">
  <defs>
    <style>
      .cls-1 {
        fill: none;
        stroke: #231f20;
        stroke-linecap: round;
        stroke-linejoin: round;
        stroke-width: .25px;
      }

      .cls-2 {
        stroke-width: 0px;
      }
    </style>
  </defs>
  <g id="Layer_1-2" data-name="Layer 1">
    <rect class="cls-1" x="70.13" y="5.54" width="10" height="10" rx="1" ry="1" transform="translate(150.25 21.09) rotate(-180)"/>
    <rect class="cls-1" x="70.13" y="15.54" width="10" height="10" rx="1" ry="1" transform="translate(150.25 41.09) rotate(-180)"/>
    <rect class="cls-1" x="70.13" y="25.54" width="10" height="10" rx="1" ry="1" transform="translate(150.25 61.09) rotate(-180)"/>
    <rect class="cls-1" x="60.13" y="15.54" width="10" height="10" rx="1" ry="1" transform="translate(130.25 41.09) rotate(-180)"/>
    <rect class="cls-1" x=".13" y="5.54" width="10" height="10" rx="1" ry="1"/>
    <rect class="cls-1" x=".13" y="15.54" width="10" height="10" rx="1" ry="1"/>
    <rect class="cls-1" x=".12" y="25.54" width="10" height="10" rx="1" ry="1"/>
    <rect class="cls-1" x="10.13" y="15.54" width="10" height="10" rx="1" ry="1"/>
    <rect class="cls-1" x="57.63" y="5.54" width="12.5" height="10" rx="1" ry="1" transform="translate(127.75 21.09) rotate(-180)"/>
    <g>
      <path class="cls-2" d="m66.01,11.72h-.34v-2.6h.3l.57.3-.07.27-.45-.24h0v2.27Z"/>
      <path class="cls-2" d="m63.06,11.72v-.29h1.17s0,0,0,0l-.21-.19c-.55-.53-.9-.92-.9-1.4,0-.37.24-.76.8-.76.3,0,.56.11.74.26l-.11.25c-.12-.1-.32-.22-.55-.22-.39,0-.52.24-.52.51,0,.39.3.73.97,1.36l.28.27v.22h-1.66Z"/>
      <path class="cls-2" d="m61.12,9.12h1.24l.17,1.25c-.1-.01-.21-.03-.36-.03-.52,0-.74.24-.75.58,0,.35.28.56.62.56.24,0,.45-.08.56-.14l.09.27c-.12.08-.36.16-.65.16-.56,0-.97-.38-.97-.89,0-.33.17-.55.37-.67.16-.1.36-.14.56-.14.1,0,.15,0,.21.02l-.1-.67h-.99v-.3Z"/>
    </g>
    <rect class="cls-1" x="40.13" y="5.54" width="17.5" height="10" rx="1" ry="1" transform="translate(97.75 21.09) rotate(-180)"/>
    <g>
      <path class="cls-2" d="m51.01,11.72h-.34v-2.6h.3l.57.3-.07.27-.45-.24h0s0,2.27,0,2.27Z"/>
      <path class="cls-2" d="m49.67,9.12v.29h-1.27s0,0,0,0l1.13,2.3h-.36s-1.13-2.37-1.13-2.37v-.23h1.64Z"/>
      <path class="cls-2" d="m46.12,9.12h1.24l.17,1.25c-.1-.01-.21-.03-.36-.03-.52,0-.74.24-.75.58,0,.35.28.56.62.56.24,0,.45-.08.56-.14l.09.27c-.12.08-.36.16-.65.16-.56,0-.97-.38-.97-.89,0-.33.17-.55.37-.67.16-.1.36-.14.56-.14.1,0,.15,0,.21.02l-.1-.67h-.99v-.3Z"/>
    </g>
    <rect class="cls-1" x="40.13" y="15.54" width="20" height="10" rx="1" ry="1" transform="translate(100.25 41.09) rotate(-180)"/>
    <g>
      <path class="cls-2" d="m51.36,21.72v-.29h1.17s0,0,0,0l-.21-.19c-.55-.53-.9-.92-.9-1.4,0-.37.24-.76.8-.76.3,0,.56.11.74.26l-.11.25c-.12-.1-.32-.22-.55-.22-.39,0-.52.24-.52.51,0,.39.3.73.97,1.36l.28.27v.22h-1.66Z"/>
      <path class="cls-2" d="m50.1,19.08c.53,0,.9.48.9,1.35,0,.86-.35,1.34-.86,1.34-.58,0-.9-.49-.9-1.37s.31-1.32.86-1.32Zm.02.27c-.36,0-.53.42-.53,1.06s.17,1.08.53,1.08c.32,0,.53-.38.53-1.06,0-.71-.22-1.08-.53-1.08Z"/>
      <path class="cls-2" d="m48.05,19.08c.53,0,.9.48.9,1.35,0,.86-.35,1.34-.86,1.34-.58,0-.9-.49-.9-1.37s.31-1.32.86-1.32Zm.02.27c-.36,0-.53.42-.53,1.06s.17,1.08.53,1.08c.32,0,.53-.38.53-1.06,0-.71-.22-1.08-.53-1.08Z"/>
    </g>
    <rect class="cls-1" x="10.12" y="25.54" width="30" height="10" rx="1" ry="1"/>
    <g>
      <path class="cls-2" d="m28.04,31.59c-.13.08-.38.18-.68.18-.62,0-.95-.36-.95-.78,0-.36.26-.6.58-.67h0c-.32-.12-.48-.35-.48-.62,0-.32.23-.62.74-.62.28,0,.54.1.68.2l-.09.26c-.11-.08-.31-.17-.52-.17-.32,0-.46.18-.46.39,0,.31.32.44.58.44h.2v.26h-.2c-.34,0-.67.16-.67.52,0,.22.14.5.59.5.24,0,.48-.1.58-.16l.1.27Z"/>
      <path class="cls-2" d="m25.1,29.08c.53,0,.9.48.9,1.35,0,.86-.35,1.34-.86,1.34-.58,0-.9-.49-.9-1.37s.31-1.32.86-1.32Zm.02.27c-.36,0-.53.42-.53,1.06,0,.66.17,1.08.53,1.08.32,0,.53-.38.53-1.06s-.22-1.08-.53-1.08Z"/>
      <path class="cls-2" d="m23.05,29.08c.53,0,.9.48.9,1.35,0,.86-.35,1.34-.86,1.34-.58,0-.9-.49-.9-1.37s.31-1.32.86-1.32Zm.02.27c-.36,0-.53.42-.53,1.06,0,.66.17,1.08.53,1.08.32,0,.53-.38.53-1.06s-.22-1.08-.53-1.08Z"/>
    </g>
    <rect class="cls-1" x="40.13" y="25.54" width="30" height="10" rx="1" ry="1"/>
    <g>
      <path class="cls-2" d="m58.04,31.59c-.13.08-.38.18-.68.18-.62,0-.95-.36-.95-.78,0-.36.26-.6.58-.67h0c-.32-.12-.48-.35-.48-.62,0-.32.23-.62.74-.62.28,0,.54.1.68.2l-.09.26c-.11-.08-.31-.17-.52-.17-.32,0-.46.18-.46.39,0,.31.32.44.58.44h.2v.26h-.2c-.34,0-.67.16-.67.52,0,.22.14.5.59.5.24,0,.48-.1.58-.16l.1.27Z"/>
      <path class="cls-2" d="m55.1,29.08c.53,0,.9.48.9,1.35,0,.86-.35,1.34-.86,1.34-.58,0-.9-.49-.9-1.37s.31-1.32.86-1.32Zm.02.27c-.36,0-.53.42-.53,1.06,0,.66.17,1.08.53,1.08.32,0,.53-.38.53-1.06s-.22-1.08-.53-1.08Z"/>
      <path class="cls-2" d="m53.05,29.08c.53,0,.9.48.9,1.35,0,.86-.35,1.34-.86,1.34-.58,0-.9-.49-.9-1.37s.31-1.32.86-1.32Zm.02.27c-.36,0-.53.42-.53,1.06,0,.66.17,1.08.53,1.08.32,0,.53-.38.53-1.06s-.22-1.08-.53-1.08Z"/>
    </g>
    <rect class="cls-1" x="20.13" y="15.54" width="20" height="10" rx="1" ry="1" transform="translate(60.25 41.09) rotate(-180)"/>
    <g>
      <path class="cls-2" d="m31.36,21.72v-.29h1.17s0,0,0,0l-.21-.19c-.55-.53-.9-.92-.9-1.4,0-.37.24-.76.8-.76.3,0,.56.11.74.26l-.11.25c-.12-.1-.32-.22-.55-.22-.39,0-.52.24-.52.51,0,.39.3.73.97,1.36l.28.27v.22h-1.66Z"/>
      <path class="cls-2" d="m30.1,19.08c.53,0,.9.48.9,1.35,0,.86-.35,1.34-.86,1.34-.58,0-.9-.49-.9-1.37s.31-1.32.86-1.32Zm.02.27c-.36,0-.53.42-.53,1.06s.17,1.08.53,1.08c.32,0,.53-.38.53-1.06,0-.71-.22-1.08-.53-1.08Z"/>
      <path class="cls-2" d="m28.05,19.08c.53,0,.9.48.9,1.35,0,.86-.35,1.34-.86,1.34-.58,0-.9-.49-.9-1.37s.31-1.32.86-1.32Zm.02.27c-.36,0-.53.42-.53,1.06s.17,1.08.53,1.08c.32,0,.53-.38.53-1.06,0-.71-.22-1.08-.53-1.08Z"/>
    </g>
    <rect class="cls-1" x="22.63" y="5.54" width="17.5" height="10" rx="1" ry="1" transform="translate(62.75 21.09) rotate(-180)"/>
    <g>
      <path class="cls-2" d="m33.51,11.72h-.34v-2.6h.3l.57.3-.07.27-.45-.24h0v2.27Z"/>
      <path class="cls-2" d="m32.17,9.12v.29h-1.27s0,0,0,0l1.13,2.3h-.36s-1.13-2.37-1.13-2.37v-.23h1.64Z"/>
      <path class="cls-2" d="m28.62,9.12h1.24l.17,1.25c-.1-.01-.21-.03-.36-.03-.52,0-.74.24-.75.58,0,.35.28.56.62.56.24,0,.45-.08.56-.14l.09.27c-.12.08-.36.16-.65.16-.56,0-.97-.38-.97-.89,0-.33.17-.55.37-.67.16-.1.36-.14.56-.14.1,0,.15,0,.21.02l-.1-.67h-.99v-.3Z"/>
    </g>
    <rect class="cls-1" x="10.13" y="5.54" width="12.5" height="10" rx="1" ry="1" transform="translate(32.75 21.09) rotate(-180)"/>
    <g>
      <path class="cls-2" d="m18.51,11.72h-.34v-2.6h.3l.57.3-.07.27-.45-.24h0s0,2.27,0,2.27Z"/>
      <path class="cls-2" d="m15.56,11.72v-.29h1.17s0,0,0,0l-.21-.19c-.55-.53-.9-.92-.9-1.4,0-.37.24-.76.8-.76.3,0,.56.11.74.26l-.11.25c-.12-.1-.32-.22-.55-.22-.39,0-.52.24-.52.51,0,.39.3.73.97,1.36l.28.27v.22h-1.66Z"/>
      <path class="cls-2" d="m13.62,9.12h1.24l.17,1.25c-.1-.01-.21-.03-.36-.03-.52,0-.74.24-.75.58,0,.35.28.56.62.56.24,0,.45-.08.56-.14l.09.27c-.12.08-.36.16-.65.16-.56,0-.97-.38-.97-.89,0-.33.17-.55.37-.67.16-.1.36-.14.56-.14.1,0,.15,0,.21.02l-.1-.67h-.99v-.3Z"/>
    </g>
    <path class="cls-2" d="m83.94,11.72h-.34v-2.6h.3l.57.3-.07.27-.45-.24h0s0,2.27,0,2.27Z"/>
    <path class="cls-2" d="m83.05,21.72v-.29h1.17s0,0,0,0l-.21-.19c-.55-.53-.9-.92-.9-1.4,0-.37.24-.76.8-.76.3,0,.56.11.74.26l-.11.25c-.12-.1-.32-.22-.55-.22-.39,0-.52.24-.52.51,0,.39.3.73.97,1.36l.28.27v.22h-1.66Z"/>
    <path class="cls-2" d="m84.72,31.59c-.13.08-.38.18-.68.18-.62,0-.95-.36-.95-.78,0-.36.26-.6.58-.67h0c-.32-.12-.48-.35-.48-.62,0-.32.23-.62.74-.62.28,0,.54.1.68.2l-.09.26c-.11-.08-.31-.17-.52-.17-.32,0-.46.18-.46.39,0,.31.32.44.58.44h.2v.26h-.2c-.34,0-.67.16-.67.52,0,.22.14.5.59.5.24,0,.48-.1.58-.16l.1.27Z"/>
    <g>
      <path class="cls-2" d="m57.22,2.73c-.12.02-.3.03-.54.03-.44,0-.74-.08-.93-.25-.14-.13-.23-.31-.23-.54,0-.4.3-.61.56-.68h0c-.28-.11-.46-.34-.46-.6,0-.21.08-.37.22-.48.17-.14.39-.2.74-.2.24,0,.48.02.64.06v2.65Zm-.35-2.42c-.06-.01-.15-.02-.31-.02-.35,0-.59.12-.59.44,0,.26.22.45.58.45h.32s0-.87,0-.87Zm0,1.13h-.29c-.38,0-.7.15-.7.52,0,.39.33.52.69.52.12,0,.22,0,.29-.02v-1.03Z"/>
      <path class="cls-2" d="m54.23.76c.54,0,.96.38.96,1.03s-.4,1-.93,1c-.47,0-.96-.31-.96-1.03,0-.59.38-1,.93-1Zm0,.26c-.42,0-.58.42-.58.74,0,.44.25.75.59.75s.59-.32.59-.74c0-.37-.18-.75-.6-.75Z"/>
      <path class="cls-2" d="m52.78.34v.46s.3,0,.3,0v.27h-.3s0,1.06,0,1.06c0,.23-.04.4-.14.5-.08.1-.22.15-.38.15-.14,0-.24-.02-.31-.05l.02-.26s.11.02.2.02c.2,0,.26-.14.26-.38v-1.04s-.5,0-.5,0v-.27h.5s0-.56,0-.56l.34.09Z"/>
      <path class="cls-2" d="m51.45.34v.46s.3,0,.3,0v.27h-.3s0,1.06,0,1.06c0,.23-.04.4-.14.5-.08.1-.22.15-.38.15-.14,0-.24-.02-.31-.05l.02-.26s.11.02.2.02c.2,0,.26-.14.26-.38v-1.04s-.5,0-.5,0v-.27h.5s0-.56,0-.56l.34.09Z"/>
      <path class="cls-2" d="m49.41.76c.54,0,.96.38.96,1.03s-.4,1-.93,1c-.47,0-.96-.31-.96-1.03,0-.59.38-1,.93-1Zm0,.26c-.42,0-.58.42-.58.74,0,.44.25.75.59.75s.59-.32.59-.74c0-.37-.18-.75-.6-.75Z"/>
      <path class="cls-2" d="m48.04,2.74h-.34v-1.17c0-.06,0-.12-.03-.17-.06-.18-.22-.35-.44-.35-.27,0-.4.22-.4.53v1.16h-.34v-1.2c0-.06-.01-.13-.03-.18-.06-.17-.22-.32-.42-.32-.28,0-.42.22-.42.6v1.1h-.34v-1.14c0-.67.38-.84.64-.84.18,0,.31.05.43.14.08.06.16.14.22.25h0c.08-.23.28-.39.55-.39.32,0,.5.17.61.36h.01l.02-.31h.31c-.01.16-.02.32-.02.52v1.41Z"/>
      <path class="cls-2" d="m43.84,2.74h-.35v-1.17s-.33,0-.33,0c-.32.01-.46.15-.54.52-.08.34-.14.57-.18.64h-.36c.06-.1.12-.36.21-.74.06-.28.19-.47.4-.54h0c-.28-.11-.51-.34-.51-.7,0-.21.08-.39.21-.51.17-.15.41-.22.78-.22.24,0,.49.02.67.06v2.66Zm-.35-2.41c-.06-.02-.18-.03-.34-.03-.37,0-.62.16-.62.5,0,.31.24.51.61.51h.36s0-.98,0-.98Z"/>
      <path class="cls-2" d="m40.86.76c.54,0,.96.38.96,1.03s-.4,1-.93,1c-.47,0-.96-.31-.96-1.03,0-.59.38-1,.93-1Zm0,.26c-.42,0-.58.42-.58.74,0,.44.25.75.59.75s.59-.32.59-.74c0-.37-.18-.75-.6-.75Z"/>
      <path class="cls-2" d="m39.74.8l-.58,1.94h-.32l-.31-.92c-.07-.21-.13-.41-.18-.64h0c-.05.23-.1.42-.17.64l-.3.92h-.32l-.62-1.94h.35l.28.97c.06.23.12.43.15.63h.01c.04-.2.1-.4.17-.63l.3-.97h.3l.32.99c.06.21.13.42.17.61h.01c.04-.2.09-.4.14-.62l.26-.98h.36Z"/>
      <path class="cls-2" d="m34.62,0c.72,0,1.25.56,1.25,1.42s-.5,1.37-1.21,1.37-1.25-.49-1.25-1.42c0-.8.48-1.36,1.21-1.36Zm.02.28c-.58,0-.86.56-.86,1.1,0,.61.31,1.12.86,1.12s.86-.52.86-1.09-.29-1.12-.86-1.12Z"/>
      <path class="cls-2" d="m32.97,3.53h-.35v-1.05s0,0,0,0c-.12.19-.34.3-.6.3-.46,0-.88-.34-.88-1.04,0-.59.35-.98.82-.98.32,0,.54.14.69.38h0l.02-.33h.32c0,.18-.02.38-.02.63v2.09Zm-.35-1.91s-.01-.1-.02-.14c-.07-.26-.29-.44-.53-.44-.37,0-.58.33-.58.72,0,.44.22.75.59.75.25,0,.46-.17.53-.41,0-.04.02-.09.02-.14v-.33Z"/>
      <path class="cls-2" d="m30.61.34v.46s.3,0,.3,0v.27h-.3s0,1.06,0,1.06c0,.23-.04.4-.14.5-.08.1-.22.15-.38.15-.14,0-.24-.02-.31-.05l.02-.26s.11.02.2.02c.2,0,.26-.14.26-.38v-1.04s-.5,0-.5,0v-.27h.5s0-.56,0-.56l.34.09Z"/>
      <path class="cls-2" d="m29.19.04c.13,0,.22.1.22.22s-.09.22-.21.22c-.14,0-.23-.1-.22-.22,0-.12.08-.22.22-.22Zm-.18,2.7V.8h.35v1.94h-.35Z"/>
      <path class="cls-2" d="m27.61.76c.54,0,.96.38.96,1.03s-.4,1-.93,1c-.47,0-.96-.31-.96-1.03,0-.59.38-1,.93-1Zm0,.26c-.42,0-.58.42-.58.74,0,.44.25.75.59.75s.59-.32.59-.74c0-.37-.18-.75-.6-.75Z"/>
      <path class="cls-2" d="m26.24,2.74h-.35v-1.16c0-.06,0-.12-.02-.16-.06-.2-.24-.36-.47-.36-.33,0-.45.26-.45.57v1.12h-.35v-1.16c0-.66.42-.82.68-.82.32,0,.54.18.64.36h0l.02-.32h.31c-.01.16-.02.32-.02.52v1.41Z"/>
      <path class="cls-2" d="m24.15,2.65c-.14.08-.33.13-.54.13-.46,0-.72-.24-.72-.58,0-.29.17-.46.51-.58.25-.1.37-.17.37-.33,0-.14-.12-.26-.32-.26-.18,0-.32.06-.4.11l-.09-.26c.11-.06.28-.12.48-.12.42,0,.67.26.67.57,0,.23-.16.42-.51.55-.26.1-.36.19-.36.36s.12.29.38.29c.18,0,.36-.07.46-.14l.09.27Z"/>
    </g>
  </g>
</svg>