<?xml version="1.0" encoding="utf-8"?>
<!-- Generator: Adobe Illustrator 27.8.1, SVG Export Plug-In . SVG Version: 6.00 Build 0)  -->
<svg version="1.1" id="_x2014_ÎÓÈ_x5F_1" xmlns="http://www.w3.org/2000/svg" xmlns:xlink="http://www.w3.org/1999/xlink"
	 x="0px" y="0px" viewBox="0 0 2300 2300" style="enable-background:new 0 0 2300 2300;" xml:space="preserve">
<g>
	<g>
		<path d="M1165.1,1265.3C1165.1,1265.3,1165.1,1265.3,1165.1,1265.3C1165.1,1265.3,1165,1265.3,1165.1,1265.3
			C1165,1265.3,1165.1,1265.3,1165.1,1265.3z"/>
	</g>
	<g>
		<path d="M1568.5,1195.5c-2.1-3-4.4-5.7-6.8-8.2c0.2-0.4,0.4-0.8,0.5-1.3c1.5-6.6,0.1-13.7-1.3-20.2c-1.6-7.5-3.8-14.8-5.4-22.3
			c-2.1-9.3-3.7-18.7-6.1-27.9c-2.6-10-5.8-19.8-9.5-29.4c-1.8-4.5-7.5-2.8-6.9,2c3.9,28,1.5,56.7,7.3,84.4c-2.7-1.2-5.5-2.2-8.3-3
			c0-1.2,0.1-2.3,0.1-3c-0.1-2.8-0.2-5.5-0.3-8.3c-0.2-5.1-0.5-10.2-1-15.3c-0.8-8.2-2.2-16.4-3.4-24.5c-2-14-4.2-31.1-14.2-41.5
			c-2.1-2.2-6.3-0.7-6.1,2.7c0.6,10.4-0.1,20.8-0.1,31.2c0.1,7.7,1.2,15.3,1.5,23c0.2,6.8,0.2,13.5,0.6,20.3c0.2,3.1,0.3,6.7,1.1,10
			c-3.9-2.5-7.3-6.5-10.6-9.6c-3.9-3.6-8-7-12.2-10.3c0.2-0.5,0.2-1,0.2-1.7c-0.7-6.7-1.5-13.4-2.5-20c9.6-35.6,10.7-73.3,3.5-109.6
			c-0.7-3.5-6.4-3.7-6.9,0c-2.3,17.6-5.3,35.1-8.8,52.5c-1.9-6.9-4-13.8-6.3-20.6c-2.3-7-4.7-14.1-8-20.7c-1.5-3-4.9-7.5-8.3-4
			c-1.3,1.4-1.3,3.5-1.2,5.4c0.7,10.9,3,21.9,4.7,32.7c3.6,22.7,7.2,45.4,11,68.1c-5.4-4.4-10.7-9.1-15.2-14.5
			c-1.3-1.6-2.6-3.2-3.7-4.9c0.1-0.2,0.1-0.5,0.1-0.7c1.9-16.9-1.8-34.3-7.4-50.1c-3.4-9.5-7.6-18.7-12.5-27.5
			c6-30.9,6.7-67.2-7.5-95.8c-1.4-2.9-5.8-2.2-6.5,0.9c-3.1,13.6-1.8,27.8-3.2,41.6c-0.9,8.6-2.6,18.8-0.6,27.7
			c-4.6-5.4-9.7-10.2-15.3-14.5c-2.4-1.8-6.4,1.3-5.2,4.3c5.7,14.4,7.9,30.1,15.7,43.5c0.7,1.2,1.4,2.4,2.1,3.6
			c0.6,13.6,1.2,27.2,1.8,40.8c-4.7-4.2-9.5-8.2-14.2-12.4c-6.2-12.8-11.3-25.9-16.2-39.2c0.3-0.4,0.5-0.9,0.6-1.5
			c6.1-34.9,11.4-77.3-9.7-107.9c-1.8-2.6-5.5-2.4-6.5,0.9c-4.3,14-2,29.2-2.1,43.6c-0.1,8-0.7,16.2-0.4,24.3
			c-0.8-1.1-1.7-2.2-2.6-3.3c-6.4-7.6-14.1-14-19.8-22.4c-2.4-3.6-7.1-1.4-6.5,2.9c3.2,22.3,10.6,43.6,21.5,62.7
			c-4.9-3.5-10-6.7-15.2-9.6c-11.9-45.7-35.3-87.7-68.9-119.2c-2.4-2.3-7.3-0.1-6,3.7c8.2,23.9,17.3,47.7,28.1,70.4
			c6.2,12.9,14.1,24.5,23.6,34.7c-6.8-2.4-13.7-4.5-20.4-7.2c-8.7-3.5-18.1-8.2-27.7-7.3c-2.4,0.2-4.9,3.2-3.1,5.7
			c8,11.2,35.8,29.4,51.3,35.8c29.4,12.3,47.8,14.8,70.6,34.3c1.6,1.3,2.9,2.5,3.7,3.3c7.3,6,13.2,11.2,17.2,15
			c1.5,1.4,5.9,4.3,19.4,18.8c4.1,4.4,8.3,8.8,12.8,12.7c-9.5-3.3-18.8-7.1-27.3-12.6c-15.6-10-30.1-24.5-48.6-28.1
			c-3.6-0.7-5.7,3.3-3.5,6.3c17.3,22.7,35.9,45.7,63,55c17.8,6.1,36.2,11.1,54.6,14.9c4,0.8,8.1,1.7,12.2,2c1.3,0.1,2.9,0.2,4.2-0.1
			c1.2,1,2.3,2.1,3.5,3.2c2.5,2.4,5,5,7.7,7.3c-5.4,0.8-10.8,2.2-15.9,4.3c-5.5,2.2-10.6,5.3-15.3,8.9
			c-34.7-16.5-71.2-28.4-108.7-35.3c0.1-1,0.1-2.1,0.2-3.1c0.6-12.3,1.1-24.7-1.5-36.8c-1.3-6-3.4-11.8-6.2-17.2
			c-17.6-32.8-58.1-44-91.4-37.6c-24.9,4.8-49.3,19.1-63.1,41.5c-1.2-8.5-3.4-16.9-6.4-24.8c3-13.3,6.1-36.6-2.4-60.6
			c-3.8-10.8-9.4-20.5-12.3-24.9c-5.9-8.7-13.1-16.3-19.5-24.5c-7-9.1-14.5-18.7-24.7-23.7c-3-1.4-7,1.7-4.9,5.2
			c17.5,28,30.5,58.9,38.5,91.3c-5.8-5.1-12.2-9.4-19.4-12.6c-1.5-0.7-3.1-1.3-4.6-1.9c-4.9-15.7-10.4-28.4-15.1-38
			c-4.7-9.7-8.7-16.5-14.2-25.5c-4.8-8.1-9.9-16-15.8-23.2c-5.2-6.4-11.3-12.7-19.1-15.5c-2.4-0.9-5.4,2-4.4,4.7
			c3.9,10.2,9.4,19.3,14.8,28.6c-3.9-3.8-8-7.4-12.2-10.8c-10.2-8.3-21-15.4-31.6-23.1c-9.1-6.7-18-15.8-29.2-18.1
			c-2.1-0.4-4.7,1-4.5,3.6c0.9,10,6.6,18.4,12.8,25.6c6.6,7.7,14.1,14.2,21.3,21.3c7.1,7,14.5,13.5,21.9,20.1
			c7,6.4,14.5,13.2,19.2,21.8c-26.6-17.1-55.4-30.2-83-45.6c-2.8-1.6-5.9,1-5.2,4.3c3.4,16.5,15,29.2,27.5,38.8
			c13.9,10.6,30,18,46.3,23.6c6,2.1,12.2,3.8,18.4,5.2c-11.6,3-22.7,8.3-31.9,15.8c-21.2,17.1-33.8,45.1-35.1,73.4
			c-12.3-7.2-26.7-9.3-39.6-14.9c-12.3-5.3-26.3-13.8-40.1-10.3c-2.4,0.6-3.7,4.5-1.6,6.3c13.9,12,29.7,21,45.8,29.1
			c6.4,3.2,12.9,6.2,19.4,9.2c0.8,0.4,2.5,1.3,4.9,2.3c4.7,2,8.7,3.3,11.3,4c4.8,10,9.5,19.9,14.3,29.9c-2.8,0-5.5,0-8.3,0
			c-24.5-11.8-43-23.1-55.6-31.5c-0.6-0.4-18.1-13-43.5-21.9c-8-2.8-17.3-5.3-25.6-2.8c-2.6,0.8-3.5,4.3-1.6,6.3
			c14.7,15.8,33.3,26.6,52,36.1c10.6,5.4,21.2,10.7,31.8,16.1c-10.5,2.1-21.3,2.4-32,2.6c-6.1,0.1-12.2,0.2-18.2,0.6
			c-1.9,0.1-3.8,0.3-5.7,0.4c-34.9-19.6-73.4-34-112.4-40.8c-5.2-0.9-11.3-2.4-16.5-1.3c-3.7,0.8-5.8,4.6-3.1,8
			c3.6,4.5,10.6,7.1,15.3,9.5c6.7,3.5,13.6,6.7,20.5,9.8c4.7,2.1,9.4,4,14.1,5.9c-23,0.2-45.9,2-68.7,5.2c-3.2,0.5-3.2,5.4-0.9,6.9
			c24.9,15.9,54.3,22.8,83.2,19c7.5,1.7,15.1,3,22.7,3.9c-6.9,2.3-13.8,4.7-20.7,7c-12,4-24.1,8-35.4,13.9
			c-6.8,3.6-15.1,8.6-17.5,16.8c-0.6,2.2,1.1,5,3.4,4.8c43.5-3.4,86.1-14.7,126-33.4c10-4.7,19.8-9.9,29.4-15.4
			c4.3-0.9,8.6-1.9,12.6-3.5c5.2-2,10.1-4.8,15-7.4c8.9-4.7,16.7-6,18.5-6.4c5.3-1.1,13.4-2.2,23.6-1c3.8,5,23.2,28.9,57.3,33.1
			c24.6,3,43.5-5.8,50.6-9.6c13.2,11.8,25.3,24.6,36.8,38.2c10,11.8,20.9,22.3,33.2,31.1c-10.4,0.5-20.6,2.8-30.7,5.2
			c-5.5,1.3-11,2.4-16.6,3.4c-0.3-1.5-0.8-3-1.3-4.4c-3.4-9.4-9.8-18.6-16.1-26.1c-11.5-13.8-29.1-19.5-45.2-24.4
			c-20.2-6.1-40.6-11.4-61.1-16.3c-8.2-1.9-16.4-3.9-24.7-5.2c-3.4-0.6-10.6-2.7-13.2,1c-3.3,4.7,3.6,8.3,6.6,10
			c7.1,4,14.5,7.2,21.9,10.4c17.7,7.6,35.7,14,54.2,18.9c8.1,2.1,16.1,5,23.7,8.6c5.7,2.7,11.4,6.1,16.8,10
			c-12.7-1.1-29.4-0.8-47.8,4.5c-4.9,1.4-9.4,3-13.5,4.8c-5.6-2.4-13.6-5.4-23.5-7.9c-6.7-1.7-13.2-2.8-60.1-2.4
			c-6.8,0.1-17.5,0.3-25.5,7.5c-0.5,0.5-0.9,0.9-1.2,1.2c-16.9-3.3-34.1-1.5-51.3,0.2c-2.4,0.2-4.9,3.2-3.1,5.7
			c9.9,14,26.9,19,42.4,21.9c9.6,1.8,19.2,3.3,28.8,5.3c10.3,2.2,20.6,4.9,30.9,6.7c8.2,1.4,16.6,2.1,24.6,4.9
			c2,0.7,4.7,1.7,7.2,3.2c-16.1,16.2-41.6,14.2-62,18.1c-10,1.9-19.9,5.3-29.6,8.6c-10.7,3.6-21.4,7.9-31.3,13.6
			c-10.3,6-19.9,13.8-26.1,24.5c-1.3,2.2,0,4.8,2.1,5.6c7.7,2.7,17-1.9,24-5c10.1-4.5,20.2-8.8,30.4-13.2c1.5-0.6,3-1.2,4.5-1.8
			c-25.1,22.1-48.9,45.7-71.5,70.6c-1.9,2.1-1,5.5,1.6,6.3c5.5,1.8,11.9-2.1,16.4-4.8c7.1-4.2,13.7-9.3,20.3-14.3
			c6.2-4.7,12.6-8.7,18.9-13.1c7.3-5.2,14.2-11,21.2-16.7c-8.8,14.8-16.4,30.5-26.2,44.6c-7.1,10.1-14.9,19.8-19.3,31.6
			c-1.1,3,2.8,6.1,5.2,4.3c23.8-18,44.7-39.9,62.1-64.7c5.3,0.2,10.5-0.2,15.6-1.2c-6.9,19.1-21.9,33.9-28.9,53.2
			c-1.3,3.5,2.7,5.4,5.2,4.3c30.4-14.1,52.7-43,60.7-77.1c12.2-11.4,21.5-26.7,25.7-43.3c2.3-9,3-18.2,2.2-27.4
			c11.4-4.6,22.7-7.7,33.9-9.7c0.1,0,0.1,0,0.2,0c0.1,0.1,0.1,0.2,0.2,0.4c1.4,5.1-1.3,10-3.7,14.3c-2.6,4.6-5.3,9.2-7.7,13.9
			c-3.5,6.7-6.6,13.6-9.1,20.8c-1.8,5-3.3,10.1-5.3,15.1c-2.9,7.1-6.6,13.8-10.6,20.2c-9.1,14.6-19.9,27.3-30.6,40.5
			c-2,2.5-5.1,6.3-2.2,9.4c3.3,3.4,9.1-0.8,12.1-2.7c23.7-15.1,44.2-39.7,56.2-66.1c8-17.7,12.8-37.6,12.3-57.3
			c-0.1-3.7-0.6-7.3-1.5-10.7c0.4-0.1,0.7-0.2,1.1-0.3c15.8-7.6,31.6-15.2,48.8-18.2c-0.6,2.3-1.4,4.6-2.5,6.9
			c-3.2,6.5-7.8,12.3-12.2,18c-4.4,5.7-9.1,11.2-13.9,16.6c-3.2,3.6-6.3,6.9-10,9.8c-3.4,2.7-7.1,5.3-9.8,8.7
			c-2.3,2.9-3.4,7.2-0.9,10.4c2.6,3.3,7.1,2.5,10.5,1.5c10.3-3.3,20-10.2,28.2-17.4c9.6-8.5,17.7-19.3,22.6-31.6
			c3.1-7.9,5-16.8,4.6-25.5c6.7-1.1,12.2-2.3,16.1-3.3c0,0,31.4-8,33.8-5.4c0.1,0.1,0.2,0.2,0.2,0.2c0.1,0.1,0.1,0.1,0.1,0.1
			c0.3,0.3,0.5,2.4-3.1,6.7c-6.5,7.6-38.8,37.1-45.9,44.4c-7.3,7.5-13.8,15.9-21.8,22.6c-7.6,6.4-15.9,11.8-22.2,19.8
			c-2.2,2.8-0.2,7.4,3.5,6.3c20.5-6,39.7-16.1,56.6-29.7c-6.3,8.6-13.5,16.4-20.5,24.4c-10.5,12-20.7,24.6-26.4,40
			c-0.8,2.1,1.3,5,3.4,4.8c14.6-1.7,27.3-14.9,37.1-25.5c12.9-13.8,23.5-29.4,32.8-46c5.3-9.6,10.8-19.3,15.3-29.3
			c4.3-9.4,7.7-19.8,6.5-30.4c-0.6-5-2.4-9.5-4.4-13.9c15.8-5.3,31.5-10.6,47.3-15.9c-33.6,45.2-50,75.6-58.4,93.5
			c-3.5,7.5-7.9,17.6-4.9,20c4.1,3.3,19.9-9.6,32.8-21.1c-3.5,30.5,6,62.2,28.3,83.5c28.5,27.2,73.1,32.8,105.5,9.9
			c24.6-17.3,41.3-49.2,43.6-80.3c2.6-34.7-15.2-67.5-42.9-84.7c17.6-13,39-19.5,55.6-33.8c-1.2,8.6-0.9,17.4,1,26.1
			c6.4,29.4,31.2,51.9,58.1,59.3c12.3,3.4,25.9,3.9,37.9-1.2c13.8-5.9,23.4-18.4,29.8-32.2
			C1581.4,1256.6,1586.2,1221.6,1568.5,1195.5z M1455.9,1023.8C1455.9,1023.6,1455.9,1023.7,1455.9,1023.8L1455.9,1023.8z
			 M1366,931.5c12.9,25.2,10.3,56.9,5.9,84.8c-0.5-1.3-1-2.7-1.5-4c-0.7-1.8-1.3-3.5-2-5.3c-1.2-13.5-2.1-27.8-2.4-42.8
			C1365.7,952.9,1365.8,942,1366,931.5z M1294.8,969c-8.1-17.1-15.2-34.6-21.6-52.5c24.6,26.7,42.5,59.5,53.2,95.1
			C1313.2,999.9,1302.6,985.4,1294.8,969z M1272.7,1002.2c6.1,1.3,12.1,4.2,17.8,6.5c9.9,4,20.2,6.5,30,10.9
			c3.3,1.5,6.7,3.1,9.9,4.9c0.2,0.2,0.5,0.4,0.7,0.5c0.4,0.3,0.9,0.5,1.3,0.6c11.6,6.5,22.7,14.5,32.2,23.8
			C1335,1031.7,1296.5,1029,1272.7,1002.2z M1376.3,1052.1c-0.1-0.8-0.4-1.5-1-2.2c-1.7-1.8-3.4-3.6-5.2-5.4
			c-6.9-9-12.9-18.8-17.9-28.9c-5.9-11.9-10.2-24.6-13.1-37.6c3.4,3.7,6.9,7.2,10.2,11c7.2,8.1,11.5,17.7,15.1,28
			c4.6,12.9,9.2,25.7,14.4,38.2C1378,1054.1,1377.2,1053.1,1376.3,1052.1z M1455,1028.6c1.5-0.3,10.1,34.7,13,46.9
			c4.4,18.8,7.6,34.8,9.7,46.7c0,0.4,0.1,0.8,0.2,1.1c0.7,5,1.4,10,2,15c-2.7-2.1-5.5-4.2-8.3-6.4
			C1456.2,1048,1453.9,1028.8,1455,1028.6z M1414.5,991c0.8-5.5,0.8-11,1.4-16.5c0.9-8.4,0.6-17.1,1.1-25.6
			c3.3,10.5,4.8,21.8,5.3,32.8c0.5,12.6-0.2,25.3-2.1,37.8c-0.6-0.9-1.5-2.3-2.7-4c-1.5-2.2-2.6-3.6-2.8-3.9
			C1411.6,1007.2,1413.5,997.7,1414.5,991z M1402.2,1015.6c-1.2-4-2.3-8-3.5-12c11.5,11.7,20.6,26.6,27.4,41.6
			c7.2,15.7,12.7,33.4,12.9,51.1c-3.2-6.2-5.7-12.8-7.7-19.5c-2-6.5-3.9-13.1-6.7-19.2c-3.2-6.7-7.7-12.8-11.6-19
			C1408.4,1031.2,1404.7,1023.9,1402.2,1015.6z M1429.7,1102.6c-3.3-3.5-7.5-7.7-8.1-8.3c-2.7-2.7-5.5-5.3-8.4-7.9
			c-0.1-11.5-0.2-22.9-0.3-34.4c1.1,1.8,2.3,3.6,3.3,5.5c5.1,8.7,6.6,16.1,7.7,20.2c2.4,8.5,6,14.2,12.2,24
			c4.9,7.8,13.3,19.1,27.5,30.3c-10.5-3.4-16.7-8.4-20.5-12.5C1438.8,1114.7,1437.7,1111.2,1429.7,1102.6z M1475.5,1147.7
			c-9.2-2-18.4-4.4-27.5-6.9c-8.2-2.3-16.4-4.6-24.5-7.3c-10.1-3.3-19.4-8.7-27.7-15.7c-9.7-8.1-18-17.8-25.8-27.9
			c13.5,6.1,25.2,17.2,37.7,24.9c6.7,4.1,10.8,4.7,58.5,23.5c0.9,0.4,3,1.2,5.4,2.8c1.2,0.8,2,1.6,2.7,2.1c2.4,1.9,4.8,3.7,7.1,5.6
			C1479.4,1148.5,1477.4,1148.1,1475.5,1147.7z M1476.7,1080.8c1.3-5.1,2.9-12.4,4.4-21.2c3.7-22.4,3.1-37.3,3.8-37.3
			c0.8,0,2.6,22.1,0.8,49c-0.9,13.8-2.6,25.1-3.9,32.8C1480.3,1096.3,1478.6,1088.5,1476.7,1080.8z M1025.9,1121
			c-11.3-4.5-23.7-10-36.7-17c-11.8-6.3-22.4-12.9-31.7-19.2c2.9,0.8,5.8,1.7,8.7,2.6c21.3,6.5,41.1,14.2,59.5,22.5
			c0.1,1.6,0.2,3.2,0.2,4.9C1026,1117,1026,1119.1,1025.9,1121z M849.6,1146.9c-12-4.9-24.2-10.1-35.6-16.7c2.2,0.3,4.4,0.8,6.4,1.1
			c18.1,3.3,36.1,8.5,53.5,14.6c14.9,5.2,29.4,11.4,43.5,18.6c-4.6-0.2-9.3-0.3-13.9,0C885.3,1159.8,867.2,1154,849.6,1146.9z
			 M863.9,1179.3c-23.7,2.9-47.6-1.5-68.9-12.5c26-3.1,52.1-4.2,78.2-3.3c4.5,1.5,9.1,2.9,13.7,4.2
			C878.7,1170.3,871,1174.4,863.9,1179.3z M849.2,1221.7c-8.2,1.4-16.5,2.5-24.8,3.3c3.2-3.1,7.8-5.4,11.1-7.1
			c7.2-3.8,14.9-6.6,22.6-9.3c7-2.4,13.9-4.7,20.9-7.1c9.3-3.1,18.6-6.3,27.9-9.5c7.9,0.2,15.9,0,23.9-0.7
			c5.9-0.5,11.8-1.3,17.7-2.2C917,1204.7,883.5,1215.8,849.2,1221.7z M990.7,1170.2c-5.3,2.7-10.5,4.6-16.2,5.9
			c-14.7,3.5-30.1,5.9-30.8,6c-9.7,1.2-22.6,2.3-38,2.3c-24.2-0.2-30.4-1.7-30.6-3.4c-0.2-2.4,11.8-6.3,20.4-8
			c2.9-0.6,5.5-0.9,7.4-1.1c0.1,0,0.2,0,0.2,0.1c0.9,0.2,1.7,0.1,2.3-0.2c7.3-0.3,14.5,0.5,21.8,0.6c5.3,0.1,10.5-0.7,15.8-1
			c6.1-0.3,12.2-0.3,18.3-0.5c11.9-0.3,23.9-1,35.5-4C994.8,1168,992.7,1169.1,990.7,1170.2z M998.6,1166c0.1-0.1,0.1-0.1,0.2-0.2
			c0,0,0.1,0,0.1,0.1C998.8,1165.9,998.7,1166,998.6,1166z M1007.7,1162c-15.3-8-30.7-15.7-46.1-23.5c-16-8.1-32-17-45.4-29.5
			c4.7,0.3,9.5,1.8,13.8,3.2c8.4,2.8,16.4,6.7,24.2,10.9c14.4,7.7,28.3,16.2,42.7,23.8c8.2,4.3,16.4,8.3,24.7,12.2
			C1016.9,1159.5,1012.2,1160.4,1007.7,1162z M1015.7,1197.7C1015.7,1197.7,1015.7,1197.6,1015.7,1197.7
			C1015.7,1197.6,1015.7,1197.6,1015.7,1197.7C1015.7,1197.6,1015.7,1197.7,1015.7,1197.7z M1080.6,1262.1c19.2-5,39.4-8.3,58.9-3.6
			c-3.2,0.9-6.3,1.7-9.5,2.6c0,0-4.9,1.3-9.6,2.4c-12.1,2.9-28.1,5.8-30.1,6.2c-2.6-2.2-5.3-4.1-8.2-5.9c-0.9-0.6-1.9-1.1-2.8-1.6
			C1079.7,1262.2,1080.1,1262.2,1080.6,1262.1z M1002.4,1288c-26.6-5.5-23.6-5.4-34.4-7.3c-9.6-1.7-19.2-3-28.6-5.9
			c-6.9-2.1-14.3-5.1-19.9-10.2c12.3-3,22-2.9,28.4-2.4c7.1,0.6,8.1,1.3,45.8,10.8c6.9,1.7,13.5,3.4,22.5,6.5c9.3,3.2,14,4.8,19,7.9
			c5.8,3.5,11.9,7.8,15.9,11.4C1042.4,1295.7,1026.6,1293.1,1002.4,1288z M949.5,1349.9c-9.9,4.2-19.8,8.4-29.6,12.8
			c-3.9,1.7-7.8,3.5-11.8,4.8c-1.5,0.5-3.1,1-4.7,1.3c12.1-15.7,32.5-23.6,50-29.5c9.5-3.2,19.3-6.5,29.2-8.4
			c10.9-2.1,22-2.7,32.9-4.7C994.5,1336.8,971.1,1340.8,949.5,1349.9z M938.1,1393c-8.2,6.8-10.3,9.2-17.9,15.1
			c-13.5,10.3-30.6,20.7-31.8,19.2c-1.3-1.7,15.9-18.8,81.7-75.1c4.6-2.2,9.7-4.4,15.3-6.5c4.9-1.8,9.6-3.4,14-4.6
			c-2.9,2.4-5.8,4.7-8.7,7.1c-7.7,6.4-14.4,13.6-20.4,21.8C956,1378.8,945.3,1387.1,938.1,1393z M984.5,1384.8
			c-11.8,15.4-14.2,20-18.9,26.2c-0.8,1.1-2.9,3.7-5.9,7.2c-6.7,7.8-34.9,39.5-36.7,38.1c-0.9-0.7,6-9.1,21.5-32.7
			c12-18.3,18.1-27.5,22-34c0,0,11.9-20,22.9-30.3c8.3-7.8,8.7-7.1,31.7-27.6c5.4-4.8,9.1-7.8,13.7-11.4c5.1-4,12.3-9.3,21.4-15.2
			c-1,1.9-8.3,14.9-18.3,24.7c-7.1,7-15,11.9-15,11.9c-0.1,0.1-0.3,0.2-0.3,0.2C1012.6,1348,1003.2,1360.3,984.5,1384.8z
			 M980.8,1444.4c8.3-16.3,21.1-30.1,26.2-48.2c6.7-2.3,13.2-5.5,19.1-9.7C1018.1,1411.1,1002.1,1431.6,980.8,1444.4z
			 M1030.7,1373.5c-0.3,0.2-0.7,0.5-0.9,0.8c-11.2,10-24.9,16.5-39.5,17.6c11.8-24.2,24.8-36.3,34.8-42.8
			c1.9-1.3,16.7-10.8,24.1-21.9c4.5-6.7,7.7-15,7.7-15C1057.9,1335.5,1047.3,1358.2,1030.7,1373.5z M1063.6,1301.7
			c0,0-0.2,0.2-0.3,0.2c-1.6,0.4-4.2-5.6-4.6-6.5c-1.8-3.7-7.6-9.3-25.7-17.4c12.7,1.2,25.4,2.8,37.6,6.2c5.5,1.6,11,3.4,16.2,5.6
			c1.4,0.6,2.9,1.3,4.4,2.1C1081.6,1293.8,1072.2,1297.5,1063.6,1301.7z M1084.9,1281c-4.4-1.6-14.1-5.4-31.4-8.2
			c-16-2.6-23.9-2.1-46.3-5.2c-1.8-0.3-3.8-0.6-6.3-1c-8.7-1.5-17.4-3.5-25.6-6.9c13.5-5.2,28.5-6.3,42.7-5.6
			c16.8,0.7,33.8,3.9,49.5,10.5c10.6,4.5,21.4,11.3,28.1,21.3C1092.1,1283.9,1088.4,1282.4,1084.9,1281z M1100.7,1327.2
			c-0.3,2.1-2.2,13.1-6.8,25.8c-3.5,9.7-11.9,32.7-33,53.3c-12.7,12.4-25.5,19.6-26.2,18.7c-0.9-1.2,20.2-17,34.1-40.1
			c6.2-10.3,10.2-20.1,10.2-20.1c2.1-5.3,3.7-10.7,5.7-16c2.8-7.7,6.4-15.1,10.3-22.3c2.2-4,5-8.2,7.2-12.7
			C1102,1318.4,1101.3,1322.9,1100.7,1327.2z M1105.4,1289.3c-2.4-5.3-5.7-10.2-9.6-14.4c1.2,0.2,2.4,0.1,3.6,0.1
			c6-0.4,12-1.7,17.8-3c10.9-2.4,21.8-5.3,32.6-8.5c2,2.3,3.8,4.7,5.7,7C1137.8,1273.7,1121.6,1281.5,1105.4,1289.3z M1154,1257.2
			c-3.5-4.3-7-6.8-13.3-11.7c-3.1-2.4-6.3-4.7-9.5-6.7c-7.8-4.9-14.6-7.9-18.8-9.5c-18.1-7.2-34.6-10-53-16.2
			c-19.5-6.6-36.9-15.8-36.3-17.2c0.6-1.6,21.1,8,58.2,16.3c16.6,3.7,34.8,6.8,53.3,17.5c4.7,2.7,10.2,6.4,15.8,12.1
			c8.2,8.6,12.5,17.6,14.8,23.5h0c0,0,0,0,0,0c-1.5,0.8-3.1,1.7-4.6,2.5C1158.3,1262.9,1155.8,1259.5,1154,1257.2z M1140.6,1327.9
			c-4.6,3.9-9.7,7.4-15,10.3c-3.2,1.8-6.8,3.8-10.4,4.5c-0.1,0-0.3,0-0.5,0c0.7-0.8,1.4-1.8,2.1-2.4c2.8-2.6,5.9-4.9,8.9-7.3
			c3.8-3.1,7-6.9,10.3-10.6c4.2-4.7,8.2-9.6,12.1-14.6c7.3-9.4,15-19.3,17.4-31.4c0.6-0.1,1.2-0.2,1.8-0.3
			C1168.4,1296.1,1154.5,1316.1,1140.6,1327.9z M1548.3,1143.9c1.4,7,3.5,13.8,5.1,20.7c1.2,5.3,2.9,11.5,2.3,17.2
			c-2.4-2-5-3.7-7.7-5.3c0.1-0.6,0.2-1.2,0-1.9c-4.4-18.6-4.9-37.9-5.7-57C1544.6,1126.3,1546.5,1135.1,1548.3,1143.9z
			 M1514.3,1092.9c0.9,2.4,1.7,5,2.3,7.5c1.9,7.4,3.1,15,4.2,22.5c1.2,8.1,2.5,16.1,3.1,24.3c0.4,5.1,0.6,10.2,0.8,15.3
			c0.1,1.6,0,3.5,0,5.5c-1.9-0.3-3.8-0.6-5.8-0.8c-0.1-0.5-0.2-1.1-0.6-1.7c-2.4-3.7-2.1-9.8-2.3-14.1c-0.3-6.4-0.3-12.8-0.5-19.2
			c-0.3-7.6-1.4-15.1-1.4-22.7C1514,1103.9,1514.2,1098.4,1514.3,1092.9z M1362,1153c35.4,6.6,70.1,17.7,103,33
			c-1,0.9-1.9,1.9-2.8,2.9c-33.3-10.3-67.5-16.7-102.1-19C1361.1,1164.4,1361.6,1158.7,1362,1153z M1457,1195.3
			c-2.8,3.8-5.2,7.8-7.3,12c-3.5,0.9-7,1.8-10.6,2.7c-7.3,1.7-14.4,3.2-21.3,4.5c-12,2.1-21.8,3.4-28.2,4.2
			c-16.9,1.9-33.7,3.4-50.5,6c-3.6,0.6-7.3,1.2-10.9,1.9c0.9-0.7,1.9-1.5,2.8-2.2c14.3-12,23.3-28.3,27.6-46.7
			C1392,1179.6,1425,1185.6,1457,1195.3z M1336.7,1232.6c7.6-1.7,12.9-2.2,27.3-3.9c11.9-1.4,23.9-2.5,35.7-4
			c-2.3,1.6-4.5,3.2-6.6,5c-5,4.1-9.8,8.6-14.1,13.5c-1.3,1.4-2.2,2.6-3.1,3.8c-3.2,4-5.7,7.5-7.4,10c-0.3,0-0.8-0.1-1.5-0.1
			c-27.2-2.5-41.5-4.1-56.1,1.2c-4.2,1.5-8.3,3.4-12.2,5.6c3.7-7.4,7.4-14.7,11.1-22.1C1315.9,1238.9,1325.1,1235.2,1336.7,1232.6z
			 M1146.7,952.5c1.9,2.2,3.7,4.4,5.5,6.7c6,7.6,12.4,14.9,18.3,22.6c9.8,12.8,16.3,28.5,18.9,44.8c1.6,10.2,1.6,20.7,0.4,31
			c-0.9-1.5-4.6-8-5.5-9.5c-1.1-2-5.2-9-6.4-11C1167.5,1008.9,1157.1,980.7,1146.7,952.5z M1088.2,926.8c2.9,2.8,5.6,6,7.9,9.1
			c5.5,7.1,10.3,14.8,14.9,22.6c3.3,5.5,8,13.8,13.9,25.5c3.9,7.9,8.5,17.7,13.3,29.3c-2.6-0.6-5.4-1.1-8.4-1.5
			c-1.9-0.3-3.7-0.5-5.5-0.7c-4.7-13.9-9.4-27.9-14.1-41.8c-1.1-3-2.4-6-3.7-9C1101.3,948.6,1094,938.1,1088.2,926.8z M1077.2,962.4
			c-1.8-1.6-3.4-3.2-8.7-7.8c-4.5-4-9.1-8-13.3-12.3c-6.6-6.6-13.6-12.8-20-19.6c-4.9-5.2-10.6-11.5-13.1-18.8
			c8,3.6,14.8,10.4,21.8,15.4c10.2,7.4,20.6,14.3,30.5,22.2c7,5.6,13.7,11.9,19.8,18.7c3.3,3.7,7.1,7.9,9.8,12.6
			c4.5,11.8,8,24,13.1,35.4c-0.2-0.2-0.4-0.5-0.8-0.9C1094.4,982.7,1090.3,974.4,1077.2,962.4z M1058.5,994.1
			c-26.5-12.9-34.8-22-39.9-27.9c-3.5-4.1-6.4-8.6-8.5-13.5c33.7,18,68.8,33.6,98.8,58.3c-2,0.2-4,0.4-6,0.7
			C1084.4,1005.8,1069.4,999.4,1058.5,994.1z M1112.6,1192.4c-33.2,0.5-61.5-24-72.8-50.3c-14.1-33-6-73.8,17.7-99.5
			c18.9-20.5,50.3-28.6,76.4-22.4c36.9,8.7,59.1,45.7,60.7,84.1c-0.6,5-1.8,12.2-4.6,20.5C1181.3,1149.8,1155,1191.7,1112.6,1192.4z
			 M1191.6,1221.5c-10.9-12.8-22.3-24.8-34.6-36c3.7-2.5,7.2-5.3,10.5-8.3c0.2,0.4,0.4,0.8,0.7,1.1c13,14,26.7,27.8,38.8,42.7
			c5.1,6.2,10.3,13.2,12.9,21.1c1.1,3.3,2.2,6.4,3.4,9.5C1211.6,1243,1201.2,1232.8,1191.6,1221.5z M1138.5,1359
			c-0.3-0.6,8.3-3.8,20.1-13.3c11.4-9.1,17.5-18.1,21.8-22.6c13.1-13.6,28.4-24.6,41-38.7c-2.3,6.8-6.3,16.4-13.5,26.6
			c-2.5,3.5-7.1,9.6-14.8,16.7C1168.9,1350.2,1139,1360,1138.5,1359z M1216.3,1322.2c-9,16.8-18.7,32.9-31.1,47.1
			c-5.7,6.6-11.8,12.9-18.3,18.4c-3.6,3.1-7.9,6.5-12.5,8.7c5.6-11.3,13.9-21.1,22.1-30.4c8.5-9.8,17.3-19.3,24.6-30.2
			c10.7-15.9,21.3-32.9,28.1-51.1c1.2-3.2,2.6-7.2,3.1-11.2C1235.2,1290.5,1224,1307.8,1216.3,1322.2z M1232,1254.1
			c-1.3-2.7-2.5-5.4-3.5-8.2c-1.2-3.5-2.1-7-3.6-10.4c-1.9-4.4-4.5-8.5-7.2-12.3c-5.4-7.6-11.6-14.4-17.9-21.2
			c-8.8-9.7-17.7-19.3-26.6-28.9c-0.3-0.3-0.5-0.5-0.8-0.7c6.9-7.3,12.8-15.8,17.3-25.2c1.1,9.4,3.3,18.7,6.3,27.5
			c6.4,19,16.4,37.4,30.5,51.1c10.4,10.1,23,16.6,36.6,19C1252.4,1246.1,1241.8,1250.1,1232,1254.1z M1239.3,1226.9
			c-17-10.4-24.2-25.3-31.9-42.5c-4.8-10.8-13.4-29.6-11.2-54.3c0.9-10.3,3.4-18.6,5.5-24.2c9.6-22.4,30.2-38.2,53.1-45.3
			c29-8.9,65.2-3.9,86.5,20.5c2.9,3.4,5.4,7,7.5,11c8.7,17,7.9,37.2,6.4,56.2c0,0.3-0.1,0.5-0.1,0.8c-0.2,2.1-0.3,4.1-0.5,6.2
			c-2.8,34.4-19.5,54.5-19.5,54.5c-10.3,12.4-22.4,18.4-27.5,20.6C1305.5,1231.5,1270.4,1246.1,1239.3,1226.9z M1252.1,1324.8
			c-5,7.7-9.2,11.7-11.6,13.9c-4.4,3.9-9.4,7.2-14.8,9.5c18.7-35.6,39.7-69.8,62.9-102.3c0.4-0.5,0.6-1,0.7-1.5
			c4.7-0.9,9.3-2.2,13.8-3.8c-5.7,10.7-11.4,21.4-17.2,32.1c-12.5,10-18.7,19.8-22,26.9C1260.1,1307.5,1259.1,1313.9,1252.1,1324.8z
			 M1421.9,1334.7c3.1,29.2-9.4,60.6-29.3,80.6c-25.7,26-65.4,28.9-95.4,9.5c-34.3-22.1-47.3-68.1-33.5-107.4
			c5.4-15.4,14.8-29.3,27.1-39.4c0.1-0.1,0.2-0.2,0.4-0.3c3-2.5,6.2-4.7,9.6-6.7c16-9.3,35-12.5,52.9-9.6c3.9,0.6,7.8,1.5,11.6,2.7
			C1395.3,1273.6,1418.4,1301.4,1421.9,1334.7z M1445.1,1218.9c-0.3,0.2-0.5,0.4-0.8,0.7c-18.1,15.8-38.9,30.2-62.7,42.8
			c-1.2-0.3-2.5-0.8-3.9-1.3c-0.9-0.4-1.7-0.7-2.4-1.1c2.9-3.1,5.3-7.2,8.1-10.5c4-4.7,8.4-9,13.1-12.9c7.1-5.9,14.9-10.9,23.2-14.8
			c0,0,0.1,0,0.1,0c8.8-1.6,17.5-3.5,26.2-5.7C1445.7,1216.9,1445.4,1217.9,1445.1,1218.9z M1568.9,1263.5c-0.6,2.1-1.3,4.2-2,6.3
			c-0.3,0.8-0.6,1.7-0.9,2.5c-0.1,0.3-0.2,0.5-0.3,0.8c-0.1,0.3-0.2,0.5-0.2,0.5c0,0,0-0.1,0,0.1c-4.4,10.9-10,21.7-18.9,29.2
			c-9.4,8-21.4,10.3-33.2,9.1c-24.7-2.5-48.8-19.8-59.4-43.7c-7.9-17.7-6.8-38.3,1-55.7c0.1-0.2,0.2-0.4,0.3-0.6
			c0-0.1,6.4-16.6,23.2-27.7c20.6-13.5,42.8-9.5,45.9-8.9c5.5,1.1,25.1,5.7,37.9,23.8c0,0,12.9,18.2,10.1,45.9
			C1571.9,1251.4,1570.6,1257.6,1568.9,1263.5z"/>
	</g>
	<g>
		<path d="M1096,1267.3C1095.9,1267.1,1095.9,1267.2,1096,1267.3L1096,1267.3z"/>
	</g>
	<g>
		<path d="M1143.7,1138c-7.2-2.5-12.9-7.4-19.1-11.9c-0.1-0.1-0.2-0.2-0.3-0.2c0.2-0.8,0.2-1.8-0.2-2.8c-2.7-6.2-0.7-13.4,1.6-19.4
			c0.6-1.5-0.4-3.5-1.6-4.3c-7.6-4.4-16.4-2.6-23.3,2.7c-0.7,0.6-1.2,1.3-1.4,2.1c-0.8-0.3-1.6-0.7-2.4-0.9
			c-6.7-2-16.2-0.9-21.7-6.1c-2.3-2.2-6-0.7-6.1,2.7c-0.3,8.8-1.6,18.7,1.3,27.2c0.9,2.8,2.3,5.2,4.1,7.1c-8.5,1.6-13.9,8.8-14.5,18
			c0,0.4,0.7,2,2.6,3.6c8.3,7,27.5,0.4,30.2-0.5c-0.5,2.7-1,8.3,1.5,14.3c0,0,3.6,7.2,10.5,11.2c1.4,0.8,3.2,0.6,4.3-0.6
			c5.7-5.9,9.8-13.5,11.9-21.7c0.2-0.7,0.2-1.3,0.1-1.9c9-1.9,18.3-7.4,24.2-12.3C1147.5,1142.4,1146,1138.7,1143.7,1138z
			 M1117.7,1104.8c-1.7,5.3-2.4,10.9-1.5,16.3c-2.7-1.3-5.6-2.2-8.6-2.9c0.2-3.9-0.8-7.3-2.8-9.9
			C1108.6,1105.4,1113.2,1103.6,1117.7,1104.8z M1084.3,1152.4c-8,2-17.8,0.8-18.7-2.3c-0.5-1.8,2.3-4.2,5.6-7
			c2.9-2.5,5.8-4.1,7.9-5.1c1.2,0.7,2.6,1.4,4.3,2.1c1.5,0.6,3.1,1,4.7,1.4c1,3,3,5.4,5.7,6.8
			C1091.4,1149.8,1088.2,1151.4,1084.3,1152.4z M1091.6,1125c-2.5,3.4-3.4,6.7-3.7,8.5c-5.4-1.5-9.7-4.4-11.2-10.7
			c-1.3-5.3-1.1-11.1-0.7-16.7c4.5,1.9,9.5,2.4,14.2,3.2c2.8,0.5,6.2,0.9,8.6,2.8c2,1.5,2.1,3.9,1.8,6.3
			C1098.8,1119,1094.8,1120.8,1091.6,1125z M1095,1134.8c0.3-3.4,2.7-6.4,6.3-7.8c1,1.3,2.7,3.7,3.1,7.2c0.5,3.9-0.5,9.3-2.9,9.9
			C1099.1,1144.5,1094.6,1139.7,1095,1134.8z M1105.9,1172.6c-1.7-1.5-3.5-3.4-5.1-5.9c-4.2-6.5-4.8-13.3-4.6-17.6
			c1.4,0.4,2.8,0.6,4.3,0.5c3.2,5.1,8,7.3,13.3,7.5C1112.3,1162.9,1109.6,1168.2,1105.9,1172.6z M1107.6,1147
			c4.9-4.5,4.9-13.7,1.7-20.7c9.6,3.2,17.2,11,26.2,16C1127.2,1147.8,1113.8,1153.7,1107.6,1147z"/>
	</g>
	<g>
		<path d="M1395.5,1345.7c-5,4-10.8,6-16.5,8.5c-0.1,0-0.2,0.1-0.3,0.1c-0.4-0.5-1-0.9-1.8-1c-5.1-0.7-8.7-5.2-11.3-9.3
			c-0.7-1-2.4-1.2-3.4-0.6c-6.3,3.5-9.4,10.6-9.4,17.6c0,0.8,0.2,1.4,0.6,1.9c-0.6,0.4-1.2,0.8-1.7,1.3c-4.4,3.9-8.3,11.1-14.2,12.8
			c-2.5,0.7-3.3,3.9-1.2,5.4c5.4,3.9,10.9,8.9,17.6,10.5c2.2,0.5,4.3,0.5,6.4,0.1c-3,6.7-1.1,13.5,4.3,17.8c0.2,0.2,1.6,0.3,3.5-0.3
			c8.4-2.9,13.4-19.3,14.1-21.6c1.5,1.5,4.7,4.2,9.7,4.9c0,0,6.2,0.4,12-2.7c1.2-0.6,1.9-2,1.7-3.3c-1-6.5-3.8-12.6-7.8-17.5
			c-0.3-0.4-0.7-0.7-1.1-0.8c3.1-7.1,4.1-16.1,3.9-22.3C1400.1,1344.9,1397.1,1344.5,1395.5,1345.7z M1362.4,1350.2
			c2.5,3.4,5.6,6.3,9.4,7.9c-2.1,1.4-4.1,3-5.9,4.9c-2.3-1.8-4.9-2.5-7.5-2.2C1358.5,1356.9,1359.6,1352.9,1362.4,1350.2z
			 M1376.2,1393.8c-2.6,6.5-8,12.9-10.4,12.2c-1.4-0.4-1.5-3.3-1.7-6.9c-0.2-3.1,0.2-5.8,0.6-7.7c1-0.5,2.1-1.2,3.4-2.2
			c1.1-0.8,2.1-1.8,3.1-2.8c2.3,0.6,4.8,0.1,6.9-1.2C1378,1387.7,1377.5,1390.6,1376.2,1393.8z M1362.6,1377.2
			c0.9,3.2,2.6,5.2,3.5,6.2c-3.5,3.2-7.4,5-12,3.4c-3.9-1.4-7.4-3.9-10.8-6.5c3.3-2.4,6-5.7,8.8-8.7c1.7-1.8,3.6-4,5.8-4.9
			c1.9-0.8,3.5,0.1,4.8,1.4C1362.3,1369.6,1361.5,1373.2,1362.6,1377.2z M1370.3,1378.8c-2-1.6-2.7-4.6-1.9-7.7
			c1.3-0.2,3.6-0.3,6,0.8c2.7,1.3,5.6,4.3,4.8,6.2C1378.4,1380,1373.2,1381.2,1370.3,1378.8z M1399.2,1387c-1.7,0.6-3.8,1-6.1,1.1
			c-6.1,0.2-10.6-2.2-13.2-4.1c0.9-0.8,1.7-1.7,2.4-2.8c4.7-0.1,8.3-2.6,11-6.2C1396.1,1378.5,1398.1,1382.6,1399.2,1387z
			 M1384,1375.1c-0.4-5.4-6.2-9.2-12.1-9.9c6.6-5.4,15.1-7.6,22.4-11.8C1393.8,1361.5,1391.1,1373.5,1384,1375.1z"/>
	</g>
</g>
</svg>
