<?xml version="1.0" encoding="UTF-8"?>
<svg id="Layer_2" data-name="Layer 2" xmlns="http://www.w3.org/2000/svg" viewBox="0 0 800 570.22">
  <defs>
    <style>
      .cls-1 {
        stroke-width: 0px;
      }
    </style>
  </defs>
  <g id="_ÎÓÈ_1" data-name="—ÎÓÈ_1">
    <g>
      <path class="cls-1" d="m414.99,370.57s0,0,0,0c.03,0,.06.01.1.02-.04,0-.06-.01-.1-.01Z"/>
      <path class="cls-1" d="m11.2,389.19c6.37,13.87,15.94,26.35,29.75,32.22,11.96,5.08,25.6,4.61,37.89,1.21,26.92-7.43,51.68-29.92,58.09-59.34,1.89-8.67,2.14-17.5.98-26.07,16.65,14.31,38.02,20.83,55.64,33.82-27.67,17.23-45.5,50.03-42.86,84.72,2.37,31.11,19.03,63.01,43.63,80.3,32.43,22.81,76.97,17.26,105.5-9.95,22.36-21.32,31.88-53.03,28.33-83.5,12.92,11.54,28.74,24.38,32.79,21.11,2.96-2.38-1.41-12.49-4.94-20.01-8.42-17.93-24.84-48.31-58.44-93.5,15.75,5.3,31.51,10.59,47.26,15.89-2.08,4.39-3.87,8.89-4.45,13.88-1.22,10.6,2.18,20.95,6.47,30.36,4.57,10.04,10,19.74,15.34,29.33,9.29,16.67,19.91,32.26,32.79,46.03,9.85,10.53,22.52,23.75,37.13,25.46,2.17.25,4.23-2.65,3.44-4.79-5.71-15.38-15.94-27.97-26.41-39.96-6.98-7.99-14.19-15.8-20.52-24.38,16.89,13.56,36.08,23.72,56.61,29.68,3.66,1.06,5.65-3.55,3.47-6.32-6.28-7.97-14.58-13.37-22.17-19.76-8-6.74-14.55-15.07-21.84-22.61-7.07-7.32-39.37-36.75-45.91-44.4-3.65-4.27-3.41-6.38-3.14-6.71,0-.01.04-.06.09-.12,0,0,.09-.12.2-.24,2.43-2.6,33.82,5.39,33.82,5.39,3.9.99,9.39,2.25,16.11,3.34-.46,8.67,1.45,17.59,4.57,25.45,4.89,12.31,12.98,23.03,22.6,31.58,8.18,7.27,17.87,14.13,28.19,17.43,3.41,1.09,7.95,1.84,10.52-1.46,2.54-3.25,1.47-7.47-.86-10.41-2.73-3.45-6.45-6.08-9.84-8.74-3.74-2.93-6.83-6.21-10.04-9.8-4.8-5.37-9.47-10.87-13.9-16.58-4.38-5.64-9.01-11.48-12.21-17.98-1.13-2.29-1.93-4.57-2.51-6.87,17.19,3.02,33,10.6,48.79,18.21.38.18.76.29,1.12.34-.9,3.39-1.42,6.96-1.51,10.68-.45,19.68,4.35,39.65,12.34,57.3,11.98,26.47,32.48,51.02,56.22,66.13,2.95,1.88,8.83,6.09,12.09,2.68,2.96-3.1-.21-6.99-2.19-9.44-10.66-13.24-21.49-25.95-30.6-40.53-4.01-6.42-7.76-13.08-10.64-20.17-2-4.93-3.54-10.06-5.35-15.07-2.58-7.16-5.65-14.08-9.13-20.8-2.45-4.73-5.12-9.3-7.74-13.92-2.43-4.29-5.11-9.15-3.69-14.28.05-.12.11-.24.16-.36.07.01.13.02.2.03,11.2,1.91,22.53,5.06,33.93,9.65-.8,9.21-.1,18.44,2.19,27.43,4.24,16.63,13.47,31.86,25.71,43.31,7.95,34.03,30.29,62.98,60.66,77.07,2.5,1.16,6.49-.82,5.24-4.27-6.96-19.23-22.01-34.03-28.9-53.16,5.07,1.02,10.28,1.45,15.55,1.21,17.41,24.85,38.34,46.71,62.15,64.73,2.45,1.85,6.35-1.27,5.24-4.27-4.39-11.84-12.2-21.5-19.27-31.62-9.85-14.1-17.38-29.8-26.2-44.61,6.94,5.75,13.86,11.54,21.19,16.73,6.29,4.45,12.72,8.46,18.88,13.12,6.6,4.99,13.2,10.07,20.28,14.29,4.56,2.72,10.96,6.64,16.42,4.85,2.58-.85,3.47-4.23,1.57-6.32-22.6-24.92-46.49-48.49-71.55-70.6,1.49.59,2.98,1.19,4.45,1.82,10.14,4.32,20.27,8.7,30.36,13.16,7,3.1,16.29,7.75,23.99,5,2.11-.75,3.41-3.38,2.13-5.56-6.27-10.69-15.83-18.54-26.14-24.52-9.91-5.76-20.58-10.01-31.33-13.64-9.68-3.27-19.62-6.62-29.63-8.55-20.47-3.96-45.89-1.88-62.02-18.12,2.51-1.5,5.27-2.57,7.23-3.24,7.96-2.72,16.34-3.48,24.56-4.86,10.38-1.74,20.64-4.46,30.94-6.68,9.56-2.05,19.2-3.5,28.8-5.33,15.47-2.95,32.51-7.94,42.37-21.92,1.79-2.53-.71-5.45-3.08-5.69-17.2-1.73-34.39-3.57-51.32-.24-.25-.26-.66-.67-1.18-1.15-7.95-7.26-18.72-7.49-25.48-7.55-46.9-.39-53.39.73-60.08,2.38-9.94,2.46-17.94,5.51-23.49,7.9-4.13-1.73-8.63-3.36-13.49-4.78-18.42-5.37-35.13-5.65-47.82-4.53,5.37-3.9,11.09-7.27,16.75-10,7.59-3.67,15.62-6.54,23.72-8.65,18.5-4.81,36.54-11.29,54.19-18.85,7.4-3.17,14.84-6.42,21.9-10.38,3.01-1.69,9.93-5.31,6.61-9.99-2.61-3.69-9.79-1.52-13.23-.95-8.28,1.38-16.49,3.3-24.66,5.24-20.49,4.87-40.95,10.18-61.14,16.31-16.12,4.9-33.73,10.59-45.21,24.38-6.28,7.54-12.71,16.66-16.1,26.1-.52,1.44-.94,2.91-1.28,4.4-5.53-1-11.03-2.12-16.57-3.44-10.13-2.42-20.32-4.72-30.72-5.24,12.27-8.87,23.21-19.39,33.21-31.14,11.55-13.57,23.69-26.37,36.84-38.19,7.06,3.78,25.96,12.66,50.55,9.62,34.08-4.21,53.44-28.15,57.28-33.11,10.2-1.18,18.3-.1,23.59,1.03,1.78.38,9.62,1.7,18.48,6.37,4.95,2.61,9.83,5.39,15.04,7.4,4.06,1.57,8.34,2.59,12.61,3.5,9.59,5.58,19.4,10.75,29.41,15.44,39.86,18.69,82.5,29.98,125.95,33.39,2.3.18,4.07-2.56,3.44-4.79-2.34-8.27-10.66-13.25-17.47-16.85-11.28-5.96-23.41-9.89-35.39-13.92-6.9-2.33-13.8-4.66-20.7-7,7.6-.9,15.17-2.2,22.69-3.86,28.85,3.77,58.29-3.09,83.17-18.99,2.37-1.52,2.36-6.45-.85-6.91-22.8-3.26-45.75-5.02-68.73-5.22,4.74-1.87,9.46-3.82,14.13-5.89,6.91-3.05,13.74-6.29,20.46-9.77,4.78-2.48,11.72-5.07,15.34-9.54,2.71-3.35.59-7.19-3.14-7.97-5.26-1.11-11.36.42-16.54,1.32-39.01,6.81-77.46,21.18-112.37,40.79-1.89-.13-3.79-.29-5.7-.41-6.07-.39-12.15-.49-18.23-.62-10.7-.23-21.44-.51-31.97-2.58,10.57-5.41,21.18-10.75,31.77-16.14,18.7-9.51,37.35-20.26,52.01-36.1,1.88-2.04,1.02-5.54-1.57-6.32-8.37-2.5-17.62-.02-25.63,2.79-25.37,8.89-42.9,21.47-43.49,21.85-12.64,8.4-31.08,19.68-55.63,31.46-2.79-.05-5.58-.05-8.34-.04,4.76-9.97,9.51-19.93,14.27-29.9,2.64-.75,6.61-2.02,11.3-4.04,2.39-1.04,4.11-1.92,4.92-2.31,6.47-3.03,12.95-6.06,19.36-9.24,16.19-8.02,31.92-17.08,45.85-29.06,2.1-1.8.86-5.7-1.57-6.32-13.73-3.47-27.77,5.02-40.08,10.32-12.91,5.55-27.29,7.71-39.57,14.86-1.23-28.23-13.86-56.29-35.05-73.36-9.24-7.44-20.26-12.75-31.89-15.78,6.2-1.4,12.32-3.18,18.36-5.23,16.25-5.53,32.35-12.98,46.28-23.55,12.58-9.54,24.13-22.27,27.53-38.78.67-3.27-2.42-5.83-5.24-4.27-27.65,15.32-56.43,28.44-83.03,45.56,4.64-8.64,12.16-15.46,19.17-21.84,7.34-6.68,14.78-13.15,21.86-20.15,7.13-7.05,14.7-13.6,21.27-21.27,6.21-7.25,11.92-15.6,12.82-25.62.24-2.63-2.45-4.07-4.51-3.65-11.22,2.33-20.12,11.41-29.23,18.08-10.53,7.71-21.39,14.85-31.57,23.1-4.2,3.41-8.29,7-12.22,10.78,5.36-9.31,10.92-18.49,14.79-28.65,1.01-2.65-1.98-5.52-4.39-4.65-7.71,2.8-13.84,9.07-19.05,15.49-5.88,7.24-10.97,15.18-15.8,23.23-5.42,9.04-9.42,15.79-14.17,25.52-4.68,9.58-10.2,22.36-15.1,38.03-1.56.58-3.11,1.21-4.62,1.89-7.16,3.24-13.63,7.52-19.39,12.61,8.09-32.45,21.06-63.31,38.55-91.34,2.15-3.45-1.93-6.62-4.88-5.17-10.26,5.03-17.72,14.62-24.72,23.71-6.37,8.26-13.62,15.84-19.47,24.53-2.93,4.35-8.51,14.1-12.32,24.88-8.49,24-5.37,47.28-2.37,60.62-3.05,7.92-5.2,16.27-6.42,24.78-13.79-22.36-38.15-36.68-63.06-41.48-33.22-6.4-73.74,4.81-91.36,37.65-2.77,5.42-4.89,11.16-6.18,17.17-2.58,12.07-2.06,24.52-1.46,36.79.05,1.03.1,2.06.16,3.09-37.49,6.88-74,18.8-108.72,35.28-4.68-3.61-9.8-6.62-15.3-8.87-5.15-2.11-10.51-3.53-15.94-4.31,2.68-2.3,5.18-4.9,7.69-7.28,1.13-1.08,2.3-2.12,3.47-3.15,1.38.32,2.91.25,4.24.15,4.1-.32,8.19-1.15,12.22-2,18.36-3.84,36.75-8.85,54.57-14.92,27.13-9.24,45.72-32.23,63.01-54.98,2.27-2.98.16-7.02-3.47-6.32-18.44,3.57-32.99,18.13-48.58,28.09-8.55,5.46-17.85,9.22-27.32,12.57,4.56-3.86,8.7-8.28,12.82-12.68,13.54-14.5,17.93-17.43,19.42-18.8,4.08-3.75,9.91-8.96,17.25-14.98.84-.77,2.12-1.92,3.7-3.27,22.84-19.49,41.2-21.99,70.6-34.33,15.45-6.49,43.33-24.62,51.29-35.85,1.79-2.53-.72-5.45-3.08-5.69-9.6-.97-18.97,3.77-27.72,7.28-6.72,2.69-13.6,4.79-20.4,7.18,9.48-10.15,17.46-21.78,23.62-34.68,10.85-22.71,19.98-46.44,28.13-70.36,1.3-3.82-3.51-5.97-5.96-3.68-33.65,31.46-56.95,73.5-68.9,119.17-5.2,2.89-10.31,6.08-15.23,9.57,10.87-19.16,18.23-40.44,21.47-62.72.62-4.28-4.09-6.48-6.52-2.91-5.67,8.33-13.37,14.73-19.77,22.37-.9,1.07-1.75,2.17-2.57,3.29.31-8.12-.32-16.37-.38-24.34-.11-14.39,2.17-29.63-2.13-43.59-1.01-3.26-4.71-3.53-6.52-.9-21.07,30.67-15.82,73.01-9.69,107.92.11.61.31,1.11.59,1.51-4.92,13.3-10.07,26.46-16.22,39.23-4.75,4.13-9.53,8.21-14.25,12.37.59-13.6,1.19-27.2,1.78-40.8.73-1.19,1.45-2.38,2.14-3.59,7.72-13.46,9.95-29.16,15.66-43.52,1.19-3-2.85-6.1-5.24-4.27-5.57,4.27-10.63,9.17-15.27,14.52,2-8.86.29-19.08-.61-27.67-1.44-13.79-.12-28.01-3.2-41.57-.71-3.11-5.1-3.76-6.52-.9-14.18,28.53-13.46,64.86-7.45,95.75-4.91,8.75-9.08,17.97-12.46,27.48-5.61,15.78-9.31,33.21-7.4,50.12.03.25.08.49.14.71-1.18,1.66-2.42,3.29-3.74,4.86-4.54,5.4-9.76,10.1-15.2,14.52,3.71-22.68,7.38-45.37,10.96-68.08,1.7-10.78,4.01-21.79,4.66-32.73.11-1.86.12-3.94-1.22-5.36-3.35-3.57-6.76.99-8.27,3.95-3.34,6.51-5.69,13.7-8.02,20.66-2.28,6.8-4.37,13.66-6.31,20.58-3.53-17.38-6.48-34.89-8.82-52.5-.5-3.74-6.18-3.48-6.88,0-7.25,36.24-6.08,73.93,3.48,109.56-.98,6.66-1.84,13.34-2.52,20.04-.07.64,0,1.2.18,1.67-4.17,3.31-8.31,6.67-12.19,10.32-3.31,3.11-6.69,7.13-10.64,9.65.76-3.3.88-6.93,1.08-10.03.43-6.75.4-13.52.61-20.28.24-7.7,1.4-15.28,1.47-23,.09-10.42-.67-20.82-.06-31.23.2-3.38-3.99-4.84-6.09-2.67-10.03,10.38-12.19,27.56-14.23,41.53-1.19,8.16-2.61,16.31-3.37,24.53-.47,5.07-.74,10.16-.96,15.25-.12,2.77-.22,5.54-.32,8.31-.03.67.02,1.83.05,3-2.84.82-5.63,1.82-8.35,2.99,5.74-27.71,3.41-56.41,7.26-84.4.67-4.85-5.12-6.53-6.88-2.01-3.72,9.58-6.86,19.4-9.5,29.37-2.45,9.23-4.08,18.61-6.14,27.93-1.65,7.47-3.85,14.79-5.44,22.27-1.38,6.48-2.8,13.62-1.31,20.22.12.52.31.95.54,1.31-2.46,2.51-4.75,5.24-6.83,8.19-17.65,26.12-12.92,61.12-.37,88.44ZM124.2,129.11c.02-.15.04-.21,0,0h0Zm89.9-59.58c-.36,15.03-1.21,29.32-2.42,42.8-.71,1.74-1.38,3.5-2.03,5.29-.49,1.33-.97,2.66-1.45,3.98-4.48-27.99-7-59.6,5.86-84.84.28,10.48.31,21.41.04,32.77Zm39.65,47.35c10.7-35.59,28.57-68.39,53.17-95.08-6.46,17.82-13.56,35.4-21.62,52.45-7.77,16.45-18.38,30.89-31.56,42.63Zm-38.34,37.82c9.58-9.33,20.64-17.39,32.24-23.84.43-.08.87-.28,1.32-.6.26-.14.5-.31.72-.52,3.28-1.76,6.6-3.4,9.94-4.89,9.78-4.38,20.1-6.94,30.01-10.91,5.68-2.28,11.67-5.23,17.81-6.49-23.85,26.83-62.31,29.56-92.03,47.26Zm-14.22,5.57c5.25-12.51,9.89-25.3,14.45-38.17,3.65-10.31,7.98-19.87,15.14-27.98,3.32-3.76,6.83-7.31,10.22-10.97-2.94,13.05-7.29,25.72-13.15,37.65-4.97,10.12-11,19.92-17.9,28.95-1.78,1.75-3.51,3.55-5.19,5.39-.64.7-.94,1.48-1,2.24-.85.98-1.7,1.94-2.57,2.89Zm-92.63,77c-2.77,2.13-5.55,4.23-8.28,6.36.57-5.03,1.23-10.04,1.98-15.03.11-.34.16-.7.16-1.09,2.14-11.95,5.26-27.96,9.71-46.73,2.91-12.27,11.47-47.25,12.98-46.94,1.1.23-1.24,19.4-16.54,103.44Zm56.83-120.47c-.22.31-1.29,1.73-2.79,3.91-1.16,1.67-2.08,3.07-2.68,4-1.92-12.47-2.62-25.16-2.07-37.77.48-11.04,1.96-22.28,5.28-32.83.53,8.51.25,17.15,1.12,25.59.56,5.5.62,11.06,1.41,16.53.96,6.71,2.83,16.29-.25,20.58Zm1.79,26.99c-3.91,6.25-8.46,12.27-11.63,19.01-2.88,6.13-4.74,12.74-6.74,19.23-2.07,6.73-4.59,13.3-7.75,19.5.19-17.67,5.75-35.38,12.94-51.05,6.88-15.01,15.89-29.89,27.44-41.62-1.18,3.99-2.29,7.99-3.52,11.96-2.58,8.31-6.19,15.69-10.75,22.97Zm-30.26,80.82c-3.8,4.1-10.02,9.1-20.52,12.52,14.14-11.18,22.58-22.46,27.48-30.26,6.19-9.86,9.75-15.52,12.19-24.03,1.15-4.03,2.61-11.42,7.72-20.16,1.08-1.84,2.2-3.66,3.35-5.46-.11,11.47-.22,22.94-.32,34.4-2.83,2.6-5.62,5.24-8.35,7.93-.6.59-4.78,4.72-8.07,8.26-8.03,8.66-9.14,12.1-13.47,16.79Zm-38.17,29.54c2.38-1.87,4.77-3.73,7.14-5.6.73-.57,1.51-1.3,2.73-2.14,2.39-1.64,4.46-2.47,5.35-2.82,47.7-18.81,51.82-19.39,58.51-23.49,12.52-7.67,24.19-18.81,37.68-24.9-7.85,10.06-16.11,19.82-25.8,27.88-8.31,6.91-17.65,12.31-27.73,15.66-8.09,2.69-16.28,5.04-24.48,7.31-9.13,2.53-18.29,4.94-27.54,6.92-1.94.42-3.9.83-5.87,1.19Zm-.43-44.81c-1.32-7.75-2.96-19.06-3.91-32.82-1.84-26.82-.06-48.96.77-48.96.68,0,.12,14.84,3.81,37.28,1.45,8.83,3.11,16.12,4.4,21.25-1.9,7.7-3.59,15.45-5.07,23.25Zm455.82,10.71c.04-1.72.12-3.36.25-4.91,18.39-8.3,38.22-15.93,59.51-22.46,2.93-.9,5.84-1.76,8.74-2.59-9.27,6.32-19.82,12.85-31.66,19.2-13.04,6.99-25.43,12.56-36.73,17.01-.1-1.95-.15-4.04-.1-6.25Zm122.28,49.64c-4.61-.28-9.22-.17-13.86.03,14.1-7.2,28.62-13.43,43.5-18.62,17.47-6.1,35.41-11.27,53.55-14.56,2.07-.38,4.24-.82,6.43-1.14-11.33,6.6-23.57,11.87-35.56,16.74-17.62,7.15-35.71,12.91-54.05,17.57Zm16.83,3.24c4.57-1.33,9.13-2.73,13.66-4.22,26.11-.92,52.27.14,78.22,3.28-21.31,11.05-45.2,15.43-68.91,12.55-7.1-4.88-14.86-8.93-22.97-11.61Zm-61.55,21.37c5.87.93,11.75,1.69,17.66,2.22,7.96.72,15.93.95,23.87.73,9.29,3.15,18.59,6.3,27.88,9.45,6.97,2.36,13.95,4.67,20.9,7.09,7.66,2.67,15.31,5.52,22.55,9.3,3.29,1.72,7.89,3.99,11.11,7.13-8.29-.81-16.56-1.89-24.78-3.31-34.35-5.9-67.77-16.94-99.21-32.62Zm-48.39-22.08c11.6,3.06,23.55,3.73,35.46,4.02,6.1.15,12.2.21,18.3.49,5.26.24,10.51,1.02,15.77.95,7.33-.09,14.58-.87,21.83-.58.66.33,1.44.44,2.33.22.08-.02.17-.04.25-.06,1.92.18,4.45.5,7.39,1.08,8.64,1.7,20.66,5.64,20.42,8.01-.17,1.65-6.38,3.23-30.58,3.38-15.37,0-28.26-1.11-38.01-2.33-.75-.09-16.12-2.51-30.83-6.03-5.72-1.37-10.96-3.19-16.23-5.93-2.04-1.06-4.05-2.16-6.08-3.23Zm-2.13-1.11s.08-.04.12-.06c.06.08.13.15.2.22-.1-.05-.21-.11-.31-.16Zm-22.68-6.82c8.32-3.9,16.56-7.96,24.72-12.22,14.43-7.54,28.35-16.08,42.7-23.76,7.83-4.18,15.84-8.08,24.2-10.92,4.3-1.46,9.08-2.95,13.8-3.22-13.35,12.48-29.38,21.42-45.38,29.53-15.39,7.8-30.79,15.54-46.09,23.54-4.5-1.57-9.19-2.46-13.95-2.95Zm5.86,38.61s0,0,0,0c.01.01.02.02.04.04-.02-.01-.03-.02-.04-.04Zm-63.52,64.54c-.94.53-1.88,1.08-2.81,1.64-2.86,1.75-5.61,3.71-8.19,5.87-2.05-.38-18-3.32-30.14-6.22-4.71-1.13-9.56-2.39-9.56-2.39-3.18-.83-6.35-1.68-9.52-2.57,19.53-4.75,39.72-1.44,58.94,3.56.46.12.88.15,1.28.1Zm28.23,36.63c3.97-3.55,10.14-7.89,15.91-11.39,5.08-3.08,9.74-4.69,19.04-7.9,8.98-3.1,15.6-4.75,22.5-6.5,37.72-9.54,38.67-10.23,45.8-10.8,6.37-.51,16.1-.55,28.36,2.44-5.64,5.05-12.98,8.06-19.92,10.19-9.38,2.88-19.02,4.11-28.62,5.85-10.79,1.96-7.81,1.81-34.43,7.34-24.21,5.03-40.01,7.67-48.64,10.77Zm35.49,27.42c10.92,2.05,22.04,2.64,32.95,4.75,9.85,1.9,19.63,5.2,29.17,8.4,17.56,5.89,37.9,13.8,50.02,29.48-1.6-.32-3.19-.83-4.66-1.31-4.02-1.31-7.91-3.04-11.77-4.78-9.81-4.42-19.73-8.62-29.63-12.8-21.6-9.12-45.01-13.17-66.07-23.72Zm45.15,43.72c-5.93-8.21-12.7-15.38-20.36-21.83-2.86-2.41-5.77-4.75-8.66-7.11,4.41,1.27,9.1,2.79,14,4.63,5.56,2.08,10.66,4.3,15.27,6.51,65.86,56.35,83.06,73.44,81.74,75.11-1.2,1.51-18.31-8.82-31.79-19.17-7.67-5.89-9.73-8.37-17.94-15.13-7.14-5.88-17.89-14.13-32.26-23Zm-52.27-28.23c-.06-.04-.17-.1-.32-.2,0,0-7.86-4.94-14.99-11.91-9.95-9.73-17.21-22.75-18.26-24.65,9.19,5.84,16.38,11.2,21.44,15.18,4.61,3.62,8.32,6.63,13.7,11.43,23.01,20.49,23.44,19.79,31.73,27.59,10.96,10.32,22.9,30.31,22.9,30.31,3.89,6.53,9.91,15.7,21.96,34.05,15.51,23.62,22.39,31.99,21.51,32.73-1.74,1.45-29.96-30.23-36.69-38.08-3-3.5-5.05-6.12-5.86-7.18-4.7-6.2-7.11-10.72-18.92-26.17-18.76-24.54-28.14-36.8-38.19-43.09Zm-3.51,44.88c5.95,4.12,12.38,7.41,19.13,9.66,5.15,18.09,17.89,31.85,26.22,48.15-21.24-12.78-37.27-33.36-45.35-57.81Zm-30.73-74.44s3.19,8.34,7.68,15.05c7.43,11.1,22.19,20.66,24.13,21.93,9.98,6.55,22.98,18.62,34.78,42.84-14.61-1.13-28.33-7.69-39.48-17.65-.26-.36-.58-.64-.93-.84-16.53-15.24-27.16-38-26.18-61.33Zm-34.22-20.25c1.48-.81,2.99-1.49,4.35-2.08,5.24-2.26,10.76-4.07,16.22-5.63,12.25-3.48,24.92-4.99,37.65-6.23-18.06,8.11-23.91,13.7-25.67,17.44-.44.94-3.02,6.86-4.64,6.5-.19-.04-.31-.17-.35-.19-8.63-4.24-18.06-7.87-27.56-9.81Zm-4.3-6.01c6.73-9.94,17.51-16.79,28.12-21.26,15.64-6.6,32.72-9.77,49.48-10.51,14.21-.63,29.16.41,42.66,5.63-8.24,3.32-16.97,5.34-25.64,6.86-2.54.45-4.5.74-6.31,1-22.38,3.15-30.29,2.66-46.3,5.23-17.4,2.8-27.07,6.57-31.45,8.19-3.56,1.32-7.26,2.82-10.56,4.86Zm-6.77,27.88c2.18,4.45,5.03,8.69,7.21,12.69,3.9,7.18,7.5,14.56,10.33,22.29,1.95,5.31,3.61,10.75,5.68,16.01,0,0,3.95,9.74,10.17,20.06,13.89,23.06,35.01,38.93,34.07,40.08-.7.85-13.5-6.31-26.18-18.7-21.08-20.6-29.42-43.54-32.96-53.26-4.59-12.62-6.46-23.63-6.79-25.76-.65-4.26-1.28-8.83-1.53-13.41Zm-53.18-43.37c1.92-2.29,3.73-4.71,5.69-6.99,10.77,3.19,21.64,6.1,32.58,8.54,5.85,1.3,11.83,2.63,17.81,2.99,1.13.07,2.37.08,3.57-.08-3.96,4.25-7.27,9.07-9.63,14.41-16.21-7.82-32.41-15.61-50.02-18.86Zm-5.11-2.58c-1.53-.84-3.07-1.69-4.6-2.53,0,0,0,0,0,0h0c2.25-5.92,6.54-14.94,14.78-23.49,5.52-5.73,11.03-9.4,15.75-12.13,18.53-10.72,36.76-13.82,53.31-17.53,37.11-8.32,57.63-17.87,58.21-16.31.54,1.45-16.89,10.61-36.34,17.24-18.39,6.27-34.92,9.04-53.04,16.24-4.17,1.66-10.99,4.59-18.8,9.51-3.26,2.05-6.43,4.28-9.52,6.71-6.23,4.9-9.75,7.4-13.26,11.71-1.8,2.21-4.29,5.69-6.48,10.58Zm-6.8,8.32c.61.1,1.22.19,1.83.28,2.42,12.13,10.17,22.03,17.44,31.39,3.88,5,7.94,9.83,12.11,14.56,3.26,3.7,6.45,7.54,10.25,10.62,2.99,2.42,6.12,4.65,8.93,7.3.64.6,1.37,1.65,2.05,2.4-.21,0-.39,0-.52-.03-3.63-.7-7.21-2.7-10.44-4.48-5.27-2.9-10.32-6.33-14.95-10.27-13.87-11.79-27.82-31.79-26.71-51.76ZM37.78,222.91c-.83,19.16-1.26,38.38-5.69,57.02-.17.7-.15,1.34-.01,1.91-2.67,1.58-5.24,3.35-7.68,5.31-.6-5.64,1.11-11.88,2.33-17.18,1.6-6.94,3.67-13.76,5.08-20.75,1.8-8.86,3.72-17.64,5.97-26.31Zm28.29-8.18c-.01,7.63-1.12,15.11-1.42,22.71-.25,6.41-.23,12.82-.52,19.23-.19,4.24.1,10.39-2.27,14.08-.36.57-.55,1.13-.6,1.67-1.94.18-3.87.44-5.79.78-.02-1.94-.09-3.83-.03-5.46.2-5.1.41-10.19.79-15.28.6-8.15,1.96-16.18,3.12-24.26,1.08-7.56,2.23-15.14,4.15-22.51.65-2.49,1.38-5.02,2.3-7.46.08,5.5.28,11.01.27,16.52Zm153.88,60.53c-34.57,2.32-68.84,8.68-102.09,18.99-.92-1-1.86-1.97-2.83-2.92,32.94-15.36,67.59-26.43,103.02-33.05.41,5.69.98,11.35,1.89,16.98Zm1.47,7.46c4.29,18.44,13.28,34.78,27.6,46.75.92.77,1.85,1.52,2.79,2.25-3.62-.65-7.25-1.28-10.89-1.86-16.77-2.68-33.61-4.18-50.47-6.05-6.43-.71-16.17-2.1-28.21-4.16-6.88-1.25-13.99-2.73-21.31-4.46-3.6-.85-7.13-1.74-10.58-2.65-2.09-4.23-4.53-8.25-7.31-12.01,32.09-9.68,65.06-15.68,98.37-17.81Zm48.73,64.1c3.7,7.36,7.39,14.73,11.09,22.09-3.9-2.18-7.97-4.06-12.2-5.59-14.55-5.27-28.86-3.74-56.07-1.2-.65.06-1.17.11-1.47.14-1.7-2.49-4.17-5.96-7.37-9.98-.94-1.18-1.85-2.36-3.11-3.79-4.35-4.92-9.08-9.42-14.12-13.52-2.15-1.75-4.36-3.4-6.61-4.98,11.89,1.51,23.82,2.62,35.75,3.99,14.38,1.65,19.71,2.14,27.33,3.88,11.64,2.65,20.81,6.27,26.79,8.95Zm132.01-204.49c-1.14,1.97-5.22,9.02-6.36,11-.87,1.51-4.63,7.99-5.5,9.5-1.16-10.28-1.17-20.78.43-30.99,2.55-16.25,9.06-31.97,18.87-44.76,5.89-7.68,12.29-14.99,18.28-22.6,1.78-2.27,3.61-4.53,5.52-6.7-10.42,28.19-20.84,56.38-31.26,84.57Zm71.46-76.84c-1.32,2.95-2.53,5.95-3.68,8.97-4.69,13.95-9.39,27.89-14.08,41.84-1.79.19-3.63.43-5.53.71-2.94.44-5.73.96-8.36,1.53,4.74-11.6,9.35-21.45,13.27-29.31,5.83-11.67,10.58-19.95,13.85-25.48,4.59-7.76,9.35-15.5,14.87-22.56,2.38-3.04,5-6.29,7.95-9.08-5.81,11.28-13.08,21.77-18.29,33.39Zm-9.81,47.24c-.33.38-.6.68-.76.86,5.12-11.48,8.62-23.68,13.09-35.44,2.72-4.68,6.48-8.89,9.82-12.59,6.09-6.75,12.76-13.04,19.8-18.65,9.87-7.87,20.33-14.78,30.48-22.22,6.94-5.08,13.82-11.88,21.78-15.43-2.52,7.24-8.25,13.56-13.11,18.75-6.4,6.83-13.42,12.95-19.98,19.6-4.26,4.31-8.79,8.3-13.32,12.29-5.29,4.66-6.95,6.22-8.72,7.82-13.13,11.93-17.25,20.26-39.09,45.01Zm13.33,4.1c-1.99-.28-3.99-.5-5.99-.65,29.99-24.63,65.13-40.23,98.8-58.27-2.11,4.92-5.03,9.43-8.5,13.49-5.04,5.89-13.34,15.03-39.87,27.94-10.89,5.3-25.85,11.78-44.44,17.5Zm-87,113.22c-2.86-8.3-4.05-15.55-4.61-20.51,1.57-38.36,23.78-75.39,60.69-84.09,26.11-6.16,57.51,1.92,76.43,22.42,23.68,25.66,31.79,66.52,17.66,99.49-11.3,26.37-39.6,50.88-72.77,50.34-42.48-.69-68.77-42.6-77.39-67.65Zm-33.35,126.92c1.24-3.08,2.39-6.22,3.44-9.48,2.54-7.9,7.8-14.91,12.88-21.14,12.16-14.92,25.77-28.69,38.82-42.73.34-.36.58-.75.75-1.14,3.31,3.02,6.81,5.79,10.48,8.27-12.31,11.18-23.77,23.22-34.63,35.99-9.65,11.35-20,21.58-31.73,30.24Zm30.08,75.98c-7.68-7.12-12.31-13.19-14.8-16.72-7.18-10.16-11.19-19.79-13.46-26.56,12.7,14.07,27.9,25.08,41.05,38.69,4.37,4.52,10.46,13.47,21.84,22.61,11.79,9.47,20.35,12.74,20.08,13.3-.51,1.02-30.39-8.8-54.7-31.32Zm-38.9-54.14c.56,3.99,1.93,8,3.11,11.2,6.76,18.28,17.33,35.22,28.05,51.14,7.31,10.86,16.05,20.41,24.58,30.17,8.13,9.3,16.46,19.06,22.06,30.38-4.59-2.13-8.9-5.6-12.54-8.66-6.6-5.54-12.65-11.85-18.35-18.4-12.36-14.2-22.1-30.37-31.07-47.14-7.7-14.4-18.94-31.7-15.84-48.69Zm-30.84-28.87c13.56-2.41,26.22-8.92,36.58-19.02,14.07-13.72,24.08-32.12,30.47-51.08,2.96-8.79,5.19-18.06,6.25-27.45,4.49,9.4,10.36,17.9,17.26,25.2-.28.17-.56.39-.82.67-8.91,9.59-17.75,19.25-26.58,28.93-6.23,6.83-12.47,13.6-17.87,21.21-2.74,3.86-5.3,7.93-7.24,12.32-1.49,3.38-2.37,6.92-3.55,10.42-.96,2.84-2.2,5.55-3.5,8.23-9.88-3.94-20.42-7.98-31.01-9.42Zm-44.81-14.18c-5.07-2.21-17.24-8.19-27.51-20.64,0,0-16.71-20.1-19.47-54.53-.16-2.04-.33-4.1-.49-6.17,0-.25-.02-.5-.06-.76-1.46-18.98-2.26-39.16,6.44-56.18,2.13-3.96,4.59-7.65,7.51-11.01,21.31-24.44,57.52-29.39,86.5-20.5,22.92,7.04,43.54,22.82,53.1,45.25,2.1,5.62,4.61,13.93,5.53,24.21,2.21,24.7-6.42,43.53-11.23,54.3-7.62,17.1-14.91,32.02-31.86,42.45-31.12,19.14-66.16,4.56-68.47,3.55Zm43.92,69.01c-3.34-7.15-9.53-16.97-22.03-26.92-5.72-10.69-11.44-21.39-17.15-32.08,4.49,1.65,9.1,2.93,13.78,3.82.08.5.28,1.02.66,1.55,23.2,32.5,44.22,66.71,62.91,102.34-5.38-2.38-10.36-5.6-14.81-9.53-2.39-2.12-6.6-6.17-11.58-13.85-7.03-10.86-8.03-17.29-11.78-25.31Zm-101.38-35.35c3.8-1.17,7.66-2.09,11.58-2.71,17.96-2.82,36.97.34,52.92,9.64,3.37,1.96,6.57,4.2,9.61,6.66.12.11.24.21.36.31,12.26,10.06,21.65,23.92,27.05,39.36,13.76,39.36.79,85.32-33.52,107.45-29.99,19.33-69.74,16.44-95.42-9.52-19.84-20.06-32.35-51.42-29.28-80.61,3.5-33.29,26.58-61.09,56.7-70.58Zm-80.81-48.16c8.68,2.16,17.41,4.07,26.2,5.69.05,0,.09.02.14.02,8.28,3.89,16.12,8.86,23.22,14.81,4.68,3.92,9.06,8.25,13.1,12.91,2.83,3.26,5.16,7.33,8.09,10.47-.75.37-1.57.74-2.44,1.1-1.37.56-2.68.99-3.88,1.32-23.82-12.51-44.57-26.98-62.7-42.76-.25-.22-.51-.44-.76-.67-.32-.96-.65-1.93-.97-2.89Zm-126.46,29.2c-2.77-27.64,10.14-45.89,10.14-45.89,12.85-18.1,32.43-22.69,37.92-23.77,3.17-.62,25.36-4.6,45.94,8.9,16.82,11.03,23.15,27.55,23.18,27.66.07.22.17.43.29.62,7.76,17.35,8.89,38.01,1,55.69-10.63,23.81-34.71,41.18-59.4,43.66-11.77,1.18-23.78-1.15-33.2-9.14-8.88-7.54-14.45-18.34-18.87-29.25-.07-.18-.05-.13-.04-.1-.01-.03-.06-.15-.19-.49-.1-.25-.19-.5-.28-.75-.31-.83-.61-1.66-.9-2.49-.72-2.08-1.38-4.18-1.98-6.31-1.7-5.98-2.99-12.13-3.61-18.35Z"/>
      <path class="cls-1" d="m484.13,372.55c.08-.13.07-.08,0,0h0Z"/>
      <path class="cls-1" d="m434.8,249.55c5.9,4.89,15.27,10.42,24.24,12.3-.12.56-.12,1.19.06,1.87,2.15,8.15,6.17,15.74,11.9,21.66,1.15,1.19,2.92,1.42,4.32.59,6.88-4.03,10.52-11.2,10.52-11.2,2.58-6.03,2.01-11.61,1.53-14.34,2.65.94,21.86,7.57,30.18.54,1.9-1.6,2.64-3.28,2.62-3.65-.65-9.23-6.02-16.39-14.52-18.01,1.73-1.95,3.13-4.31,4.07-7.14,2.83-8.53,1.55-18.35,1.27-27.19-.11-3.37-3.77-4.86-6.09-2.67-5.47,5.17-15.02,4.08-21.72,6.09-.87.26-1.68.58-2.45.93-.21-.76-.66-1.48-1.4-2.05-6.8-5.21-15.66-7.01-23.25-2.66-1.27.73-2.2,2.78-1.64,4.27,2.25,5.95,4.3,13.22,1.57,19.39-.44.99-.46,1.95-.21,2.8-.12.08-.23.16-.35.25-6.15,4.48-11.89,9.41-19.09,11.89-2.28.79-3.83,4.45-1.57,6.32Zm40.51-36.04c-2.05,2.64-2.99,6.02-2.81,9.92-2.99.64-5.84,1.61-8.58,2.88.94-5.39.15-10.94-1.5-16.25,4.46-1.17,9.08.65,12.89,3.45Zm10.94,39.93c2.66-1.42,4.7-3.78,5.69-6.79,1.63-.34,3.21-.79,4.72-1.36,1.7-.64,3.14-1.39,4.31-2.08,2.12.99,4.97,2.57,7.91,5.07,3.35,2.86,6.13,5.23,5.61,7.01-.92,3.15-10.7,4.29-18.7,2.34-3.94-.96-7.12-2.6-9.54-4.19Zm-6.67-29.8c-.33-2.34-.17-4.72,1.8-6.25,2.37-1.84,5.79-2.28,8.6-2.78,4.73-.85,9.74-1.35,14.19-3.23.31,5.63.52,11.39-.75,16.74-1.5,6.32-5.85,9.22-11.2,10.72-.33-1.81-1.19-5.17-3.73-8.53-3.18-4.21-7.17-6-8.92-6.67Zm-1.09,25.58c-2.35-.52-3.37-5.94-2.85-9.86.46-3.41,2.11-5.87,3.14-7.15,3.56,1.46,6.02,4.47,6.29,7.83.4,4.99-4.11,9.74-6.58,9.19Zm-12.29,13.28c5.33-.26,10.09-2.42,13.3-7.55,1.52.06,2.98-.13,4.34-.53.15,4.32-.41,11.15-4.62,17.64-1.61,2.48-3.42,4.4-5.07,5.86-3.69-4.45-6.34-9.72-7.95-15.42Zm-21.62-14.86c8.95-5,16.57-12.8,26.15-16.01-3.14,7-3.17,16.2,1.74,20.67-6.24,6.67-19.6.73-27.9-4.66Z"/>
      <path class="cls-1" d="m179.86,452.55c-.24,6.23.79,15.18,3.89,22.31-.41.15-.8.41-1.14.83-4.06,4.95-6.87,10.97-7.83,17.52-.19,1.32.51,2.66,1.69,3.31,5.79,3.17,12,2.74,12,2.74,4.99-.71,8.2-3.45,9.67-4.94.68,2.27,5.7,18.64,14.05,21.58,1.9.67,3.3.49,3.52.32,5.44-4.34,7.35-11.14,4.3-17.84,2.04.41,4.18.4,6.39-.12,6.67-1.58,12.18-6.61,17.55-10.53,2.05-1.49,1.23-4.71-1.24-5.43-5.83-1.7-9.7-8.92-14.15-12.8-.58-.51-1.16-.94-1.75-1.34.37-.47.61-1.09.61-1.85,0-7-3.09-14.02-9.43-17.57-1.06-.59-2.78-.39-3.44.63-2.64,4.09-6.19,8.6-11.33,9.26-.83.11-1.44.49-1.85,1.02-.11-.05-.21-.1-.32-.14-5.72-2.47-11.53-4.46-16.51-8.51-1.58-1.28-4.6-.84-4.69,1.54Zm41.78,13.52c-2.63-.34-5.18.42-7.52,2.18-1.83-1.85-3.79-3.45-5.89-4.86,3.81-1.6,6.89-4.49,9.41-7.89,2.85,2.66,3.92,6.7,4,10.57Zm-19.68,24.51c2.15,1.28,4.59,1.74,6.94,1.17.99,1.01,2.02,1.94,3.1,2.77,1.21.94,2.36,1.64,3.35,2.17.39,1.91.77,4.6.61,7.73-.18,3.57-.34,6.54-1.7,6.91-2.4.67-7.78-5.77-10.37-12.25-1.28-3.19-1.77-6.13-1.94-8.51Zm15.4-17.24c1.3-1.22,2.86-2.1,4.76-1.35,2.28.9,4.18,3.14,5.83,4.91,2.79,2.99,5.48,6.33,8.78,8.68-3.36,2.58-6.85,5.15-10.79,6.5-4.66,1.6-8.54-.26-12.03-3.42.97-.99,2.65-3.01,3.54-6.22,1.11-4.02.32-7.59-.09-9.11Zm-16.46,9.98c-.79-1.88,2.09-4.88,4.78-6.16,2.34-1.11,4.67-.97,5.96-.78.79,3.13.08,6.14-1.88,7.74-2.92,2.38-8.03,1.18-8.86-.79Zm-14.14-3.11c2.7,3.66,6.32,6.12,11.05,6.24.69,1.1,1.5,2.05,2.4,2.85-2.62,1.92-7.15,4.39-13.2,4.14-2.32-.09-4.37-.57-6.07-1.13,1.01-4.48,3.04-8.57,5.82-12.1Zm-1.05-21.54c7.39,4.23,15.88,6.35,22.45,11.78-5.86.72-11.61,4.56-12.05,9.91-7.13-1.61-9.8-13.56-10.39-21.69Z"/>
    </g>
  </g>
</svg>