<?xml version="1.0" encoding="UTF-8"?>
<svg id="Layer_2" data-name="Layer 2" xmlns="http://www.w3.org/2000/svg" viewBox="0 0 906.82 727.27">
  <defs>
    <style>
      .cls-1 {
        fill: #353535;
        stroke-width: 0px;
      }
    </style>
  </defs>
  <g id="art">
    <g>
      <polygon class="cls-1" points="653.73 231.36 650.54 227.9 643.68 234.44 648.8 240.27 653.73 231.36"/>
      <polygon class="cls-1" points="667.21 261.09 674.14 254.39 655.19 232.95 650.9 242.64 667.21 261.09"/>
      <polygon class="cls-1" points="630.58 271.22 633.74 263.12 637.81 252.72 633.66 246.76 630.71 249.41 616.83 261.86 615.67 262.91 628.21 277.29 630.58 271.22"/>
      <polygon class="cls-1" points="635.52 285.28 643.16 259.83 639.44 254.82 631.41 279.25 635.52 285.28"/>
      <path class="cls-1" d="m482.97,422.47c47.64-39.47,98.48-82.57,153.54-129.78,7.62-6.54,15.34-13.16,23.13-19.86,5.11,6.12,10.24,12.45,15.53,19.12l7.52-6.33c-4.87-5.94-9.6-11.65-14.22-17.14l13.03-11.74-1.87-2.09c.79-.72,1.58-1.44,2.37-2.16,1.05-.95,2.09-1.91,3.14-2.86,9.09-5.14,14.48-11.39,20.78-19.08.38-.35.76-.7,1.14-1.05.55-.51,1.1-1.02,1.64-1.53.74-.67,1.46-1.35,2.2-2.02,7.87-5.66,13.81-10.47,18.77-17.48.7-.65,1.41-1.31,2.1-1.96.52-.5,1.04-.99,1.56-1.48.94-.87,1.85-1.74,2.78-2.61,6.4-4.2,11.4-8.06,15.62-14.76.81-.76,1.61-1.53,2.41-2.29,1.09-1.03,2.17-2.07,3.26-3.1,1.14-1.09,2.28-2.18,3.42-3.27,5.78-3.93,9.61-8.26,14.06-13.51,1.46-1.41,2.94-2.83,4.4-4.25.89-.87,1.78-1.73,2.67-2.6.96-.93,1.9-1.85,2.85-2.78,8.55-5.51,14.55-11.42,20.3-19.92.09-.08.17-.16.25-.24,9.05-6.95,16.65-13.81,25.15-25.16,10.37-7.94,15.73-14.54,23.55-24.18.78-.81,1.56-1.62,2.33-2.43,8-7.14,13.59-12.69,19.39-20.45.14-.15.28-.3.42-.45,1.19-1.27,2.37-2.54,3.54-3.8.36-.39.7-.76,1.06-1.14,7.3-6.64,13.71-13.38,17.36-18.96,1.3-1.43,2.61-2.87,3.89-4.3.12-.12.24-.25.35-.38,1.51-1.68,1.87-3.97,1.17-5.96l.67-.69c3.55-3.69,3.43-9.56-.25-13.11l-12.59-12.1c-3.69-3.55-9.55-3.44-13.1.25l-1.03,1.07c-.57-.15-1.14-.24-1.73-.22-1.59.06-3.1.74-4.17,1.9-.35.38-.7.76-1.06,1.13h-.01c-.87.95-1.75,1.89-2.63,2.83-3.92,1.58-16.72,12.72-19.88,21.06-3.21,1.97-17.92,13.79-23.79,24.65-9.23,6.77-17.38,15.51-25.6,25.91-10.93,9.56-18.17,16-26.48,26.3-9.25,6.75-16.54,12.71-24.52,23.94-8.83,7.23-15.75,12.22-21.07,20.36-10.16,8.29-16.6,14.32-24.52,23.49-11.05,8.97-18.3,14.98-24.82,23.66-9.61,7.51-16.14,13.49-22.66,21.51-1,.94-1.98,1.88-2.98,2.83l-1.72-1.9-12.75,11.49c-4.81-5.02-9.54-9.73-14.25-14.13l-7.52,6.33c5.8,5.53,11.27,10.98,16.55,16.47-7.56,6.82-15.07,13.59-22.53,20.28-54.38,48.78-105.96,93.92-155.71,135.91-49.75-41.99-101.33-87.13-155.71-135.91-7.46-6.69-14.97-13.46-22.53-20.28,5.28-5.49,10.75-10.94,16.55-16.47l-7.52-6.33c-4.71,4.4-9.44,9.11-14.25,14.13l-12.75-11.49-1.72,1.9c-1-.95-1.98-1.89-2.98-2.83-6.52-8.02-13.05-14-22.66-21.51-6.52-8.68-13.77-14.69-24.82-23.66-7.92-9.17-14.36-15.2-24.52-23.49-5.32-8.14-12.24-13.13-21.07-20.36-7.98-11.23-15.27-17.19-24.52-23.94-8.31-10.3-15.55-16.74-26.48-26.3-8.22-10.4-16.37-19.14-25.6-25.91-5.87-10.86-20.58-22.68-23.79-24.65-3.16-8.34-15.96-19.48-19.88-21.06-.88-.94-1.76-1.88-2.63-2.83h0c-.36-.37-.71-.75-1.06-1.13-1.07-1.16-2.58-1.84-4.17-1.9-.59-.02-1.16.07-1.73.22l-1.03-1.07c-3.55-3.69-9.41-3.8-13.1-.25L2.84,14.69c-3.68,3.55-3.8,9.42-.25,13.11l.67.69c-.7,1.99-.34,4.28,1.17,5.96.11.13.23.26.35.38,1.28,1.43,2.59,2.87,3.89,4.3,3.65,5.58,10.06,12.32,17.36,18.96.36.38.7.75,1.06,1.14,1.17,1.26,2.35,2.53,3.54,3.8.14.15.28.3.42.45,5.8,7.76,11.39,13.31,19.39,20.45.77.81,1.55,1.62,2.33,2.43,7.82,9.64,13.18,16.24,23.55,24.18,8.5,11.35,16.1,18.21,25.15,25.16.08.08.16.16.25.24,5.75,8.5,11.75,14.41,20.3,19.92.95.93,1.89,1.85,2.85,2.78.89.87,1.78,1.73,2.67,2.6,1.46,1.42,2.94,2.84,4.4,4.25,4.45,5.25,8.28,9.58,14.06,13.51,1.14,1.09,2.28,2.18,3.42,3.27,1.09,1.03,2.17,2.07,3.26,3.1.8.76,1.6,1.53,2.41,2.29,4.22,6.7,9.22,10.56,15.62,14.76.93.87,1.84,1.74,2.78,2.61.52.49,1.04.98,1.56,1.48.69.65,1.4,1.31,2.1,1.96,4.96,7.01,10.9,11.82,18.77,17.48.74.67,1.46,1.35,2.2,2.02.54.51,1.09,1.02,1.64,1.53.38.35.76.7,1.14,1.05,6.3,7.69,11.69,13.94,20.78,19.08,1.05.95,2.09,1.91,3.14,2.86.79.72,1.58,1.44,2.37,2.16l-1.87,2.09,13.03,11.74c-4.62,5.49-9.35,11.2-14.22,17.14l7.52,6.33c5.29-6.67,10.42-13,15.53-19.12,7.79,6.7,15.51,13.32,23.13,19.86,55.06,47.21,105.9,90.31,153.54,129.78C276.45,544.95,143.87,639.98,0,721.34c14.47,7.39,44.85,8.43,60.97-.11,122.86-65.04,241.94-151.11,392.44-274.4,150.5,123.29,269.58,209.36,392.44,274.4,16.12,8.54,46.5,7.5,60.97.11-143.87-81.36-276.45-176.39-423.85-298.87Zm196.14-136.25l-3.32,2.9c-4.88-6.27-9.65-12.21-14.32-17.86-.01,0-.02-.01-.02-.02-3.27-3.95-6.49-7.75-9.66-11.41-1.42-1.64-2.83-3.25-4.22-4.83l.98-.99,2.11-2.11c5.04,5.82,10.26,12.05,15.62,18.55,4.21,5.12,8.5,10.39,12.83,15.77ZM898.7,17.48c.44-.38.34-1.25,0-2.21-1.44-2.54-3.47-5.43-6.4-8.59,12.26,10.01,14.38,15.12,9.73,19.42h0s-5.67-5.32-5.67-5.32l-11-10.29-4.4-4.12-1.15-1.07c4.43-1.43,11.62,4.27,18.89,12.18Zm-20.26-1.72l9.48,2.65,3.01,9.37,1.47,4.56-14.6-3.79-4.93-14.35,5.57,1.56Zm-10.08,22.95l6.16,19.16-19.08-4.94s-6.4-19.3-6.4-19.62l19.32,5.4Zm-42.64,18.73l20.27,5.66,6.26,19.44-20.74-5.37s-6.03-19.48-5.79-19.73Zm-23.93,24.24l20.28,5.67,6.9,21.43c.03.21.07.43.08.63l-.55.61-22.18-5.75s-5.33-21.79-4.53-22.59Zm-4.91,32.77l6.22,19.28-21.79-5.66s-6.45-19.64-6.34-19.75l21.91,6.13Zm-46.42,17.82l21.4,5.97,6.26,19.39-22.02-5.7s-5.92-19.39-5.64-19.66Zm-3.81,29.83l6.11,18.97-17.97-4.66-6.7-19.5,18.56,5.19Zm-21.31,24.48s5.06,17.43,4.84,17.63l-20.22-5.23-6.36-18.48,21.74,6.08Zm-24.84,22.56l5.55,17.24-21.23-4.59-6.46-18.84,22.14,6.19Zm-25.54,22.69l2.83,18.86-21.76-24.15,18.93,5.29Zm-24.7-7.55l.78.87,1.1,1.23,3.15,3.48,1.42,1.58,11.39,12.64,10.43,11.57-8.51,7.72-1.95,1.76-10.32-11.63-10.88-12.26-1.61-1.82-3.12-3.51-2.13-2.4,10.25-9.23Zm-36.58,37.85c.15-.13.31-.28.47-.42,5.07-4.55,10.92-9.92,16.33-14.85,1.15-1.04,2.27-2.06,3.36-3.05,8.18,8.59,15.91,17.29,23.64,26.45-3.77,3.25-7.52,6.47-11.25,9.67-3.31,2.84-6.61,5.68-9.89,8.49l-1.49-1.67-21.16-23.87-.37-.42c.12-.11.24-.22.36-.33Zm-381.82-30.3l18.93-5.29-21.76,24.15,2.83-18.86ZM4.79,26.09h0c-1.48-1.36-2.27-2.81-2.27-4.47,0-3.57,3.64-8.12,12-14.94-2.93,3.16-4.96,6.05-6.4,8.59-.34.96-.44,1.83,0,2.21,7.27-7.91,14.46-13.61,18.89-12.18l-1.15,1.07-4.4,4.12-11,10.29-5.67,5.31Zm24.23,2.46l-14.6,3.79,1.47-4.56,3.01-9.37,9.48-2.65,5.57-1.56-4.93,14.35Zm22.36,24.38l-19.08,4.94,6.16-19.16,19.32-5.4c0,.32-6.4,19.62-6.4,19.62Zm23.93,24.24l-20.74,5.37,6.26-19.44,20.27-5.66c.24.25-5.79,19.73-5.79,19.73Zm25.19,27.1l-22.18,5.75-.55-.61c0-.2.05-.42.08-.63l6.9-21.43,20.28-5.67c.8.8-4.53,22.59-4.53,22.59Zm25.01,23.8l-21.79,5.66,6.22-19.28,21.91-6.13c.11.11-6.34,19.75-6.34,19.75Zm25.21,23.86l-22.02,5.7,6.26-19.39,21.4-5.97c.28.27-5.64,19.66-5.64,19.66Zm21.31,24.48l-17.97,4.66,6.11-18.97,18.56-5.19-6.7,19.5Zm24.83,22.57l-20.22,5.23c-.22-.2,4.84-17.63,4.84-17.63l21.74-6.08-6.36,18.48Zm25.14,22.81l-21.23,4.59,5.55-17.24,22.14-6.19-6.46,18.84Zm14.8,41.58l-8.51-7.72,10.43-11.57,11.39-12.64,1.42-1.58,3.15-3.48,1.1-1.23.78-.87,10.25,9.23-2.13,2.4-3.12,3.51-1.61,1.82-10.88,12.26-10.32,11.63-1.95-1.76Zm8.57,7.87s-.01.02-.02.02c-4.67,5.65-9.44,11.59-14.32,17.86l-3.32-2.9c4.33-5.38,8.62-10.65,12.83-15.77,5.36-6.5,10.58-12.73,15.62-18.55l2.11,2.11.98.99c-1.39,1.58-2.8,3.19-4.22,4.83-3.17,3.66-6.39,7.46-9.66,11.41Zm25.11,17.18c-3.28-2.81-6.58-5.65-9.89-8.49-3.73-3.2-7.48-6.42-11.25-9.67,7.73-9.16,15.46-17.86,23.64-26.45,1.09.99,2.21,2.01,3.36,3.05,5.41,4.93,11.26,10.3,16.33,14.85.16.14.32.29.47.42l.36.33-.37.42-21.16,23.87-1.49,1.67Zm3.56.07l18.43-20.79c-1.02,6.35-2.77,15.78-2.37,16.14,50.01,44.59,99.28,87.29,147.16,127.45-3.07,2.56-6.12,5.11-9.17,7.65-47.58-39.57-98.55-82.87-154.05-130.45Zm175.15,154.88c-147.72,121.52-263.41,206.09-385.03,271.58-1.37-6.71-38.84,5.95-56.74,4.79,13.38-3.62,36.28-6.56,65.33-21.91,96.89-51.21,225.21-144.49,367.31-261.97,1.41-1.16,2.82-2.33,4.23-3.5,3.03-2.51,6.07-5.03,9.12-7.57,5.36-4.46,10.75-8.96,16.15-13.5,47.88-40.16,97.15-82.86,147.16-127.45.4-.36-1.35-9.79-2.37-16.14l18.43,20.79c-55.5,47.58-106.47,90.88-154.05,130.45-5.44,4.52-10.85,9-16.2,13.42-3.06,2.53-6.1,5.04-9.12,7.53-1.41,1.16-2.82,2.32-4.22,3.48Zm393.47,271.58c-121.62-65.49-237.31-150.06-385.03-271.58,3.03-2.49,6.07-4.99,9.13-7.51,142.1,117.48,270.42,210.76,367.31,261.97,29.05,15.35,51.95,18.29,65.33,21.91-17.9,1.16-55.37-11.5-56.74-4.79Z"/>
      <polygon class="cls-1" points="263.14 234.44 256.28 227.9 253.09 231.36 258.02 240.27 263.14 234.44"/>
      <polygon class="cls-1" points="255.92 242.64 251.63 232.95 232.68 254.39 239.61 261.09 255.92 242.64"/>
      <polygon class="cls-1" points="276.11 249.41 273.16 246.76 269.01 252.72 273.08 263.12 276.24 271.22 278.61 277.29 291.15 262.91 289.99 261.86 276.11 249.41"/>
      <polygon class="cls-1" points="263.66 259.83 271.3 285.28 275.41 279.25 267.38 254.82 263.66 259.83"/>
    </g>
  </g>
</svg>