<?xml version="1.0" encoding="UTF-8"?>
<svg id="Layer_2" data-name="Layer 2" xmlns="http://www.w3.org/2000/svg" viewBox="0 0 354.14 307.86">
  <defs>
    <style>
      .cls-1 {
        fill: #f3f7f2;
      }

      .cls-1, .cls-2 {
        stroke-width: 0px;
      }

      .cls-2 {
        fill: #414042;
      }
    </style>
  </defs>
  <g id="Layer_1-2" data-name="Layer 1">
    <g>
      <g>
        <g>
          <g>
            <path class="cls-1" d="m69.99,74.94c-15.79-15.79-30.1-30.85-42.56-44.78-3.47-3.88-5.71-8.65-6.46-13.79-.13-.87-.21-1.74-.25-2.6l-.57-12.09c.89,1.06,1.79,2.13,2.71,3.2,15.24,17.92,33.8,37.83,55.16,59.19,2.1,2.1,4.22,4.2,6.34,6.3,58.32,57.62,122.92,112.27,156.26,139.73l.07.06c1.38,1.14,2.68,2.2,3.9,3.21l.97.8c3.99,3.27,7.23,5.9,9.6,7.83.33.26.63.5.91.74,0,0,2.43,1.96,2.95,2.38l-8.16,10.75c-.62-.5-3.8-3.06-3.8-3.06-2.53-2.04-6.04-4.9-10.38-8.46-1.27-1.04-2.61-2.14-4.02-3.3l-.08-.06c-35.14-28.95-102.95-86.39-162.6-146.04Z"/>
            <path class="cls-2" d="m257.59,225.29l-4.53,5.96-.08.11-2.29,3.02c-.55-.44-1.22-.98-2.02-1.63-.04-.03-.08-.06-.13-.1l-.03-.02-.03-.02c-.15-.12-.3-.24-.46-.37l-.29-.24c-3.35-2.71-6.84-5.55-10.38-8.46-1.27-1.04-2.61-2.14-4.02-3.3l-.02-.02-.08-.06c-35.1-28.92-102.89-86.33-162.51-145.95-15.77-15.77-30.08-30.82-42.52-44.74-3.34-3.73-5.48-8.31-6.21-13.25-.12-.83-.2-1.67-.24-2.5l-.43-9.02c.24.29.49.58.73.86,15.26,17.94,33.83,37.88,55.21,59.25,2.11,2.11,4.22,4.21,6.35,6.31,58.35,57.64,122.98,112.32,156.34,139.8l.02.02.08.06c1.41,1.16,2.75,2.26,4.02,3.31l.82.68c3.72,3.05,7.04,5.75,9.62,7.84.31.25.61.49.91.74l.14.12c.17.13.33.26.5.4.58.47,1.09.88,1.51,1.22h0Zm2.88-.36s-1.07-.85-3.09-2.48c-.21-.17-.42-.34-.65-.52-.29-.24-.59-.48-.92-.74-2.38-1.92-5.61-4.56-9.6-7.82-1.51-1.24-3.13-2.56-4.84-3.98-.02-.02-.04-.03-.06-.05-31.67-26.09-97.32-81.5-156.23-139.7-2.12-2.1-4.23-4.2-6.34-6.3C58.9,43.5,40,23.44,23.65,4.21c-1.12-1.32-2.24-2.64-3.34-3.96-.01-.02-.03-.03-.05-.05-.44-.44-1.23-.12-1.2.53l.62,13.08c.04.91.13,1.81.26,2.71.78,5.31,3.1,10.3,6.71,14.34,13.2,14.76,27.63,29.85,42.6,44.82,60.5,60.5,129.84,119.05,162.66,146.09.02.02.04.03.06.05,1.42,1.17,2.78,2.28,4.06,3.33,4.34,3.57,7.86,6.42,10.39,8.46.27.22.53.43.77.62.05.04.1.08.14.11,2.42,1.96,3.72,2.99,3.72,2.99l3.58-4.72.07-.1,5.76-7.59h0Z"/>
          </g>
          <g>
            <path class="cls-2" d="m243.66,259.42h113.53c3.31,0,5.99,2.68,5.99,5.99v3.6c0,3.31-2.68,5.99-5.99,5.99h-113.53v-15.58h0Z" transform="translate(222.72 -128.96) rotate(37.12)"/>
            <path class="cls-2" d="m249.98,237.51l10.34-13.66,91.15,68.98c.25.19.49.4.71.62,2.37,2.37,2.63,6.19.61,8.87l-2.17,2.87c-1.09,1.44-2.68,2.37-4.47,2.62-1.79.25-3.57-.22-5.01-1.31l-91.15-68.98Zm10.64-11.48l-8.46,11.18,89.9,68.04c1.11.84,2.48,1.2,3.86,1.01,1.38-.19,2.6-.91,3.44-2.02l2.17-2.87c1.71-2.25,1.3-5.55-1.01-7.3l-89.9-68.04Z"/>
          </g>
          <g>
            <path class="cls-2" d="m247.59,233.54c-.28.32-.77.37-1.1.1-.06-.05-.12-.09-.18-.14-2.41-1.95-4.88-3.95-8.88-7.23-.33-.27-.39-.74-.14-1.08l8.31-11.26c.27-.36.79-.43,1.14-.14,3.69,3.02,6.71,5.48,8.95,7.29.32.26.63.51.92.74,0,0,0,0,0,0,.35.28.4.8.1,1.14l-9.15,10.58Z"/>
            <path class="cls-2" d="m236.83,226.77c-.54-.55-.61-1.42-.15-2.04l8.31-11.26c.25-.34.64-.57,1.07-.63.43-.05.86.07,1.19.35,3.69,3.02,6.7,5.47,8.95,7.29.32.26.63.51.92.75.7.57.78,1.59.2,2.25l-9.15,10.58c-.56.65-1.52.73-2.18.19l-.11-.09c-2.47-2-4.94-4-8.94-7.28l-.11-.1Zm19.29-4.36s-.03-.02-.04-.04c-.23-.18-.53-.43-.85-.68-2.25-1.82-5.27-4.28-8.96-7.3l-8.33,11.28-.55.55.55-.55c3.99,3.28,6.46,5.27,8.87,7.22l.17.14,9.17-10.58s-.02-.03-.03-.04Z"/>
          </g>
          <path class="cls-2" d="m75.87,66.34C54.45,44.92,35.9,25.02,20.64,7.07l-1.26-1.48,1.98-1.68,1.25,1.48c16.68,19.62,37.33,41.6,61.36,65.35,58.27,57.57,122.84,112.19,156.15,139.62l.09.07c1.46,1.2,2.85,2.34,4.16,3.41l.66.54-1.65,2.01-.66-.54c-1.32-1.08-2.72-2.23-4.19-3.44l-.08-.07c-33.34-27.47-97.96-82.13-156.29-139.76-2.12-2.09-4.22-4.18-6.28-6.24Z"/>
          <path class="cls-2" d="m74.41,67.82C53.2,46.61,34.79,26.87,19.62,9.07l1.98-1.68c16.6,19.48,37.1,41.29,60.91,64.82,58.27,57.57,122.84,112.19,156.15,139.62l.09.08c1.34,1.1,2.66,2.18,3.91,3.2l.9.74-1.65,2.01-.9-.74c-1.25-1.02-2.56-2.1-3.94-3.24l-.09-.08c-33.3-27.43-97.94-82.11-156.29-139.75-2.12-2.09-4.21-4.17-6.27-6.24Z"/>
          <path class="cls-2" d="m20.85,19.43c16.01,18.29,32.84,35.85,50.06,53,4.3,4.3,8.65,8.53,13.01,12.77,4.34,4.26,8.75,8.44,13.14,12.63,4.38,4.21,8.84,8.33,13.26,12.5l13.38,12.37c4.5,4.09,8.96,8.21,13.49,12.26,4.51,4.07,9.03,8.13,13.58,12.16,9.08,8.08,18.23,16.08,27.42,24.03,18.39,15.89,36.97,31.55,55.77,46.96l.05.05.06.05-.05-.05,4.85,3.96-.99,1.2-4.83-3.99-.05-.05-.06-.05.05.05c-18.72-15.51-37.23-31.28-55.55-47.27-9.15-8-18.26-16.05-27.3-24.18-4.53-4.05-9.03-8.14-13.52-12.23-4.51-4.08-8.95-8.22-13.43-12.33l-13.32-12.45c-4.4-4.2-8.84-8.35-13.2-12.58-4.37-4.22-8.76-8.43-13.08-12.71-4.34-4.26-8.67-8.52-12.95-12.84-17.14-17.24-33.88-34.89-49.79-53.27Z"/>
          <g>
            <path class="cls-2" d="m242.04,245.05h0c-1.3-.98-1.55-2.83-.57-4.13l19.66-25.98c.98-1.3,2.83-1.55,4.13-.57h0c1.3.98,1.55,2.83.57,4.13l-19.66,25.98c-.98,1.3-2.83,1.55-4.13.57Z"/>
            <path class="cls-2" d="m241.1,245.41c-1.35-1.35-1.49-3.51-.34-5.03l19.66-25.98c1.28-1.69,3.69-2.02,5.38-.74,1.71,1.29,2,3.72.74,5.38l-19.66,25.98c-1.28,1.69-3.69,2.02-5.38.74-.14-.11-.28-.23-.4-.35Zm23.83-30.14c-.07-.07-.14-.13-.22-.19-.9-.68-2.19-.5-2.88.4l-19.66,25.98c-.67.89-.51,2.18.4,2.88.9.68,2.19.5,2.88-.4l19.66-25.98c.62-.81.54-1.97-.18-2.69Z"/>
          </g>
          <g>
            <g>
              <path class="cls-1" d="m259.35,237.91l3.85-5.08c.32-.42.99-.15.93.37l-.42,3.68c-.02.19-.14.35-.32.42l-3.43,1.4c-.49.2-.93-.37-.61-.79Z"/>
              <path class="cls-2" d="m259.21,238.77c-.28-.28-.31-.71-.07-1.02l3.85-5.08c.14-.18.34-.29.56-.31.46-.03.89.39.83.87l-.42,3.68c-.03.28-.22.52-.48.63l-3.43,1.4c-.3.12-.62.06-.84-.17Zm4.59-5.82c-.05-.05-.14-.09-.21-.08-.07,0-.13.04-.18.1l-3.85,5.08c-.09.13-.05.26.03.34.04.04.13.11.28.05l3.43-1.4c.09-.04.15-.12.16-.21l.42-3.68c0-.08-.01-.15-.07-.21Z"/>
            </g>
            <g>
              <path class="cls-1" d="m265.08,243.11l.48-4.2c.02-.17.13-.31.29-.38l3.91-1.6c.33-.13.68.13.64.48l-.48,4.2c-.02.17-.13.31-.29.38l-3.91,1.6c-.33.13-.68-.13-.64-.48Z"/>
              <path class="cls-2" d="m265.05,243.65c-.15-.15-.22-.36-.2-.57l.48-4.2c.03-.25.19-.47.43-.57l3.91-1.6c.26-.11.56-.05.76.15.15.15.22.36.2.57l-.48,4.2c-.03.25-.19.47-.43.57l-3.91,1.6c-.26.11-.56.05-.76-.15Zm5.05-6.45c-.05-.05-.15-.09-.25-.05l-3.91,1.6c-.08.03-.13.1-.14.19l-.48,4.2c-.01.1.04.16.07.19.05.05.15.1.25.05l3.91-1.6c.08-.03.13-.1.14-.19l.48-4.2c.01-.1-.04-.16-.07-.19Z"/>
            </g>
            <g>
              <path class="cls-1" d="m271.55,248.01l.48-4.2c.02-.17.13-.31.29-.38l3.91-1.6c.33-.13.68.13.64.48l-.48,4.2c-.02.17-.13.31-.29.38l-3.91,1.6c-.33.13-.68-.13-.64-.48Z"/>
              <path class="cls-2" d="m271.52,248.55c-.15-.15-.22-.36-.2-.57l.48-4.2c.03-.25.19-.47.43-.57l3.91-1.6c.26-.11.56-.05.76.15.15.15.22.36.2.57l-.48,4.2c-.03.25-.19.47-.43.57l-3.91,1.6c-.26.11-.56.05-.76-.15Zm5.05-6.45c-.05-.05-.15-.09-.25-.05l-3.91,1.6c-.08.03-.13.1-.14.19l-.48,4.2c-.01.1.04.16.07.19.05.05.15.09.25.05l3.91-1.6c.08-.03.13-.1.14-.19l.48-4.2c.01-.1-.04-.16-.07-.19Z"/>
            </g>
            <g>
              <path class="cls-1" d="m278.02,252.91l.48-4.2c.02-.17.13-.31.29-.38l3.91-1.6c.33-.13.68.13.64.48l-.48,4.2c-.02.17-.13.31-.29.38l-3.91,1.6c-.33.13-.68-.13-.64-.48Z"/>
              <path class="cls-2" d="m277.98,253.45c-.15-.15-.22-.36-.2-.57l.48-4.2c.03-.25.19-.47.43-.57l3.91-1.6c.26-.11.56-.05.76.15.15.15.22.36.2.57l-.48,4.2c-.03.25-.19.47-.43.57l-3.91,1.6c-.26.11-.56.05-.76-.15Zm5.05-6.45c-.05-.05-.15-.09-.25-.05l-3.91,1.6c-.08.03-.13.1-.14.19l-.48,4.2c-.01.1.04.16.07.19.05.05.15.09.25.05l3.91-1.6c.08-.03.13-.1.14-.19l.48-4.2c.01-.1-.04-.16-.07-.19Z"/>
            </g>
            <g>
              <path class="cls-1" d="m284.48,257.81l.48-4.2c.02-.17.13-.31.29-.38l3.91-1.6c.33-.13.68.13.64.48l-.48,4.2c-.02.17-.13.31-.29.38l-3.91,1.6c-.33.13-.68-.13-.64-.48Z"/>
              <path class="cls-2" d="m284.45,258.35c-.15-.15-.22-.36-.2-.57l.48-4.2c.03-.25.19-.47.43-.57l3.91-1.6c.26-.11.56-.05.76.15.15.15.22.36.2.57l-.48,4.2c-.03.25-.19.47-.43.57l-3.91,1.6c-.26.11-.56.05-.76-.15Zm5.05-6.45c-.05-.05-.15-.09-.25-.05l-3.91,1.6c-.08.03-.13.1-.14.19l-.48,4.2c-.01.1.04.16.07.19.05.05.15.09.25.05l3.91-1.6c.08-.03.13-.1.14-.19l.48-4.2c.01-.1-.04-.16-.07-.19Z"/>
            </g>
            <g>
              <path class="cls-1" d="m290.95,262.71l.48-4.2c.02-.17.13-.31.29-.38l3.91-1.6c.33-.13.68.13.64.48l-.48,4.2c-.02.17-.13.31-.29.38l-3.91,1.6c-.33.13-.68-.13-.64-.48Z"/>
              <path class="cls-2" d="m290.92,263.25c-.15-.15-.22-.36-.2-.57l.48-4.2c.03-.25.19-.47.43-.57l3.91-1.6c.26-.11.56-.05.76.15.15.15.22.36.2.57l-.48,4.2c-.03.25-.19.47-.43.57l-3.91,1.6c-.26.11-.56.05-.76-.15Zm5.05-6.45c-.05-.05-.15-.1-.25-.05l-3.91,1.6c-.08.03-.13.1-.14.19l-.48,4.2c-.01.1.04.16.07.19.05.05.15.09.25.05l3.91-1.6c.08-.03.13-.1.14-.19l.48-4.2c.01-.1-.04-.16-.07-.19Z"/>
            </g>
            <g>
              <path class="cls-1" d="m297.42,267.61l.48-4.2c.02-.17.13-.31.29-.38l3.91-1.6c.33-.13.68.13.64.48l-.48,4.2c-.02.17-.13.31-.29.38l-3.91,1.6c-.33.13-.68-.13-.64-.48Z"/>
              <path class="cls-2" d="m297.39,268.15c-.15-.15-.22-.36-.2-.57l.48-4.2c.03-.25.19-.47.43-.57l3.91-1.6c.26-.11.56-.05.76.15.15.15.22.36.2.57l-.48,4.2c-.03.25-.19.47-.43.57l-3.91,1.6c-.26.11-.56.05-.76-.15Zm5.05-6.45c-.05-.05-.15-.1-.25-.05l-3.91,1.6c-.08.03-.13.1-.14.19l-.48,4.2c-.01.1.04.16.07.19.05.05.15.09.25.05l3.91-1.6c.08-.03.13-.1.14-.19l.48-4.2c.01-.1-.04-.16-.07-.19Z"/>
            </g>
            <g>
              <path class="cls-1" d="m303.89,272.5l.48-4.2c.02-.17.13-.31.29-.38l3.91-1.6c.33-.13.68.13.64.48l-.48,4.2c-.02.17-.13.31-.29.38l-3.91,1.6c-.33.13-.68-.13-.64-.48Z"/>
              <path class="cls-2" d="m303.85,273.05c-.15-.15-.22-.36-.2-.57l.48-4.2c.03-.25.19-.47.43-.57l3.91-1.6c.26-.11.56-.05.76.15.15.15.22.36.2.57l-.48,4.2c-.03.25-.19.47-.43.57l-3.91,1.6c-.26.11-.56.05-.76-.15Zm5.05-6.45c-.05-.05-.15-.09-.25-.05l-3.91,1.6c-.08.03-.13.1-.14.19l-.48,4.2c-.01.1.04.16.07.19.05.05.15.09.25.05l3.91-1.6c.08-.03.13-.1.14-.19l.48-4.2c.01-.1-.04-.16-.07-.19Z"/>
            </g>
            <g>
              <path class="cls-1" d="m310.35,277.4l.48-4.2c.02-.17.13-.31.29-.38l3.91-1.6c.33-.13.68.13.64.48l-.48,4.2c-.02.17-.13.31-.29.38l-3.91,1.6c-.33.13-.68-.13-.64-.48Z"/>
              <path class="cls-2" d="m310.32,277.95c-.15-.15-.22-.36-.2-.57l.48-4.2c.03-.25.19-.47.43-.57l3.91-1.6c.26-.11.56-.05.76.15.15.15.22.36.2.57l-.48,4.2c-.03.25-.19.47-.43.57l-3.91,1.6c-.26.11-.56.05-.76-.15Zm5.05-6.45c-.05-.05-.15-.09-.25-.05l-3.91,1.6c-.08.03-.13.1-.14.19l-.48,4.2c-.01.1.04.16.07.19.05.05.15.09.25.05l3.91-1.6c.08-.03.13-.1.14-.19l.48-4.2c.01-.1-.04-.16-.07-.19Z"/>
            </g>
            <g>
              <path class="cls-1" d="m316.82,282.3l.48-4.2c.02-.17.13-.31.29-.38l3.91-1.6c.33-.13.68.13.64.48l-.48,4.2c-.02.17-.13.31-.29.38l-3.91,1.6c-.33.13-.68-.13-.64-.48Z"/>
              <path class="cls-2" d="m316.79,282.85c-.15-.15-.22-.36-.2-.57l.48-4.2c.03-.25.19-.47.43-.57l3.91-1.6c.26-.11.56-.05.76.15.15.15.22.36.2.57l-.48,4.2c-.03.25-.19.47-.43.57l-3.91,1.6c-.26.11-.56.05-.76-.15Zm5.05-6.45c-.05-.05-.15-.09-.25-.05l-3.91,1.6c-.08.03-.13.1-.14.19l-.48,4.2c-.01.1.04.16.07.19.05.05.15.09.25.05l3.91-1.6c.08-.03.13-.1.14-.19l.48-4.2c.01-.1-.04-.16-.07-.19Z"/>
            </g>
            <g>
              <path class="cls-1" d="m323.29,287.2l.48-4.2c.02-.17.13-.31.29-.38l3.91-1.6c.33-.13.68.13.64.48l-.48,4.2c-.02.17-.13.31-.29.38l-3.91,1.6c-.33.13-.68-.13-.64-.48Z"/>
              <path class="cls-2" d="m323.26,287.75c-.15-.15-.22-.36-.2-.57l.48-4.2c.03-.25.19-.47.43-.57l3.91-1.6c.26-.11.56-.05.76.15.15.15.22.36.2.57l-.48,4.2c-.03.25-.19.47-.43.57l-3.91,1.6c-.26.11-.56.05-.76-.15Zm5.05-6.45c-.05-.05-.15-.09-.25-.05l-3.91,1.6c-.08.03-.13.1-.14.19l-.48,4.2c-.01.1.04.16.07.19.05.05.15.09.25.05l3.91-1.6c.08-.03.13-.1.14-.19l.48-4.2c.01-.1-.04-.16-.07-.19Z"/>
            </g>
            <g>
              <path class="cls-1" d="m329.76,292.1l.48-4.2c.02-.17.13-.31.29-.38l3.91-1.6c.33-.13.68.13.64.48l-.48,4.2c-.02.17-.13.31-.29.38l-3.91,1.6c-.33.13-.68-.13-.64-.48Z"/>
              <path class="cls-2" d="m329.73,292.65c-.15-.15-.22-.36-.2-.57l.48-4.2c.03-.25.19-.47.43-.57l3.91-1.6c.26-.11.56-.05.76.15.15.15.22.36.2.57l-.48,4.2c-.03.25-.19.47-.43.57l-3.91,1.6c-.26.11-.56.05-.76-.15Zm5.05-6.45c-.05-.05-.15-.09-.25-.05l-3.91,1.6c-.08.03-.13.1-.14.19l-.48,4.2c-.01.1.04.16.07.19.05.05.15.1.25.05l3.91-1.6c.08-.03.13-.1.14-.19l.48-4.2c.01-.1-.04-.16-.07-.19Z"/>
            </g>
            <g>
              <path class="cls-1" d="m336.23,297l.48-4.2c.02-.17.13-.31.29-.38l3.91-1.6c.33-.13.68.13.64.48l-.48,4.2c-.02.17-.13.31-.29.38l-3.91,1.6c-.33.13-.68-.13-.64-.48Z"/>
              <path class="cls-2" d="m336.19,297.54c-.15-.15-.22-.36-.2-.57l.48-4.2c.03-.25.19-.47.43-.57l3.91-1.6c.26-.11.56-.05.76.15.15.15.22.36.2.57l-.48,4.2c-.03.25-.19.47-.43.57l-3.91,1.6c-.26.11-.56.05-.76-.15Zm5.05-6.45c-.05-.05-.15-.09-.25-.05l-3.91,1.6c-.08.03-.13.1-.14.19l-.48,4.2c-.01.1.04.16.07.19.05.05.15.09.25.05l3.91-1.6c.08-.03.13-.1.14-.19l.48-4.2c.01-.1-.04-.16-.07-.19Z"/>
            </g>
            <g>
              <path class="cls-1" d="m342.69,301.9l.48-4.2c.02-.17.13-.31.29-.38l3.91-1.6c.33-.13.68.13.64.48l-.48,4.2c-.02.17-.13.31-.29.38l-3.91,1.6c-.33.13-.68-.13-.64-.48Z"/>
              <path class="cls-2" d="m342.66,302.44c-.15-.15-.22-.36-.2-.57l.48-4.2c.03-.25.19-.47.43-.57l3.91-1.6c.26-.11.56-.05.76.15.15.15.22.36.2.57l-.48,4.2c-.03.25-.19.47-.43.57l-3.91,1.6c-.26.11-.56.05-.76-.15Zm5.05-6.45c-.05-.05-.15-.09-.25-.05l-3.91,1.6c-.08.03-.13.1-.14.19l-.48,4.2c-.01.1.04.16.07.19.05.05.15.09.25.05l3.91-1.6c.08-.03.13-.1.14-.19l.48-4.2c.01-.1-.04-.16-.07-.19Z"/>
            </g>
          </g>
          <polygon class="cls-1" points="253.18 237.84 262.03 225.01 262.84 225.61 253.18 237.84"/>
          <polygon class="cls-1" points="246.39 232.41 255.24 219.57 256.05 220.17 246.39 232.41"/>
          <path class="cls-1" d="m253.45,219.25s-.37-.26-.92-.66c-.55-.4-1.26-.96-1.96-1.52-.69-.58-1.39-1.16-1.89-1.61-.5-.45-.83-.77-.83-.77,0,0,.37.26.92.66.55.4,1.26.96,1.96,1.52.69.58,1.39,1.16,1.89,1.61.5.45.83.77.83.77Z"/>
          <polygon class="cls-1" points="237.28 226.17 247.47 211.99 247.89 212.3 237.28 226.17"/>
          <path class="cls-1" d="m350.91,294.54s-1.38-1-3.8-2.76c-2.41-1.77-5.84-4.29-9.97-7.32-4.11-3.05-8.9-6.62-14.03-10.44-5.11-3.84-10.57-7.94-16.02-12.04-5.43-4.13-10.86-8.27-15.94-12.14-5.07-3.9-9.8-7.54-13.85-10.66-4.04-3.15-7.4-5.77-9.76-7.6-2.34-1.85-3.68-2.9-3.68-2.9,0,0,1.38,1,3.8,2.76,2.41,1.77,5.84,4.29,9.97,7.32,4.11,3.05,8.9,6.62,14.03,10.44,5.11,3.84,10.57,7.94,16.02,12.04,5.43,4.13,10.85,8.27,15.94,12.14,5.07,3.9,9.8,7.54,13.85,10.66,4.04,3.15,7.4,5.77,9.76,7.6,2.34,1.85,3.69,2.9,3.69,2.9Z"/>
          <path class="cls-1" d="m20.37,4.75c8.18,9.53,16.6,18.84,25.2,27.99,8.58,9.17,17.32,18.18,26.18,27.07,4.43,4.45,8.9,8.86,13.37,13.25,4.5,4.38,8.97,8.79,13.52,13.12l6.8,6.51,6.85,6.46c4.55,4.32,9.17,8.57,13.77,12.84l13.86,12.75c4.66,4.21,9.28,8.46,13.97,12.63,4.67,4.2,9.35,8.38,14.06,12.53l14.13,12.45c9.45,8.27,18.94,16.49,28.49,24.64l14.34,12.21,14.41,12.13h0s.06.05.06.05h0s4.82,4.01,4.82,4.01l-4.87-3.94h0s-.06-.05-.06-.05h0c-9.74-7.93-19.44-15.9-29.06-23.98-9.61-8.09-19.16-16.24-28.68-24.44-4.74-4.12-9.48-8.23-14.19-12.4-4.72-4.14-9.41-8.31-14.09-12.5-4.7-4.17-9.33-8.4-14-12.6-4.63-4.24-9.29-8.45-13.89-12.73-4.59-4.29-9.2-8.55-13.75-12.88l-6.84-6.48-6.79-6.53c-4.54-4.34-9-8.76-13.49-13.15-4.48-4.4-8.91-8.86-13.31-13.34-8.8-8.96-17.49-18.04-25.99-27.29-8.49-9.26-16.79-18.69-24.84-28.32Z"/>
        </g>
        <path class="cls-1" d="m245.76,244.16s-.06.11-.19.27c-.14.16-.36.38-.69.55-.33.17-.76.3-1.23.27-.47-.02-.97-.19-1.38-.5-.2-.17-.38-.33-.52-.54-.14-.21-.26-.42-.33-.65-.15-.45-.15-.9-.07-1.26.07-.37.23-.64.34-.81.12-.18.2-.26.2-.26,0,0-.06.1-.15.29-.09.18-.18.47-.22.81-.04.34,0,.75.15,1.14.07.2.18.39.31.56.06.08.14.17.22.26l.25.21c.71.58,1.72.58,2.35.31.32-.13.57-.3.72-.44.16-.14.24-.23.24-.23Z"/>
        <path class="cls-1" d="m261.55,215.25s.06-.11.19-.27c.14-.16.36-.38.69-.55.33-.17.76-.3,1.23-.27.47.02.97.19,1.38.5.2.17.38.33.52.54.14.21.26.42.33.65.15.45.14.9.07,1.26-.07.37-.23.64-.34.81-.12.18-.2.26-.2.26,0,0,.06-.1.15-.29.09-.18.18-.47.22-.81.04-.34,0-.75-.15-1.14-.07-.2-.18-.39-.31-.56-.06-.08-.14-.17-.22-.26l-.25-.21c-.71-.58-1.72-.58-2.35-.31-.32.13-.56.3-.72.44-.16.14-.24.23-.24.23Z"/>
        <path class="cls-1" d="m244.56,232.03s-.37-.26-.92-.66c-.55-.4-1.26-.96-1.96-1.52-.7-.58-1.39-1.16-1.89-1.61-.5-.45-.83-.77-.83-.77,0,0,.37.26.92.66.55.4,1.26.96,1.96,1.52.69.58,1.39,1.16,1.89,1.61.5.45.83.77.83.77Z"/>
      </g>
      <g>
        <g>
          <g>
            <path class="cls-1" d="m284.15,74.94c15.79-15.79,30.1-30.85,42.56-44.78,3.47-3.88,5.71-8.65,6.46-13.79.13-.87.21-1.74.25-2.6l.57-12.09c-.89,1.06-1.79,2.13-2.71,3.2-15.24,17.92-33.8,37.83-55.16,59.19-2.1,2.1-4.22,4.2-6.34,6.3-58.32,57.62-122.92,112.27-156.26,139.73l-.07.06c-1.38,1.14-2.68,2.2-3.9,3.21l-.97.8c-3.99,3.27-7.23,5.9-9.6,7.83-.33.26-.63.5-.91.74,0,0-2.43,1.96-2.95,2.38l8.16,10.75c.62-.5,3.79-3.06,3.79-3.06,2.53-2.04,6.04-4.9,10.38-8.46,1.27-1.04,2.61-2.14,4.02-3.3l.08-.06c35.14-28.95,102.95-86.39,162.6-146.04Z"/>
            <path class="cls-2" d="m96.55,225.29c.42-.34.93-.75,1.51-1.22.17-.14.33-.27.5-.4l.14-.12c.3-.24.6-.49.91-.74,2.58-2.09,5.9-4.79,9.62-7.84l.82-.68c1.27-1.04,2.62-2.14,4.02-3.31l.08-.06.02-.02c33.36-27.48,97.99-82.16,156.34-139.8,2.13-2.1,4.24-4.2,6.35-6.31,21.38-21.38,39.95-41.31,55.21-59.25.24-.29.49-.58.73-.86l-.43,9.02c-.04.83-.12,1.67-.24,2.5-.72,4.94-2.87,9.52-6.21,13.25-12.44,13.91-26.75,28.96-42.52,44.74-59.62,59.62-127.41,117.04-162.51,145.95l-.08.06-.02.02c-1.41,1.16-2.75,2.26-4.02,3.3-3.54,2.91-7.03,5.75-10.38,8.46l-.29.24c-.16.13-.31.25-.46.37l-.03.02-.03.02s-.09.07-.13.1c-.8.65-1.48,1.19-2.02,1.63l-2.29-3.02-.08-.11-4.53-5.96h0Zm-2.88-.36l5.76,7.59.07.1,3.58,4.72s1.3-1.03,3.72-2.99c.04-.04.1-.07.14-.11.25-.19.5-.41.77-.62,2.53-2.05,6.04-4.9,10.39-8.46,1.29-1.05,2.64-2.16,4.06-3.33.02-.02.04-.03.06-.05,32.82-27.04,102.16-85.59,162.66-146.09,14.97-14.97,29.4-30.06,42.6-44.82,3.61-4.04,5.93-9.03,6.71-14.34.13-.9.22-1.8.26-2.71l.62-13.08c.03-.65-.75-.98-1.2-.53-.02.02-.03.03-.05.05-1.1,1.31-2.22,2.63-3.34,3.96-16.35,19.23-35.25,39.28-55.1,59.13-2.1,2.1-4.21,4.2-6.34,6.3-58.91,58.2-124.56,113.61-156.23,139.7-.02.02-.04.03-.06.05-1.71,1.41-3.33,2.74-4.84,3.98-3.98,3.26-7.22,5.9-9.6,7.82-.32.26-.63.51-.92.74-.22.18-.44.35-.65.52-2.02,1.63-3.09,2.48-3.09,2.48h0Z"/>
          </g>
          <g>
            <path class="cls-2" d="m-9.04,259.42h113.53c3.31,0,5.99,2.68,5.99,5.99v3.6c0,3.31-2.68,5.99-5.99,5.99H-9.04v-15.58h0Z" transform="translate(252.42 449.67) rotate(142.88)"/>
            <path class="cls-2" d="m13.02,306.48c-1.44,1.09-3.22,1.56-5.01,1.31-1.79-.25-3.38-1.18-4.47-2.62l-2.17-2.87c-2.03-2.68-1.77-6.49.61-8.87.22-.22.46-.43.71-.62l91.15-68.98,10.34,13.66L13.02,306.48Zm-9.4-12.42c-2.32,1.75-2.72,5.05-1.01,7.3l2.17,2.87c.84,1.11,2.06,1.83,3.44,2.02,1.38.19,2.75-.17,3.86-1.01l89.9-68.04-8.46-11.18L3.62,294.06Z"/>
          </g>
          <g>
            <path class="cls-2" d="m106.56,233.54c.28.32.77.37,1.1.1.06-.05.12-.09.18-.14,2.41-1.95,4.88-3.95,8.88-7.23.33-.27.39-.74.14-1.08l-8.31-11.26c-.27-.36-.79-.43-1.14-.14-3.69,3.02-6.71,5.48-8.95,7.29-.32.26-.63.51-.92.74,0,0,0,0,0,0-.35.28-.4.8-.1,1.14l9.15,10.58Z"/>
            <path class="cls-2" d="m117.2,226.88c-4,3.28-6.47,5.28-8.94,7.28l-.11.09c-.66.54-1.62.46-2.18-.19l-9.15-10.58c-.57-.66-.5-1.68.2-2.25.29-.24.6-.49.92-.75,2.24-1.81,5.26-4.27,8.95-7.29.33-.27.77-.4,1.19-.35.43.05.81.28,1.07.63l8.31,11.26c.46.62.39,1.5-.15,2.04l-.11.1Zm-19.2-4.42l9.17,10.58.17-.14c2.41-1.95,4.88-3.95,8.87-7.22l.55.55-.55-.55-8.33-11.28c-3.69,3.02-6.71,5.48-8.96,7.3-.32.26-.63.5-.85.68-.01.01-.03.03-.04.04-.02.02-.03.03-.03.04Z"/>
          </g>
          <path class="cls-2" d="m278.27,66.34c21.42-21.42,39.97-41.33,55.23-59.27l1.26-1.48-1.98-1.68-1.25,1.48c-16.68,19.62-37.33,41.6-61.36,65.35-58.27,57.57-122.84,112.19-156.15,139.62l-.09.07c-1.46,1.2-2.85,2.34-4.16,3.41l-.66.54,1.65,2.01.66-.54c1.32-1.08,2.72-2.23,4.19-3.44l.08-.07c33.34-27.47,97.96-82.13,156.29-139.76,2.12-2.09,4.22-4.18,6.28-6.24Z"/>
          <path class="cls-2" d="m279.73,67.82c21.21-21.21,39.61-40.94,54.79-58.75l-1.98-1.68c-16.6,19.48-37.1,41.29-60.91,64.82-58.27,57.57-122.84,112.19-156.15,139.62l-.09.08c-1.34,1.1-2.66,2.18-3.91,3.2l-.9.74,1.65,2.01.9-.74c1.25-1.02,2.56-2.1,3.94-3.24l.09-.08c33.3-27.43,97.94-82.11,156.29-139.75,2.12-2.09,4.21-4.17,6.27-6.24Z"/>
          <path class="cls-2" d="m333.29,19.43c-16.01,18.29-32.84,35.85-50.06,53-4.3,4.3-8.65,8.53-13.01,12.77-4.34,4.26-8.75,8.44-13.14,12.63-4.38,4.21-8.84,8.33-13.26,12.5l-13.38,12.37c-4.5,4.09-8.96,8.21-13.49,12.26-4.51,4.07-9.03,8.13-13.58,12.16-9.08,8.08-18.23,16.08-27.42,24.03-18.39,15.89-36.97,31.55-55.77,46.96l-.05.05-.06.05.05-.05-4.85,3.96.99,1.2,4.83-3.99.05-.05.06-.05-.05.05c18.72-15.51,37.23-31.28,55.55-47.27,9.15-8,18.26-16.05,27.3-24.18,4.53-4.05,9.03-8.14,13.52-12.23,4.51-4.08,8.95-8.22,13.43-12.33l13.32-12.45c4.4-4.2,8.84-8.35,13.2-12.58,4.37-4.22,8.76-8.43,13.08-12.71,4.34-4.26,8.67-8.52,12.95-12.84,17.14-17.24,33.88-34.89,49.79-53.27Z"/>
          <g>
            <path class="cls-2" d="m112.1,245.05h0c1.3-.98,1.55-2.83.57-4.13l-19.66-25.98c-.98-1.3-2.83-1.55-4.13-.57h0c-1.3.98-1.55,2.83-.57,4.13l19.66,25.98c.98,1.3,2.83,1.55,4.13.57Z"/>
            <path class="cls-2" d="m112.64,245.76c-1.69,1.28-4.1.94-5.38-.74l-19.66-25.98c-1.26-1.66-.96-4.09.74-5.38,1.69-1.28,4.1-.94,5.38.74l19.66,25.98c1.15,1.52,1,3.68-.34,5.03-.12.12-.26.24-.4.35Zm-23.62-27.8l19.66,25.98c.68.9,1.97,1.08,2.88.4.91-.7,1.07-1.99.4-2.88l-19.66-25.98c-.68-.9-1.98-1.08-2.88-.4-.08.06-.15.12-.22.19-.72.72-.8,1.88-.18,2.69Z"/>
          </g>
          <g>
            <g>
              <path class="cls-1" d="m94.8,237.91l-3.85-5.08c-.32-.42-.99-.15-.93.37l.42,3.68c.02.19.14.35.32.42l3.43,1.4c.49.2.93-.37.61-.79Z"/>
              <path class="cls-2" d="m94.09,238.94l-3.43-1.4c-.26-.11-.45-.35-.48-.63l-.42-3.68c-.05-.47.37-.9.83-.87.22.02.42.12.56.31l3.85,5.08c.24.31.21.74-.07,1.02-.22.22-.55.29-.84.17Zm-3.81-5.78l.42,3.68c.01.09.07.17.16.21l3.43,1.4c.14.06.24-.02.28-.05.08-.08.12-.22.03-.34l-3.85-5.08c-.05-.06-.11-.1-.18-.1-.08,0-.16.03-.21.08-.05.05-.08.13-.07.21Z"/>
            </g>
            <g>
              <path class="cls-1" d="m89.06,243.11l-.48-4.2c-.02-.17-.13-.31-.29-.38l-3.91-1.6c-.33-.13-.68.13-.64.48l.48,4.2c.02.17.13.31.29.38l3.91,1.6c.33.13.68-.13.64-.48Z"/>
              <path class="cls-2" d="m88.34,243.81l-3.91-1.6c-.23-.1-.4-.31-.43-.57l-.48-4.2c-.02-.21.05-.42.2-.57.2-.2.5-.26.76-.15l3.91,1.6c.24.1.4.31.43.57l.48,4.2c.02.21-.05.42-.2.57-.2.2-.5.26-.76.15Zm-4.36-6.42l.48,4.2c.01.08.06.16.14.19l3.91,1.6c.11.04.2,0,.25-.05.03-.03.08-.09.07-.19l-.48-4.2c0-.08-.06-.16-.14-.19l-3.91-1.6c-.1-.04-.2,0-.25.05-.03.03-.08.09-.07.19Z"/>
            </g>
            <g>
              <path class="cls-1" d="m82.59,248.01l-.48-4.2c-.02-.17-.13-.31-.29-.38l-3.91-1.6c-.33-.13-.68.13-.64.48l.48,4.2c.02.17.13.31.29.38l3.91,1.6c.33.13.68-.13.64-.48Z"/>
              <path class="cls-2" d="m81.87,248.71l-3.91-1.6c-.23-.1-.4-.31-.43-.57l-.48-4.2c-.02-.21.05-.42.2-.57.2-.2.5-.26.76-.15l3.91,1.6c.24.1.4.31.43.57l.48,4.2c.02.21-.05.42-.2.57-.2.2-.5.26-.76.15Zm-4.36-6.42l.48,4.2c.01.08.06.16.14.19l3.91,1.6c.11.04.2,0,.25-.05.03-.03.08-.09.07-.19l-.48-4.2c0-.08-.06-.16-.14-.19l-3.91-1.6c-.1-.04-.2,0-.25.05-.03.03-.08.09-.07.19Z"/>
            </g>
            <g>
              <path class="cls-1" d="m76.13,252.91l-.48-4.2c-.02-.17-.13-.31-.29-.38l-3.91-1.6c-.33-.13-.68.13-.64.48l.48,4.2c.02.17.13.31.29.38l3.91,1.6c.33.13.68-.13.64-.48Z"/>
              <path class="cls-2" d="m75.4,253.61l-3.91-1.6c-.24-.1-.4-.31-.43-.57l-.48-4.2c-.02-.21.05-.42.2-.57.2-.2.5-.26.76-.15l3.91,1.6c.24.1.4.31.43.57l.48,4.2c.02.21-.05.42-.2.57-.2.2-.5.26-.76.15Zm-4.36-6.42l.48,4.2c0,.08.06.16.14.19l3.91,1.6c.1.04.2,0,.25-.05.03-.03.08-.09.07-.19l-.48-4.2c0-.08-.06-.16-.14-.19l-3.91-1.6c-.1-.04-.2,0-.25.05-.03.03-.08.09-.07.19Z"/>
            </g>
            <g>
              <path class="cls-1" d="m69.66,257.81l-.48-4.2c-.02-.17-.13-.31-.29-.38l-3.91-1.6c-.33-.13-.68.13-.64.48l.48,4.2c.02.17.13.31.29.38l3.91,1.6c.33.13.68-.13.64-.48Z"/>
              <path class="cls-2" d="m68.93,258.51l-3.91-1.6c-.24-.1-.4-.31-.43-.57l-.48-4.2c-.02-.21.05-.42.2-.57.2-.2.5-.26.76-.15l3.91,1.6c.23.1.4.31.43.57l.48,4.2c.02.21-.05.42-.2.57-.2.2-.5.26-.76.15Zm-4.36-6.42l.48,4.2c0,.08.06.16.14.19l3.91,1.6c.1.04.2,0,.25-.05.03-.03.08-.09.07-.19l-.48-4.2c-.01-.08-.06-.16-.14-.19l-3.91-1.6c-.1-.04-.2,0-.25.05-.03.03-.08.09-.07.19Z"/>
            </g>
            <g>
              <path class="cls-1" d="m63.19,262.71l-.48-4.2c-.02-.17-.13-.31-.29-.38l-3.91-1.6c-.33-.13-.68.13-.64.48l.48,4.2c.02.17.13.31.29.38l3.91,1.6c.33.13.68-.13.64-.48Z"/>
              <path class="cls-2" d="m62.47,263.4l-3.91-1.6c-.24-.1-.4-.31-.43-.57l-.48-4.2c-.02-.21.05-.42.2-.57.2-.2.5-.26.76-.15l3.91,1.6c.23.1.4.31.43.57l.48,4.2c.02.21-.05.42-.2.57-.2.2-.5.26-.76.15Zm-4.36-6.42l.48,4.2c0,.08.06.16.14.19l3.91,1.6c.1.04.2,0,.25-.05.03-.03.08-.09.07-.19l-.48-4.2c-.01-.08-.06-.16-.14-.19l-3.91-1.6c-.1-.04-.2,0-.25.05-.03.03-.08.09-.07.19Z"/>
            </g>
            <g>
              <path class="cls-1" d="m56.72,267.61l-.48-4.2c-.02-.17-.13-.31-.29-.38l-3.91-1.6c-.33-.13-.68.13-.64.48l.48,4.2c.02.17.13.31.29.38l3.91,1.6c.33.13.68-.13.64-.48Z"/>
              <path class="cls-2" d="m56,268.3l-3.91-1.6c-.23-.1-.4-.31-.43-.57l-.48-4.2c-.02-.21.05-.42.2-.57.2-.2.5-.26.76-.15l3.91,1.6c.23.1.4.31.43.57l.48,4.2c.02.21-.05.42-.2.57-.2.2-.5.26-.76.15Zm-4.36-6.42l.48,4.2c0,.08.06.16.14.19l3.91,1.6c.1.04.2,0,.25-.05.03-.03.08-.09.07-.19l-.48-4.2c-.01-.08-.06-.16-.14-.19l-3.91-1.6c-.1-.04-.2,0-.25.05-.03.03-.08.09-.07.19Z"/>
            </g>
            <g>
              <path class="cls-1" d="m50.26,272.5l-.48-4.2c-.02-.17-.13-.31-.29-.38l-3.91-1.6c-.33-.13-.68.13-.64.48l.48,4.2c.02.17.13.31.29.38l3.91,1.6c.33.13.68-.13.64-.48Z"/>
              <path class="cls-2" d="m49.53,273.2l-3.91-1.6c-.24-.1-.4-.31-.43-.57l-.48-4.2c-.02-.21.05-.42.2-.57.2-.2.5-.26.76-.15l3.91,1.6c.23.1.4.31.43.57l.48,4.2c.02.21-.05.42-.2.57-.2.2-.5.26-.76.15Zm-4.36-6.42l.48,4.2c0,.08.06.16.14.19l3.91,1.6c.11.04.2,0,.25-.05.03-.03.08-.09.07-.19l-.48-4.2c-.01-.08-.06-.16-.14-.19l-3.91-1.6c-.11-.04-.2,0-.25.05-.03.03-.08.09-.07.19Z"/>
            </g>
            <g>
              <path class="cls-1" d="m43.79,277.4l-.48-4.2c-.02-.17-.13-.31-.29-.38l-3.91-1.6c-.33-.13-.68.13-.64.48l.48,4.2c.02.17.13.31.29.38l3.91,1.6c.33.13.68-.13.64-.48Z"/>
              <path class="cls-2" d="m43.06,278.1l-3.91-1.6c-.23-.1-.4-.31-.43-.57l-.48-4.2c-.02-.21.05-.42.2-.57.2-.2.5-.26.76-.15l3.91,1.6c.23.1.4.31.43.57l.48,4.2c.02.21-.05.42-.2.57-.2.2-.5.26-.76.15Zm-4.36-6.42l.48,4.2c.01.08.06.16.14.19l3.91,1.6c.11.04.2,0,.25-.05.03-.03.08-.09.07-.19l-.48-4.2c0-.08-.06-.16-.14-.19l-3.91-1.6c-.11-.04-.2,0-.25.05-.03.03-.08.09-.07.19Z"/>
            </g>
            <g>
              <path class="cls-1" d="m37.32,282.3l-.48-4.2c-.02-.17-.13-.31-.29-.38l-3.91-1.6c-.33-.13-.68.13-.64.48l.48,4.2c.02.17.13.31.29.38l3.91,1.6c.33.13.68-.13.64-.48Z"/>
              <path class="cls-2" d="m36.59,283l-3.91-1.6c-.23-.1-.4-.31-.43-.57l-.48-4.2c-.02-.21.05-.42.2-.57.2-.2.5-.26.76-.15l3.91,1.6c.24.1.4.31.43.57l.48,4.2c.02.21-.05.42-.2.57-.2.2-.5.26-.76.15Zm-4.36-6.42l.48,4.2c.01.08.06.16.14.19l3.91,1.6c.11.04.2,0,.25-.05.03-.03.08-.09.07-.19l-.48-4.2c0-.08-.06-.16-.14-.19l-3.91-1.6c-.11-.04-.2,0-.25.05-.03.03-.08.09-.07.19Z"/>
            </g>
            <g>
              <path class="cls-1" d="m30.85,287.2l-.48-4.2c-.02-.17-.13-.31-.29-.38l-3.91-1.6c-.33-.13-.68.13-.64.48l.48,4.2c.02.17.13.31.29.38l3.91,1.6c.33.13.68-.13.64-.48Z"/>
              <path class="cls-2" d="m30.13,287.9l-3.91-1.6c-.23-.1-.4-.31-.43-.57l-.48-4.2c-.02-.21.05-.42.2-.57.2-.2.5-.26.76-.15l3.91,1.6c.24.1.4.31.43.57l.48,4.2c.02.21-.05.42-.2.57-.2.2-.5.26-.76.15Zm-4.36-6.42l.48,4.2c.01.08.06.16.14.19l3.91,1.6c.11.04.2,0,.25-.05.03-.03.08-.09.07-.19l-.48-4.2c0-.08-.06-.16-.14-.19l-3.91-1.6c-.1-.04-.2,0-.25.05-.03.03-.08.09-.07.19Z"/>
            </g>
            <g>
              <path class="cls-1" d="m24.38,292.1l-.48-4.2c-.02-.17-.13-.31-.29-.38l-3.91-1.6c-.33-.13-.68.13-.64.48l.48,4.2c.02.17.13.31.29.38l3.91,1.6c.33.13.68-.13.64-.48Z"/>
              <path class="cls-2" d="m23.66,292.8l-3.91-1.6c-.23-.1-.4-.31-.43-.57l-.48-4.2c-.02-.21.05-.42.2-.57.2-.2.5-.26.76-.15l3.91,1.6c.23.1.4.31.43.57l.48,4.2c.02.21-.05.42-.2.57-.2.2-.5.26-.76.15Zm-4.36-6.42l.48,4.2c.01.08.06.16.14.19l3.91,1.6c.1.04.2,0,.25-.05.03-.03.08-.09.07-.19l-.48-4.2c0-.08-.06-.16-.14-.19l-3.91-1.6c-.1-.04-.2,0-.25.05-.03.03-.08.09-.07.19Z"/>
            </g>
            <g>
              <path class="cls-1" d="m17.92,297l-.48-4.2c-.02-.17-.13-.31-.29-.38l-3.91-1.6c-.33-.13-.68.13-.64.48l.48,4.2c.02.17.13.31.29.38l3.91,1.6c.33.13.68-.13.64-.48Z"/>
              <path class="cls-2" d="m17.19,297.7l-3.91-1.6c-.23-.1-.4-.31-.43-.57l-.48-4.2c-.02-.21.05-.42.2-.57.2-.2.5-.26.76-.15l3.91,1.6c.24.1.4.31.43.57l.48,4.2c.02.21-.05.42-.2.57-.2.2-.5.26-.76.15Zm-4.36-6.42l.48,4.2c0,.09.06.16.14.19l3.91,1.6c.1.04.2,0,.25-.05.03-.03.08-.09.07-.19l-.48-4.2c0-.08-.06-.16-.14-.19l-3.91-1.6c-.11-.04-.2,0-.25.05-.03.03-.08.09-.07.19Z"/>
            </g>
            <g>
              <path class="cls-1" d="m11.45,301.9l-.48-4.2c-.02-.17-.13-.31-.29-.38l-3.91-1.6c-.33-.13-.68.13-.64.48l.48,4.2c.02.17.13.31.29.38l3.91,1.6c.33.13.68-.13.64-.48Z"/>
              <path class="cls-2" d="m10.72,302.6l-3.91-1.6c-.23-.1-.4-.31-.43-.57l-.48-4.2c-.02-.21.05-.42.2-.57.2-.2.5-.26.76-.15l3.91,1.6c.24.1.4.31.43.57l.48,4.2c.02.21-.05.42-.2.57-.2.2-.5.26-.76.15Zm-4.36-6.42l.48,4.2c.01.08.07.16.14.19l3.91,1.6c.1.04.2,0,.25-.05.03-.03.08-.09.07-.19l-.48-4.2c0-.08-.06-.16-.14-.19l-3.91-1.6c-.11-.04-.2,0-.25.05-.03.03-.08.09-.07.19Z"/>
            </g>
          </g>
          <polygon class="cls-1" points="100.96 237.84 92.12 225.01 91.3 225.61 100.96 237.84"/>
          <polygon class="cls-1" points="107.75 232.41 98.9 219.57 98.09 220.17 107.75 232.41"/>
          <path class="cls-1" d="m100.7,219.25s.37-.26.92-.66c.55-.4,1.26-.96,1.96-1.52.69-.58,1.39-1.16,1.89-1.61.5-.45.83-.77.83-.77,0,0-.37.26-.92.66-.55.4-1.26.96-1.96,1.52-.69.58-1.39,1.16-1.89,1.61-.5.45-.83.77-.83.77Z"/>
          <polygon class="cls-1" points="116.86 226.17 106.67 211.99 106.25 212.3 116.86 226.17"/>
          <path class="cls-1" d="m3.24,294.54s1.38-1,3.8-2.76c2.41-1.77,5.84-4.29,9.96-7.32,4.11-3.05,8.9-6.62,14.03-10.44,5.11-3.84,10.57-7.94,16.02-12.04,5.43-4.13,10.86-8.27,15.94-12.14,5.07-3.9,9.8-7.54,13.85-10.66,4.04-3.15,7.4-5.77,9.76-7.6,2.34-1.85,3.68-2.9,3.68-2.9,0,0-1.38,1-3.8,2.76-2.41,1.77-5.84,4.29-9.97,7.32-4.11,3.05-8.9,6.62-14.03,10.44-5.11,3.84-10.57,7.94-16.02,12.04-5.43,4.13-10.85,8.27-15.94,12.14-5.07,3.9-9.8,7.54-13.85,10.66-4.04,3.15-7.4,5.77-9.76,7.6-2.34,1.85-3.69,2.9-3.69,2.9Z"/>
          <path class="cls-1" d="m333.77,4.75c-8.18,9.53-16.6,18.84-25.2,27.99-8.58,9.17-17.32,18.18-26.18,27.07-4.43,4.45-8.9,8.86-13.37,13.25-4.5,4.38-8.97,8.79-13.52,13.12l-6.8,6.51-6.85,6.46c-4.55,4.32-9.17,8.57-13.77,12.84l-13.86,12.75c-4.66,4.21-9.28,8.46-13.97,12.63-4.67,4.2-9.35,8.38-14.06,12.53l-14.13,12.45c-9.45,8.27-18.94,16.49-28.49,24.64l-14.34,12.21-14.41,12.13h0s-.06.05-.06.05h0s-4.82,4.01-4.82,4.01l4.87-3.94h0s.06-.05.06-.05h0c9.74-7.93,19.44-15.9,29.06-23.98,9.61-8.09,19.16-16.24,28.68-24.44,4.74-4.12,9.48-8.23,14.19-12.4,4.72-4.14,9.41-8.31,14.09-12.5,4.7-4.17,9.33-8.4,14-12.6,4.63-4.24,9.29-8.45,13.89-12.73,4.59-4.29,9.2-8.55,13.75-12.88l6.84-6.48,6.79-6.53c4.54-4.34,9-8.76,13.49-13.15,4.48-4.4,8.91-8.86,13.31-13.34,8.8-8.96,17.49-18.04,25.99-27.29,8.49-9.26,16.79-18.69,24.84-28.32Z"/>
        </g>
        <path class="cls-1" d="m108.39,244.16s.06.11.19.27c.14.16.36.38.69.55.33.17.76.3,1.23.27.47-.02.97-.19,1.38-.5.2-.17.38-.33.52-.54.14-.21.26-.42.33-.65.15-.45.15-.9.07-1.26-.07-.37-.23-.64-.34-.81-.12-.18-.2-.26-.2-.26,0,0,.06.1.15.29.09.18.18.47.22.81.04.34,0,.75-.15,1.14-.07.2-.18.39-.31.56-.06.08-.14.17-.22.26l-.25.21c-.71.58-1.72.58-2.35.31-.32-.13-.57-.3-.72-.44-.16-.14-.24-.23-.24-.23Z"/>
        <path class="cls-1" d="m92.6,215.25s-.06-.11-.19-.27c-.14-.16-.36-.38-.69-.55-.33-.17-.76-.3-1.23-.27-.47.02-.97.19-1.38.5-.2.17-.38.33-.52.54-.14.21-.26.42-.33.65-.15.45-.14.9-.07,1.26.07.37.23.64.34.81.12.18.2.26.2.26,0,0-.06-.1-.15-.29-.09-.18-.18-.47-.22-.81-.04-.34,0-.75.15-1.14.07-.2.18-.39.31-.56.06-.08.14-.17.22-.26l.25-.21c.71-.58,1.72-.58,2.35-.31.32.13.56.3.72.44.16.14.24.23.24.23Z"/>
        <path class="cls-1" d="m109.58,232.03s.37-.26.92-.66c.55-.4,1.26-.96,1.96-1.52.7-.58,1.39-1.16,1.89-1.61.5-.45.83-.77.83-.77,0,0-.37.26-.92.66-.55.4-1.26.96-1.96,1.52-.69.58-1.39,1.16-1.89,1.61-.5.45-.83.77-.83.77Z"/>
      </g>
    </g>
  </g>
</svg>