<?xml version="1.0" encoding="utf-8"?>
<!-- Generator: Adobe Illustrator 26.5.0, SVG Export Plug-In . SVG Version: 6.00 Build 0)  -->
<svg version="1.1" id="Layer_1" xmlns:svg="http://www.w3.org/2000/svg"
	 xmlns="http://www.w3.org/2000/svg" xmlns:xlink="http://www.w3.org/1999/xlink" x="0px" y="0px" viewBox="0 0 841.9 595.3"
	 style="enable-background:new 0 0 841.9 595.3;" xml:space="preserve">
<style type="text/css">
	.st0{fill-opacity:0;stroke:#231F20;stroke-width:0.1417;stroke-linecap:round;stroke-linejoin:round;stroke-miterlimit:11.3386;}
</style>
<g transform="translate(0 0) scale(1 1)">
</g>
<path class="st0" d="M229.3,326.6v41.5"/>
<path class="st0" d="M148.3,166.4v135"/>
<path class="st0" d="M273.4,375.5c1.9,0,3.8-0.9,4.9-2.4"/>
<path class="st0" d="M155.7,159.1c-4.1,0-7.4,3.3-7.4,7.4v0"/>
<path class="st0" d="M742.7,301.4v-135"/>
<path class="st0" d="M216,159.1c-3.4,0-6.2,2.8-6.2,6.2"/>
<path class="st0" d="M736.1,307.6h0.4"/>
<path class="st0" d="M722.6,321.5c3.4,0,6.2-2.8,6.2-6.2l0,0"/>
<path class="st0" d="M612.7,373.1c-3.6-4.7-10.4-5.6-15.1-1.9c-0.7,0.6-1.4,1.2-1.9,1.9"/>
<path class="st0" d="M162.2,314.9v0.4"/>
<path class="st0" d="M736.1,307.6c-4,0-7.2,3.2-7.2,7.2"/>
<path class="st0" d="M154.5,307.6h0.4"/>
<path class="st0" d="M300.4,375.5h290.3"/>
<path class="st0" d="M229.3,326.6c0-2.8-2.3-5.1-5.1-5.1h0"/>
<path class="st0" d="M295.4,373.1c-3.6-4.7-10.4-5.6-15.1-1.9c-0.7,0.6-1.4,1.2-1.9,1.9"/>
<path class="st0" d="M295.4,373.1c1.2,1.5,3,2.4,4.9,2.4"/>
<path class="st0" d="M162.2,314.9c0-4-3.2-7.2-7.2-7.2c0,0,0,0,0,0"/>
<path class="st0" d="M168.4,321.5h55.8"/>
<path class="st0" d="M675,159.1H264.8"/>
<path class="st0" d="M248.3,159.1H216"/>
<path class="st0" d="M661.7,368.1v-41.5"/>
<path class="st0" d="M728.9,315.3v-0.4"/>
<path class="st0" d="M736.5,307.6c3.4,0,6.2-2.8,6.2-6.2"/>
<path class="st0" d="M229.3,368.1c0,4.1,3.3,7.4,7.4,7.4c0,0,0,0,0,0"/>
<path class="st0" d="M735.4,159.1H702"/>
<path class="st0" d="M195.3,165.3c0-3.4-2.8-6.2-6.2-6.2c0,0,0,0,0,0"/>
<path class="st0" d="M681.3,166.4c0,4,3.2,7.2,7.2,7.2c4,0,7.2-3.2,7.2-7.2"/>
<path class="st0" d="M264.8,159.1h-16.5"/>
<path class="st0" d="M590.7,375.5c1.9,0,3.8-0.9,4.9-2.4"/>
<path class="st0" d="M666.8,321.5h55.8"/>
<path class="st0" d="M666.8,321.5c-2.8,0-5.1,2.3-5.1,5.1"/>
<path class="st0" d="M617.6,375.5h36.8"/>
<path class="st0" d="M189,159.1h-33.4"/>
<path class="st0" d="M195.3,166.4v-1.1"/>
<path class="st0" d="M702,159.1c-3.4,0-6.2,2.8-6.2,6.2"/>
<path class="st0" d="M162.2,315.3c0,3.4,2.8,6.2,6.2,6.2"/>
<path class="st0" d="M209.7,165.3v1.1"/>
<path class="st0" d="M681.3,166.4v-1.1"/>
<path class="st0" d="M195.3,166.4c0,4,3.2,7.2,7.2,7.2c4,0,7.2-3.2,7.2-7.2"/>
<path class="st0" d="M654.4,375.5c4.1,0,7.4-3.3,7.4-7.4v0"/>
<path class="st0" d="M681.3,165.3c0-3.4-2.8-6.2-6.2-6.2"/>
<path class="st0" d="M742.7,166.4c0-4.1-3.3-7.4-7.4-7.4"/>
<path class="st0" d="M236.7,375.5h36.8"/>
<path class="st0" d="M612.7,373.1c1.2,1.5,3,2.4,4.9,2.4"/>
<path class="st0" d="M695.7,165.3v1.1"/>
<path class="st0" d="M148.3,301.4c0,3.4,2.8,6.2,6.2,6.2"/>
</svg>
