<?xml version="1.0" encoding="utf-8"?>
<!-- Generator: Adobe Illustrator 27.8.1, SVG Export Plug-In . SVG Version: 6.00 Build 0)  -->
<svg version="1.1" id="Layer_1" xmlns:svg="http://www.w3.org/2000/svg"
	 xmlns="http://www.w3.org/2000/svg" xmlns:xlink="http://www.w3.org/1999/xlink" x="0px" y="0px" viewBox="0 0 597.6 219.7"
	 style="enable-background:new 0 0 597.6 219.7;" xml:space="preserve">
<style type="text/css">
	
		.st0{fill:#2F2D31;fill-opacity:0;stroke:#2F2D31;stroke-width:0.5669;stroke-linecap:round;stroke-linejoin:round;stroke-miterlimit:11.3386;}
</style>
<g transform="translate(0 0) scale(1 1)">
</g>
<g>
	<path class="st0" d="M91.6,210.5c-0.9,0-1.6-0.6-1.6-1.4"/>
	<path class="st0" d="M144,47.3V10.5"/>
	<path class="st0" d="M145.4,210.6h54.2"/>
	<path class="st0" d="M415.3,48.7c-0.8,0-1.4-0.6-1.4-1.4"/>
	<path class="st0" d="M64.5,117c-0.8,0-1.4,0.6-1.4,1.4"/>
	<path class="st0" d="M549,155.3c0,0.8,0.6,1.4,1.4,1.4"/>
	<path class="st0" d="M453.6,209.1v-36.7"/>
	<path class="st0" d="M76.6,64.5c0-0.8,0.6-1.4,1.4-1.4"/>
	<path class="st0" d="M15.9,101.2V64.5"/>
	<path class="st0" d="M317.4,165.3c-0.8,0-1.5,0-1.5,0"/>
	<path class="st0" d="M171,118.4v36.9"/>
	<path class="st0" d="M479.2,156.7c0.8,0,1.4-0.6,1.4-1.4"/>
	<path class="st0" d="M440.9,118.4v36.9"/>
	<path class="st0" d="M155.3,165.3c-0.8,0-1.5,0.7-1.5,1.5"/>
	<path class="st0" d="M173.6,169.4v-2.6"/>
	<path class="st0" d="M507.6,10.5v36.8"/>
	<path class="st0" d="M507.6,209.1c0,0.8-0.7,1.4-1.6,1.4"/>
	<path class="st0" d="M496.3,117c-0.8,0-1.4,0.6-1.4,1.4"/>
	<path class="st0" d="M280.2,210.6c0.8,0,1.5,0,1.5,0"/>
	<path class="st0" d="M116.2,101.2c0,0.8-0.6,1.4-1.4,1.4"/>
	<path class="st0" d="M22.6,47.3c0,0.8,0.8,1.4,1.9,1.4"/>
	<path class="st0" d="M507.6,219.4H90"/>
	<path class="st0" d="M306,10.5c0-0.8,0.6-1.4,1.4-1.4"/>
	<path class="st0" d="M254.7,210.6c0,0,0.7,0,1.5,0"/>
	<path class="st0" d="M541.8,5.8c-1.8,0-3.3,1.5-3.3,3.3"/>
	<path class="st0" d="M156.7,118.4c0-0.8-0.6-1.4-1.4-1.4"/>
	<path class="st0" d="M462.8,170.9H506"/>
	<path class="st0" d="M77.9,165.4H9.1"/>
	<path class="st0" d="M78,63.1h36.9"/>
	<path class="st0" d="M81.3,210.6v-41.8"/>
	<path class="st0" d="M480.6,118.4c0-0.8-0.6-1.4-1.4-1.4"/>
	<path class="st0" d="M52.7,9.1H24.5"/>
	<path class="st0" d="M317.3,117h-36.9"/>
	<path class="st0" d="M220.9,169.4v-2.6"/>
	<path class="st0" d="M263.4,210.6h16.8"/>
	<path class="st0" d="M413.9,10.5c0-0.8,0.6-1.4,1.4-1.4"/>
	<path class="st0" d="M443.7,166.8c0-0.8-0.7-1.5-1.5-1.5"/>
	<path class="st0" d="M443.7,169.4v-2.6"/>
	<path class="st0" d="M173.6,166.8c0-0.8-0.7-1.5-1.5-1.5"/>
	<path class="st0" d="M225,118.4v36.9"/>
	<path class="st0" d="M411.7,63.1c0.8,0,1.4,0.6,1.4,1.4"/>
	<path class="st0" d="M143.9,172.4v36.7"/>
	<path class="st0" d="M374.8,102.6c-0.8,0-1.4-0.6-1.4-1.4"/>
	<path class="st0" d="M415.3,48.8L415.3,48.8"/>
	<path class="st0" d="M201.1,169.4c0,0.8-0.7,1.5-1.5,1.5"/>
	<path class="st0" d="M462.8,210.5c-0.9,0-1.6-0.6-1.6-1.4"/>
	<path class="st0" d="M516.4,168.8v41.8"/>
	<path class="st0" d="M309.2,210.6c0,0,0.7,0,1.5,0"/>
	<path class="st0" d="M91.4,9.1h36.9"/>
	<path class="st0" d="M224.2,64.5v36.8"/>
	<path class="st0" d="M129.7,10.5v36.8"/>
	<path class="st0" d="M0.3,156.6V9.1"/>
	<path class="st0" d="M261.9,210.6c0,0,0.7,0,1.5,0"/>
	<path class="st0" d="M155.3,156.7c0.8,0,1.4-0.6,1.4-1.4"/>
	<path class="st0" d="M516.4,210.6c0,4.9-3.9,8.8-8.8,8.8"/>
	<path class="st0" d="M537.1,63.1c-0.9,0-1.6,0.6-1.6,1.4"/>
	<path class="st0" d="M78,102.6c-0.8,0-1.4-0.6-1.4-1.4"/>
	<path class="st0" d="M361.3,48.7c-0.8,0-1.4-0.6-1.4-1.4"/>
	<path class="st0" d="M507.6,47.3c0,0.8-0.6,1.4-1.4,1.4"/>
	<path class="st0" d="M238.5,101.2V64.5"/>
	<path class="st0" d="M319.5,101.2V64.5"/>
	<path class="st0" d="M482.8,102.6c-0.8,0-1.4-0.6-1.4-1.4"/>
	<path class="st0" d="M413.1,64.5v36.8"/>
	<path class="st0" d="M90,10.5c0-0.8,0.6-1.4,1.4-1.4"/>
	<path class="st0" d="M239.9,63.1h36.9"/>
	<path class="st0" d="M170.2,101.2c0,0.8-0.6,1.4-1.4,1.4"/>
	<path class="st0" d="M359.9,10.5c0-0.8,0.6-1.4,1.4-1.4"/>
	<path class="st0" d="M427.4,64.5c0-0.8,0.6-1.4,1.4-1.4"/>
	<path class="st0" d="M442.3,117c-0.8,0-1.4,0.6-1.4,1.4"/>
	<path class="st0" d="M506,210.5h-43.2"/>
	<path class="st0" d="M0.3,9.1c0-4.9,3.9-8.8,8.8-8.8"/>
	<path class="st0" d="M233.4,170.9h-11"/>
	<path class="st0" d="M425.2,156.7c0.8,0,1.4-0.6,1.4-1.4"/>
	<path class="st0" d="M128.3,9.1c0.8,0,1.4,0.6,1.4,1.4"/>
	<path class="st0" d="M129.7,47.3c0,0.8-0.6,1.4-1.4,1.4"/>
	<path class="st0" d="M399.6,10.5v36.8"/>
	<path class="st0" d="M461.2,172.3c0-0.8,0.7-1.4,1.6-1.4"/>
	<path class="st0" d="M396.4,166.8c0-0.8-0.7-1.5-1.5-1.5"/>
	<path class="st0" d="M427.4,101.2V64.5"/>
	<path class="st0" d="M481.4,101.2V64.5"/>
	<path class="st0" d="M237.7,10.5v36.8"/>
	<path class="st0" d="M152.3,170.9h-6.9"/>
	<path class="st0" d="M226.4,156.7h36.9"/>
	<path class="st0" d="M102.7,155.3v-36.9"/>
	<path class="st0" d="M494.9,155.3c0,0.8,0.6,1.4,1.4,1.4"/>
	<path class="st0" d="M172.1,165.3h-16.8"/>
	<path class="st0" d="M131.9,102.6c-0.8,0-1.4-0.6-1.4-1.4"/>
	<path class="st0" d="M357.7,102.6h-36.9"/>
	<path class="st0" d="M63.1,155.3c0,0.8,0.6,1.4,1.4,1.4"/>
	<path class="st0" d="M581.8,10.5c0-0.8-0.8-1.4-1.9-1.4"/>
	<path class="st0" d="M117,155.3c0,0.8,0.6,1.4,1.4,1.4"/>
	<path class="st0" d="M290.3,48.7h-36.9"/>
	<path class="st0" d="M588.6,165.4h-68.8"/>
	<path class="st0" d="M398.2,9.1c0.8,0,1.4,0.6,1.4,1.4"/>
	<path class="st0" d="M171,155.3c0,0.8,0.6,1.4,1.4,1.4"/>
	<path class="st0" d="M550.4,156.7h35.8"/>
	<path class="st0" d="M74,9.1H59.3"/>
	<path class="st0" d="M519.7,63.1c0.8,0,1.4,0.6,1.4,1.4"/>
	<path class="st0" d="M533.2,156.7c0.8,0,1.4-0.6,1.4-1.4"/>
	<path class="st0" d="M202.6,165.3c-0.8,0-1.5,0.7-1.5,1.5"/>
	<path class="st0" d="M199.6,170.9h-24.5"/>
	<path class="st0" d="M155.3,117h-36.9"/>
	<path class="st0" d="M225,155.3c0,0.8,0.6,1.4,1.4,1.4"/>
	<path class="st0" d="M533.2,117h-36.9"/>
	<path class="st0" d="M523.8,48.7h18.4"/>
	<path class="st0" d="M452.2,48.8h-36.9"/>
	<path class="st0" d="M183.7,47.3c0,0.8-0.6,1.4-1.4,1.4"/>
	<path class="st0" d="M261.9,169.4c0,0.8-0.7,1.5-1.5,1.5"/>
	<path class="st0" d="M267.2,165.3h-3.8"/>
	<path class="st0" d="M341.4,170.9h-4.2"/>
	<path class="st0" d="M220.9,210.6c0,0,0.7,0,1.5,0"/>
	<path class="st0" d="M428.8,63.1h36.9"/>
	<path class="st0" d="M254.7,166.8c0-0.8-0.7-1.5-1.5-1.5"/>
	<path class="st0" d="M334.2,165.3h-16.8"/>
	<path class="st0" d="M597.4,156.6c0,4.9-3.9,8.8-8.8,8.8"/>
	<path class="st0" d="M482.8,63.1h36.9"/>
	<path class="st0" d="M210.7,118.4c0-0.8-0.6-1.4-1.4-1.4"/>
	<path class="st0" d="M11.7,157.4c0-0.3,0-0.5-0.1-0.7"/>
	<path class="st0" d="M413.9,47.3V10.5"/>
	<path class="st0" d="M399.6,47.3c0,0.8-0.6,1.4-1.4,1.4"/>
	<path class="st0" d="M373.4,64.5c0-0.8,0.6-1.4,1.4-1.4"/>
	<path class="st0" d="M172.4,156.7h36.9"/>
	<path class="st0" d="M63.1,118.4v36.9"/>
	<path class="st0" d="M426.6,118.4c0-0.8-0.6-1.4-1.4-1.4"/>
	<path class="st0" d="M428.8,102.6c-0.8,0-1.4-0.6-1.4-1.4"/>
	<path class="st0" d="M589.4,154.1c-0.3,0-0.5,0-0.7,0.1"/>
	<path class="st0" d="M320.9,63.1h36.9"/>
	<path class="st0" d="M199.6,210.6c0.8,0,1.5,0,1.5,0"/>
	<path class="st0" d="M9.1,154.2c-0.2-0.1-0.5-0.1-0.7-0.1"/>
	<path class="st0" d="M469.3,48.7c-0.8,0-1.4-0.6-1.4-1.4"/>
	<path class="st0" d="M283.2,210.6h24.5"/>
	<path class="st0" d="M315.9,165.3c0,0-0.7,0-1.5,0"/>
	<path class="st0" d="M238.5,64.5c0-0.8,0.6-1.4,1.4-1.4"/>
	<path class="st0" d="M114.8,63.1c0.8,0,1.4,0.6,1.4,1.4"/>
	<path class="st0" d="M145.4,170.9c-0.8,0-1.5,0.7-1.5,1.5"/>
	<path class="st0" d="M376.6,169.4c0,0.8-0.7,1.5-1.5,1.5"/>
	<path class="st0" d="M281.7,210.6c0,0,0.7,0,1.5,0"/>
	<path class="st0" d="M359.9,47.3V10.5"/>
	<path class="st0" d="M465.7,63.1c0.8,0,1.4,0.6,1.4,1.4"/>
	<path class="st0" d="M219.4,165.3h-16.8"/>
	<path class="st0" d="M90,219.4c-4.9,0-8.8-3.9-8.8-8.8"/>
	<path class="st0" d="M219.4,210.6c0.8,0,1.5,0,1.5,0"/>
	<path class="st0" d="M592.7,157.4c-0.1-1.8-1.5-3.3-3.3-3.3"/>
	<path class="st0" d="M291.7,10.5v36.8"/>
	<path class="st0" d="M307.7,170.9H290"/>
	<path class="st0" d="M534.6,155.3v-36.9"/>
	<path class="st0" d="M535.5,101.2c0,0.8,0.7,1.4,1.6,1.4"/>
	<path class="st0" d="M373.4,101.2V64.5"/>
	<path class="st0" d="M335.7,169.4v-2.6"/>
	<path class="st0" d="M185.9,102.6c-0.8,0-1.4-0.6-1.4-1.4"/>
	<path class="st0" d="M469.3,9.1h36.9"/>
	<path class="st0" d="M461.2,209.1v-36.8"/>
	<path class="st0" d="M426.6,155.3v-36.9"/>
	<path class="st0" d="M523.8,9.1c-1.1,0-1.9,0.6-1.9,1.4"/>
	<path class="st0" d="M398.2,48.7h-36.9"/>
	<path class="st0" d="M307.4,9.1h36.9"/>
	<path class="st0" d="M371.2,117h-36.9"/>
	<path class="st0" d="M236.4,210.6h16.8"/>
	<path class="st0" d="M534.6,118.4c0-0.8-0.6-1.4-1.4-1.4"/>
	<path class="st0" d="M479.2,117h-36.9"/>
	<path class="st0" d="M60.7,102.6H17.5"/>
	<path class="st0" d="M278.2,101.2c0,0.8-0.6,1.4-1.4,1.4"/>
	<path class="st0" d="M535.5,64.5v36.8"/>
	<path class="st0" d="M467.1,64.5v36.9"/>
	<path class="st0" d="M182.3,48.7h-36.9"/>
	<path class="st0" d="M386.9,155.3c0,0.8,0.6,1.4,1.4,1.4"/>
	<path class="st0" d="M8.4,160.7c1.8,0,3.3-1.5,3.3-3.3"/>
	<path class="st0" d="M586.1,157.4c0,1.8,1.5,3.3,3.3,3.3"/>
	<path class="st0" d="M587.3,117h-36.9"/>
	<path class="st0" d="M465.7,102.7l-36.9-0.1"/>
	<path class="st0" d="M345.7,47.3c0,0.8-0.6,1.4-1.4,1.4"/>
	<path class="st0" d="M278.2,64.5v36.8"/>
	<path class="st0" d="M425.2,117h-36.9"/>
	<path class="st0" d="M75.9,47.3V10.5"/>
	<path class="st0" d="M220.9,166.8c0-0.8-0.7-1.5-1.5-1.5"/>
	<path class="st0" d="M116.2,64.5v36.8"/>
	<path class="st0" d="M268.7,165.3c0,0-0.7,0-1.5,0"/>
	<path class="st0" d="M537.1,102.6h43.2"/>
	<path class="st0" d="M253.2,210.6c0.8,0,1.5,0,1.5,0"/>
	<path class="st0" d="M345.7,10.5v36.8"/>
	<path class="st0" d="M270.2,165.3c-0.8,0-1.5,0-1.5,0"/>
	<path class="st0" d="M90,209.1v-36.8"/>
	<path class="st0" d="M8.4,154.1c-1.8,0-3.3,1.5-3.3,3.3"/>
	<path class="st0" d="M56,5.8c-1.8,0-3.3,1.5-3.3,3.3"/>
	<path class="st0" d="M253.4,48.7c-0.8,0-1.4-0.6-1.4-1.4"/>
	<path class="st0" d="M117,118.4v36.9"/>
	<path class="st0" d="M320.9,102.6c-0.8,0-1.4-0.6-1.4-1.4"/>
	<path class="st0" d="M209.3,117h-36.9"/>
	<path class="st0" d="M170.2,64.5v36.8"/>
	<path class="st0" d="M588.6,0.3c4.9,0,8.8,3.9,8.8,8.8"/>
	<path class="st0" d="M48.8,155.3v-36.9"/>
	<path class="st0" d="M47.4,156.7c0.8,0,1.4-0.6,1.4-1.4"/>
	<path class="st0" d="M136.4,209.1h0.1"/>
	<path class="st0" d="M48.8,118.4c0-0.8-0.6-1.4-1.4-1.4"/>
	<path class="st0" d="M333,118.4v36.9"/>
	<path class="st0" d="M47.4,117H10.5"/>
	<path class="st0" d="M453.6,172.4c0-0.8-0.7-1.5-1.5-1.5"/>
	<path class="st0" d="M291.7,47.3c0,0.8-0.6,1.4-1.4,1.4"/>
	<path class="st0" d="M134.9,210.5H91.6"/>
	<path class="st0" d="M10.5,117c-0.8,0-1.4,0.6-1.4,1.4"/>
	<path class="st0" d="M357.7,63.1c0.8,0,1.4,0.6,1.4,1.4"/>
	<path class="st0" d="M118.4,117c-0.8,0-1.4,0.6-1.4,1.4"/>
	<path class="st0" d="M314.4,165.3h-3.7"/>
	<path class="st0" d="M234.9,166.8v2.6"/>
	<path class="st0" d="M182.3,9.1c0.8,0,1.4,0.6,1.4,1.4"/>
	<path class="st0" d="M342.9,169.4c0,0.8-0.7,1.5-1.5,1.5"/>
	<path class="st0" d="M335.7,166.8c0-0.8-0.7-1.5-1.5-1.5"/>
	<path class="st0" d="M185.9,63.1h36.9"/>
	<path class="st0" d="M256.2,210.6h4.2"/>
	<path class="st0" d="M372.6,118.4c0-0.8-0.6-1.4-1.4-1.4"/>
	<path class="st0" d="M372.6,155.3v-36.9"/>
	<path class="st0" d="M442.3,156.7h36.9"/>
	<path class="st0" d="M280.4,117c-0.8,0-1.4,0.6-1.4,1.4"/>
	<path class="st0" d="M91.6,170.9h43.2"/>
	<path class="st0" d="M276.8,102.6h-36.9"/>
	<path class="st0" d="M280.4,156.7h36.9"/>
	<path class="st0" d="M333,155.3c0,0.8,0.6,1.4,1.4,1.4"/>
	<path class="st0" d="M329,210.6c0,0,0.7,0,1.5,0"/>
	<path class="st0" d="M9.1,165.4c-4.9,0-8.8-3.9-8.8-8.8"/>
	<path class="st0" d="M386.9,118.4v36.9"/>
	<path class="st0" d="M237.7,47.3c0,0.8-0.6,1.4-1.4,1.4"/>
	<path class="st0" d="M75.9,10.5c0-0.8-0.9-1.4-1.9-1.4"/>
	<path class="st0" d="M239.9,102.6c-0.8,0-1.4-0.6-1.4-1.4"/>
	<path class="st0" d="M442.2,165.3h-16.8"/>
	<path class="st0" d="M310.7,210.6h16.8"/>
	<path class="st0" d="M153.8,166.8v2.6"/>
	<path class="st0" d="M101.3,156.7c0.8,0,1.4-0.6,1.4-1.4"/>
	<path class="st0" d="M62.3,101.2c0,0.8-0.7,1.4-1.6,1.4"/>
	<path class="st0" d="M440.9,155.3c0,0.8,0.6,1.4,1.4,1.4"/>
	<path class="st0" d="M288.5,166.8c0-0.8-0.7-1.5-1.5-1.5"/>
	<path class="st0" d="M17.5,102.6c-0.9,0-1.6-0.6-1.6-1.4"/>
	<path class="st0" d="M307.7,210.6c0.8,0,1.5,0,1.5,0"/>
	<path class="st0" d="M222.8,63.1c0.8,0,1.4,0.6,1.4,1.4"/>
	<path class="st0" d="M90,47.3V10.5"/>
	<path class="st0" d="M11.6,156.7h35.8"/>
	<path class="st0" d="M581.8,36.2V10.5"/>
	<path class="st0" d="M168.8,63.1c0.8,0,1.4,0.6,1.4,1.4"/>
	<path class="st0" d="M550.4,117c-0.8,0-1.4,0.6-1.4,1.4"/>
	<path class="st0" d="M467.9,10.5c0-0.8,0.6-1.4,1.4-1.4"/>
	<path class="st0" d="M425.4,165.3c-0.8,0-1.5,0.7-1.5,1.5"/>
	<path class="st0" d="M76.6,101.2V64.5"/>
	<path class="st0" d="M17.5,63.1h43.2"/>
	<path class="st0" d="M236.3,48.7h-36.9"/>
	<path class="st0" d="M24.5,48.7H74"/>
	<path class="st0" d="M318.7,118.4c0-0.8-0.6-1.4-1.4-1.4"/>
	<path class="st0" d="M423.9,169.4c0,0.8-0.7,1.5-1.5,1.5"/>
	<path class="st0" d="M467.9,47.3V10.5"/>
	<path class="st0" d="M467.1,101.3c0,0.8-0.6,1.4-1.4,1.4"/>
	<path class="st0" d="M588.7,154.2c0-1.9,0-35.8,0-35.8"/>
	<path class="st0" d="M263.3,156.7c0.8,0,1.4-0.6,1.4-1.4"/>
	<path class="st0" d="M579.9,9.1l-34.8,0"/>
	<path class="st0" d="M198,10.5c0-0.8,0.6-1.4,1.4-1.4"/>
	<path class="st0" d="M201.1,166.8v2.6"/>
	<path class="st0" d="M184.5,64.5c0-0.8,0.6-1.4,1.4-1.4"/>
	<path class="st0" d="M415.3,9.1h36.9"/>
	<path class="st0" d="M252,47.3V10.5"/>
	<path class="st0" d="M597.4,9.1v147.5"/>
	<path class="st0" d="M344.4,165.3c-0.8,0-1.5,0.7-1.5,1.5"/>
	<path class="st0" d="M519.7,102.6h-36.9"/>
	<path class="st0" d="M64.5,156.7h36.9"/>
	<path class="st0" d="M9.1,118.4v35.8"/>
	<path class="st0" d="M226.4,117c-0.8,0-1.4,0.6-1.4,1.4"/>
	<path class="st0" d="M145.4,9.1h36.9"/>
	<path class="st0" d="M5.1,157.4c0,1.8,1.5,3.3,3.3,3.3"/>
	<path class="st0" d="M319.5,64.5c0-0.8,0.6-1.4,1.4-1.4"/>
	<path class="st0" d="M102.7,118.4c0-0.8-0.6-1.4-1.4-1.4"/>
	<path class="st0" d="M279,118.4v36.9"/>
	<path class="st0" d="M253.2,165.3h-16.8"/>
	<path class="st0" d="M371.2,156.7c0.8,0,1.4-0.6,1.4-1.4"/>
	<path class="st0" d="M506,170.9c0.9,0,1.6,0.6,1.6,1.4"/>
	<path class="st0" d="M9.1,0.3h579.5"/>
	<path class="st0" d="M411.7,102.6h-36.9"/>
	<path class="st0" d="M361.3,9.1h36.9"/>
	<path class="st0" d="M256.2,170.9c-0.8,0-1.5-0.7-1.5-1.5"/>
	<path class="st0" d="M364.1,170.9c-0.8,0-1.5-0.7-1.5-1.5"/>
	<path class="st0" d="M396.4,169.4v-2.6"/>
	<path class="st0" d="M236.4,165.3c-0.8,0-1.5,0.7-1.5,1.5"/>
	<path class="st0" d="M375.1,170.9h-11"/>
	<path class="st0" d="M136.4,172.3v36.8"/>
	<path class="st0" d="M279,155.3c0,0.8,0.6,1.4,1.4,1.4"/>
	<path class="st0" d="M209.3,156.7c0.8,0,1.4-0.6,1.4-1.4"/>
	<path class="st0" d="M234.9,169.4c0,0.8-0.7,1.5-1.5,1.5"/>
	<path class="st0" d="M118.4,156.7h36.9"/>
	<path class="st0" d="M337.2,170.9c-0.8,0-1.5-0.7-1.5-1.5"/>
	<path class="st0" d="M261.9,166.8v2.6"/>
	<path class="st0" d="M344.3,48.7h-36.9"/>
	<path class="st0" d="M60.7,63.1c0.9,0,1.6,0.6,1.6,1.4"/>
	<path class="st0" d="M145.4,48.7c-0.8,0-1.4-0.6-1.4-1.4"/>
	<path class="st0" d="M306,47.3V10.5"/>
	<path class="st0" d="M254.7,169.4v-2.6"/>
	<path class="st0" d="M422.4,170.9h-24.5"/>
	<path class="st0" d="M521.1,64.5v36.8"/>
	<path class="st0" d="M388.3,156.7h36.9"/>
	<path class="st0" d="M378.1,165.3c-0.8,0-1.5,0.7-1.5,1.5"/>
	<path class="st0" d="M263.3,117h-36.9"/>
	<path class="st0" d="M397.9,170.9c-0.8,0-1.5-0.7-1.5-1.5"/>
	<path class="st0" d="M362.6,169.4v-2.6"/>
	<path class="st0" d="M318.7,155.3v-36.9"/>
	<path class="st0" d="M494.9,118.4v36.9"/>
	<path class="st0" d="M538.5,9.1h-14.7"/>
	<path class="st0" d="M480.6,155.3v-36.9"/>
	<path class="st0" d="M359.1,101.2c0,0.8-0.6,1.4-1.4,1.4"/>
	<path class="st0" d="M521.1,101.2c0,0.8-0.6,1.4-1.4,1.4"/>
	<path class="st0" d="M545.1,9.1c0-1.8-1.5-3.3-3.3-3.3"/>
	<path class="st0" d="M580.3,102.6c0.9,0,1.6-0.6,1.6-1.4"/>
	<path class="st0" d="M388.3,117c-0.8,0-1.4,0.6-1.4,1.4"/>
	<path class="st0" d="M143.9,209.1c0,0.8,0.7,1.5,1.5,1.5"/>
	<path class="st0" d="M168.8,102.6h-36.9"/>
	<path class="st0" d="M506.2,9.1c0.8,0,1.4,0.6,1.4,1.4"/>
	<path class="st0" d="M172.4,117c-0.8,0-1.4,0.6-1.4,1.4"/>
	<path class="st0" d="M74,48.7c1.1,0,1.9-0.6,1.9-1.4"/>
	<path class="st0" d="M581.9,74.4l-0.1-38.2"/>
	<path class="st0" d="M445.2,170.9c-0.8,0-1.5-0.7-1.5-1.5"/>
	<path class="st0" d="M374.8,63.1h36.9"/>
	<path class="st0" d="M342.9,166.8v2.6"/>
	<path class="st0" d="M224.2,101.2c0,0.8-0.6,1.4-1.4,1.4"/>
	<path class="st0" d="M202.6,210.6h16.8"/>
	<path class="st0" d="M549,118.4v36.9"/>
	<path class="st0" d="M128.3,48.7H91.4"/>
	<path class="st0" d="M542.2,63.1h-5.1"/>
	<path class="st0" d="M22.6,10.5v36.8"/>
	<path class="st0" d="M361.1,165.3h-16.8"/>
	<path class="st0" d="M91.4,48.7c-0.8,0-1.4-0.6-1.4-1.4"/>
	<path class="st0" d="M521.9,10.5v36.8"/>
	<path class="st0" d="M310.7,165.3c-0.8,0-1.5,0.7-1.5,1.5"/>
	<path class="st0" d="M317.3,156.7c0.8,0,1.4-0.6,1.4-1.4"/>
	<path class="st0" d="M290,170.9c-0.8,0-1.5-0.7-1.5-1.5"/>
	<path class="st0" d="M24.5,9.1c-1.1,0-1.9,0.6-1.9,1.4"/>
	<path class="st0" d="M276.8,63.1c0.8,0,1.4,0.6,1.4,1.4"/>
	<path class="st0" d="M130.5,101.2V64.5"/>
	<path class="st0" d="M15.9,64.5c0-0.8,0.7-1.4,1.6-1.4"/>
	<path class="st0" d="M542.2,48.7v14.4"/>
	<path class="st0" d="M453.6,10.5v36.9"/>
	<path class="st0" d="M234.9,210.6c0,0,0.7,0,1.5,0"/>
	<path class="st0" d="M131.9,63.1h36.9"/>
	<path class="st0" d="M183.7,10.5v36.8"/>
	<path class="st0" d="M307.4,48.7c-0.8,0-1.4-0.6-1.4-1.4"/>
	<path class="st0" d="M507.6,172.3v36.8"/>
	<path class="st0" d="M506.2,48.7h-36.9"/>
	<path class="st0" d="M330.5,210.6h121.7"/>
	<path class="st0" d="M81.3,168.8c0-1.9-1.5-3.4-3.4-3.4"/>
	<path class="st0" d="M423.9,166.8v2.6"/>
	<path class="st0" d="M101.3,117H64.5"/>
	<path class="st0" d="M586.2,156.7c-0.1,0.2-0.1,0.5-0.1,0.7"/>
	<path class="st0" d="M588.7,118.4c0-0.8-0.6-1.4-1.4-1.4"/>
	<path class="st0" d="M290.3,9.1c0.8,0,1.4,0.6,1.4,1.4"/>
	<path class="st0" d="M210.7,155.3v-36.9"/>
	<path class="st0" d="M222.4,210.6h11"/>
	<path class="st0" d="M287,165.3h-16.8"/>
	<path class="st0" d="M233.4,210.6c0.8,0,1.5,0,1.5,0"/>
	<path class="st0" d="M134.8,170.9c0.9,0,1.6,0.6,1.6,1.4"/>
	<path class="st0" d="M260.4,170.9h-4.2"/>
	<path class="st0" d="M175.1,170.9c-0.8,0-1.5-0.7-1.5-1.5"/>
	<path class="st0" d="M362.6,166.8c0-0.8-0.7-1.5-1.5-1.5"/>
	<path class="st0" d="M452.2,9.1c0.8,0,1.4,0.6,1.4,1.4"/>
	<path class="st0" d="M136.5,209.1c0,0.8-0.7,1.4-1.6,1.4"/>
	<path class="st0" d="M90,172.3c0-0.8,0.7-1.4,1.6-1.4"/>
	<path class="st0" d="M199.4,48.7c-0.8,0-1.4-0.6-1.4-1.4"/>
	<path class="st0" d="M334.4,117c-0.8,0-1.4,0.6-1.4,1.4"/>
	<path class="st0" d="M114.8,102.6H78"/>
	<path class="st0" d="M452.1,210.6c0.8,0,1.5-0.7,1.5-1.5"/>
	<path class="st0" d="M413.1,101.2c0,0.8-0.6,1.4-1.4,1.4"/>
	<path class="st0" d="M327.5,210.6c0.8,0,1.5,0,1.5,0"/>
	<path class="st0" d="M222.4,170.9c-0.8,0-1.5-0.7-1.5-1.5"/>
	<path class="st0" d="M334.4,156.7h36.9"/>
	<path class="st0" d="M309.2,166.8v2.6"/>
	<path class="st0" d="M309.2,169.4c0,0.8-0.7,1.5-1.5,1.5"/>
	<path class="st0" d="M452.1,170.9h-6.9"/>
	<path class="st0" d="M236.3,9.1c0.8,0,1.4,0.6,1.4,1.4"/>
	<path class="st0" d="M252,10.5c0-0.8,0.6-1.4,1.4-1.4"/>
	<path class="st0" d="M62.3,64.5v36.8"/>
	<path class="st0" d="M264.7,155.3v-36.9"/>
	<path class="st0" d="M199.4,9.1h36.9"/>
	<path class="st0" d="M184.5,101.2V64.5"/>
	<path class="st0" d="M359.1,64.5v36.8"/>
	<path class="st0" d="M156.7,155.3v-36.9"/>
	<path class="st0" d="M376.6,166.8v2.6"/>
	<path class="st0" d="M201.1,210.6c0,0,0.7,0,1.5,0"/>
	<path class="st0" d="M453.6,47.4c0,0.8-0.6,1.4-1.4,1.4"/>
	<path class="st0" d="M144,10.5c0-0.8,0.6-1.4,1.4-1.4"/>
	<path class="st0" d="M59.3,9.1c0-1.8-1.5-3.3-3.3-3.3"/>
	<path class="st0" d="M153.8,169.4c0,0.8-0.7,1.5-1.5,1.5"/>
	<path class="st0" d="M130.5,64.5c0-0.8,0.6-1.4,1.4-1.4"/>
	<path class="st0" d="M481.4,64.5c0-0.8,0.6-1.4,1.4-1.4"/>
	<path class="st0" d="M288.5,169.4v-2.6"/>
	<path class="st0" d="M260.4,210.6c0.8,0,1.5,0,1.5,0"/>
	<path class="st0" d="M253.4,9.1h36.9"/>
	<path class="st0" d="M198,47.3V10.5"/>
	<path class="st0" d="M344.3,9.1c0.8,0,1.4,0.6,1.4,1.4"/>
	<path class="st0" d="M589.4,160.7c1.8,0,3.3-1.5,3.3-3.3"/>
	<path class="st0" d="M581.9,101.2V74.4"/>
	<path class="st0" d="M263.4,165.3c-0.8,0-1.5,0.7-1.5,1.5"/>
	<path class="st0" d="M222.8,102.6h-36.9"/>
	<path class="st0" d="M519.8,165.4c-1.9,0-3.4,1.5-3.4,3.4"/>
	<path class="st0" d="M394.9,165.3h-16.8"/>
	<path class="st0" d="M521.9,47.3c0,0.8,0.8,1.4,1.9,1.4"/>
	<path class="st0" d="M496.3,156.7h36.9"/>
	<path class="st0" d="M264.7,118.4c0-0.8-0.6-1.4-1.4-1.4"/>
</g>
</svg>
