<?xml version="1.0" encoding="utf-8"?>
<!-- Generator: Adobe Illustrator 26.5.0, SVG Export Plug-In . SVG Version: 6.00 Build 0)  -->
<svg version="1.1" id="Layer_1" xmlns:svg="http://www.w3.org/2000/svg"
	 xmlns="http://www.w3.org/2000/svg" xmlns:xlink="http://www.w3.org/1999/xlink" x="0px" y="0px" viewBox="0 0 630.9 249.8"
	 style="enable-background:new 0 0 630.9 249.8;" xml:space="preserve">
<style type="text/css">
	.st0{fill:#FFFFFF;fill-opacity:0;stroke:#57B947;stroke-width:0.1;stroke-miterlimit:10;}
	
		.st1{fill:#FFFFFF;fill-opacity:0;stroke:#57B947;stroke-width:0.1;stroke-linecap:round;stroke-linejoin:round;stroke-miterlimit:11.3386;}
</style>
<g transform="translate(0 0) scale(1 1)">
</g>
<g>
	<path class="st0" d="M372.8,147v12.8"/>
	<path class="st0" d="M386.6,159.8V147"/>
	<path class="st0" d="M386.1,146.5h-12.8"/>
	<path class="st0" d="M373.3,160.3h12.8"/>
	<path class="st0" d="M373.3,146.5c-0.3,0-0.5,0.2-0.5,0.5"/>
	<path class="st0" d="M386.6,147c0-0.3-0.2-0.5-0.5-0.5"/>
	<path class="st0" d="M386.1,160.3c0.3,0,0.5-0.2,0.5-0.5"/>
	<path class="st0" d="M372.8,159.8c0,0.3,0.2,0.5,0.5,0.5"/>
	<path class="st0" d="M325.9,159.8V146"/>
	<path class="st0" d="M319.1,146v13.8"/>
	<path class="st0" d="M319.6,160.3h5.8"/>
	<path class="st0" d="M325.4,145.5h-5.8"/>
	<path class="st0" d="M325.4,160.3c0.3,0,0.5-0.2,0.5-0.5"/>
	<path class="st0" d="M319.1,159.8c0,0.3,0.2,0.5,0.5,0.5"/>
	<path class="st0" d="M319.6,145.5c-0.3,0-0.5,0.2-0.5,0.5"/>
	<path class="st0" d="M325.9,146c0-0.3-0.2-0.5-0.5-0.5"/>
	<path class="st0" d="M364,159.8V146"/>
	<path class="st0" d="M357.2,146v13.8"/>
	<path class="st0" d="M357.7,160.3h5.8"/>
	<path class="st0" d="M363.5,145.5h-5.8"/>
	<path class="st0" d="M363.5,160.3c0.3,0,0.5-0.2,0.5-0.5"/>
	<path class="st0" d="M357.2,159.8c0,0.3,0.2,0.5,0.5,0.5"/>
	<path class="st0" d="M357.7,145.5c-0.3,0-0.5,0.2-0.5,0.5"/>
	<path class="st0" d="M364,146c0-0.3-0.2-0.5-0.5-0.5"/>
	<path class="st0" d="M334.7,147v12.8"/>
	<path class="st0" d="M348.5,159.8V147"/>
	<path class="st0" d="M348,146.5h-12.8"/>
	<path class="st0" d="M335.2,160.3H348"/>
	<path class="st0" d="M335.2,146.5c-0.3,0-0.5,0.2-0.5,0.5"/>
	<path class="st0" d="M348.5,147c0-0.3-0.2-0.5-0.5-0.5"/>
	<path class="st0" d="M348,160.3c0.3,0,0.5-0.2,0.5-0.5"/>
	<path class="st0" d="M334.7,159.8c0,0.3,0.2,0.5,0.5,0.5"/>
	<path class="st0" d="M268.8,159.8V146"/>
	<path class="st0" d="M262,146v13.8"/>
	<path class="st0" d="M262.5,160.3h5.8"/>
	<path class="st0" d="M268.3,145.5h-5.8"/>
	<path class="st0" d="M268.3,160.3c0.3,0,0.5-0.2,0.5-0.5"/>
	<path class="st0" d="M262,159.8c0,0.3,0.2,0.5,0.5,0.5"/>
	<path class="st0" d="M262.5,145.5c-0.3,0-0.5,0.2-0.5,0.5"/>
	<path class="st0" d="M268.8,146c0-0.3-0.2-0.5-0.5-0.5"/>
	<path class="st0" d="M306.9,159.8V146"/>
	<path class="st0" d="M300.1,146v13.8"/>
	<path class="st0" d="M300.6,160.3h5.8"/>
	<path class="st0" d="M306.4,145.5h-5.8"/>
	<path class="st0" d="M306.4,160.3c0.3,0,0.5-0.2,0.5-0.5"/>
	<path class="st0" d="M300.1,159.8c0,0.3,0.2,0.5,0.5,0.5"/>
	<path class="st0" d="M300.6,145.5c-0.3,0-0.5,0.2-0.5,0.5"/>
	<path class="st0" d="M306.9,146c0-0.3-0.2-0.5-0.5-0.5"/>
	<path class="st0" d="M277.5,147v12.8"/>
	<path class="st0" d="M291.3,159.8V147"/>
	<path class="st0" d="M290.8,146.5H278"/>
	<path class="st0" d="M278,160.3h12.8"/>
	<path class="st0" d="M278,146.5c-0.3,0-0.5,0.2-0.5,0.5"/>
	<path class="st0" d="M291.3,147c0-0.3-0.2-0.5-0.5-0.5"/>
	<path class="st0" d="M290.8,160.3c0.3,0,0.5-0.2,0.5-0.5"/>
	<path class="st0" d="M277.5,159.8c0,0.3,0.2,0.5,0.5,0.5"/>
	<path class="st0" d="M239.4,147v12.8"/>
	<path class="st0" d="M253.2,159.8V147"/>
	<path class="st0" d="M252.7,146.5h-12.8"/>
	<path class="st0" d="M239.9,160.3h12.8"/>
	<path class="st0" d="M239.9,146.5c-0.3,0-0.5,0.2-0.5,0.5c0,0,0,0,0,0"/>
	<path class="st0" d="M253.2,147c0-0.3-0.2-0.5-0.5-0.5"/>
	<path class="st0" d="M252.7,160.3c0.3,0,0.5-0.2,0.5-0.5"/>
	<path class="st0" d="M239.4,159.8c0,0.3,0.2,0.5,0.5,0.5c0,0,0,0,0,0"/>
	<path class="st0" d="M382.3,128v12.8"/>
	<path class="st0" d="M396.1,140.8V128"/>
	<path class="st0" d="M395.6,127.5h-12.8"/>
	<path class="st0" d="M382.8,141.3h12.8"/>
	<path class="st0" d="M382.8,127.5c-0.3,0-0.5,0.2-0.5,0.5"/>
	<path class="st0" d="M396.1,128c0-0.3-0.2-0.5-0.5-0.5"/>
	<path class="st0" d="M395.6,141.3c0.3,0,0.5-0.2,0.5-0.5"/>
	<path class="st0" d="M382.3,140.8c0,0.3,0.2,0.5,0.5,0.5"/>
	<path class="st0" d="M363.2,128v12.8"/>
	<path class="st0" d="M377,140.8V128"/>
	<path class="st0" d="M376.6,127.5h-12.8"/>
	<path class="st0" d="M363.7,141.3h12.8"/>
	<path class="st0" d="M363.7,127.5c-0.3,0-0.5,0.2-0.5,0.5"/>
	<path class="st0" d="M377,128c0-0.3-0.2-0.5-0.5-0.5"/>
	<path class="st0" d="M376.6,141.3c0.3,0,0.5-0.2,0.5-0.5"/>
	<path class="st0" d="M363.2,140.8c0,0.3,0.2,0.5,0.5,0.5"/>
	<path class="st0" d="M344.2,128v12.8"/>
	<path class="st0" d="M358,140.8V128"/>
	<path class="st0" d="M357.5,127.5h-12.8"/>
	<path class="st0" d="M344.7,141.3h12.8"/>
	<path class="st0" d="M344.7,127.5c-0.3,0-0.5,0.2-0.5,0.5"/>
	<path class="st0" d="M358,128c0-0.3-0.2-0.5-0.5-0.5"/>
	<path class="st0" d="M357.5,141.3c0.3,0,0.5-0.2,0.5-0.5"/>
	<path class="st0" d="M344.2,140.8c0,0.3,0.2,0.5,0.5,0.5"/>
	<path class="st0" d="M325.1,128v12.8"/>
	<path class="st0" d="M338.9,140.8V128"/>
	<path class="st0" d="M338.5,127.5h-12.8"/>
	<path class="st0" d="M325.6,141.3h12.8"/>
	<path class="st0" d="M325.6,127.5c-0.3,0-0.5,0.2-0.5,0.5"/>
	<path class="st0" d="M338.9,128c0-0.3-0.2-0.5-0.5-0.5"/>
	<path class="st0" d="M338.5,141.3c0.3,0,0.5-0.2,0.5-0.5"/>
	<path class="st0" d="M325.1,140.8c0,0.3,0.2,0.5,0.5,0.5"/>
	<path class="st0" d="M306.1,128v12.8"/>
	<path class="st0" d="M319.9,140.8V128"/>
	<path class="st0" d="M319.4,127.5h-12.8"/>
	<path class="st0" d="M306.6,141.3h12.8"/>
	<path class="st0" d="M306.6,127.5c-0.3,0-0.5,0.2-0.5,0.5"/>
	<path class="st0" d="M319.9,128c0-0.3-0.2-0.5-0.5-0.5"/>
	<path class="st0" d="M319.4,141.3c0.3,0,0.5-0.2,0.5-0.5"/>
	<path class="st0" d="M306.1,140.8c0,0.3,0.2,0.5,0.5,0.5"/>
	<path class="st0" d="M287,128v12.8"/>
	<path class="st0" d="M300.8,140.8V128"/>
	<path class="st0" d="M300.4,127.5h-12.8"/>
	<path class="st0" d="M287.5,141.3h12.8"/>
	<path class="st0" d="M287.5,127.5c-0.3,0-0.5,0.2-0.5,0.5"/>
	<path class="st0" d="M300.8,128c0-0.3-0.2-0.5-0.5-0.5"/>
	<path class="st0" d="M300.4,141.3c0.3,0,0.5-0.2,0.5-0.5"/>
	<path class="st0" d="M287,140.8c0,0.3,0.2,0.5,0.5,0.5"/>
	<path class="st0" d="M268,128v12.8"/>
	<path class="st0" d="M281.8,140.8V128"/>
	<path class="st0" d="M281.3,127.5h-12.8"/>
	<path class="st0" d="M268.5,141.3h12.8"/>
	<path class="st0" d="M268.5,127.5c-0.3,0-0.5,0.2-0.5,0.5"/>
	<path class="st0" d="M281.8,128c0-0.3-0.2-0.5-0.5-0.5"/>
	<path class="st0" d="M281.3,141.3c0.3,0,0.5-0.2,0.5-0.5"/>
	<path class="st0" d="M268,140.8c0,0.3,0.2,0.5,0.5,0.5"/>
	<path class="st0" d="M248.9,128v12.8"/>
	<path class="st0" d="M262.7,140.8V128"/>
	<path class="st0" d="M262.3,127.5h-12.8"/>
	<path class="st0" d="M249.4,141.3h12.8"/>
	<path class="st0" d="M249.4,127.5c-0.3,0-0.5,0.2-0.5,0.5"/>
	<path class="st0" d="M262.7,128c0-0.3-0.2-0.5-0.5-0.5"/>
	<path class="st0" d="M262.3,141.3c0.3,0,0.5-0.2,0.5-0.5"/>
	<path class="st0" d="M248.9,140.8c0,0.3,0.2,0.5,0.5,0.5"/>
	<path class="st0" d="M229.9,128v12.8"/>
	<path class="st0" d="M243.7,140.8V128"/>
	<path class="st0" d="M243.2,127.5h-12.8"/>
	<path class="st0" d="M230.4,141.3h12.8"/>
	<path class="st0" d="M230.4,127.5c-0.3,0-0.5,0.2-0.5,0.5"/>
	<path class="st0" d="M243.7,128c0-0.3-0.2-0.5-0.5-0.5"/>
	<path class="st0" d="M243.2,141.3c0.3,0,0.5-0.2,0.5-0.5"/>
	<path class="st0" d="M229.9,140.8c0,0.3,0.2,0.5,0.5,0.5"/>
	<path class="st0" d="M399,108.9v12.8"/>
	<path class="st0" d="M412.8,121.7v-12.8"/>
	<path class="st0" d="M412.3,108.4h-12.8"/>
	<path class="st0" d="M399.5,122.2h12.8"/>
	<path class="st0" d="M399.5,108.4c-0.3,0-0.5,0.2-0.5,0.5"/>
	<path class="st0" d="M412.8,108.9c0-0.3-0.2-0.5-0.5-0.5"/>
	<path class="st0" d="M412.3,122.2c0.3,0,0.5-0.2,0.5-0.5c0,0,0,0,0,0"/>
	<path class="st0" d="M399,121.7c0,0.3,0.2,0.5,0.5,0.5"/>
	<path class="st0" d="M377.5,108.9v12.8"/>
	<path class="st0" d="M391.3,121.7v-12.8"/>
	<path class="st0" d="M390.8,108.4H378"/>
	<path class="st0" d="M378,122.2h12.8"/>
	<path class="st0" d="M378,108.4c-0.3,0-0.5,0.2-0.5,0.5"/>
	<path class="st0" d="M391.3,108.9c0-0.3-0.2-0.5-0.5-0.5"/>
	<path class="st0" d="M390.8,122.2c0.3,0,0.5-0.2,0.5-0.5"/>
	<path class="st0" d="M377.5,121.7c0,0.3,0.2,0.5,0.5,0.5"/>
	<path class="st0" d="M358.5,108.9v12.8"/>
	<path class="st0" d="M372.3,121.7v-12.8"/>
	<path class="st0" d="M371.8,108.4H359"/>
	<path class="st0" d="M359,122.2h12.8"/>
	<path class="st0" d="M359,108.4c-0.3,0-0.5,0.2-0.5,0.5"/>
	<path class="st0" d="M372.3,108.9c0-0.3-0.2-0.5-0.5-0.5"/>
	<path class="st0" d="M371.8,122.2c0.3,0,0.5-0.2,0.5-0.5"/>
	<path class="st0" d="M358.5,121.7c0,0.3,0.2,0.5,0.5,0.5"/>
	<path class="st0" d="M339.4,108.9v12.8"/>
	<path class="st0" d="M353.2,121.7v-12.8"/>
	<path class="st0" d="M352.7,108.4h-12.8"/>
	<path class="st0" d="M339.9,122.2h12.8"/>
	<path class="st0" d="M339.9,108.4c-0.3,0-0.5,0.2-0.5,0.5"/>
	<path class="st0" d="M353.2,108.9c0-0.3-0.2-0.5-0.5-0.5"/>
	<path class="st0" d="M352.7,122.2c0.3,0,0.5-0.2,0.5-0.5"/>
	<path class="st0" d="M339.4,121.7c0,0.3,0.2,0.5,0.5,0.5"/>
	<path class="st0" d="M320.4,108.9v12.8"/>
	<path class="st0" d="M334.2,121.7v-12.8"/>
	<path class="st0" d="M333.7,108.4h-12.8"/>
	<path class="st0" d="M320.9,122.2h12.8"/>
	<path class="st0" d="M320.9,108.4c-0.3,0-0.5,0.2-0.5,0.5"/>
	<path class="st0" d="M334.2,108.9c0-0.3-0.2-0.5-0.5-0.5"/>
	<path class="st0" d="M333.7,122.2c0.3,0,0.5-0.2,0.5-0.5"/>
	<path class="st0" d="M320.4,121.7c0,0.3,0.2,0.5,0.5,0.5"/>
	<path class="st0" d="M291.8,108.9v12.8"/>
	<path class="st0" d="M305.6,121.7v-12.8"/>
	<path class="st0" d="M305.1,108.4h-12.8"/>
	<path class="st0" d="M292.3,122.2h12.8"/>
	<path class="st0" d="M292.3,108.4c-0.3,0-0.5,0.2-0.5,0.5"/>
	<path class="st0" d="M305.6,108.9c0-0.3-0.2-0.5-0.5-0.5"/>
	<path class="st0" d="M305.1,122.2c0.3,0,0.5-0.2,0.5-0.5"/>
	<path class="st0" d="M291.8,121.7c0,0.3,0.2,0.5,0.5,0.5"/>
	<path class="st0" d="M272.8,108.9v12.8"/>
	<path class="st0" d="M286.6,121.7v-12.8"/>
	<path class="st0" d="M286.1,108.4h-12.8"/>
	<path class="st0" d="M273.3,122.2h12.8"/>
	<path class="st0" d="M273.3,108.4c-0.3,0-0.5,0.2-0.5,0.5"/>
	<path class="st0" d="M286.6,108.9c0-0.3-0.2-0.5-0.5-0.5"/>
	<path class="st0" d="M286.1,122.2c0.3,0,0.5-0.2,0.5-0.5"/>
	<path class="st0" d="M272.8,121.7c0,0.3,0.2,0.5,0.5,0.5"/>
	<path class="st0" d="M253.7,108.9v12.8"/>
	<path class="st0" d="M267.5,121.7v-12.8"/>
	<path class="st0" d="M267,108.4h-12.8"/>
	<path class="st0" d="M254.2,122.2H267"/>
	<path class="st0" d="M254.2,108.4c-0.3,0-0.5,0.2-0.5,0.5"/>
	<path class="st0" d="M267.5,108.9c0-0.3-0.2-0.5-0.5-0.5"/>
	<path class="st0" d="M267,122.2c0.3,0,0.5-0.2,0.5-0.5"/>
	<path class="st0" d="M253.7,121.7c0,0.3,0.2,0.5,0.5,0.5"/>
	<path class="st0" d="M234.7,108.9v12.8"/>
	<path class="st0" d="M248.5,121.7v-12.8"/>
	<path class="st0" d="M248,108.4h-12.8"/>
	<path class="st0" d="M235.2,122.2H248"/>
	<path class="st0" d="M235.2,108.4c-0.3,0-0.5,0.2-0.5,0.5"/>
	<path class="st0" d="M248.5,108.9c0-0.3-0.2-0.5-0.5-0.5"/>
	<path class="st0" d="M248,122.2c0.3,0,0.5-0.2,0.5-0.5"/>
	<path class="st0" d="M234.7,121.7c0,0.3,0.2,0.5,0.5,0.5"/>
	<path class="st0" d="M213.2,108.9v12.8"/>
	<path class="st0" d="M227,121.7v-12.8"/>
	<path class="st0" d="M226.5,108.4h-12.8"/>
	<path class="st0" d="M213.7,122.2h12.8"/>
	<path class="st0" d="M213.7,108.4c-0.3,0-0.5,0.2-0.5,0.5"/>
	<path class="st0" d="M227,108.9c0-0.3-0.2-0.5-0.5-0.5"/>
	<path class="st0" d="M226.5,122.2c0.3,0,0.5-0.2,0.5-0.5c0,0,0,0,0,0"/>
	<path class="st0" d="M213.2,121.7c0,0.3,0.2,0.5,0.5,0.5"/>
	<path class="st0" d="M372.8,89.9v12.8"/>
	<path class="st0" d="M386.6,102.7V89.9"/>
	<path class="st0" d="M386.1,89.4h-12.8"/>
	<path class="st0" d="M373.3,103.2h12.8"/>
	<path class="st0" d="M373.3,89.4c-0.3,0-0.5,0.2-0.5,0.5"/>
	<path class="st0" d="M386.6,89.9c0-0.3-0.2-0.5-0.5-0.5"/>
	<path class="st0" d="M386.1,103.2c0.3,0,0.5-0.2,0.5-0.5"/>
	<path class="st0" d="M372.8,102.7c0,0.3,0.2,0.5,0.5,0.5"/>
	<path class="st0" d="M353.7,89.9v12.8"/>
	<path class="st0" d="M367.5,102.7V89.9"/>
	<path class="st0" d="M367,89.4h-12.8"/>
	<path class="st0" d="M354.2,103.2H367"/>
	<path class="st0" d="M354.2,89.4c-0.3,0-0.5,0.2-0.5,0.5"/>
	<path class="st0" d="M367.5,89.9c0-0.3-0.2-0.5-0.5-0.5"/>
	<path class="st0" d="M367,103.2c0.3,0,0.5-0.2,0.5-0.5"/>
	<path class="st0" d="M353.7,102.7c0,0.3,0.2,0.5,0.5,0.5"/>
	<path class="st0" d="M334.7,89.9v12.8"/>
	<path class="st0" d="M348.5,102.7V89.9"/>
	<path class="st0" d="M348,89.4h-12.8"/>
	<path class="st0" d="M335.2,103.2H348"/>
	<path class="st0" d="M335.2,89.4c-0.3,0-0.5,0.2-0.5,0.5"/>
	<path class="st0" d="M348.5,89.9c0-0.3-0.2-0.5-0.5-0.5"/>
	<path class="st0" d="M348,103.2c0.3,0,0.5-0.2,0.5-0.5"/>
	<path class="st0" d="M334.7,102.7c0,0.3,0.2,0.5,0.5,0.5"/>
	<path class="st0" d="M315.6,89.9v12.8"/>
	<path class="st0" d="M329.4,102.7V89.9"/>
	<path class="st0" d="M328.9,89.4h-12.8"/>
	<path class="st0" d="M316.1,103.2h12.8"/>
	<path class="st0" d="M316.1,89.4c-0.3,0-0.5,0.2-0.5,0.5"/>
	<path class="st0" d="M329.4,89.9c0-0.3-0.2-0.5-0.5-0.5"/>
	<path class="st0" d="M328.9,103.2c0.3,0,0.5-0.2,0.5-0.5"/>
	<path class="st0" d="M315.6,102.7c0,0.3,0.2,0.5,0.5,0.5"/>
	<path class="st0" d="M296.6,89.9v12.8"/>
	<path class="st0" d="M310.4,102.7V89.9"/>
	<path class="st0" d="M309.9,89.4h-12.8"/>
	<path class="st0" d="M297.1,103.2h12.8"/>
	<path class="st0" d="M297.1,89.4c-0.3,0-0.5,0.2-0.5,0.5"/>
	<path class="st0" d="M310.4,89.9c0-0.3-0.2-0.5-0.5-0.5"/>
	<path class="st0" d="M309.9,103.2c0.3,0,0.5-0.2,0.5-0.5"/>
	<path class="st0" d="M296.6,102.7c0,0.3,0.2,0.5,0.5,0.5"/>
	<path class="st0" d="M277.5,89.9v12.8"/>
	<path class="st0" d="M291.3,102.7V89.9"/>
	<path class="st0" d="M290.8,89.4H278"/>
	<path class="st0" d="M278,103.2h12.8"/>
	<path class="st0" d="M278,89.4c-0.3,0-0.5,0.2-0.5,0.5"/>
	<path class="st0" d="M291.3,89.9c0-0.3-0.2-0.5-0.5-0.5"/>
	<path class="st0" d="M290.8,103.2c0.3,0,0.5-0.2,0.5-0.5"/>
	<path class="st0" d="M277.5,102.7c0,0.3,0.2,0.5,0.5,0.5"/>
	<path class="st0" d="M258.5,89.9v12.8"/>
	<path class="st0" d="M272.3,102.7V89.9"/>
	<path class="st0" d="M271.8,89.4H259"/>
	<path class="st0" d="M259,103.2h12.8"/>
	<path class="st0" d="M259,89.4c-0.3,0-0.5,0.2-0.5,0.5"/>
	<path class="st0" d="M272.3,89.9c0-0.3-0.2-0.5-0.5-0.5"/>
	<path class="st0" d="M271.8,103.2c0.3,0,0.5-0.2,0.5-0.5"/>
	<path class="st0" d="M258.5,102.7c0,0.3,0.2,0.5,0.5,0.5"/>
	<path class="st0" d="M239.4,89.9v12.8"/>
	<path class="st0" d="M253.2,102.7V89.9"/>
	<path class="st0" d="M252.7,89.4h-12.8"/>
	<path class="st0" d="M239.9,103.2h12.8"/>
	<path class="st0" d="M239.9,89.4c-0.3,0-0.5,0.2-0.5,0.5c0,0,0,0,0,0"/>
	<path class="st0" d="M253.2,89.9c0-0.3-0.2-0.5-0.5-0.5"/>
	<path class="st0" d="M252.7,103.2c0.3,0,0.5-0.2,0.5-0.5"/>
	<path class="st0" d="M239.4,102.7c0,0.3,0.2,0.5,0.5,0.5c0,0,0,0,0,0"/>
	<path class="st1" d="M207.4,89.1c0-1.7,1.4-3.1,3.1-3.1"/>
	<path class="st1" d="M418.5,141.4c0,1.7-1.4,3.1-3.1,3.1"/>
	<path class="st1" d="M389.9,145.8v14.8"/>
	<path class="st1" d="M418.5,89.1v52.3"/>
	<path class="st1" d="M239.2,163.7c-1.7,0-3.1-1.4-3.1-3.1"/>
	<path class="st1" d="M234.9,144.6h-24.3"/>
	<path class="st1" d="M415.4,86c1.7,0,3.1,1.4,3.1,3.1"/>
	<path class="st1" d="M389.9,160.6c0,1.7-1.4,3.1-3.1,3.1"/>
	<path class="st1" d="M210.6,144.6c-1.7,0-3.1-1.4-3.1-3.1"/>
	<path class="st1" d="M207.4,141.4V89.1"/>
	<path class="st1" d="M415.4,144.6h-24.3"/>
	<path class="st1" d="M236.1,145.8c0-0.7-0.5-1.2-1.2-1.2"/>
	<path class="st1" d="M391.1,144.6c-0.7,0-1.2,0.5-1.2,1.2"/>
	<path class="st1" d="M236.1,160.6v-14.8"/>
	<path class="st0" d="M414.3,141.3c0,0.1,0,0.2,0,0.2c0,0.6,0.5,1.1,1.1,1.1c0.6,0,1.1-0.5,1.1-1.1c0-0.6-0.5-1.1-1.1-1.1
		c-0.1,0-0.2,0-0.2,0l0,0V128c0-0.3-0.2-0.5-0.5-0.5h-12.8c-0.3,0-0.5,0.2-0.5,0.5v0v12.8c0,0.3,0.2,0.5,0.5,0.5L414.3,141.3"/>
	<path class="st1" d="M210.6,86h204.8"/>
	<path class="st1" d="M386.8,163.7H239.2"/>
</g>
<path class="st0" d="M228.4,89.4c0-0.6-0.5-1.1-1.1-1.1c-0.6,0-1.1,0.5-1.1,1.1v0h-10c-0.3,0-0.5,0.2-0.5,0.5v12.8v0
	c0,0.3,0.2,0.5,0.5,0.5v0h12.8v0c0.3,0,0.5-0.2,0.5-0.5v0V89.9c0-0.3-0.2-0.5-0.5-0.5h0L228.4,89.4"/>
<path class="st0" d="M397.6,89.4h-0.5h0c-0.3,0-0.5,0.2-0.5,0.5v12.8v0c0,0.3,0.2,0.5,0.5,0.5v0h12.8v0c0.3,0,0.5-0.2,0.5-0.5v0
	V89.9c0-0.3-0.2-0.5-0.5-0.5h-10v0c0-0.6-0.5-1.1-1.1-1.1C398.1,88.2,397.6,88.8,397.6,89.4"/>
<path class="st0" d="M211.7,141.3l12.4,0c0.3,0,0.5-0.2,0.5-0.5V128v0c0-0.3-0.2-0.5-0.5-0.5h-12.8c-0.3,0-0.5,0.2-0.5,0.5v12.4l0,0
	c0,0-0.1,0-0.2,0c-0.6,0-1.1,0.5-1.1,1.1c0,0.6,0.5,1.1,1.1,1.1c0.6,0,1.1-0.5,1.1-1.1C211.8,141.5,211.8,141.4,211.7,141.3"/>
</svg>
