  0
SECTION
  2
HEADER
  9
$ACADVER
  1
AC1032
  9
$ACADMAINTVER
 90
      228
  9
$DWGCODEPAGE
  3
ANSI_1252
  9
$REQUIREDVERSIONS
160
                 0
  9
$INSBASE
 10
0.0
 20
0.0
 30
0.0
  9
$EXTMIN
 10
1.000000000000000E+20
 20
1.000000000000000E+20
 30
1.000000000000000E+20
  9
$EXTMAX
 10
-1.000000000000000E+20
 20
-1.000000000000000E+20
 30
-1.000000000000000E+20
  9
$LIMMIN
 10
0.0
 20
0.0
  9
$LIMMAX
 10
12.0
 20
9.0
  9
$ORTHOMODE
 70
     0
  9
$REGENMODE
 70
     1
  9
$FILLMODE
 70
     1
  9
$QTEXTMODE
 70
     0
  9
$MIRRTEXT
 70
     0
  9
$LTSCALE
 40
1.0
  9
$ATTMODE
 70
     1
  9
$TEXTSIZE
 40
0.2
  9
$TRACEWID
 40
0.05
  9
$TEXTSTYLE
  7
Standard
  9
$CLAYER
  8
0
  9
$CELTYPE
  6
ByLayer
  9
$CECOLOR
 62
   256
  9
$CELTSCALE
 40
1.0
  9
$DISPSILH
 70
     0
  9
$DIMSCALE
 40
1.0
  9
$DIMASZ
 40
0.18
  9
$DIMEXO
 40
0.0625
  9
$DIMDLI
 40
0.38
  9
$DIMRND
 40
0.0
  9
$DIMDLE
 40
0.0
  9
$DIMEXE
 40
0.18
  9
$DIMTP
 40
0.0
  9
$DIMTM
 40
0.0
  9
$DIMTXT
 40
0.18
  9
$DIMCEN
 40
0.09
  9
$DIMTSZ
 40
0.0
  9
$DIMTOL
 70
     0
  9
$DIMLIM
 70
     0
  9
$DIMTIH
 70
     1
  9
$DIMTOH
 70
     1
  9
$DIMSE1
 70
     0
  9
$DIMSE2
 70
     0
  9
$DIMTAD
 70
     0
  9
$DIMZIN
 70
     0
  9
$DIMBLK
  1

  9
$DIMASO
 70
     1
  9
$DIMSHO
 70
     1
  9
$DIMPOST
  1

  9
$DIMAPOST
  1

  9
$DIMALT
 70
     0
  9
$DIMALTD
 70
     2
  9
$DIMALTF
 40
25.4
  9
$DIMLFAC
 40
1.0
  9
$DIMTOFL
 70
     0
  9
$DIMTVP
 40
0.0
  9
$DIMTIX
 70
     0
  9
$DIMSOXD
 70
     0
  9
$DIMSAH
 70
     0
  9
$DIMBLK1
  1

  9
$DIMBLK2
  1

  9
$DIMSTYLE
  2
Standard
  9
$DIMCLRD
 70
     0
  9
$DIMCLRE
 70
     0
  9
$DIMCLRT
 70
     0
  9
$DIMTFAC
 40
1.0
  9
$DIMGAP
 40
0.09
  9
$DIMJUST
 70
     0
  9
$DIMSD1
 70
     0
  9
$DIMSD2
 70
     0
  9
$DIMTOLJ
 70
     1
  9
$DIMTZIN
 70
     0
  9
$DIMALTZ
 70
     0
  9
$DIMALTTZ
 70
     0
  9
$DIMUPT
 70
     0
  9
$DIMDEC
 70
     4
  9
$DIMTDEC
 70
     4
  9
$DIMALTU
 70
     2
  9
$DIMALTTD
 70
     2
  9
$DIMTXSTY
  7
Standard
  9
$DIMAUNIT
 70
     0
  9
$DIMADEC
 70
     0
  9
$DIMALTRND
 40
0.0
  9
$DIMAZIN
 70
     0
  9
$DIMDSEP
 70
    46
  9
$DIMATFIT
 70
     3
  9
$DIMFRAC
 70
     0
  9
$DIMLDRBLK
  1

  9
$DIMLUNIT
 70
     2
  9
$DIMLWD
 70
    -2
  9
$DIMLWE
 70
    -2
  9
$DIMTMOVE
 70
     0
  9
$DIMFXL
 40
1.0
  9
$DIMFXLON
 70
     0
  9
$DIMJOGANG
 40
0.7853981633974483
  9
$DIMTFILL
 70
     0
  9
$DIMTFILLCLR
 70
     0
  9
$DIMARCSYM
 70
     0
  9
$DIMLTYPE
  6

  9
$DIMLTEX1
  6

  9
$DIMLTEX2
  6

  9
$DIMTXTDIRECTION
 70
     0
  9
$LUNITS
 70
     2
  9
$LUPREC
 70
     4
  9
$SKETCHINC
 40
0.1
  9
$FILLETRAD
 40
0.0
  9
$AUNITS
 70
     0
  9
$AUPREC
 70
     0
  9
$MENU
  1
.
  9
$ELEVATION
 40
0.0
  9
$PELEVATION
 40
0.0
  9
$THICKNESS
 40
0.0
  9
$LIMCHECK
 70
     0
  9
$CHAMFERA
 40
0.0
  9
$CHAMFERB
 40
0.0
  9
$CHAMFERC
 40
0.0
  9
$CHAMFERD
 40
0.0
  9
$SKPOLY
 70
     0
  9
$TDCREATE
 40
2460246.658912037
  9
$TDUCREATE
 40
2460246.825578704
  9
$TDUPDATE
 40
2460246.658912037
  9
$TDUUPDATE
 40
2460246.825578704
  9
$TDINDWG
 40
0.0000000000
  9
$TDUSRTIMER
 40
0.0000000000
  9
$USRTIMER
 70
     1
  9
$ANGBASE
 50
0.0
  9
$ANGDIR
 70
     0
  9
$PDMODE
 70
     0
  9
$PDSIZE
 40
0.0
  9
$PLINEWID
 40
0.0
  9
$SPLFRAME
 70
     0
  9
$SPLINETYPE
 70
     6
  9
$SPLINESEGS
 70
     8
  9
$HANDSEED
  5
A4
  9
$SURFTAB1
 70
     6
  9
$SURFTAB2
 70
     6
  9
$SURFTYPE
 70
     6
  9
$SURFU
 70
     6
  9
$SURFV
 70
     6
  9
$UCSBASE
  2

  9
$UCSNAME
  2

  9
$UCSORG
 10
0.0
 20
0.0
 30
0.0
  9
$UCSXDIR
 10
1.0
 20
0.0
 30
0.0
  9
$UCSYDIR
 10
0.0
 20
1.0
 30
0.0
  9
$UCSORTHOREF
  2

  9
$UCSORTHOVIEW
 70
     0
  9
$UCSORGTOP
 10
0.0
 20
0.0
 30
0.0
  9
$UCSORGBOTTOM
 10
0.0
 20
0.0
 30
0.0
  9
$UCSORGLEFT
 10
0.0
 20
0.0
 30
0.0
  9
$UCSORGRIGHT
 10
0.0
 20
0.0
 30
0.0
  9
$UCSORGFRONT
 10
0.0
 20
0.0
 30
0.0
  9
$UCSORGBACK
 10
0.0
 20
0.0
 30
0.0
  9
$PUCSBASE
  2

  9
$PUCSNAME
  2

  9
$PUCSORG
 10
0.0
 20
0.0
 30
0.0
  9
$PUCSXDIR
 10
1.0
 20
0.0
 30
0.0
  9
$PUCSYDIR
 10
0.0
 20
1.0
 30
0.0
  9
$PUCSORTHOREF
  2

  9
$PUCSORTHOVIEW
 70
     0
  9
$PUCSORGTOP
 10
0.0
 20
0.0
 30
0.0
  9
$PUCSORGBOTTOM
 10
0.0
 20
0.0
 30
0.0
  9
$PUCSORGLEFT
 10
0.0
 20
0.0
 30
0.0
  9
$PUCSORGRIGHT
 10
0.0
 20
0.0
 30
0.0
  9
$PUCSORGFRONT
 10
0.0
 20
0.0
 30
0.0
  9
$PUCSORGBACK
 10
0.0
 20
0.0
 30
0.0
  9
$USERI1
 70
     0
  9
$USERI2
 70
     0
  9
$USERI3
 70
     0
  9
$USERI4
 70
     0
  9
$USERI5
 70
     0
  9
$USERR1
 40
0.0
  9
$USERR2
 40
0.0
  9
$USERR3
 40
0.0
  9
$USERR4
 40
0.0
  9
$USERR5
 40
0.0
  9
$WORLDVIEW
 70
     1
  9
$SHADEDGE
 70
     3
  9
$SHADEDIF
 70
    70
  9
$TILEMODE
 70
     1
  9
$MAXACTVP
 70
    64
  9
$PINSBASE
 10
0.0
 20
0.0
 30
0.0
  9
$PLIMCHECK
 70
     0
  9
$PEXTMIN
 10
1.000000000000000E+20
 20
1.000000000000000E+20
 30
1.000000000000000E+20
  9
$PEXTMAX
 10
-1.000000000000000E+20
 20
-1.000000000000000E+20
 30
-1.000000000000000E+20
  9
$PLIMMIN
 10
0.0
 20
0.0
  9
$PLIMMAX
 10
12.0
 20
9.0
  9
$UNITMODE
 70
     0
  9
$VISRETAIN
 70
     1
  9
$PLINEGEN
 70
     0
  9
$PSLTSCALE
 70
     1
  9
$TREEDEPTH
 70
  3020
  9
$CMLSTYLE
  2
Standard
  9
$CMLJUST
 70
     0
  9
$CMLSCALE
 40
1.0
  9
$PROXYGRAPHICS
 70
     1
  9
$MEASUREMENT
 70
     0
  9
$CELWEIGHT
370
    -1
  9
$ENDCAPS
280
     0
  9
$JOINSTYLE
280
     0
  9
$LWDISPLAY
290
     1
  9
$INSUNITS
 70
     0
  9
$HYPERLINKBASE
  1

  9
$STYLESHEET
  1

  9
$XEDIT
290
     1
  9
$CEPSNTYPE
380
     0
  9
$PSTYLEMODE
290
     1
  9
$FINGERPRINTGUID
  2
{179D117C-1888-8843-AAE5-C9569FB9CFF8}
  9
$VERSIONGUID
  2
{539DC7E7-488E-FF46-9C71-CBC3404249C9}
  9
$EXTNAMES
290
     1
  9
$PSVPSCALE
 40
0.0
  9
$OLESTARTUP
290
     0
  9
$SORTENTS
280
   127
  9
$INDEXCTL
280
     0
  9
$HIDETEXT
280
     1
  9
$XCLIPFRAME
280
     2
  9
$HALOGAP
280
     0
  9
$OBSCOLOR
 70
   257
  9
$OBSLTYPE
280
     0
  9
$INTERSECTIONDISPLAY
280
     0
  9
$INTERSECTIONCOLOR
 70
   257
  9
$DIMASSOC
280
     2
  9
$PROJECTNAME
  1

  9
$CAMERADISPLAY
290
     0
  9
$LENSLENGTH
 40
50.0
  9
$CAMERAHEIGHT
 40
0.0
  9
$STEPSPERSEC
 40
2.0
  9
$STEPSIZE
 40
6.0
  9
$3DDWFPREC
 40
2.0
  9
$PSOLWIDTH
 40
0.25
  9
$PSOLHEIGHT
 40
4.0
  9
$LOFTANG1
 40
1.570796326794896
  9
$LOFTANG2
 40
1.570796326794896
  9
$LOFTMAG1
 40
0.0
  9
$LOFTMAG2
 40
0.0
  9
$LOFTPARAM
 70
     7
  9
$LOFTNORMALS
280
     1
  9
$LATITUDE
 40
37.795
  9
$LONGITUDE
 40
-122.394
  9
$NORTHDIRECTION
 40
0.0
  9
$TIMEZONE
 70
 -8000
  9
$LIGHTGLYPHDISPLAY
280
     1
  9
$TILEMODELIGHTSYNCH
280
     1
  9
$CMATERIAL
347
11
  9
$SOLIDHIST
280
     0
  9
$SHOWHIST
280
     1
  9
$DWFFRAME
280
     2
  9
$DGNFRAME
280
     0
  9
$REALWORLDSCALE
290
     1
  9
$INTERFERECOLOR
 62
     1
  9
$INTERFEREOBJVS
345
33
  9
$INTERFEREVPVS
346
30
  9
$CSHADOW
280
     0
  9
$SHADOWPLANELOCATION
 40
0.0
  0
ENDSEC
  0
SECTION
  2
CLASSES
  0
CLASS
  1
ACDBDICTIONARYWDFLT
  2
AcDbDictionaryWithDefault
  3
ObjectDBX Classes
 90
        0
 91
        1
280
     0
281
     0
  0
CLASS
  1
MATERIAL
  2
AcDbMaterial
  3
ObjectDBX Classes
 90
     1153
 91
        3
280
     0
281
     0
  0
CLASS
  1
VISUALSTYLE
  2
AcDbVisualStyle
  3
ObjectDBX Classes
 90
     4095
 91
       24
280
     0
281
     0
  0
CLASS
  1
SCALE
  2
AcDbScale
  3
ObjectDBX Classes
 90
     1153
 91
       17
280
     0
281
     0
  0
CLASS
  1
TABLESTYLE
  2
AcDbTableStyle
  3
ObjectDBX Classes
 90
     4095
 91
        1
280
     0
281
     0
  0
CLASS
  1
MLEADERSTYLE
  2
AcDbMLeaderStyle
  3
ACDB_MLEADERSTYLE_CLASS
 90
     4095
 91
        1
280
     0
281
     0
  0
CLASS
  1
ACDBSECTIONVIEWSTYLE
  2
AcDbSectionViewStyle
  3
ObjectDBX Classes
 90
     1025
 91
        1
280
     0
281
     0
  0
CLASS
  1
ACDBDETAILVIEWSTYLE
  2
AcDbDetailViewStyle
  3
ObjectDBX Classes
 90
     1025
 91
        1
280
     0
281
     0
  0
CLASS
  1
DICTIONARYVAR
  2
AcDbDictionaryVar
  3
ObjectDBX Classes
 90
        0
 91
        5
280
     0
281
     0
  0
CLASS
  1
CELLSTYLEMAP
  2
AcDbCellStyleMap
  3
ObjectDBX Classes
 90
     1152
 91
        1
280
     0
281
     0
  0
ENDSEC
  0
SECTION
  2
TABLES
  0
TABLE
  2
VPORT
  5
8
330
0
100
AcDbSymbolTable
 70
     1
  0
VPORT
  5
57
330
8
100
AcDbSymbolTableRecord
100
AcDbViewportTableRecord
  2
*Active
 70
     0
 10
0.0
 20
0.0
 11
1.0
 21
1.0
 12
0.0
 22
0.0
 13
0.0
 23
0.0
 14
1.0
 24
1.0
 15
0.0
 25
0.0
 16
0.0
 26
0.0
 36
1.0
 17
303.6000061035156
 27
114.5999984741211
 37
0.0
 40
233.783996887207
 41
2.649214748218992
 42
50.0
 43
0.0
 44
0.0
 50
0.0
 51
0.0
 71
     0
 72
   100
 73
     1
 74
     1
 75
     0
 76
     0
 77
     0
 78
     0
281
     0
 65
     1
110
0.0
120
0.0
130
0.0
111
1.0
121
0.0
131
0.0
112
0.0
122
1.0
132
0.0
 79
     0
146
0.0
 60
     3
 61
     5
292
     1
282
     1
141
0.0
142
0.0
 63
   250
421
  3355443
  0
ENDTAB
  0
TABLE
  2
LTYPE
  5
5
330
0
100
AcDbSymbolTable
 70
     1
  0
LTYPE
  5
5B
330
5
100
AcDbSymbolTableRecord
100
AcDbLinetypeTableRecord
  2
ByBlock
 70
     0
  3

 72
    65
 73
     0
 40
0.0
  0
LTYPE
  5
5C
330
5
100
AcDbSymbolTableRecord
100
AcDbLinetypeTableRecord
  2
ByLayer
 70
     0
  3

 72
    65
 73
     0
 40
0.0
  0
LTYPE
  5
5D
330
5
100
AcDbSymbolTableRecord
100
AcDbLinetypeTableRecord
  2
Continuous
 70
     0
  3
Solid line
 72
    65
 73
     0
 40
0.0
  0
ENDTAB
  0
TABLE
  2
LAYER
  5
2
330
0
100
AcDbSymbolTable
 70
     2
  0
LAYER
  5
54
330
2
100
AcDbSymbolTableRecord
100
AcDbLayerTableRecord
  2
0
 70
     0
 62
     7
  6
Continuous
370
    -3
390
F
347
21
348
0
  0
LAYER
  5
78
330
2
100
AcDbSymbolTableRecord
100
AcDbLayerTableRecord
  2
Layer 3
 70
     0
 62
     7
  6
Continuous
370
     0
390
F
347
21
348
0
  0
ENDTAB
  0
TABLE
  2
STYLE
  5
3
330
0
100
AcDbSymbolTable
 70
     2
  0
STYLE
  5
55
330
3
100
AcDbSymbolTableRecord
100
AcDbTextStyleTableRecord
  2
Standard
 70
     0
 40
0.0
 41
1.0
 50
0.0
 71
     0
 42
0.2
  3
txt
  4

  0
STYLE
  5
5A
330
3
100
AcDbSymbolTableRecord
100
AcDbTextStyleTableRecord
  2
Annotative
 70
     0
 40
0.0
 41
1.0
 50
0.0
 71
     0
 42
0.2
  3
txt
  4

1001
AcadAnnotative
1000
AnnotativeData
1002
{
1070
     1
1070
     1
1002
}
  0
ENDTAB
  0
TABLE
  2
VIEW
  5
6
330
0
100
AcDbSymbolTable
 70
     0
  0
ENDTAB
  0
TABLE
  2
UCS
  5
7
330
0
100
AcDbSymbolTable
 70
     0
  0
ENDTAB
  0
TABLE
  2
APPID
  5
9
330
0
100
AcDbSymbolTable
 70
     2
  0
APPID
  5
56
330
9
100
AcDbSymbolTableRecord
100
AcDbRegAppTableRecord
  2
ACAD
 70
     0
  0
APPID
  5
5E
330
9
100
AcDbSymbolTableRecord
100
AcDbRegAppTableRecord
  2
AcadAnnotative
 70
     0
  0
ENDTAB
  0
TABLE
  2
DIMSTYLE
  5
A
330
0
100
AcDbSymbolTable
 70
     2
100
AcDbDimStyleTable
 71
     0
  0
DIMSTYLE
105
58
330
A
100
AcDbSymbolTableRecord
100
AcDbDimStyleTableRecord
  2
Standard
 70
     0
340
55
  0
DIMSTYLE
105
59
330
A
100
AcDbSymbolTableRecord
100
AcDbDimStyleTableRecord
  2
Annotative
 70
     0
340
55
1001
AcadAnnotative
1000
AnnotativeData
1002
{
1070
     1
1070
     1
1002
}
  0
ENDTAB
  0
TABLE
  2
BLOCK_RECORD
  5
1
330
0
100
AcDbSymbolTable
 70
     1
  0
BLOCK_RECORD
  5
70
330
1
100
AcDbSymbolTableRecord
100
AcDbBlockTableRecord
  2
*Model_Space
340
73
 70
     0
280
     1
281
     0
  0
BLOCK_RECORD
  5
6C
330
1
100
AcDbSymbolTableRecord
100
AcDbBlockTableRecord
  2
*Paper_Space
340
6F
 70
     0
280
     1
281
     0
  0
BLOCK_RECORD
  5
74
330
1
100
AcDbSymbolTableRecord
100
AcDbBlockTableRecord
  2
*Paper_Space0
340
77
 70
     0
280
     1
281
     0
  0
ENDTAB
  0
ENDSEC
  0
SECTION
  2
BLOCKS
  0
BLOCK
  5
71
330
70
100
AcDbEntity
  8
0
100
AcDbBlockBegin
  2
*Model_Space
 70
     0
 10
0.0
 20
0.0
 30
0.0
  3
*Model_Space
  1

  0
ENDBLK
  5
72
330
70
100
AcDbEntity
  8
0
100
AcDbBlockEnd
  0
BLOCK
  5
6D
330
6C
100
AcDbEntity
 67
     1
  8
0
100
AcDbBlockBegin
  2
*Paper_Space
 70
     0
 10
0.0
 20
0.0
 30
0.0
  3
*Paper_Space
  1

  0
ENDBLK
  5
6E
330
6C
100
AcDbEntity
 67
     1
  8
0
100
AcDbBlockEnd
  0
BLOCK
  5
75
330
74
100
AcDbEntity
 67
     1
  8
0
100
AcDbBlockBegin
  2
*Paper_Space0
 70
     0
 10
0.0
 20
0.0
 30
0.0
  3
*Paper_Space0
  1

  0
ENDBLK
  5
76
330
74
100
AcDbEntity
 67
     1
  8
0
100
AcDbBlockEnd
  0
ENDSEC
  0
SECTION
  2
ENTITIES
  0
SPLINE
  5
79
330
70
100
AcDbEntity
  8
Layer 3
 62
    18
420
        0
370
     0
100
AcDbSpline
210
0.0
220
0.0
230
1.0
 70
     9
 71
     3
 72
    32
 73
    28
 74
     0
 42
0.0000000001
 43
0.0000000001
 40
0.0
 40
0.0
 40
0.0
 40
0.0
 40
1.0
 40
1.0
 40
1.0
 40
2.0
 40
2.0
 40
2.0
 40
3.0
 40
3.0
 40
3.0
 40
4.0
 40
4.0
 40
4.0
 40
5.0
 40
5.0
 40
5.0
 40
6.0
 40
6.0
 40
6.0
 40
7.0
 40
7.0
 40
7.0
 40
8.0
 40
8.0
 40
8.0
 40
9.0
 40
9.0
 40
9.0
 40
9.0
 10
349.911365661399
 20
117.6390346121297
 30
0.0
 10
349.6292547201138
 20
117.6390346121297
 30
0.0
 10
349.4176661332294
 20
117.8506205085532
 30
0.0
 10
349.4176661332294
 20
118.1327368307593
 30
0.0
 10
349.4176661332294
 20
118.1327368307593
 30
0.0
 10
349.4176661332294
 20
131.1100392239286
 30
0.0
 10
349.4176661332294
 20
131.1100392239286
 30
0.0
 10
349.4176661332294
 20
131.3921555461338
 30
0.0
 10
349.6292547201138
 20
131.6037414425582
 30
0.0
 10
349.911365661399
 20
131.6037414425582
 30
0.0
 10
349.911365661399
 20
131.6037414425582
 30
0.0
 10
362.9239292317688
 20
131.6037414425582
 30
0.0
 10
362.9239292317688
 20
131.6037414425582
 30
0.0
 10
363.2060401730523
 20
131.6037414425582
 30
0.0
 10
363.4176287599367
 20
131.3921555461338
 30
0.0
 10
363.4176287599367
 20
131.1100392239286
 30
0.0
 10
363.4176287599367
 20
131.1100392239286
 30
0.0
 10
363.4176287599367
 20
118.0974729630989
 30
0.0
 10
363.4176287599367
 20
118.0974729630989
 30
0.0
 10
363.4176287599367
 20
117.8153566408928
 30
0.0
 10
363.2060401730523
 20
117.6037707444693
 30
0.0
 10
362.9239292317688
 20
117.6037707444693
 30
0.0
 10
362.9239292317688
 20
117.6037707444693
 30
0.0
 10
349.911365661399
 20
117.6390346121297
 30
0.0
 10
349.911365661399
 20
117.6390346121297
 30
0.0
 10
349.911365661399
 20
117.6390346121297
 30
0.0
 10
349.911365661399
 20
117.6390346121297
 30
0.0
 10
349.911365661399
 20
117.6390346121297
 30
0.0
  0
SPLINE
  5
7A
330
70
100
AcDbEntity
  8
Layer 3
 62
    18
420
        0
370
     0
100
AcDbSpline
210
0.0
220
0.0
230
1.0
 70
     9
 71
     3
 72
    29
 73
    25
 74
     0
 42
0.0000000001
 43
0.0000000001
 40
0.0
 40
0.0
 40
0.0
 40
0.0
 40
1.0
 40
1.0
 40
1.0
 40
2.0
 40
2.0
 40
2.0
 40
3.0
 40
3.0
 40
3.0
 40
4.0
 40
4.0
 40
4.0
 40
5.0
 40
5.0
 40
5.0
 40
6.0
 40
6.0
 40
6.0
 40
7.0
 40
7.0
 40
7.0
 40
8.0
 40
8.0
 40
8.0
 40
8.0
 10
296.7679018873777
 20
118.1327368307593
 30
0.0
 10
296.7679018873777
 20
117.8506205085532
 30
0.0
 10
296.5563133004926
 20
117.6390346121297
 30
0.0
 10
296.2742023592081
 20
117.6390346121297
 30
0.0
 10
296.2742023592081
 20
117.6390346121297
 30
0.0
 10
283.2616387888393
 20
117.6390346121297
 30
0.0
 10
283.2616387888393
 20
117.6390346121297
 30
0.0
 10
282.9795224666332
 20
117.6390346121297
 30
0.0
 10
282.7679392606706
 20
117.8506205085532
 30
0.0
 10
282.7679392606706
 20
118.1327368307593
 30
0.0
 10
282.7679392606706
 20
118.1327368307593
 30
0.0
 10
282.7679392606706
 20
131.1100392239286
 30
0.0
 10
282.7679392606706
 20
131.1100392239286
 30
0.0
 10
282.7679392606706
 20
131.3921555461338
 30
0.0
 10
282.9795278475549
 20
131.6037414425582
 30
0.0
 10
283.2616387888393
 20
131.6037414425582
 30
0.0
 10
283.2616387888393
 20
131.6037414425582
 30
0.0
 10
296.2742023592081
 20
131.6037414425582
 30
0.0
 10
296.2742023592081
 20
131.6037414425582
 30
0.0
 10
296.5563133004926
 20
131.6037414425582
 30
0.0
 10
296.7679018873777
 20
131.3921555461338
 30
0.0
 10
296.7679018873777
 20
131.1100392239286
 30
0.0
 10
296.7679018873777
 20
131.1100392239286
 30
0.0
 10
296.7679018873777
 20
118.1327368307593
 30
0.0
 10
296.7679018873777
 20
118.1327368307593
 30
0.0
  0
SPLINE
  5
7B
330
70
100
AcDbEntity
  8
Layer 3
 62
    18
420
        0
370
     0
100
AcDbSpline
210
0.0
220
0.0
230
1.0
 70
     9
 71
     3
 72
    29
 73
    25
 74
     0
 42
0.0000000001
 43
0.0000000001
 40
0.0
 40
0.0
 40
0.0
 40
0.0
 40
1.0
 40
1.0
 40
1.0
 40
2.0
 40
2.0
 40
2.0
 40
3.0
 40
3.0
 40
3.0
 40
4.0
 40
4.0
 40
4.0
 40
5.0
 40
5.0
 40
5.0
 40
6.0
 40
6.0
 40
6.0
 40
7.0
 40
7.0
 40
7.0
 40
8.0
 40
8.0
 40
8.0
 40
8.0
 10
382.4604186282249
 20
118.1327368307593
 30
0.0
 10
382.4604186282249
 20
117.8506205085532
 30
0.0
 10
382.2488408031841
 20
117.6390346121297
 30
0.0
 10
381.9667083382137
 20
117.6390346121297
 30
0.0
 10
381.9667083382137
 20
117.6390346121297
 30
0.0
 10
368.9541447678439
 20
117.6390346121297
 30
0.0
 10
368.9541447678439
 20
117.6390346121297
 30
0.0
 10
368.6720338265605
 20
117.6390346121297
 30
0.0
 10
368.4604452396761
 20
117.8506205085532
 30
0.0
 10
368.4604452396761
 20
118.1327368307593
 30
0.0
 10
368.4604452396761
 20
118.1327368307593
 30
0.0
 10
368.4604452396761
 20
131.1100392239286
 30
0.0
 10
368.4604452396761
 20
131.1100392239286
 30
0.0
 10
368.4604452396761
 20
131.3921555461338
 30
0.0
 10
368.6720338265605
 20
131.6037414425582
 30
0.0
 10
368.9541447678439
 20
131.6037414425582
 30
0.0
 10
368.9541447678439
 20
131.6037414425582
 30
0.0
 10
381.9667083382137
 20
131.6037414425582
 30
0.0
 10
381.9667083382137
 20
131.6037414425582
 30
0.0
 10
382.248819279499
 20
131.6037414425582
 30
0.0
 10
382.4604186282249
 20
131.3921555461338
 30
0.0
 10
382.4604186282249
 20
131.1100392239286
 30
0.0
 10
382.4604186282249
 20
131.1100392239286
 30
0.0
 10
382.4604186282249
 20
118.1327368307593
 30
0.0
 10
382.4604186282249
 20
118.1327368307593
 30
0.0
  0
SPLINE
  5
7C
330
70
100
AcDbEntity
  8
Layer 3
 62
    18
420
        0
370
     0
100
AcDbSpline
210
0.0
220
0.0
230
1.0
 70
     9
 71
     3
 72
    29
 73
    25
 74
     0
 42
0.0000000001
 43
0.0000000001
 40
0.0
 40
0.0
 40
0.0
 40
0.0
 40
1.0
 40
1.0
 40
1.0
 40
2.0
 40
2.0
 40
2.0
 40
3.0
 40
3.0
 40
3.0
 40
4.0
 40
4.0
 40
4.0
 40
5.0
 40
5.0
 40
5.0
 40
6.0
 40
6.0
 40
6.0
 40
7.0
 40
7.0
 40
7.0
 40
8.0
 40
8.0
 40
8.0
 40
8.0
 10
258.6823436744862
 20
118.1327368307593
 30
0.0
 10
258.6823436744862
 20
117.8506205085532
 30
0.0
 10
258.4707550876019
 20
117.6390346121297
 30
0.0
 10
258.1886441463175
 20
117.6390346121297
 30
0.0
 10
258.1886441463175
 20
117.6390346121297
 30
0.0
 10
245.1760805759477
 20
117.6390346121297
 30
0.0
 10
245.1760805759477
 20
117.6390346121297
 30
0.0
 10
244.8939642537425
 20
117.6390346121297
 30
0.0
 10
244.682381047779
 20
117.8506205085532
 30
0.0
 10
244.682381047779
 20
118.1327368307593
 30
0.0
 10
244.682381047779
 20
118.1327368307593
 30
0.0
 10
244.682381047779
 20
131.1100392239286
 30
0.0
 10
244.682381047779
 20
131.1100392239286
 30
0.0
 10
244.682381047779
 20
131.3921555461338
 30
0.0
 10
244.8939696346633
 20
131.6037414425582
 30
0.0
 10
245.1760805759477
 20
131.6037414425582
 30
0.0
 10
245.1760805759477
 20
131.6037414425582
 30
0.0
 10
258.1886441463175
 20
131.6037414425582
 30
0.0
 10
258.1886441463175
 20
131.6037414425582
 30
0.0
 10
258.4707604685227
 20
131.6037414425582
 30
0.0
 10
258.6823436744862
 20
131.3921555461338
 30
0.0
 10
258.6823436744862
 20
131.1100392239286
 30
0.0
 10
258.6823436744862
 20
131.1100392239286
 30
0.0
 10
258.6823436744862
 20
118.1327368307593
 30
0.0
 10
258.6823436744862
 20
118.1327368307593
 30
0.0
  0
SPLINE
  5
7D
330
70
100
AcDbEntity
  8
Layer 3
 62
    18
420
        0
370
     0
100
AcDbSpline
210
0.0
220
0.0
230
1.0
 70
     9
 71
     3
 72
    29
 73
    25
 74
     0
 42
0.0000000001
 43
0.0000000001
 40
0.0
 40
0.0
 40
0.0
 40
0.0
 40
1.0
 40
1.0
 40
1.0
 40
2.0
 40
2.0
 40
2.0
 40
3.0
 40
3.0
 40
3.0
 40
4.0
 40
4.0
 40
4.0
 40
5.0
 40
5.0
 40
5.0
 40
6.0
 40
6.0
 40
6.0
 40
7.0
 40
7.0
 40
7.0
 40
8.0
 40
8.0
 40
8.0
 40
8.0
 10
344.3748496534918
 20
118.1327368307593
 30
0.0
 10
344.3748496534918
 20
117.8506205085532
 30
0.0
 10
344.1632610666074
 20
117.6390346121297
 30
0.0
 10
343.8811501253222
 20
117.6390346121297
 30
0.0
 10
343.8811501253222
 20
117.6390346121297
 30
0.0
 10
330.8685865549524
 20
117.6390346121297
 30
0.0
 10
330.8685865549524
 20
117.6390346121297
 30
0.0
 10
330.5864756136689
 20
117.6390346121297
 30
0.0
 10
330.3748870267846
 20
117.8506205085532
 30
0.0
 10
330.3748870267846
 20
118.1327368307593
 30
0.0
 10
330.3748870267846
 20
118.1327368307593
 30
0.0
 10
330.3748870267846
 20
131.1100392239286
 30
0.0
 10
330.3748870267846
 20
131.1100392239286
 30
0.0
 10
330.3748870267846
 20
131.3921555461338
 30
0.0
 10
330.5864756136689
 20
131.6037414425582
 30
0.0
 10
330.8685865549524
 20
131.6037414425582
 30
0.0
 10
330.8685865549524
 20
131.6037414425582
 30
0.0
 10
343.8811501253222
 20
131.6037414425582
 30
0.0
 10
343.8811501253222
 20
131.6037414425582
 30
0.0
 10
344.1632610666074
 20
131.6037414425582
 30
0.0
 10
344.3748496534918
 20
131.3921555461338
 30
0.0
 10
344.3748496534918
 20
131.1100392239286
 30
0.0
 10
344.3748496534918
 20
131.1100392239286
 30
0.0
 10
344.3748496534918
 20
118.1327368307593
 30
0.0
 10
344.3748496534918
 20
118.1327368307593
 30
0.0
  0
SPLINE
  5
7E
330
70
100
AcDbEntity
  8
Layer 3
 62
    18
420
        0
370
     0
100
AcDbSpline
210
0.0
220
0.0
230
1.0
 70
     9
 71
     3
 72
    29
 73
    25
 74
     0
 42
0.0000000001
 43
0.0000000001
 40
0.0
 40
0.0
 40
0.0
 40
0.0
 40
1.0
 40
1.0
 40
1.0
 40
2.0
 40
2.0
 40
2.0
 40
3.0
 40
3.0
 40
3.0
 40
4.0
 40
4.0
 40
4.0
 40
5.0
 40
5.0
 40
5.0
 40
6.0
 40
6.0
 40
6.0
 40
7.0
 40
7.0
 40
7.0
 40
8.0
 40
8.0
 40
8.0
 40
8.0
 10
325.3320705470451
 20
118.1327368307593
 30
0.0
 10
325.3320705470451
 20
117.8506205085532
 30
0.0
 10
325.1204819601607
 20
117.6390346121297
 30
0.0
 10
324.8383710188773
 20
117.6390346121297
 30
0.0
 10
324.8383710188773
 20
117.6390346121297
 30
0.0
 10
311.8258074485075
 20
117.6390346121297
 30
0.0
 10
311.8258074485075
 20
117.6390346121297
 30
0.0
 10
311.543696507224
 20
117.6390346121297
 30
0.0
 10
311.3321079203379
 20
117.8506205085532
 30
0.0
 10
311.3321079203379
 20
118.1327368307593
 30
0.0
 10
311.3321079203379
 20
118.1327368307593
 30
0.0
 10
311.3321079203379
 20
131.1100392239286
 30
0.0
 10
311.3321079203379
 20
131.1100392239286
 30
0.0
 10
311.3321079203379
 20
131.3921555461338
 30
0.0
 10
311.543696507224
 20
131.6037414425582
 30
0.0
 10
311.8258074485075
 20
131.6037414425582
 30
0.0
 10
311.8258074485075
 20
131.6037414425582
 30
0.0
 10
324.8383710188773
 20
131.6037414425582
 30
0.0
 10
324.8383710188773
 20
131.6037414425582
 30
0.0
 10
325.1204819601607
 20
131.6037414425582
 30
0.0
 10
325.3320705470451
 20
131.3921555461338
 30
0.0
 10
325.3320705470451
 20
131.1100392239286
 30
0.0
 10
325.3320705470451
 20
131.1100392239286
 30
0.0
 10
325.3320705470451
 20
118.1327368307593
 30
0.0
 10
325.3320705470451
 20
118.1327368307593
 30
0.0
  0
SPLINE
  5
7F
330
70
100
AcDbEntity
  8
Layer 3
 62
    18
420
        0
370
     0
100
AcDbSpline
210
0.0
220
0.0
230
1.0
 70
     9
 71
     3
 72
    29
 73
    25
 74
     0
 42
0.0000000001
 43
0.0000000001
 40
0.0
 40
0.0
 40
0.0
 40
0.0
 40
1.0
 40
1.0
 40
1.0
 40
2.0
 40
2.0
 40
2.0
 40
3.0
 40
3.0
 40
3.0
 40
4.0
 40
4.0
 40
4.0
 40
5.0
 40
5.0
 40
5.0
 40
6.0
 40
6.0
 40
6.0
 40
7.0
 40
7.0
 40
7.0
 40
8.0
 40
8.0
 40
8.0
 40
8.0
 10
239.6395672585013
 20
118.1327368307593
 30
0.0
 10
239.6395672585013
 20
117.8506205085532
 30
0.0
 10
239.4279813620769
 20
117.6390346121297
 30
0.0
 10
239.1458650398718
 20
117.6390346121297
 30
0.0
 10
239.1458650398718
 20
117.6390346121297
 30
0.0
 10
226.133298779042
 20
117.6390346121297
 30
0.0
 10
226.133298779042
 20
117.6390346121297
 30
0.0
 10
225.8511824568359
 20
117.6390346121297
 30
0.0
 10
225.6395965604124
 20
117.8506205085532
 30
0.0
 10
225.6395965604124
 20
118.1327368307593
 30
0.0
 10
225.6395965604124
 20
118.1327368307593
 30
0.0
 10
225.6395965604124
 20
131.1100392239286
 30
0.0
 10
225.6395965604124
 20
131.1100392239286
 30
0.0
 10
225.6395965604124
 20
131.3921555461338
 30
0.0
 10
225.8511824568359
 20
131.6037414425582
 30
0.0
 10
226.133298779042
 20
131.6037414425582
 30
0.0
 10
226.133298779042
 20
131.6037414425582
 30
0.0
 10
239.1458650398718
 20
131.6037414425582
 30
0.0
 10
239.1458650398718
 20
131.6037414425582
 30
0.0
 10
239.4279813620769
 20
131.6037414425582
 30
0.0
 10
239.6395672585013
 20
131.3921555461338
 30
0.0
 10
239.6395672585013
 20
131.1100392239286
 30
0.0
 10
239.6395672585013
 20
131.1100392239286
 30
0.0
 10
239.6395672585013
 20
118.1327368307593
 30
0.0
 10
239.6395672585013
 20
118.1327368307593
 30
0.0
  0
SPLINE
  5
80
330
70
100
AcDbEntity
  8
Layer 3
 62
    18
420
        0
370
     0
100
AcDbSpline
210
0.0
220
0.0
230
1.0
 70
     9
 71
     3
 72
    29
 73
    25
 74
     0
 42
0.0000000001
 43
0.0000000001
 40
0.0
 40
0.0
 40
0.0
 40
0.0
 40
1.0
 40
1.0
 40
1.0
 40
2.0
 40
2.0
 40
2.0
 40
3.0
 40
3.0
 40
3.0
 40
4.0
 40
4.0
 40
4.0
 40
5.0
 40
5.0
 40
5.0
 40
6.0
 40
6.0
 40
6.0
 40
7.0
 40
7.0
 40
7.0
 40
8.0
 40
8.0
 40
8.0
 40
8.0
 10
220.5967881520555
 20
118.1327368307593
 30
0.0
 10
220.5967881520555
 20
117.8506205085532
 30
0.0
 10
220.3499383879716
 20
117.6390346121297
 30
0.0
 10
220.0325581981051
 20
117.6390346121297
 30
0.0
 10
220.0325581981051
 20
117.6390346121297
 30
0.0
 10
204.7983339712873
 20
117.6390346121297
 30
0.0
 10
204.7983339712873
 20
117.6390346121297
 30
0.0
 10
204.4809544540367
 20
117.6390346121297
 30
0.0
 10
204.234103344721
 20
117.8506205085532
 30
0.0
 10
204.234103344721
 20
118.1327368307593
 30
0.0
 10
204.234103344721
 20
118.1327368307593
 30
0.0
 10
204.234103344721
 20
131.1100392239286
 30
0.0
 10
204.234103344721
 20
131.1100392239286
 30
0.0
 10
204.234103344721
 20
131.3921555461338
 30
0.0
 10
204.4809544540367
 20
131.6037414425582
 30
0.0
 10
204.7983339712873
 20
131.6037414425582
 30
0.0
 10
204.7983339712873
 20
131.6037414425582
 30
0.0
 10
220.0325581981051
 20
131.6037414425582
 30
0.0
 10
220.0325581981051
 20
131.6037414425582
 30
0.0
 10
220.3499383879716
 20
131.6037414425582
 30
0.0
 10
220.5967881520555
 20
131.3921555461338
 30
0.0
 10
220.5967881520555
 20
131.1100392239286
 30
0.0
 10
220.5967881520555
 20
131.1100392239286
 30
0.0
 10
220.5967881520555
 20
118.1327368307593
 30
0.0
 10
220.5967881520555
 20
118.1327368307593
 30
0.0
  0
SPLINE
  5
81
330
70
100
AcDbEntity
  8
Layer 3
 62
    18
420
        0
370
     0
100
AcDbSpline
210
0.0
220
0.0
230
1.0
 70
     9
 71
     3
 72
    29
 73
    25
 74
     0
 42
0.0000000001
 43
0.0000000001
 40
0.0
 40
0.0
 40
0.0
 40
0.0
 40
1.0
 40
1.0
 40
1.0
 40
2.0
 40
2.0
 40
2.0
 40
3.0
 40
3.0
 40
3.0
 40
4.0
 40
4.0
 40
4.0
 40
5.0
 40
5.0
 40
5.0
 40
6.0
 40
6.0
 40
6.0
 40
7.0
 40
7.0
 40
7.0
 40
8.0
 40
8.0
 40
8.0
 40
8.0
 10
277.725122780932
 20
118.1327368307593
 30
0.0
 10
277.725122780932
 20
117.8506205085532
 30
0.0
 10
277.5135341940477
 20
117.6390346121297
 30
0.0
 10
277.2314232527633
 20
117.6390346121297
 30
0.0
 10
277.2314232527633
 20
117.6390346121297
 30
0.0
 10
264.2188596823935
 20
117.6390346121297
 30
0.0
 10
264.2188596823935
 20
117.6390346121297
 30
0.0
 10
263.9367433601883
 20
117.6390346121297
 30
0.0
 10
263.7251601542248
 20
117.8506205085532
 30
0.0
 10
263.7251601542248
 20
118.1327368307593
 30
0.0
 10
263.7251601542248
 20
118.1327368307593
 30
0.0
 10
263.7251601542248
 20
131.1100392239286
 30
0.0
 10
263.7251601542248
 20
131.1100392239286
 30
0.0
 10
263.7251601542248
 20
131.3921555461338
 30
0.0
 10
263.9367487411091
 20
131.6037414425582
 30
0.0
 10
264.2188596823935
 20
131.6037414425582
 30
0.0
 10
264.2188596823935
 20
131.6037414425582
 30
0.0
 10
277.2314232527633
 20
131.6037414425582
 30
0.0
 10
277.2314232527633
 20
131.6037414425582
 30
0.0
 10
277.5135395749685
 20
131.6037414425582
 30
0.0
 10
277.725122780932
 20
131.3921555461338
 30
0.0
 10
277.725122780932
 20
131.1100392239286
 30
0.0
 10
277.725122780932
 20
131.1100392239286
 30
0.0
 10
277.725122780932
 20
118.1327368307593
 30
0.0
 10
277.725122780932
 20
118.1327368307593
 30
0.0
  0
SPLINE
  5
82
330
70
100
AcDbEntity
  8
Layer 3
 62
    18
420
        0
370
     0
100
AcDbSpline
210
0.0
220
0.0
230
1.0
 70
     9
 71
     3
 72
    32
 73
    28
 74
     0
 42
0.0000000001
 43
0.0000000001
 40
0.0
 40
0.0
 40
0.0
 40
0.0
 40
1.0
 40
1.0
 40
1.0
 40
2.0
 40
2.0
 40
2.0
 40
3.0
 40
3.0
 40
3.0
 40
4.0
 40
4.0
 40
4.0
 40
5.0
 40
5.0
 40
5.0
 40
6.0
 40
6.0
 40
6.0
 40
7.0
 40
7.0
 40
7.0
 40
8.0
 40
8.0
 40
8.0
 40
9.0
 40
9.0
 40
9.0
 40
9.0
 10
345.1506708847883
 20
136.6818137185755
 30
0.0
 10
344.868559943503
 20
136.6818137185755
 30
0.0
 10
344.6569713566187
 20
136.893399614999
 30
0.0
 10
344.6569713566187
 20
137.1755159372051
 30
0.0
 10
344.6569713566187
 20
137.1755159372051
 30
0.0
 10
344.6569713566187
 20
150.152817321451
 30
0.0
 10
344.6569713566187
 20
150.152817321451
 30
0.0
 10
344.6569713566187
 20
150.4349326347346
 30
0.0
 10
344.868559943503
 20
150.6465188674656
 30
0.0
 10
345.1506708847883
 20
150.6465188674656
 30
0.0
 10
345.1506708847883
 20
150.6465188674656
 30
0.0
 10
358.1632344551563
 20
150.6465188674656
 30
0.0
 10
358.1632344551563
 20
150.6465188674656
 30
0.0
 10
358.4453453964416
 20
150.6465188674656
 30
0.0
 10
358.6569339833259
 20
150.4349322984271
 30
0.0
 10
358.6569339833259
 20
150.152817321451
 30
0.0
 10
358.6569339833259
 20
150.152817321451
 30
0.0
 10
358.6569339833259
 20
137.1402507243137
 30
0.0
 10
358.6569339833259
 20
137.1402507243137
 30
0.0
 10
358.6569339833259
 20
136.8581357473385
 30
0.0
 10
358.4453453964416
 20
136.6465485056842
 30
0.0
 10
358.1632344551563
 20
136.6465485056842
 30
0.0
 10
358.1632344551563
 20
136.6465485056842
 30
0.0
 10
345.1506708847883
 20
136.6465485056842
 30
0.0
 10
345.1506708847883
 20
136.6465485056842
 30
0.0
 10
345.1506708847883
 20
136.6465485056842
 30
0.0
 10
345.1506708847883
 20
136.6818137185755
 30
0.0
 10
345.1506708847883
 20
136.6818137185755
 30
0.0
  0
SPLINE
  5
83
330
70
100
AcDbEntity
  8
Layer 3
 62
    18
420
        0
370
     0
100
AcDbSpline
210
0.0
220
0.0
230
1.0
 70
     9
 71
     3
 72
    29
 73
    25
 74
     0
 42
0.0000000001
 43
0.0000000001
 40
0.0
 40
0.0
 40
0.0
 40
0.0
 40
1.0
 40
1.0
 40
1.0
 40
2.0
 40
2.0
 40
2.0
 40
3.0
 40
3.0
 40
3.0
 40
4.0
 40
4.0
 40
4.0
 40
5.0
 40
5.0
 40
5.0
 40
6.0
 40
6.0
 40
6.0
 40
7.0
 40
7.0
 40
7.0
 40
8.0
 40
8.0
 40
8.0
 40
8.0
 10
301.5285966639885
 20
137.1755159372051
 30
0.0
 10
301.5285966639885
 20
136.8934009602299
 30
0.0
 10
301.3170080771042
 20
136.6818137185755
 30
0.0
 10
301.0348971358198
 20
136.6818137185755
 30
0.0
 10
301.0348971358198
 20
136.6818137185755
 30
0.0
 10
288.0223335654509
 20
136.6818137185755
 30
0.0
 10
288.0223335654509
 20
136.6818137185755
 30
0.0
 10
287.7402226241666
 20
136.6818137185755
 30
0.0
 10
287.5286340372813
 20
136.893399614999
 30
0.0
 10
287.5286340372813
 20
137.1755159372051
 30
0.0
 10
287.5286340372813
 20
137.1755159372051
 30
0.0
 10
287.5286340372813
 20
150.152817321451
 30
0.0
 10
287.5286340372813
 20
150.152817321451
 30
0.0
 10
287.5286340372813
 20
150.4349326347346
 30
0.0
 10
287.7402226241666
 20
150.6465188674656
 30
0.0
 10
288.0223335654509
 20
150.6465188674656
 30
0.0
 10
288.0223335654509
 20
150.6465188674656
 30
0.0
 10
301.0348971358198
 20
150.6465188674656
 30
0.0
 10
301.0348971358198
 20
150.6465188674656
 30
0.0
 10
301.3170080771042
 20
150.6465188674656
 30
0.0
 10
301.5285966639885
 20
150.4349322984271
 30
0.0
 10
301.5285966639885
 20
150.152817321451
 30
0.0
 10
301.5285966639885
 20
150.152817321451
 30
0.0
 10
301.5285966639885
 20
137.1755159372051
 30
0.0
 10
301.5285966639885
 20
137.1755159372051
 30
0.0
  0
SPLINE
  5
84
330
70
100
AcDbEntity
  8
Layer 3
 62
    18
420
        0
370
     0
100
AcDbSpline
210
0.0
220
0.0
230
1.0
 70
     9
 71
     3
 72
    29
 73
    25
 74
     0
 42
0.0000000001
 43
0.0000000001
 40
0.0
 40
0.0
 40
0.0
 40
0.0
 40
1.0
 40
1.0
 40
1.0
 40
2.0
 40
2.0
 40
2.0
 40
3.0
 40
3.0
 40
3.0
 40
4.0
 40
4.0
 40
4.0
 40
5.0
 40
5.0
 40
5.0
 40
6.0
 40
6.0
 40
6.0
 40
7.0
 40
7.0
 40
7.0
 40
8.0
 40
8.0
 40
8.0
 40
8.0
 10
377.6997238516142
 20
137.1755159372051
 30
0.0
 10
377.6997238516142
 20
136.8934009602299
 30
0.0
 10
377.4881460265715
 20
136.6818137185755
 30
0.0
 10
377.2060243234446
 20
136.6818137185755
 30
0.0
 10
377.2060243234446
 20
136.6818137185755
 30
0.0
 10
364.1934607530747
 20
136.6818137185755
 30
0.0
 10
364.1934607530747
 20
136.6818137185755
 30
0.0
 10
363.9113498117913
 20
136.6818137185755
 30
0.0
 10
363.699761224907
 20
136.893399614999
 30
0.0
 10
363.699761224907
 20
137.1755159372051
 30
0.0
 10
363.699761224907
 20
137.1755159372051
 30
0.0
 10
363.699761224907
 20
150.152817321451
 30
0.0
 10
363.699761224907
 20
150.152817321451
 30
0.0
 10
363.699761224907
 20
150.4349326347346
 30
0.0
 10
363.9113498117913
 20
150.6465188674656
 30
0.0
 10
364.1934607530747
 20
150.6465188674656
 30
0.0
 10
364.1934607530747
 20
150.6465188674656
 30
0.0
 10
377.2060243234446
 20
150.6465188674656
 30
0.0
 10
377.2060243234446
 20
150.6465188674656
 30
0.0
 10
377.4881460265715
 20
150.6465188674656
 30
0.0
 10
377.6997238516142
 20
150.4349322984271
 30
0.0
 10
377.6997238516142
 20
150.152817321451
 30
0.0
 10
377.6997238516142
 20
150.152817321451
 30
0.0
 10
377.6997238516142
 20
137.1755159372051
 30
0.0
 10
377.6997238516142
 20
137.1755159372051
 30
0.0
  0
SPLINE
  5
85
330
70
100
AcDbEntity
  8
Layer 3
 62
    18
420
        0
370
     0
100
AcDbSpline
210
0.0
220
0.0
230
1.0
 70
     9
 71
     3
 72
    29
 73
    25
 74
     0
 42
0.0000000001
 43
0.0000000001
 40
0.0
 40
0.0
 40
0.0
 40
0.0
 40
1.0
 40
1.0
 40
1.0
 40
2.0
 40
2.0
 40
2.0
 40
3.0
 40
3.0
 40
3.0
 40
4.0
 40
4.0
 40
4.0
 40
5.0
 40
5.0
 40
5.0
 40
6.0
 40
6.0
 40
6.0
 40
7.0
 40
7.0
 40
7.0
 40
8.0
 40
8.0
 40
8.0
 40
8.0
 10
263.4430384510979
 20
137.1755159372051
 30
0.0
 10
263.4430384510979
 20
136.8934009602299
 30
0.0
 10
263.2314498642127
 20
136.6818137185755
 30
0.0
 10
262.9493389229283
 20
136.6818137185755
 30
0.0
 10
262.9493389229283
 20
136.6818137185755
 30
0.0
 10
249.9367753525594
 20
136.6818137185755
 30
0.0
 10
249.9367753525594
 20
136.6818137185755
 30
0.0
 10
249.6546590303533
 20
136.6818137185755
 30
0.0
 10
249.4430758243907
 20
136.893399614999
 30
0.0
 10
249.4430758243907
 20
137.1755159372051
 30
0.0
 10
249.4430758243907
 20
137.1755159372051
 30
0.0
 10
249.4430758243907
 20
150.152817321451
 30
0.0
 10
249.4430758243907
 20
150.152817321451
 30
0.0
 10
249.4430758243907
 20
150.4349326347346
 30
0.0
 10
249.654664411275
 20
150.6465188674656
 30
0.0
 10
249.9367753525594
 20
150.6465188674656
 30
0.0
 10
249.9367753525594
 20
150.6465188674656
 30
0.0
 10
262.9493389229283
 20
150.6465188674656
 30
0.0
 10
262.9493389229283
 20
150.6465188674656
 30
0.0
 10
263.2314552451344
 20
150.6465188674656
 30
0.0
 10
263.4430384510979
 20
150.4349322984271
 30
0.0
 10
263.4430384510979
 20
150.152817321451
 30
0.0
 10
263.4430384510979
 20
150.152817321451
 30
0.0
 10
263.4430384510979
 20
137.1755159372051
 30
0.0
 10
263.4430384510979
 20
137.1755159372051
 30
0.0
  0
SPLINE
  5
86
330
70
100
AcDbEntity
  8
Layer 3
 62
    18
420
        0
370
     0
100
AcDbSpline
210
0.0
220
0.0
230
1.0
 70
     9
 71
     3
 72
    29
 73
    25
 74
     0
 42
0.0000000001
 43
0.0000000001
 40
0.0
 40
0.0
 40
0.0
 40
0.0
 40
1.0
 40
1.0
 40
1.0
 40
2.0
 40
2.0
 40
2.0
 40
3.0
 40
3.0
 40
3.0
 40
4.0
 40
4.0
 40
4.0
 40
5.0
 40
5.0
 40
5.0
 40
6.0
 40
6.0
 40
6.0
 40
7.0
 40
7.0
 40
7.0
 40
8.0
 40
8.0
 40
8.0
 40
8.0
 10
339.6141548768792
 20
137.1755159372051
 30
0.0
 10
339.6141548768792
 20
136.8934009602299
 30
0.0
 10
339.4025662899949
 20
136.6818137185755
 30
0.0
 10
339.1204553487114
 20
136.6818137185755
 30
0.0
 10
339.1204553487114
 20
136.6818137185755
 30
0.0
 10
326.1078917783416
 20
136.6818137185755
 30
0.0
 10
326.1078917783416
 20
136.6818137185755
 30
0.0
 10
325.8257808370581
 20
136.6818137185755
 30
0.0
 10
325.614192250172
 20
136.893399614999
 30
0.0
 10
325.614192250172
 20
137.1755159372051
 30
0.0
 10
325.614192250172
 20
137.1755159372051
 30
0.0
 10
325.614192250172
 20
150.152817321451
 30
0.0
 10
325.614192250172
 20
150.152817321451
 30
0.0
 10
325.614192250172
 20
150.4349326347346
 30
0.0
 10
325.8257808370581
 20
150.6465188674656
 30
0.0
 10
326.1078917783416
 20
150.6465188674656
 30
0.0
 10
326.1078917783416
 20
150.6465188674656
 30
0.0
 10
339.1204553487114
 20
150.6465188674656
 30
0.0
 10
339.1204553487114
 20
150.6465188674656
 30
0.0
 10
339.4025662899949
 20
150.6465188674656
 30
0.0
 10
339.6141548768792
 20
150.4349322984271
 30
0.0
 10
339.6141548768792
 20
150.152817321451
 30
0.0
 10
339.6141548768792
 20
150.152817321451
 30
0.0
 10
339.6141548768792
 20
137.1755159372051
 30
0.0
 10
339.6141548768792
 20
137.1755159372051
 30
0.0
  0
SPLINE
  5
87
330
70
100
AcDbEntity
  8
Layer 3
 62
    18
420
        0
370
     0
100
AcDbSpline
210
0.0
220
0.0
230
1.0
 70
     9
 71
     3
 72
    29
 73
    25
 74
     0
 42
0.0000000001
 43
0.0000000001
 40
0.0
 40
0.0
 40
0.0
 40
0.0
 40
1.0
 40
1.0
 40
1.0
 40
2.0
 40
2.0
 40
2.0
 40
3.0
 40
3.0
 40
3.0
 40
4.0
 40
4.0
 40
4.0
 40
5.0
 40
5.0
 40
5.0
 40
6.0
 40
6.0
 40
6.0
 40
7.0
 40
7.0
 40
7.0
 40
8.0
 40
8.0
 40
8.0
 40
8.0
 10
320.5713757704343
 20
137.1755159372051
 30
0.0
 10
320.5713757704343
 20
136.8934009602299
 30
0.0
 10
320.35978718355
 20
136.6818137185755
 30
0.0
 10
320.0776762422647
 20
136.6818137185755
 30
0.0
 10
320.0776762422647
 20
136.6818137185755
 30
0.0
 10
307.0651126718967
 20
136.6818137185755
 30
0.0
 10
307.0651126718967
 20
136.6818137185755
 30
0.0
 10
306.7830017306115
 20
136.6818137185755
 30
0.0
 10
306.5714131437271
 20
136.893399614999
 30
0.0
 10
306.5714131437271
 20
137.1755159372051
 30
0.0
 10
306.5714131437271
 20
137.1755159372051
 30
0.0
 10
306.5714131437271
 20
150.152817321451
 30
0.0
 10
306.5714131437271
 20
150.152817321451
 30
0.0
 10
306.5714131437271
 20
150.4349326347346
 30
0.0
 10
306.7830017306115
 20
150.6465188674656
 30
0.0
 10
307.0651126718967
 20
150.6465188674656
 30
0.0
 10
307.0651126718967
 20
150.6465188674656
 30
0.0
 10
320.0776762422647
 20
150.6465188674656
 30
0.0
 10
320.0776762422647
 20
150.6465188674656
 30
0.0
 10
320.35978718355
 20
150.6465188674656
 30
0.0
 10
320.5713757704343
 20
150.4349322984271
 30
0.0
 10
320.5713757704343
 20
150.152817321451
 30
0.0
 10
320.5713757704343
 20
150.152817321451
 30
0.0
 10
320.5713757704343
 20
137.1755159372051
 30
0.0
 10
320.5713757704343
 20
137.1755159372051
 30
0.0
  0
SPLINE
  5
88
330
70
100
AcDbEntity
  8
Layer 3
 62
    18
420
        0
370
     0
100
AcDbSpline
210
0.0
220
0.0
230
1.0
 70
     9
 71
     3
 72
    29
 73
    25
 74
     0
 42
0.0000000001
 43
0.0000000001
 40
0.0
 40
0.0
 40
0.0
 40
0.0
 40
1.0
 40
1.0
 40
1.0
 40
2.0
 40
2.0
 40
2.0
 40
3.0
 40
3.0
 40
3.0
 40
4.0
 40
4.0
 40
4.0
 40
5.0
 40
5.0
 40
5.0
 40
6.0
 40
6.0
 40
6.0
 40
7.0
 40
7.0
 40
7.0
 40
8.0
 40
8.0
 40
8.0
 40
8.0
 10
244.4002593446521
 20
137.1755159372051
 30
0.0
 10
244.4002593446521
 20
136.8934009602299
 30
0.0
 10
244.1886707577678
 20
136.6818137185755
 30
0.0
 10
243.9065598164834
 20
136.6818137185755
 30
0.0
 10
243.9065598164834
 20
136.6818137185755
 30
0.0
 10
230.8939935556527
 20
136.6818137185755
 30
0.0
 10
230.8939935556527
 20
136.6818137185755
 30
0.0
 10
230.6118772334476
 20
136.6818137185755
 30
0.0
 10
230.4002913370232
 20
136.893399614999
 30
0.0
 10
230.4002913370232
 20
137.1755159372051
 30
0.0
 10
230.4002913370232
 20
137.1755159372051
 30
0.0
 10
230.4002913370232
 20
150.152817321451
 30
0.0
 10
230.4002913370232
 20
150.152817321451
 30
0.0
 10
230.4002913370232
 20
150.4349326347346
 30
0.0
 10
230.6118772334476
 20
150.6465188674656
 30
0.0
 10
230.8939935556527
 20
150.6465188674656
 30
0.0
 10
230.8939935556527
 20
150.6465188674656
 30
0.0
 10
243.9065598164834
 20
150.6465188674656
 30
0.0
 10
243.9065598164834
 20
150.6465188674656
 30
0.0
 10
244.1886761386886
 20
150.6465188674656
 30
0.0
 10
244.4002593446521
 20
150.4349322984271
 30
0.0
 10
244.4002593446521
 20
150.152817321451
 30
0.0
 10
244.4002593446521
 20
150.152817321451
 30
0.0
 10
244.4002593446521
 20
137.1755159372051
 30
0.0
 10
244.4002593446521
 20
137.1755159372051
 30
0.0
  0
SPLINE
  5
89
330
70
100
AcDbEntity
  8
Layer 3
 62
    18
420
        0
370
     0
100
AcDbSpline
210
0.0
220
0.0
230
1.0
 70
     9
 71
     3
 72
    29
 73
    25
 74
     0
 42
0.0000000001
 43
0.0000000001
 40
0.0
 40
0.0
 40
0.0
 40
0.0
 40
1.0
 40
1.0
 40
1.0
 40
2.0
 40
2.0
 40
2.0
 40
3.0
 40
3.0
 40
3.0
 40
4.0
 40
4.0
 40
4.0
 40
5.0
 40
5.0
 40
5.0
 40
6.0
 40
6.0
 40
6.0
 40
7.0
 40
7.0
 40
7.0
 40
8.0
 40
8.0
 40
8.0
 40
8.0
 10
282.4858175575437
 20
137.1755159372051
 30
0.0
 10
282.4858175575437
 20
136.8934009602299
 30
0.0
 10
282.2742289706584
 20
136.6818137185755
 30
0.0
 10
281.9921180293741
 20
136.6818137185755
 30
0.0
 10
281.9921180293741
 20
136.6818137185755
 30
0.0
 10
268.9795544590051
 20
136.6818137185755
 30
0.0
 10
268.9795544590051
 20
136.6818137185755
 30
0.0
 10
268.6974381367991
 20
136.6818137185755
 30
0.0
 10
268.4858549308355
 20
136.893399614999
 30
0.0
 10
268.4858549308355
 20
137.1755159372051
 30
0.0
 10
268.4858549308355
 20
137.1755159372051
 30
0.0
 10
268.4858549308355
 20
150.152817321451
 30
0.0
 10
268.4858549308355
 20
150.152817321451
 30
0.0
 10
268.4858549308355
 20
150.4349326347346
 30
0.0
 10
268.6974435177208
 20
150.6465188674656
 30
0.0
 10
268.9795544590051
 20
150.6465188674656
 30
0.0
 10
268.9795544590051
 20
150.6465188674656
 30
0.0
 10
281.9921180293741
 20
150.6465188674656
 30
0.0
 10
281.9921180293741
 20
150.6465188674656
 30
0.0
 10
282.2742343515802
 20
150.6465188674656
 30
0.0
 10
282.4858175575437
 20
150.4349322984271
 30
0.0
 10
282.4858175575437
 20
150.152817321451
 30
0.0
 10
282.4858175575437
 20
150.152817321451
 30
0.0
 10
282.4858175575437
 20
137.1755159372051
 30
0.0
 10
282.4858175575437
 20
137.1755159372051
 30
0.0
  0
SPLINE
  5
8A
330
70
100
AcDbEntity
  8
Layer 3
 62
    18
420
        0
370
     0
100
AcDbSpline
210
0.0
220
0.0
230
1.0
 70
     9
 71
     3
 72
    29
 73
    25
 74
     0
 42
0.0000000001
 43
0.0000000001
 40
0.0
 40
0.0
 40
0.0
 40
0.0
 40
1.0
 40
1.0
 40
1.0
 40
2.0
 40
2.0
 40
2.0
 40
3.0
 40
3.0
 40
3.0
 40
4.0
 40
4.0
 40
4.0
 40
5.0
 40
5.0
 40
5.0
 40
6.0
 40
6.0
 40
6.0
 40
7.0
 40
7.0
 40
7.0
 40
8.0
 40
8.0
 40
8.0
 40
8.0
 10
367.6846240083796
 20
112.5609596456524
 30
0.0
 10
367.6846240083796
 20
112.5609596456524
 30
0.0
 10
354.6720604380098
 20
112.5609596456524
 30
0.0
 10
354.6720604380098
 20
112.5609596456524
 30
0.0
 10
354.3899494967263
 20
112.5609596456524
 30
0.0
 10
354.178360909842
 20
112.3493737492281
 30
0.0
 10
354.178360909842
 20
112.0672574270229
 30
0.0
 10
354.178360909842
 20
112.0672574270229
 30
0.0
 10
354.178360909842
 20
99.05469116619315
 30
0.0
 10
354.178360909842
 20
99.05469116619315
 30
0.0
 10
354.178360909842
 20
98.77257484398615
 30
0.0
 10
354.3899494967263
 20
98.56099163802355
 30
0.0
 10
354.6720604380098
 20
98.56099163802355
 30
0.0
 10
354.6720604380098
 20
98.56099163802355
 30
0.0
 10
367.6846240083796
 20
98.56099163802355
 30
0.0
 10
367.6846240083796
 20
98.56099163802355
 30
0.0
 10
367.9667349496631
 20
98.56099163802355
 30
0.0
 10
368.1783235365492
 20
98.77258022490787
 30
0.0
 10
368.1783235365492
 20
99.05469116619315
 30
0.0
 10
368.1783235365492
 20
99.05469116619315
 30
0.0
 10
368.1783235365492
 20
112.0672574270229
 30
0.0
 10
368.1783235365492
 20
112.0672574270229
 30
0.0
 10
368.1783235365492
 20
112.3493737492281
 30
0.0
 10
367.9667349496631
 20
112.5609596456524
 30
0.0
 10
367.6846240083796
 20
112.5609596456524
 30
0.0
  0
SPLINE
  5
8B
330
70
100
AcDbEntity
  8
Layer 3
 62
    18
420
        0
370
     0
100
AcDbSpline
210
0.0
220
0.0
230
1.0
 70
     9
 71
     3
 72
    29
 73
    25
 74
     0
 42
0.0000000001
 43
0.0000000001
 40
0.0
 40
0.0
 40
0.0
 40
0.0
 40
1.0
 40
1.0
 40
1.0
 40
2.0
 40
2.0
 40
2.0
 40
3.0
 40
3.0
 40
3.0
 40
4.0
 40
4.0
 40
4.0
 40
5.0
 40
5.0
 40
5.0
 40
6.0
 40
6.0
 40
6.0
 40
7.0
 40
7.0
 40
7.0
 40
8.0
 40
8.0
 40
8.0
 40
8.0
 10
291.5135075825974
 20
112.5609596456524
 30
0.0
 10
291.5135075825974
 20
112.5609596456524
 30
0.0
 10
278.5009440122276
 20
112.5609596456524
 30
0.0
 10
278.5009440122276
 20
112.5609596456524
 30
0.0
 10
278.2188276900224
 20
112.5609596456524
 30
0.0
 10
278.0072444840589
 20
112.3493737492281
 30
0.0
 10
278.0072444840589
 20
112.0672574270229
 30
0.0
 10
278.0072444840589
 20
112.0672574270229
 30
0.0
 10
278.0072444840589
 20
99.05469116619315
 30
0.0
 10
278.0072444840589
 20
99.05469116619315
 30
0.0
 10
278.0072444840589
 20
98.77257484398615
 30
0.0
 10
278.2188330709432
 20
98.56099163802355
 30
0.0
 10
278.5009440122276
 20
98.56099163802355
 30
0.0
 10
278.5009440122276
 20
98.56099163802355
 30
0.0
 10
291.5135075825974
 20
98.56099163802355
 30
0.0
 10
291.5135075825974
 20
98.56099163802355
 30
0.0
 10
291.7956185238818
 20
98.56099163802355
 30
0.0
 10
292.0072071107661
 20
98.77258022490787
 30
0.0
 10
292.0072071107661
 20
99.05469116619315
 30
0.0
 10
292.0072071107661
 20
99.05469116619315
 30
0.0
 10
292.0072071107661
 20
112.0672574270229
 30
0.0
 10
292.0072071107661
 20
112.0672574270229
 30
0.0
 10
292.0072071107661
 20
112.3493737492281
 30
0.0
 10
291.7956185238818
 20
112.5609596456524
 30
0.0
 10
291.5135075825974
 20
112.5609596456524
 30
0.0
  0
SPLINE
  5
8C
330
70
100
AcDbEntity
  8
Layer 3
 62
    18
420
        0
370
     0
100
AcDbSpline
210
0.0
220
0.0
230
1.0
 70
     9
 71
     3
 72
    29
 73
    25
 74
     0
 42
0.0000000001
 43
0.0000000001
 40
0.0
 40
0.0
 40
0.0
 40
0.0
 40
1.0
 40
1.0
 40
1.0
 40
2.0
 40
2.0
 40
2.0
 40
3.0
 40
3.0
 40
3.0
 40
4.0
 40
4.0
 40
4.0
 40
5.0
 40
5.0
 40
5.0
 40
6.0
 40
6.0
 40
6.0
 40
7.0
 40
7.0
 40
7.0
 40
8.0
 40
8.0
 40
8.0
 40
8.0
 10
386.7274031148245
 20
112.5609596456524
 30
0.0
 10
386.7274031148245
 20
112.5609596456524
 30
0.0
 10
373.7148395444565
 20
112.5609596456524
 30
0.0
 10
373.7148395444565
 20
112.5609596456524
 30
0.0
 10
373.4327286031712
 20
112.5609596456524
 30
0.0
 10
373.2211400162869
 20
112.3493737492281
 30
0.0
 10
373.2211400162869
 20
112.0672574270229
 30
0.0
 10
373.2211400162869
 20
112.0672574270229
 30
0.0
 10
373.2211400162869
 20
99.05469116619315
 30
0.0
 10
373.2211400162869
 20
99.05469116619315
 30
0.0
 10
373.2211400162869
 20
98.77257484398615
 30
0.0
 10
373.4327286031712
 20
98.56099163802355
 30
0.0
 10
373.7148395444565
 20
98.56099163802355
 30
0.0
 10
373.7148395444565
 20
98.56099163802355
 30
0.0
 10
386.7274031148245
 20
98.56099163802355
 30
0.0
 10
386.7274031148245
 20
98.56099163802355
 30
0.0
 10
387.0095140561098
 20
98.56099163802355
 30
0.0
 10
387.2211134048375
 20
98.77258022490787
 30
0.0
 10
387.2211134048375
 20
99.05469116619315
 30
0.0
 10
387.2211134048375
 20
99.05469116619315
 30
0.0
 10
387.2211134048375
 20
112.0672574270229
 30
0.0
 10
387.2211134048375
 20
112.0672574270229
 30
0.0
 10
387.2211134048375
 20
112.3493737492281
 30
0.0
 10
387.0095140561098
 20
112.5609596456524
 30
0.0
 10
386.7274031148245
 20
112.5609596456524
 30
0.0
  0
SPLINE
  5
8D
330
70
100
AcDbEntity
  8
Layer 3
 62
    18
420
        0
370
     0
100
AcDbSpline
210
0.0
220
0.0
230
1.0
 70
     9
 71
     3
 72
    29
 73
    25
 74
     0
 42
0.0000000001
 43
0.0000000001
 40
0.0
 40
0.0
 40
0.0
 40
0.0
 40
1.0
 40
1.0
 40
1.0
 40
2.0
 40
2.0
 40
2.0
 40
3.0
 40
3.0
 40
3.0
 40
4.0
 40
4.0
 40
4.0
 40
5.0
 40
5.0
 40
5.0
 40
6.0
 40
6.0
 40
6.0
 40
7.0
 40
7.0
 40
7.0
 40
8.0
 40
8.0
 40
8.0
 40
8.0
 10
253.4279493697058
 20
112.5609596456524
 30
0.0
 10
253.4279493697058
 20
112.5609596456524
 30
0.0
 10
240.4153831088761
 20
112.5609596456524
 30
0.0
 10
240.4153831088761
 20
112.5609596456524
 30
0.0
 10
240.13326678667
 20
112.5609596456524
 30
0.0
 10
239.9216808902465
 20
112.3493737492281
 30
0.0
 10
239.9216808902465
 20
112.0672574270229
 30
0.0
 10
239.9216808902465
 20
112.0672574270229
 30
0.0
 10
239.9216808902465
 20
99.05469116619315
 30
0.0
 10
239.9216808902465
 20
99.05469116619315
 30
0.0
 10
239.9216808902465
 20
98.77257484398615
 30
0.0
 10
240.13326678667
 20
98.56099163802355
 30
0.0
 10
240.4153831088761
 20
98.56099163802355
 30
0.0
 10
240.4153831088761
 20
98.56099163802355
 30
0.0
 10
253.4279493697058
 20
98.56099163802355
 30
0.0
 10
253.4279493697058
 20
98.56099163802355
 30
0.0
 10
253.710065691912
 20
98.56099163802355
 30
0.0
 10
253.9216488978746
 20
98.77258022490787
 30
0.0
 10
253.9216488978746
 20
99.05469116619315
 30
0.0
 10
253.9216488978746
 20
99.05469116619315
 30
0.0
 10
253.9216488978746
 20
112.0672574270229
 30
0.0
 10
253.9216488978746
 20
112.0672574270229
 30
0.0
 10
253.9216488978746
 20
112.3493737492281
 30
0.0
 10
253.710065691912
 20
112.5609596456524
 30
0.0
 10
253.4279493697058
 20
112.5609596456524
 30
0.0
  0
SPLINE
  5
8E
330
70
100
AcDbEntity
  8
Layer 3
 62
    18
420
        0
370
     0
100
AcDbSpline
210
0.0
220
0.0
230
1.0
 70
     9
 71
     3
 72
    29
 73
    25
 74
     0
 42
0.0000000001
 43
0.0000000001
 40
0.0
 40
0.0
 40
0.0
 40
0.0
 40
1.0
 40
1.0
 40
1.0
 40
2.0
 40
2.0
 40
2.0
 40
3.0
 40
3.0
 40
3.0
 40
4.0
 40
4.0
 40
4.0
 40
5.0
 40
5.0
 40
5.0
 40
6.0
 40
6.0
 40
6.0
 40
7.0
 40
7.0
 40
7.0
 40
8.0
 40
8.0
 40
8.0
 40
8.0
 10
348.6418449019347
 20
112.5609596456524
 30
0.0
 10
348.6418449019347
 20
112.5609596456524
 30
0.0
 10
335.6292813315649
 20
112.5609596456524
 30
0.0
 10
335.6292813315649
 20
112.5609596456524
 30
0.0
 10
335.3471703902796
 20
112.5609596456524
 30
0.0
 10
335.1355818033953
 20
112.3493737492281
 30
0.0
 10
335.1355818033953
 20
112.0672574270229
 30
0.0
 10
335.1355818033953
 20
112.0672574270229
 30
0.0
 10
335.1355818033953
 20
99.05469116619315
 30
0.0
 10
335.1355818033953
 20
99.05469116619315
 30
0.0
 10
335.1355818033953
 20
98.77257484398615
 30
0.0
 10
335.3471703902796
 20
98.56099163802355
 30
0.0
 10
335.6292813315649
 20
98.56099163802355
 30
0.0
 10
335.6292813315649
 20
98.56099163802355
 30
0.0
 10
348.6418449019347
 20
98.56099163802355
 30
0.0
 10
348.6418449019347
 20
98.56099163802355
 30
0.0
 10
348.9239558432182
 20
98.56099163802355
 30
0.0
 10
349.1355444301025
 20
98.77258022490787
 30
0.0
 10
349.1355444301025
 20
99.05469116619315
 30
0.0
 10
349.1355444301025
 20
99.05469116619315
 30
0.0
 10
349.1355444301025
 20
112.0672574270229
 30
0.0
 10
349.1355444301025
 20
112.0672574270229
 30
0.0
 10
349.1355444301025
 20
112.3493737492281
 30
0.0
 10
348.9239558432182
 20
112.5609596456524
 30
0.0
 10
348.6418449019347
 20
112.5609596456524
 30
0.0
  0
SPLINE
  5
8F
330
70
100
AcDbEntity
  8
Layer 3
 62
    18
420
        0
370
     0
100
AcDbSpline
210
0.0
220
0.0
230
1.0
 70
     9
 71
     3
 72
    29
 73
    25
 74
     0
 42
0.0000000001
 43
0.0000000001
 40
0.0
 40
0.0
 40
0.0
 40
0.0
 40
1.0
 40
1.0
 40
1.0
 40
2.0
 40
2.0
 40
2.0
 40
3.0
 40
3.0
 40
3.0
 40
4.0
 40
4.0
 40
4.0
 40
5.0
 40
5.0
 40
5.0
 40
6.0
 40
6.0
 40
6.0
 40
7.0
 40
7.0
 40
7.0
 40
8.0
 40
8.0
 40
8.0
 40
8.0
 10
329.599065795488
 20
112.5609596456524
 30
0.0
 10
329.599065795488
 20
112.5609596456524
 30
0.0
 10
316.5865022251182
 20
112.5609596456524
 30
0.0
 10
316.5865022251182
 20
112.5609596456524
 30
0.0
 10
316.3043912838348
 20
112.5609596456524
 30
0.0
 10
316.0928026969505
 20
112.3493737492281
 30
0.0
 10
316.0928026969505
 20
112.0672574270229
 30
0.0
 10
316.0928026969505
 20
112.0672574270229
 30
0.0
 10
316.0928026969505
 20
99.05469116619315
 30
0.0
 10
316.0928026969505
 20
99.05469116619315
 30
0.0
 10
316.0928026969505
 20
98.77257484398615
 30
0.0
 10
316.3043912838348
 20
98.56099163802355
 30
0.0
 10
316.5865022251182
 20
98.56099163802355
 30
0.0
 10
316.5865022251182
 20
98.56099163802355
 30
0.0
 10
329.599065795488
 20
98.56099163802355
 30
0.0
 10
329.599065795488
 20
98.56099163802355
 30
0.0
 10
329.8811767367733
 20
98.56099163802355
 30
0.0
 10
330.0927653236576
 20
98.77258022490787
 30
0.0
 10
330.0927653236576
 20
99.05469116619315
 30
0.0
 10
330.0927653236576
 20
99.05469116619315
 30
0.0
 10
330.0927653236576
 20
112.0672574270229
 30
0.0
 10
330.0927653236576
 20
112.0672574270229
 30
0.0
 10
330.0927653236576
 20
112.3493737492281
 30
0.0
 10
329.8811767367733
 20
112.5609596456524
 30
0.0
 10
329.599065795488
 20
112.5609596456524
 30
0.0
  0
SPLINE
  5
90
330
70
100
AcDbEntity
  8
Layer 3
 62
    18
420
        0
370
     0
100
AcDbSpline
210
0.0
220
0.0
230
1.0
 70
     9
 71
     3
 72
    29
 73
    25
 74
     0
 42
0.0000000001
 43
0.0000000001
 40
0.0
 40
0.0
 40
0.0
 40
0.0
 40
1.0
 40
1.0
 40
1.0
 40
2.0
 40
2.0
 40
2.0
 40
3.0
 40
3.0
 40
3.0
 40
4.0
 40
4.0
 40
4.0
 40
5.0
 40
5.0
 40
5.0
 40
6.0
 40
6.0
 40
6.0
 40
7.0
 40
7.0
 40
7.0
 40
8.0
 40
8.0
 40
8.0
 40
8.0
 10
234.3851702632601
 20
112.5609596456524
 30
0.0
 10
234.3851702632601
 20
112.5609596456524
 30
0.0
 10
221.3726040024303
 20
112.5609596456524
 30
0.0
 10
221.3726040024303
 20
112.5609596456524
 30
0.0
 10
221.0904876802251
 20
112.5609596456524
 30
0.0
 10
220.8789017838007
 20
112.3493737492281
 30
0.0
 10
220.8789017838007
 20
112.0672574270229
 30
0.0
 10
220.8789017838007
 20
112.0672574270229
 30
0.0
 10
220.8789017838007
 20
99.05469116619315
 30
0.0
 10
220.8789017838007
 20
99.05469116619315
 30
0.0
 10
220.8789017838007
 20
98.77257484398615
 30
0.0
 10
221.0904876802251
 20
98.56099163802355
 30
0.0
 10
221.3726040024303
 20
98.56099163802355
 30
0.0
 10
221.3726040024303
 20
98.56099163802355
 30
0.0
 10
234.3851702632601
 20
98.56099163802355
 30
0.0
 10
234.3851702632601
 20
98.56099163802355
 30
0.0
 10
234.6672865854662
 20
98.56099163802355
 30
0.0
 10
234.8788724818896
 20
98.77258022490787
 30
0.0
 10
234.8788724818896
 20
99.05469116619315
 30
0.0
 10
234.8788724818896
 20
99.05469116619315
 30
0.0
 10
234.8788724818896
 20
112.0672574270229
 30
0.0
 10
234.8788724818896
 20
112.0672574270229
 30
0.0
 10
234.8788724818896
 20
112.3493737492281
 30
0.0
 10
234.6672865854662
 20
112.5609596456524
 30
0.0
 10
234.3851702632601
 20
112.5609596456524
 30
0.0
  0
SPLINE
  5
91
330
70
100
AcDbEntity
  8
Layer 3
 62
    18
420
        0
370
     0
100
AcDbSpline
210
0.0
220
0.0
230
1.0
 70
     9
 71
     3
 72
    41
 73
    37
 74
     0
 42
0.0000000001
 43
0.0000000001
 40
0.0
 40
0.0
 40
0.0
 40
0.0
 40
1.0
 40
1.0
 40
1.0
 40
2.0
 40
2.0
 40
2.0
 40
3.0
 40
3.0
 40
3.0
 40
4.0
 40
4.0
 40
4.0
 40
5.0
 40
5.0
 40
5.0
 40
6.0
 40
6.0
 40
6.0
 40
7.0
 40
7.0
 40
7.0
 40
8.0
 40
8.0
 40
8.0
 40
9.0
 40
9.0
 40
9.0
 40
10.0
 40
10.0
 40
10.0
 40
11.0
 40
11.0
 40
11.0
 40
12.0
 40
12.0
 40
12.0
 40
12.0
 10
215.3423911568143
 20
112.5609596456524
 30
0.0
 10
215.3423911568143
 20
112.5609596456524
 30
0.0
 10
202.3298255685995
 20
112.5609596456524
 30
0.0
 10
202.3298255685995
 20
112.5609596456524
 30
0.0
 10
202.0477102553168
 20
112.5609596456524
 30
0.0
 10
201.8361240225859
 20
112.3493737492281
 30
0.0
 10
201.8361240225859
 20
112.0672574270229
 30
0.0
 10
201.8361240225859
 20
112.0672574270229
 30
0.0
 10
201.8361240225859
 20
99.4426017818405
 30
0.0
 10
201.8361240225859
 20
99.4426017818405
 30
0.0
 10
201.7655952783416
 20
99.47786833996179
 30
0.0
 10
201.6598019938219
 20
99.47786833996179
 30
0.0
 10
201.5892732495786
 20
99.47786833996179
 30
0.0
 10
200.9545138787689
 20
99.47786833996179
 30
0.0
 10
200.425547792478
 20
98.9489022536709
 30
0.0
 10
200.425547792478
 20
98.31414187393967
 30
0.0
 10
200.425547792478
 20
97.67938149420661
 30
0.0
 10
200.9545138787689
 20
97.15041540791572
 30
0.0
 10
201.5892732495786
 20
97.15041540791572
 30
0.0
 10
202.2240326203883
 20
97.15041540791572
 30
0.0
 10
202.7529987066782
 20
97.67938149420661
 30
0.0
 10
202.7529987066782
 20
98.31414187393967
 30
0.0
 10
202.7529987066782
 20
98.41993616738182
 30
0.0
 10
202.7529987066782
 20
98.49046390270268
 30
0.0
 10
202.7177341664028
 20
98.56099163802355
 30
0.0
 10
202.7177341664028
 20
98.56099163802355
 30
0.0
 10
215.3423911568143
 20
98.56099163802355
 30
0.0
 10
215.3423911568143
 20
98.56099163802355
 30
0.0
 10
215.6245061337904
 20
98.56099163802355
 30
0.0
 10
215.8360933754448
 20
98.77258022490787
 30
0.0
 10
215.8360933754448
 20
99.05469116619315
 30
0.0
 10
215.8360933754448
 20
99.05469116619315
 30
0.0
 10
215.8360933754448
 20
112.0672574270229
 30
0.0
 10
215.8360933754448
 20
112.0672574270229
 30
0.0
 10
215.8360933754448
 20
112.3493737492281
 30
0.0
 10
215.6245061337904
 20
112.5609596456524
 30
0.0
 10
215.3423911568143
 20
112.5609596456524
 30
0.0
  0
SPLINE
  5
92
330
70
100
AcDbEntity
  8
Layer 3
 62
    18
420
        0
370
     0
100
AcDbSpline
210
0.0
220
0.0
230
1.0
 70
     9
 71
     3
 72
    29
 73
    25
 74
     0
 42
0.0000000001
 43
0.0000000001
 40
0.0
 40
0.0
 40
0.0
 40
0.0
 40
1.0
 40
1.0
 40
1.0
 40
2.0
 40
2.0
 40
2.0
 40
3.0
 40
3.0
 40
3.0
 40
4.0
 40
4.0
 40
4.0
 40
5.0
 40
5.0
 40
5.0
 40
6.0
 40
6.0
 40
6.0
 40
7.0
 40
7.0
 40
7.0
 40
8.0
 40
8.0
 40
8.0
 40
8.0
 10
272.4707284761517
 20
112.5609596456524
 30
0.0
 10
272.4707284761517
 20
112.5609596456524
 30
0.0
 10
259.4581649057818
 20
112.5609596456524
 30
0.0
 10
259.4581649057818
 20
112.5609596456524
 30
0.0
 10
259.1760485835767
 20
112.5609596456524
 30
0.0
 10
258.9644653776131
 20
112.3493737492281
 30
0.0
 10
258.9644653776131
 20
112.0672574270229
 30
0.0
 10
258.9644653776131
 20
112.0672574270229
 30
0.0
 10
258.9644653776131
 20
99.05469116619315
 30
0.0
 10
258.9644653776131
 20
99.05469116619315
 30
0.0
 10
258.9644653776131
 20
98.77257484398615
 30
0.0
 10
259.1760539644974
 20
98.56099163802355
 30
0.0
 10
259.4581649057818
 20
98.56099163802355
 30
0.0
 10
259.4581649057818
 20
98.56099163802355
 30
0.0
 10
272.4707284761517
 20
98.56099163802355
 30
0.0
 10
272.4707284761517
 20
98.56099163802355
 30
0.0
 10
272.7528447983568
 20
98.56099163802355
 30
0.0
 10
272.9644280043203
 20
98.77258022490787
 30
0.0
 10
272.9644280043203
 20
99.05469116619315
 30
0.0
 10
272.9644280043203
 20
99.05469116619315
 30
0.0
 10
272.9644280043203
 20
112.0672574270229
 30
0.0
 10
272.9644280043203
 20
112.0672574270229
 30
0.0
 10
272.9644280043203
 20
112.3493737492281
 30
0.0
 10
272.7528447983568
 20
112.5609596456524
 30
0.0
 10
272.4707284761517
 20
112.5609596456524
 30
0.0
  0
SPLINE
  5
93
330
70
100
AcDbEntity
  8
Layer 3
 62
    18
420
        0
370
     0
100
AcDbSpline
210
0.0
220
0.0
230
1.0
 70
     9
 71
     3
 72
    41
 73
    37
 74
     0
 42
0.0000000001
 43
0.0000000001
 40
0.0
 40
0.0
 40
0.0
 40
0.0
 40
1.0
 40
1.0
 40
1.0
 40
2.0
 40
2.0
 40
2.0
 40
3.0
 40
3.0
 40
3.0
 40
4.0
 40
4.0
 40
4.0
 40
5.0
 40
5.0
 40
5.0
 40
6.0
 40
6.0
 40
6.0
 40
7.0
 40
7.0
 40
7.0
 40
8.0
 40
8.0
 40
8.0
 40
9.0
 40
9.0
 40
9.0
 40
10.0
 40
10.0
 40
10.0
 40
11.0
 40
11.0
 40
11.0
 40
12.0
 40
12.0
 40
12.0
 40
12.0
 10
406.5460034525658
 20
99.47786833996179
 30
0.0
 10
406.4402145400454
 20
99.47786833996179
 30
0.0
 10
406.3696814238028
 20
99.47786833996179
 30
0.0
 10
406.2991483075602
 20
99.4426017818405
 30
0.0
 10
406.2991483075602
 20
100.1126233387731
 30
0.0
 10
406.2991483075602
 20
112.0672601174828
 30
0.0
 10
406.2991483075602
 20
112.0672601174828
 30
0.0
 10
406.2991483075602
 20
112.349376439688
 30
0.0
 10
406.0875704825193
 20
112.5609623361124
 30
0.0
 10
405.805438017549
 20
112.5609623361124
 30
0.0
 10
405.805438017549
 20
112.5609623361124
 30
0.0
 10
392.7928636853376
 20
112.5609623361124
 30
0.0
 10
392.7928636853376
 20
112.5609623361124
 30
0.0
 10
392.5107527440523
 20
112.5609623361124
 30
0.0
 10
392.2991533953263
 20
112.349376439688
 30
0.0
 10
392.2991533953263
 20
112.0672601174828
 30
0.0
 10
392.2991533953263
 20
112.0672601174828
 30
0.0
 10
392.2991533953263
 20
99.05469116619315
 30
0.0
 10
392.2991533953263
 20
99.05469116619315
 30
0.0
 10
392.2991533953263
 20
98.77257484398615
 30
0.0
 10
392.5107312203672
 20
98.56099163802355
 30
0.0
 10
392.7928636853376
 20
98.56099163802355
 30
0.0
 10
392.7928636853376
 20
98.56099163802355
 30
0.0
 10
405.4175166400582
 20
98.56099163802355
 30
0.0
 10
405.4175166400582
 20
98.56099163802355
 30
0.0
 10
405.3822608437803
 20
98.49046390270268
 30
0.0
 10
405.3822608437803
 20
98.38466960926053
 30
0.0
 10
405.3822608437803
 20
98.31414187393967
 30
0.0
 10
405.3822608437803
 20
97.67938149420661
 30
0.0
 10
405.9112269300694
 20
97.15041540791572
 30
0.0
 10
406.5459819288808
 20
97.15041540791572
 30
0.0
 10
407.1807369276921
 20
97.15041540791572
 30
0.0
 10
407.709703013983
 20
97.67938149420661
 30
0.0
 10
407.709703013983
 20
98.31414187393967
 30
0.0
 10
407.6744687413883
 20
98.9489022536709
 30
0.0
 10
407.1807584513772
 20
99.47786833996179
 30
0.0
 10
406.5460034525658
 20
99.47786833996179
 30
0.0
  0
SPLINE
  5
94
330
70
100
AcDbEntity
  8
Layer 3
 62
    18
420
        0
370
     0
100
AcDbSpline
210
0.0
220
0.0
230
1.0
 70
     9
 71
     3
 72
    53
 73
    49
 74
     0
 42
0.0000000001
 43
0.0000000001
 40
0.0
 40
0.0
 40
0.0
 40
0.0
 40
1.0
 40
1.0
 40
1.0
 40
2.0
 40
2.0
 40
2.0
 40
3.0
 40
3.0
 40
3.0
 40
4.0
 40
4.0
 40
4.0
 40
5.0
 40
5.0
 40
5.0
 40
6.0
 40
6.0
 40
6.0
 40
7.0
 40
7.0
 40
7.0
 40
8.0
 40
8.0
 40
8.0
 40
9.0
 40
9.0
 40
9.0
 40
10.0
 40
10.0
 40
10.0
 40
11.0
 40
11.0
 40
11.0
 40
12.0
 40
12.0
 40
12.0
 40
13.0
 40
13.0
 40
13.0
 40
14.0
 40
14.0
 40
14.0
 40
15.0
 40
15.0
 40
15.0
 40
16.0
 40
16.0
 40
16.0
 40
16.0
 10
409.3671559127815
 20
98.59625819614485
 30
0.0
 10
409.3671559127815
 20
96.86830446663226
 30
0.0
 10
407.9918354789515
 20
95.49298941372398
 30
0.0
 10
406.2638925112824
 20
95.49298941372398
 30
0.0
 10
406.2638925112824
 20
95.49298941372398
 30
0.0
 10
382.0019856581766
 20
95.49298941372398
 30
0.0
 10
382.0019856581766
 20
95.49298941372398
 30
0.0
 10
381.3319533394024
 20
95.49298941372398
 30
0.0
 10
380.8029872531115
 20
94.96402332743491
 30
0.0
 10
380.8029872531115
 20
94.29400177050229
 30
0.0
 10
380.8029872531115
 20
94.29400177050229
 30
0.0
 10
380.8029872531115
 20
79.55347908969816
 30
0.0
 10
380.8029872531115
 20
79.55347908969816
 30
0.0
 10
380.8029872531115
 20
77.82552536018556
 30
0.0
 10
379.4276668192833
 20
76.45021030727912
 30
0.0
 10
377.6997238516142
 20
76.45021030727912
 30
0.0
 10
377.6997238516142
 20
76.45021030727912
 30
0.0
 10
230.4002913370232
 20
76.45021030727912
 30
0.0
 10
230.4002913370232
 20
76.45021030727912
 30
0.0
 10
228.6723349170507
 20
76.45021030727912
 30
0.0
 10
227.2970225546032
 20
77.82551997926566
 30
0.0
 10
227.2970225546032
 20
79.55347908969816
 30
0.0
 10
227.2970225546032
 20
79.55347908969816
 30
0.0
 10
227.2970225546032
 20
94.29400177050229
 30
0.0
 10
227.2970225546032
 20
94.29400177050229
 30
0.0
 10
227.2970225546032
 20
94.96402332743491
 30
0.0
 10
226.7680564683133
 20
95.49298941372398
 30
0.0
 10
226.0980322209207
 20
95.49298941372398
 30
0.0
 10
226.0980322209207
 20
95.49298941372398
 30
0.0
 10
201.8361236862775
 20
95.49298941372398
 30
0.0
 10
201.8361236862775
 20
95.49298941372398
 30
0.0
 10
200.1081676026124
 20
95.49298941372398
 30
0.0
 10
198.7328559127809
 20
96.86829908571054
 30
0.0
 10
198.7328559127809
 20
98.59625819614485
 30
0.0
 10
198.7328559127809
 20
98.59625819614485
 30
0.0
 10
198.7328559127809
 20
150.6465188674656
 30
0.0
 10
198.7328559127809
 20
150.6465188674656
 30
0.0
 10
198.7328559127809
 20
152.3744749511315
 30
0.0
 10
200.1081676026124
 20
153.749786640963
 30
0.0
 10
201.8361236862775
 20
153.749786640963
 30
0.0
 10
201.8361236862775
 20
153.749786640963
 30
0.0
 10
406.2638925112824
 20
153.749786640963
 30
0.0
 10
406.2638925112824
 20
153.749786640963
 30
0.0
 10
407.9918570026365
 20
153.749786640963
 30
0.0
 10
409.3671559127815
 20
152.3744749511315
 30
0.0
 10
409.3671559127815
 20
150.6465188674656
 30
0.0
 10
409.3671559127815
 20
150.6465188674656
 30
0.0
 10
409.3671559127815
 20
98.59625819614485
 30
0.0
 10
409.3671559127815
 20
98.59625819614485
 30
0.0
  0
SPLINE
  5
95
330
70
100
AcDbEntity
  8
Layer 3
 62
    18
420
        0
370
     0
100
AcDbSpline
210
0.0
220
0.0
230
1.0
 70
     9
 71
     3
 72
    38
 73
    34
 74
     0
 42
0.0000000001
 43
0.0000000001
 40
0.0
 40
0.0
 40
0.0
 40
0.0
 40
1.0
 40
1.0
 40
1.0
 40
2.0
 40
2.0
 40
2.0
 40
3.0
 40
3.0
 40
3.0
 40
4.0
 40
4.0
 40
4.0
 40
5.0
 40
5.0
 40
5.0
 40
6.0
 40
6.0
 40
6.0
 40
7.0
 40
7.0
 40
7.0
 40
8.0
 40
8.0
 40
8.0
 40
9.0
 40
9.0
 40
9.0
 40
10.0
 40
10.0
 40
10.0
 40
11.0
 40
11.0
 40
11.0
 40
11.0
 10
224.722722548935
 20
150.6465188674656
 30
0.0
 10
224.722722548935
 20
150.6465188674656
 30
0.0
 10
219.5388559794756
 20
150.6465188674656
 30
0.0
 10
219.5388559794756
 20
150.6465188674656
 30
0.0
 10
219.5388559794756
 20
151.2812782382752
 30
0.0
 10
219.0098898931856
 20
151.8102443245661
 30
0.0
 10
218.3751308586834
 20
151.8102443245661
 30
0.0
 10
217.7403718241812
 20
151.8102443245661
 30
0.0
 10
217.2114057378912
 20
151.2812782382752
 30
0.0
 10
217.2114057378912
 20
150.6465188674656
 30
0.0
 10
217.2114057378912
 20
150.6465188674656
 30
0.0
 10
207.2668423739742
 20
150.6465188674656
 30
0.0
 10
207.2668423739742
 20
150.6465188674656
 30
0.0
 10
206.8789337761718
 20
150.6465188674656
 30
0.0
 10
206.5968187991966
 20
150.4349322984271
 30
0.0
 10
206.5968187991966
 20
150.152817321451
 30
0.0
 10
206.5968187991966
 20
150.152817321451
 30
0.0
 10
206.5968187991966
 20
137.1755159372051
 30
0.0
 10
206.5968187991966
 20
137.1755159372051
 30
0.0
 10
206.5968187991966
 20
136.8934009602299
 30
0.0
 10
206.8789337761718
 20
136.6818137185755
 30
0.0
 10
207.2668423739742
 20
136.6818137185755
 30
0.0
 10
207.2668423739742
 20
136.6818137185755
 30
0.0
 10
224.722722548935
 20
136.6818137185755
 30
0.0
 10
224.722722548935
 20
136.6818137185755
 30
0.0
 10
225.1106304741215
 20
136.6818137185755
 30
0.0
 10
225.3927467963276
 20
136.893399614999
 30
0.0
 10
225.3927467963276
 20
137.1755159372051
 30
0.0
 10
225.3927467963276
 20
137.1755159372051
 30
0.0
 10
225.3927467963276
 20
150.152817321451
 30
0.0
 10
225.3927467963276
 20
150.152817321451
 30
0.0
 10
225.3927467963276
 20
150.4349326347346
 30
0.0
 10
225.0753666064611
 20
150.6465188674656
 30
0.0
 10
224.722722548935
 20
150.6465188674656
 30
0.0
  0
SPLINE
  5
96
330
70
100
AcDbEntity
  8
Layer 3
 62
    18
420
        0
370
     0
100
AcDbSpline
210
0.0
220
0.0
230
1.0
 70
     9
 71
     3
 72
    71
 73
    67
 74
     0
 42
0.0000000001
 43
0.0000000001
 40
0.0
 40
0.0
 40
0.0
 40
0.0
 40
1.0
 40
1.0
 40
1.0
 40
2.0
 40
2.0
 40
2.0
 40
3.0
 40
3.0
 40
3.0
 40
4.0
 40
4.0
 40
4.0
 40
5.0
 40
5.0
 40
5.0
 40
6.0
 40
6.0
 40
6.0
 40
7.0
 40
7.0
 40
7.0
 40
8.0
 40
8.0
 40
8.0
 40
9.0
 40
9.0
 40
9.0
 40
10.0
 40
10.0
 40
10.0
 40
11.0
 40
11.0
 40
11.0
 40
12.0
 40
12.0
 40
12.0
 40
13.0
 40
13.0
 40
13.0
 40
14.0
 40
14.0
 40
14.0
 40
15.0
 40
15.0
 40
15.0
 40
16.0
 40
16.0
 40
16.0
 40
17.0
 40
17.0
 40
17.0
 40
18.0
 40
18.0
 40
18.0
 40
19.0
 40
19.0
 40
19.0
 40
20.0
 40
20.0
 40
20.0
 40
21.0
 40
21.0
 40
21.0
 40
22.0
 40
22.0
 40
22.0
 40
22.0
 10
403.4074627311038
 20
141.0898644376602
 30
0.0
 10
403.4074627311038
 20
141.0898644376602
 30
0.0
 10
401.5031762109865
 20
141.0898644376602
 30
0.0
 10
401.5031762109865
 20
141.0898644376602
 30
0.0
 10
401.5031762109865
 20
141.0898644376602
 30
0.0
 10
401.5031762109865
 20
150.152817321451
 30
0.0
 10
401.5031762109865
 20
150.152817321451
 30
0.0
 10
401.5031762109865
 20
150.4349326347346
 30
0.0
 10
401.2210652697012
 20
150.6465188674656
 30
0.0
 10
400.8331438922104
 20
150.6465188674656
 30
0.0
 10
400.8331438922104
 20
150.6465188674656
 30
0.0
 10
390.9238544851833
 20
150.6465188674656
 30
0.0
 10
390.9238544851833
 20
150.6465188674656
 30
0.0
 10
390.9238544851833
 20
151.2812782382752
 30
0.0
 10
390.3948883988924
 20
151.8102443245661
 30
0.0
 10
389.760133400081
 20
151.8102443245661
 30
0.0
 10
389.1253784012697
 20
151.8102443245661
 30
0.0
 10
388.5964123149806
 20
151.2812782382752
 30
0.0
 10
388.5964123149806
 20
150.6465188674656
 30
0.0
 10
388.5964123149806
 20
150.6465188674656
 30
0.0
 10
383.4125403645994
 20
150.6465188674656
 30
0.0
 10
383.4125403645994
 20
150.6465188674656
 30
0.0
 10
383.0246405107937
 20
150.6465188674656
 30
0.0
 10
382.7425080458251
 20
150.4349322984271
 30
0.0
 10
382.7425080458251
 20
150.152817321451
 30
0.0
 10
382.7425080458251
 20
150.152817321451
 30
0.0
 10
382.7425080458251
 20
137.1755159372051
 30
0.0
 10
382.7425080458251
 20
137.1755159372051
 30
0.0
 10
382.7425080458251
 20
136.8934009602299
 30
0.0
 10
383.0246189871086
 20
136.6818137185755
 30
0.0
 10
383.4125403645994
 20
136.6818137185755
 30
0.0
 10
383.4125403645994
 20
136.6818137185755
 30
0.0
 10
389.9011996325662
 20
136.6818137185755
 30
0.0
 10
389.9011996325662
 20
136.6818137185755
 30
0.0
 10
389.9011996325662
 20
136.6818137185755
 30
0.0
 10
389.9011996325662
 20
131.6037387520973
 30
0.0
 10
389.9011996325662
 20
131.6037387520973
 30
0.0
 10
389.9011996325662
 20
131.6037387520973
 30
0.0
 10
388.1027235486545
 20
131.6037387520973
 30
0.0
 10
388.1027235486545
 20
131.6037387520973
 30
0.0
 10
387.7853352874045
 20
131.6037387520973
 30
0.0
 10
387.5385016660839
 20
131.3921528556739
 30
0.0
 10
387.5385016660839
 20
131.1100365334678
 30
0.0
 10
387.5385016660839
 20
131.1100365334678
 30
0.0
 10
387.5385016660839
 20
118.1327368307593
 30
0.0
 10
387.5385016660839
 20
118.1327368307593
 30
0.0
 10
387.5385016660839
 20
117.8506205085532
 30
0.0
 10
387.7853568110913
 20
117.6390346121297
 30
0.0
 10
388.1027235486545
 20
117.6390346121297
 30
0.0
 10
388.1027235486545
 20
117.6390346121297
 30
0.0
 10
403.3369511385463
 20
117.6390346121297
 30
0.0
 10
403.3369511385463
 20
117.6390346121297
 30
0.0
 10
403.6543393997944
 20
117.6390346121297
 30
0.0
 10
403.901173021115
 20
117.8506205085532
 30
0.0
 10
403.901173021115
 20
118.1327368307593
 30
0.0
 10
403.901173021115
 20
118.1327368307593
 30
0.0
 10
403.901173021115
 20
127.6188625163213
 30
0.0
 10
403.901173021115
 20
127.6188625163213
 30
0.0
 10
403.901173021115
 20
127.6188625163213
 30
0.0
 10
403.901173021115
 20
127.6188625163213
 30
0.0
 10
403.901173021115
 20
127.6188625163213
 30
0.0
 10
403.901173021115
 20
127.6188625163213
 30
0.0
 10
403.901173021115
 20
140.5961635642607
 30
0.0
 10
403.901173021115
 20
140.5961635642607
 30
0.0
 10
403.901173021115
 20
140.8782785412359
 30
0.0
 10
403.6895736723891
 20
141.0898644376602
 30
0.0
 10
403.4074627311038
 20
141.0898644376602
 30
0.0
  0
SPLINE
  5
97
330
70
100
AcDbEntity
  8
Layer 3
 62
    18
420
        0
370
     0
100
AcDbSpline
210
0.0
220
0.0
230
1.0
 70
     9
 71
     3
 72
    32
 73
    28
 74
     0
 42
0.0000000001
 43
0.0000000001
 40
0.0
 40
0.0
 40
0.0
 40
0.0
 40
1.0
 40
1.0
 40
1.0
 40
2.0
 40
2.0
 40
2.0
 40
3.0
 40
3.0
 40
3.0
 40
4.0
 40
4.0
 40
4.0
 40
5.0
 40
5.0
 40
5.0
 40
6.0
 40
6.0
 40
6.0
 40
7.0
 40
7.0
 40
7.0
 40
8.0
 40
8.0
 40
8.0
 40
9.0
 40
9.0
 40
9.0
 40
9.0
 10
246.7982400120181
 20
80.08244517598905
 30
0.0
 10
246.7982400120181
 20
79.80032885378387
 30
0.0
 10
246.5513902479342
 20
79.58874564781945
 30
0.0
 10
246.2340073676068
 20
79.58874564781945
 30
0.0
 10
246.2340073676068
 20
79.58874564781945
 30
0.0
 10
230.9645239814344
 20
79.58874564781945
 30
0.0
 10
230.9645239814344
 20
79.58874564781945
 30
0.0
 10
230.6471437915689
 20
79.58874564781945
 30
0.0
 10
230.4002940274841
 20
79.80033423470558
 30
0.0
 10
230.4002940274841
 20
80.08244517598905
 30
0.0
 10
230.4002940274841
 20
80.08244517598905
 30
0.0
 10
230.4002940274841
 20
93.05974756915929
 30
0.0
 10
230.4002940274841
 20
93.05974756915929
 30
0.0
 10
230.4002940274841
 20
93.34186389136448
 30
0.0
 10
230.6471437915689
 20
93.55344709732708
 30
0.0
 10
230.9645239814344
 20
93.55344709732708
 30
0.0
 10
230.9645239814344
 20
93.55344709732708
 30
0.0
 10
246.1987461904073
 20
93.55344709732708
 30
0.0
 10
246.1987461904073
 20
93.55344709732708
 30
0.0
 10
246.516123689813
 20
93.55344709732708
 30
0.0
 10
246.7629788348186
 20
93.34185851044276
 30
0.0
 10
246.7629788348186
 20
93.05974756915929
 30
0.0
 10
246.7629788348186
 20
93.05974756915929
 30
0.0
 10
246.7629788348186
 20
80.08244517598905
 30
0.0
 10
246.7629788348186
 20
80.08244517598905
 30
0.0
 10
246.7629788348186
 20
80.08244517598905
 30
0.0
 10
246.7982400120181
 20
80.08244517598905
 30
0.0
 10
246.7982400120181
 20
80.08244517598905
 30
0.0
  0
SPLINE
  5
98
330
70
100
AcDbEntity
  8
Layer 3
 62
    18
420
        0
370
     0
100
AcDbSpline
210
0.0
220
0.0
230
1.0
 70
     9
 71
     3
 72
    29
 73
    25
 74
     0
 42
0.0000000001
 43
0.0000000001
 40
0.0
 40
0.0
 40
0.0
 40
0.0
 40
1.0
 40
1.0
 40
1.0
 40
2.0
 40
2.0
 40
2.0
 40
3.0
 40
3.0
 40
3.0
 40
4.0
 40
4.0
 40
4.0
 40
5.0
 40
5.0
 40
5.0
 40
6.0
 40
6.0
 40
6.0
 40
7.0
 40
7.0
 40
7.0
 40
8.0
 40
8.0
 40
8.0
 40
8.0
 10
377.6997238516142
 20
80.08244517598905
 30
0.0
 10
377.6997238516142
 20
79.80032885378387
 30
0.0
 10
377.4528687066086
 20
79.58874564781945
 30
0.0
 10
377.135491207202
 20
79.58874564781945
 30
0.0
 10
377.135491207202
 20
79.58874564781945
 30
0.0
 10
361.9012636173084
 20
79.58874564781945
 30
0.0
 10
361.9012636173084
 20
79.58874564781945
 30
0.0
 10
361.5838861179036
 20
79.58874564781945
 30
0.0
 10
361.337030972898
 20
79.80033423470558
 30
0.0
 10
361.337030972898
 20
80.08244517598905
 30
0.0
 10
361.337030972898
 20
80.08244517598905
 30
0.0
 10
361.337030972898
 20
93.05974756915929
 30
0.0
 10
361.337030972898
 20
93.05974756915929
 30
0.0
 10
361.337030972898
 20
93.34186389136448
 30
0.0
 10
361.5838861179036
 20
93.55344709732708
 30
0.0
 10
361.9012636173084
 20
93.55344709732708
 30
0.0
 10
361.9012636173084
 20
93.55344709732708
 30
0.0
 10
377.135491207202
 20
93.55344709732708
 30
0.0
 10
377.135491207202
 20
93.55344709732708
 30
0.0
 10
377.4528687066086
 20
93.55344709732708
 30
0.0
 10
377.6997238516142
 20
93.34185851044276
 30
0.0
 10
377.6997238516142
 20
93.05974756915929
 30
0.0
 10
377.6997238516142
 20
93.05974756915929
 30
0.0
 10
377.6997238516142
 20
80.08244517598905
 30
0.0
 10
377.6997238516142
 20
80.08244517598905
 30
0.0
  0
SPLINE
  5
99
330
70
100
AcDbEntity
  8
Layer 3
 62
    18
420
        0
370
     0
100
AcDbSpline
210
0.0
220
0.0
230
1.0
 70
     9
 71
     3
 72
   314
 73
   310
 74
     0
 42
0.0000000001
 43
0.0000000001
 40
0.0
 40
0.0
 40
0.0
 40
0.0
 40
1.0
 40
1.0
 40
1.0
 40
2.0
 40
2.0
 40
2.0
 40
3.0
 40
3.0
 40
3.0
 40
4.0
 40
4.0
 40
4.0
 40
5.0
 40
5.0
 40
5.0
 40
6.0
 40
6.0
 40
6.0
 40
7.0
 40
7.0
 40
7.0
 40
8.0
 40
8.0
 40
8.0
 40
9.0
 40
9.0
 40
9.0
 40
10.0
 40
10.0
 40
10.0
 40
11.0
 40
11.0
 40
11.0
 40
12.0
 40
12.0
 40
12.0
 40
13.0
 40
13.0
 40
13.0
 40
14.0
 40
14.0
 40
14.0
 40
15.0
 40
15.0
 40
15.0
 40
16.0
 40
16.0
 40
16.0
 40
17.0
 40
17.0
 40
17.0
 40
18.0
 40
18.0
 40
18.0
 40
19.0
 40
19.0
 40
19.0
 40
20.0
 40
20.0
 40
20.0
 40
21.0
 40
21.0
 40
21.0
 40
22.0
 40
22.0
 40
22.0
 40
23.0
 40
23.0
 40
23.0
 40
24.0
 40
24.0
 40
24.0
 40
25.0
 40
25.0
 40
25.0
 40
26.0
 40
26.0
 40
26.0
 40
27.0
 40
27.0
 40
27.0
 40
28.0
 40
28.0
 40
28.0
 40
29.0
 40
29.0
 40
29.0
 40
30.0
 40
30.0
 40
30.0
 40
31.0
 40
31.0
 40
31.0
 40
32.0
 40
32.0
 40
32.0
 40
33.0
 40
33.0
 40
33.0
 40
34.0
 40
34.0
 40
34.0
 40
35.0
 40
35.0
 40
35.0
 40
36.0
 40
36.0
 40
36.0
 40
37.0
 40
37.0
 40
37.0
 40
38.0
 40
38.0
 40
38.0
 40
39.0
 40
39.0
 40
39.0
 40
40.0
 40
40.0
 40
40.0
 40
41.0
 40
41.0
 40
41.0
 40
42.0
 40
42.0
 40
42.0
 40
43.0
 40
43.0
 40
43.0
 40
44.0
 40
44.0
 40
44.0
 40
45.0
 40
45.0
 40
45.0
 40
46.0
 40
46.0
 40
46.0
 40
47.0
 40
47.0
 40
47.0
 40
48.0
 40
48.0
 40
48.0
 40
49.0
 40
49.0
 40
49.0
 40
50.0
 40
50.0
 40
50.0
 40
51.0
 40
51.0
 40
51.0
 40
52.0
 40
52.0
 40
52.0
 40
53.0
 40
53.0
 40
53.0
 40
54.0
 40
54.0
 40
54.0
 40
55.0
 40
55.0
 40
55.0
 40
56.0
 40
56.0
 40
56.0
 40
57.0
 40
57.0
 40
57.0
 40
58.0
 40
58.0
 40
58.0
 40
59.0
 40
59.0
 40
59.0
 40
60.0
 40
60.0
 40
60.0
 40
61.0
 40
61.0
 40
61.0
 40
62.0
 40
62.0
 40
62.0
 40
63.0
 40
63.0
 40
63.0
 40
64.0
 40
64.0
 40
64.0
 40
65.0
 40
65.0
 40
65.0
 40
66.0
 40
66.0
 40
66.0
 40
67.0
 40
67.0
 40
67.0
 40
68.0
 40
68.0
 40
68.0
 40
69.0
 40
69.0
 40
69.0
 40
70.0
 40
70.0
 40
70.0
 40
71.0
 40
71.0
 40
71.0
 40
72.0
 40
72.0
 40
72.0
 40
73.0
 40
73.0
 40
73.0
 40
74.0
 40
74.0
 40
74.0
 40
75.0
 40
75.0
 40
75.0
 40
76.0
 40
76.0
 40
76.0
 40
77.0
 40
77.0
 40
77.0
 40
78.0
 40
78.0
 40
78.0
 40
79.0
 40
79.0
 40
79.0
 40
80.0
 40
80.0
 40
80.0
 40
81.0
 40
81.0
 40
81.0
 40
82.0
 40
82.0
 40
82.0
 40
83.0
 40
83.0
 40
83.0
 40
84.0
 40
84.0
 40
84.0
 40
85.0
 40
85.0
 40
85.0
 40
86.0
 40
86.0
 40
86.0
 40
87.0
 40
87.0
 40
87.0
 40
88.0
 40
88.0
 40
88.0
 40
89.0
 40
89.0
 40
89.0
 40
90.0
 40
90.0
 40
90.0
 40
91.0
 40
91.0
 40
91.0
 40
92.0
 40
92.0
 40
92.0
 40
93.0
 40
93.0
 40
93.0
 40
94.0
 40
94.0
 40
94.0
 40
95.0
 40
95.0
 40
95.0
 40
96.0
 40
96.0
 40
96.0
 40
97.0
 40
97.0
 40
97.0
 40
98.0
 40
98.0
 40
98.0
 40
99.0
 40
99.0
 40
99.0
 40
100.0
 40
100.0
 40
100.0
 40
101.0
 40
101.0
 40
101.0
 40
102.0
 40
102.0
 40
102.0
 40
103.0
 40
103.0
 40
103.0
 40
103.0
 10
358.6569339833259
 20
93.024481011038
 30
0.0
 10
358.6569339833259
 20
93.30659733324319
 30
0.0
 10
358.4100788383203
 20
93.55344709732708
 30
0.0
 10
358.127967897035
 20
93.55344709732708
 30
0.0
 10
358.127967897035
 20
93.55344709732708
 30
0.0
 10
355.6947260524685
 20
93.55344709732708
 30
0.0
 10
355.6947260524685
 20
93.55344709732708
 30
0.0
 10
355.412615111185
 20
93.55344709732708
 30
0.0
 10
355.1657599661794
 20
93.80029686141279
 30
0.0
 10
355.1657599661794
 20
94.08241318361797
 30
0.0
 10
355.1657599661794
 20
94.08241318361797
 30
0.0
 10
355.1657599661794
 20
94.99928988555621
 30
0.0
 10
355.1657599661794
 20
94.99928988555621
 30
0.0
 10
355.1657599661794
 20
95.2814062077614
 30
0.0
 10
354.9189048211738
 20
95.52825597184527
 30
0.0
 10
354.6367938798885
 20
95.52825597184527
 30
0.0
 10
354.6367938798885
 20
95.52825597184527
 30
0.0
 10
348.7123780181755
 20
95.52825597184527
 30
0.0
 10
348.7123780181755
 20
95.52825597184527
 30
0.0
 10
348.430267076892
 20
95.52825597184527
 30
0.0
 10
348.1834119318865
 20
95.2814062077614
 30
0.0
 10
348.1834119318865
 20
94.99928988555621
 30
0.0
 10
348.1834119318865
 20
94.99928988555621
 30
0.0
 10
348.1834119318865
 20
94.08241318361797
 30
0.0
 10
348.1834119318865
 20
94.08241318361797
 30
0.0
 10
348.1834119318865
 20
93.80029686141279
 30
0.0
 10
347.9365567868808
 20
93.55344709732708
 30
0.0
 10
347.6544458455955
 20
93.55344709732708
 30
0.0
 10
347.6544458455955
 20
93.55344709732708
 30
0.0
 10
339.0146664361891
 20
93.55344709732708
 30
0.0
 10
339.0146664361891
 20
93.55344709732708
 30
0.0
 10
338.7325554949057
 20
93.55344709732708
 30
0.0
 10
338.4857003499001
 20
93.80029686141279
 30
0.0
 10
338.4857003499001
 20
94.08241318361797
 30
0.0
 10
338.4857003499001
 20
94.08241318361797
 30
0.0
 10
338.4857003499001
 20
94.99928988555621
 30
0.0
 10
338.4857003499001
 20
94.99928988555621
 30
0.0
 10
338.4857003499001
 20
95.2814062077614
 30
0.0
 10
338.2388452048945
 20
95.52825597184527
 30
0.0
 10
337.9567342636092
 20
95.52825597184527
 30
0.0
 10
337.9567342636092
 20
95.52825597184527
 30
0.0
 10
332.0323184018962
 20
95.52825597184527
 30
0.0
 10
332.0323184018962
 20
95.52825597184527
 30
0.0
 10
331.7502074606127
 20
95.52825597184527
 30
0.0
 10
331.5033523156071
 20
95.2814062077614
 30
0.0
 10
331.5033523156071
 20
94.99928988555621
 30
0.0
 10
331.5033523156071
 20
94.99928988555621
 30
0.0
 10
331.5033523156071
 20
94.08241318361797
 30
0.0
 10
331.5033523156071
 20
94.08241318361797
 30
0.0
 10
331.5033523156071
 20
93.80029686141279
 30
0.0
 10
331.2564971706015
 20
93.55344709732708
 30
0.0
 10
330.9743862293162
 20
93.55344709732708
 30
0.0
 10
330.9743862293162
 20
93.55344709732708
 30
0.0
 10
327.0953015965224
 20
93.55344709732708
 30
0.0
 10
327.0953015965224
 20
93.55344709732708
 30
0.0
 10
326.8131906552371
 20
93.55344709732708
 30
0.0
 10
326.5663355102315
 20
93.80029686141279
 30
0.0
 10
326.5663355102315
 20
94.08241318361797
 30
0.0
 10
326.5663355102315
 20
94.08241318361797
 30
0.0
 10
326.5663355102315
 20
94.99928988555621
 30
0.0
 10
326.5663355102315
 20
94.99928988555621
 30
0.0
 10
326.5663355102315
 20
95.2814062077614
 30
0.0
 10
326.3194803652259
 20
95.52825597184527
 30
0.0
 10
326.0373694239425
 20
95.52825597184527
 30
0.0
 10
326.0373694239425
 20
95.52825597184527
 30
0.0
 10
320.1129535622294
 20
95.52825597184527
 30
0.0
 10
320.1129535622294
 20
95.52825597184527
 30
0.0
 10
319.8308426209442
 20
95.52825597184527
 30
0.0
 10
319.5839874759386
 20
95.2814062077614
 30
0.0
 10
319.5839874759386
 20
94.99928988555621
 30
0.0
 10
319.5839874759386
 20
94.99928988555621
 30
0.0
 10
319.5839874759386
 20
94.08241318361797
 30
0.0
 10
319.5839874759386
 20
94.08241318361797
 30
0.0
 10
319.5839874759386
 20
93.80029686141279
 30
0.0
 10
319.3371323309329
 20
93.55344709732708
 30
0.0
 10
319.0550213896495
 20
93.55344709732708
 30
0.0
 10
319.0550213896495
 20
93.55344709732708
 30
0.0
 10
317.5739120432991
 20
93.55344709732708
 30
0.0
 10
317.5739120432991
 20
93.55344709732708
 30
0.0
 10
317.2918011020156
 20
93.55344709732708
 30
0.0
 10
317.04494595701
 20
93.80029686141279
 30
0.0
 10
317.04494595701
 20
94.08241318361797
 30
0.0
 10
317.04494595701
 20
94.08241318361797
 30
0.0
 10
317.04494595701
 20
94.99928988555621
 30
0.0
 10
317.04494595701
 20
94.99928988555621
 30
0.0
 10
317.04494595701
 20
95.2814062077614
 30
0.0
 10
316.7980908120044
 20
95.52825597184527
 30
0.0
 10
316.5159798707191
 20
95.52825597184527
 30
0.0
 10
316.5159798707191
 20
95.52825597184527
 30
0.0
 10
310.5915640090061
 20
95.52825597184527
 30
0.0
 10
310.5915640090061
 20
95.52825597184527
 30
0.0
 10
310.3094530677227
 20
95.52825597184527
 30
0.0
 10
310.062597922717
 20
95.52825597184527
 30
0.0
 10
310.062597922717
 20
95.52825597184527
 30
0.0
 10
310.062597922717
 20
95.52825597184527
 30
0.0
 10
309.8157427777114
 20
95.52825597184527
 30
0.0
 10
309.5336318364261
 20
95.52825597184527
 30
0.0
 10
309.5336318364261
 20
95.52825597184527
 30
0.0
 10
308.2288445188406
 20
95.52825597184527
 30
0.0
 10
308.2288445188406
 20
95.52825597184527
 30
0.0
 10
307.9467335775553
 20
95.52825597184527
 30
0.0
 10
307.6998784325497
 20
95.2814062077614
 30
0.0
 10
307.6998784325497
 20
94.99928988555621
 30
0.0
 10
307.6998784325497
 20
94.99928988555621
 30
0.0
 10
307.6998784325497
 20
94.08241318361797
 30
0.0
 10
307.6998784325497
 20
94.08241318361797
 30
0.0
 10
307.6998784325497
 20
93.80029686141279
 30
0.0
 10
307.453023287544
 20
93.55344709732708
 30
0.0
 10
307.1709123462606
 20
93.55344709732708
 30
0.0
 10
307.1709123462606
 20
93.55344709732708
 30
0.0
 10
300.9291082232985
 20
93.55344709732708
 30
0.0
 10
300.9291082232985
 20
93.55344709732708
 30
0.0
 10
300.6469972820141
 20
93.55344709732708
 30
0.0
 10
300.4001421370085
 20
93.80029686141279
 30
0.0
 10
300.4001421370085
 20
94.08241318361797
 30
0.0
 10
300.4001421370085
 20
94.08241318361797
 30
0.0
 10
300.4001421370085
 20
94.99928988555621
 30
0.0
 10
300.4001421370085
 20
94.99928988555621
 30
0.0
 10
300.4001421370085
 20
95.2814062077614
 30
0.0
 10
300.1532869920029
 20
95.52825597184527
 30
0.0
 10
299.8711760507185
 20
95.52825597184527
 30
0.0
 10
299.8711760507185
 20
95.52825597184527
 30
0.0
 10
293.9467601890056
 20
95.52825597184527
 30
0.0
 10
293.9467601890056
 20
95.52825597184527
 30
0.0
 10
293.6646492477212
 20
95.52825597184527
 30
0.0
 10
293.4177941027156
 20
95.52825597184527
 30
0.0
 10
293.4177941027156
 20
95.52825597184527
 30
0.0
 10
293.4177941027156
 20
95.52825597184527
 30
0.0
 10
293.17093895771
 20
95.52825597184527
 30
0.0
 10
292.8888280164256
 20
95.52825597184527
 30
0.0
 10
292.8888280164256
 20
95.52825597184527
 30
0.0
 10
291.5487849025613
 20
95.52825597184527
 30
0.0
 10
291.5487849025613
 20
95.52825597184527
 30
0.0
 10
291.2666739612769
 20
95.52825597184527
 30
0.0
 10
291.0198188162704
 20
95.2814062077614
 30
0.0
 10
291.0198188162704
 20
94.99928988555621
 30
0.0
 10
291.0198188162704
 20
94.99928988555621
 30
0.0
 10
291.0198188162704
 20
94.08241318361797
 30
0.0
 10
291.0198188162704
 20
94.08241318361797
 30
0.0
 10
291.0198188162704
 20
93.80029686141279
 30
0.0
 10
290.7729636712647
 20
93.55344709732708
 30
0.0
 10
290.4908527299804
 20
93.55344709732708
 30
0.0
 10
290.4908527299804
 20
93.55344709732708
 30
0.0
 10
289.0097433836309
 20
93.55344709732708
 30
0.0
 10
289.0097433836309
 20
93.55344709732708
 30
0.0
 10
288.7276324423465
 20
93.55344709732708
 30
0.0
 10
288.4807772973409
 20
93.80029686141279
 30
0.0
 10
288.4807772973409
 20
94.08241318361797
 30
0.0
 10
288.4807772973409
 20
94.08241318361797
 30
0.0
 10
288.4807772973409
 20
94.99928988555621
 30
0.0
 10
288.4807772973409
 20
94.99928988555621
 30
0.0
 10
288.4807772973409
 20
95.2814062077614
 30
0.0
 10
288.2339221523352
 20
95.52825597184527
 30
0.0
 10
287.9518112110509
 20
95.52825597184527
 30
0.0
 10
287.9518112110509
 20
95.52825597184527
 30
0.0
 10
282.0273899684171
 20
95.52825597184527
 30
0.0
 10
282.0273899684171
 20
95.52825597184527
 30
0.0
 10
281.745273646211
 20
95.52825597184527
 30
0.0
 10
281.4984238821271
 20
95.2814062077614
 30
0.0
 10
281.4984238821271
 20
94.99928988555621
 30
0.0
 10
281.4984238821271
 20
94.99928988555621
 30
0.0
 10
281.4984238821271
 20
94.08241318361797
 30
0.0
 10
281.4984238821271
 20
94.08241318361797
 30
0.0
 10
281.4984238821271
 20
93.80029686141279
 30
0.0
 10
281.2515741180423
 20
93.55344709732708
 30
0.0
 10
280.9694577958362
 20
93.55344709732708
 30
0.0
 10
280.9694577958362
 20
93.55344709732708
 30
0.0
 10
277.0903731630424
 20
93.55344709732708
 30
0.0
 10
277.0903731630424
 20
93.55344709732708
 30
0.0
 10
276.8082568408363
 20
93.55344709732708
 30
0.0
 10
276.5614070767515
 20
93.80029686141279
 30
0.0
 10
276.5614070767515
 20
94.08241318361797
 30
0.0
 10
276.5614070767515
 20
94.08241318361797
 30
0.0
 10
276.5614070767515
 20
94.99928988555621
 30
0.0
 10
276.5614070767515
 20
94.99928988555621
 30
0.0
 10
276.5614070767515
 20
95.2814062077614
 30
0.0
 10
276.3145573126676
 20
95.52825597184527
 30
0.0
 10
276.0324409904615
 20
95.52825597184527
 30
0.0
 10
276.0324409904615
 20
95.52825597184527
 30
0.0
 10
270.1080197478277
 20
95.52825597184527
 30
0.0
 10
270.1080197478277
 20
95.52825597184527
 30
0.0
 10
269.8259034256216
 20
95.52825597184527
 30
0.0
 10
269.5790536615377
 20
95.2814062077614
 30
0.0
 10
269.5790536615377
 20
94.99928988555621
 30
0.0
 10
269.5790536615377
 20
94.99928988555621
 30
0.0
 10
269.5790536615377
 20
94.08241318361797
 30
0.0
 10
269.5790536615377
 20
94.08241318361797
 30
0.0
 10
269.5790536615377
 20
93.80029686141279
 30
0.0
 10
269.3322038974529
 20
93.55344709732708
 30
0.0
 10
269.0500875752477
 20
93.55344709732708
 30
0.0
 10
269.0500875752477
 20
93.55344709732708
 30
0.0
 10
260.4103081658414
 20
93.55344709732708
 30
0.0
 10
260.4103081658414
 20
93.55344709732708
 30
0.0
 10
260.1281918436362
 20
93.55344709732708
 30
0.0
 10
259.8813420795514
 20
93.80029686141279
 30
0.0
 10
259.8813420795514
 20
94.08241318361797
 30
0.0
 10
259.8813420795514
 20
94.08241318361797
 30
0.0
 10
259.8813420795514
 20
94.99928988555621
 30
0.0
 10
259.8813420795514
 20
94.99928988555621
 30
0.0
 10
259.8813420795514
 20
95.2814062077614
 30
0.0
 10
259.6344923154666
 20
95.52825597184527
 30
0.0
 10
259.3523759932614
 20
95.52825597184527
 30
0.0
 10
259.3523759932614
 20
95.52825597184527
 30
0.0
 10
253.4279547506276
 20
95.52825597184527
 30
0.0
 10
253.4279547506276
 20
95.52825597184527
 30
0.0
 10
253.1458384284215
 20
95.52825597184527
 30
0.0
 10
252.8989886643367
 20
95.2814062077614
 30
0.0
 10
252.8989886643367
 20
94.99928988555621
 30
0.0
 10
252.8989886643367
 20
94.99928988555621
 30
0.0
 10
252.8989886643367
 20
94.08241318361797
 30
0.0
 10
252.8989886643367
 20
94.08241318361797
 30
0.0
 10
252.8989886643367
 20
93.80029686141279
 30
0.0
 10
252.6521389002528
 20
93.55344709732708
 30
0.0
 10
252.3700225780467
 20
93.55344709732708
 30
0.0
 10
252.3700225780467
 20
93.55344709732708
 30
0.0
 10
249.9367807334811
 20
93.55344709732708
 30
0.0
 10
249.9367807334811
 20
93.55344709732708
 30
0.0
 10
249.654664411275
 20
93.55344709732708
 30
0.0
 10
249.4078146471902
 20
93.30659733324319
 30
0.0
 10
249.4078146471902
 20
93.024481011038
 30
0.0
 10
249.4078146471902
 20
93.024481011038
 30
0.0
 10
249.4078146471902
 20
80.08244517598905
 30
0.0
 10
249.4078146471902
 20
80.08244517598905
 30
0.0
 10
249.4078146471902
 20
79.80032885378387
 30
0.0
 10
249.654664411275
 20
79.55347908969816
 30
0.0
 10
249.9367807334811
 20
79.55347908969816
 30
0.0
 10
249.9367807334811
 20
79.55347908969816
 30
0.0
 10
269.0500875752477
 20
79.55347908969816
 30
0.0
 10
269.0500875752477
 20
79.55347908969816
 30
0.0
 10
269.3322038974529
 20
79.55347908969816
 30
0.0
 10
269.5790536615377
 20
79.55347908969816
 30
0.0
 10
269.5790536615377
 20
79.55347908969816
 30
0.0
 10
269.5790536615377
 20
79.55347908969816
 30
0.0
 10
269.8259034256216
 20
79.55347908969816
 30
0.0
 10
270.1080197478277
 20
79.55347908969816
 30
0.0
 10
270.1080197478277
 20
79.55347908969816
 30
0.0
 10
276.0324409904615
 20
79.55347908969816
 30
0.0
 10
276.0324409904615
 20
79.55347908969816
 30
0.0
 10
276.3145573126676
 20
79.55347908969816
 30
0.0
 10
276.5614070767515
 20
79.55347908969816
 30
0.0
 10
276.5614070767515
 20
79.55347908969816
 30
0.0
 10
276.5614070767515
 20
79.55347908969816
 30
0.0
 10
276.8082568408363
 20
79.55347908969816
 30
0.0
 10
277.0903731630424
 20
79.55347908969816
 30
0.0
 10
277.0903731630424
 20
79.55347908969816
 30
0.0
 10
280.9694577958362
 20
79.55347908969816
 30
0.0
 10
280.9694577958362
 20
79.55347908969816
 30
0.0
 10
281.2515741180423
 20
79.55347908969816
 30
0.0
 10
281.4984238821271
 20
79.55347908969816
 30
0.0
 10
281.4984238821271
 20
79.55347908969816
 30
0.0
 10
281.4984238821271
 20
79.55347908969816
 30
0.0
 10
281.745273646211
 20
79.55347908969816
 30
0.0
 10
282.0273899684171
 20
79.55347908969816
 30
0.0
 10
282.0273899684171
 20
79.55347908969816
 30
0.0
 10
287.9518112110509
 20
79.55347908969816
 30
0.0
 10
287.9518112110509
 20
79.55347908969816
 30
0.0
 10
288.2339221523352
 20
79.55347908969816
 30
0.0
 10
288.4807772973409
 20
79.55347908969816
 30
0.0
 10
288.4807772973409
 20
79.55347908969816
 30
0.0
 10
288.4807772973409
 20
79.55347908969816
 30
0.0
 10
288.7276324423465
 20
79.55347908969816
 30
0.0
 10
289.0097433836309
 20
79.55347908969816
 30
0.0
 10
289.0097433836309
 20
79.55347908969816
 30
0.0
 10
290.4908527299804
 20
79.55347908969816
 30
0.0
 10
290.4908527299804
 20
79.55347908969816
 30
0.0
 10
290.7729636712647
 20
79.55347908969816
 30
0.0
 10
291.0198188162704
 20
79.55347908969816
 30
0.0
 10
291.0198188162704
 20
79.55347908969816
 30
0.0
 10
291.0198188162704
 20
79.55347908969816
 30
0.0
 10
291.2666739612769
 20
79.55347908969816
 30
0.0
 10
291.5487849025613
 20
79.55347908969816
 30
0.0
 10
291.5487849025613
 20
79.55347908969816
 30
0.0
 10
297.4732007642733
 20
79.55347908969816
 30
0.0
 10
297.4732007642733
 20
79.55347908969816
 30
0.0
 10
297.7553117055577
 20
79.55347908969816
 30
0.0
 10
298.0021668505633
 20
79.55347908969816
 30
0.0
 10
298.0021668505633
 20
79.55347908969816
 30
0.0
 10
298.0021668505633
 20
79.55347908969816
 30
0.0
 10
298.2490219955698
 20
79.55347908969816
 30
0.0
 10
298.5311329368542
 20
79.55347908969816
 30
0.0
 10
298.5311329368542
 20
79.55347908969816
 30
0.0
 10
307.1709123462606
 20
79.55347908969816
 30
0.0
 10
307.1709123462606
 20
79.55347908969816
 30
0.0
 10
307.453023287544
 20
79.55347908969816
 30
0.0
 10
307.6998784325497
 20
79.55347908969816
 30
0.0
 10
307.6998784325497
 20
79.55347908969816
 30
0.0
 10
307.6998784325497
 20
79.55347908969816
 30
0.0
 10
307.9467335775553
 20
79.55347908969816
 30
0.0
 10
308.2288445188406
 20
79.55347908969816
 30
0.0
 10
308.2288445188406
 20
79.55347908969816
 30
0.0
 10
314.1532603805536
 20
79.55347908969816
 30
0.0
 10
314.1532603805536
 20
79.55347908969816
 30
0.0
 10
314.435371321837
 20
79.55347908969816
 30
0.0
 10
314.6822264668426
 20
79.55347908969816
 30
0.0
 10
314.6822264668426
 20
79.55347908969816
 30
0.0
 10
314.6822264668426
 20
79.55347908969816
 30
0.0
 10
314.9290816118482
 20
79.55347908969816
 30
0.0
 10
315.2111925531335
 20
79.55347908969816
 30
0.0
 10
315.2111925531335
 20
79.55347908969816
 30
0.0
 10
358.1279786588784
 20
79.55347908969816
 30
0.0
 10
358.1279786588784
 20
79.55347908969816
 30
0.0
 10
358.4100896001619
 20
79.55347908969816
 30
0.0
 10
358.6569447451675
 20
79.80032885378387
 30
0.0
 10
358.6569447451675
 20
80.08244517598905
 30
0.0
 10
358.6569447451675
 20
80.08244517598905
 30
0.0
 10
358.6569447451675
 20
93.024481011038
 30
0.0
 10
358.6569447451675
 20
93.024481011038
 30
0.0
 10
358.6569447451675
 20
93.024481011038
 30
0.0
 10
358.6569339833259
 20
93.024481011038
 30
0.0
 10
358.6569339833259
 20
93.024481011038
 30
0.0
  0
SPLINE
  5
9A
330
70
100
AcDbEntity
  8
Layer 3
 62
    18
420
        0
370
     0
100
AcDbSpline
210
0.0
220
0.0
230
1.0
 70
     9
 71
     3
 72
    29
 73
    25
 74
     0
 42
0.0000000001
 43
0.0000000001
 40
0.0
 40
0.0
 40
0.0
 40
0.0
 40
1.0
 40
1.0
 40
1.0
 40
2.0
 40
2.0
 40
2.0
 40
3.0
 40
3.0
 40
3.0
 40
4.0
 40
4.0
 40
4.0
 40
5.0
 40
5.0
 40
5.0
 40
6.0
 40
6.0
 40
6.0
 40
7.0
 40
7.0
 40
7.0
 40
8.0
 40
8.0
 40
8.0
 40
8.0
 10
310.5562866890432
 20
112.5609596456524
 30
0.0
 10
310.5562866890432
 20
112.5609596456524
 30
0.0
 10
297.5437231186734
 20
112.5609596456524
 30
0.0
 10
297.5437231186734
 20
112.5609596456524
 30
0.0
 10
297.261612177389
 20
112.5609596456524
 30
0.0
 10
297.0500235905047
 20
112.3493737492281
 30
0.0
 10
297.0500235905047
 20
112.0672574270229
 30
0.0
 10
297.0500235905047
 20
112.0672574270229
 30
0.0
 10
297.0500235905047
 20
99.05469116619315
 30
0.0
 10
297.0500235905047
 20
99.05469116619315
 30
0.0
 10
297.0500235905047
 20
98.77257484398615
 30
0.0
 10
297.261612177389
 20
98.56099163802355
 30
0.0
 10
297.5437231186734
 20
98.56099163802355
 30
0.0
 10
297.5437231186734
 20
98.56099163802355
 30
0.0
 10
310.5562866890432
 20
98.56099163802355
 30
0.0
 10
310.5562866890432
 20
98.56099163802355
 30
0.0
 10
310.8383976303267
 20
98.56099163802355
 30
0.0
 10
311.049986217211
 20
98.77258022490787
 30
0.0
 10
311.049986217211
 20
99.05469116619315
 30
0.0
 10
311.049986217211
 20
99.05469116619315
 30
0.0
 10
311.049986217211
 20
112.0672574270229
 30
0.0
 10
311.049986217211
 20
112.0672574270229
 30
0.0
 10
311.049986217211
 20
112.3493737492281
 30
0.0
 10
310.8383976303267
 20
112.5609596456524
 30
0.0
 10
310.5562866890432
 20
112.5609596456524
 30
0.0
  0
ENDSEC
  0
SECTION
  2
OBJECTS
  0
DICTIONARY
  5
C
330
0
100
AcDbDictionary
281
     1
  3
ACAD_COLOR
350
63
  3
ACAD_DETAILVIEWSTYLE
350
6A
  3
ACAD_GROUP
350
D
  3
ACAD_LAYOUT
350
62
  3
ACAD_MATERIAL
350
10
  3
ACAD_MLEADERSTYLE
350
66
  3
ACAD_MLINESTYLE
350
5F
  3
ACAD_PLOTSETTINGS
350
61
  3
ACAD_PLOTSTYLENAME
350
E
  3
ACAD_SCALELIST
350
42
  3
ACAD_SECTIONVIEWSTYLE
350
68
  3
ACAD_TABLESTYLE
350
64
  3
ACAD_VISUALSTYLE
350
29
  3
ACDB_RECOMPOSE_DATA
350
A3
  3
AcDbVariableDictionary
350
9B
  0
DICTIONARY
  5
63
102
{ACAD_REACTORS
330
C
102
}
330
C
100
AcDbDictionary
281
     1
  0
DICTIONARY
  5
6A
102
{ACAD_REACTORS
330
C
102
}
330
C
100
AcDbDictionary
281
     1
  3
Imperial24
350
6B
  0
DICTIONARY
  5
D
102
{ACAD_REACTORS
330
C
102
}
330
C
100
AcDbDictionary
281
     1
  0
DICTIONARY
  5
62
102
{ACAD_REACTORS
330
C
102
}
330
C
100
AcDbDictionary
281
     1
  3
Layout1
350
6F
  3
Layout2
350
77
  3
Model
350
73
  0
DICTIONARY
  5
10
102
{ACAD_REACTORS
330
C
102
}
330
C
100
AcDbDictionary
281
     1
  3
ByBlock
350
19
  3
ByLayer
350
11
  3
Global
350
21
  0
DICTIONARY
  5
66
102
{ACAD_REACTORS
330
C
102
}
330
C
100
AcDbDictionary
281
     1
  3
Standard
350
67
  0
DICTIONARY
  5
5F
102
{ACAD_REACTORS
330
C
102
}
330
C
100
AcDbDictionary
281
     1
  3
Standard
350
60
  0
DICTIONARY
  5
61
102
{ACAD_REACTORS
330
C
102
}
330
C
100
AcDbDictionary
281
     1
  0
ACDBDICTIONARYWDFLT
  5
E
102
{ACAD_REACTORS
330
C
102
}
330
C
100
AcDbDictionary
281
     1
  3
Normal
350
F
100
AcDbDictionaryWithDefault
340
F
  0
DICTIONARY
  5
42
102
{ACAD_REACTORS
330
C
102
}
330
C
100
AcDbDictionary
281
     1
  3
A0
350
43
  3
A1
350
44
  3
A2
350
45
  3
A3
350
46
  3
A4
350
47
  3
A5
350
48
  3
A6
350
49
  3
A7
350
4A
  3
A8
350
4B
  3
A9
350
4C
  3
B0
350
4D
  3
B1
350
4E
  3
B2
350
4F
  3
B3
350
50
  3
B4
350
51
  3
B5
350
52
  3
B6
350
53
  0
DICTIONARY
  5
68
102
{ACAD_REACTORS
330
C
102
}
330
C
100
AcDbDictionary
281
     1
  3
Imperial24
350
69
  0
DICTIONARY
  5
64
102
{ACAD_REACTORS
330
C
102
}
330
C
100
AcDbDictionary
281
     1
  3
Standard
350
65
  0
DICTIONARY
  5
29
102
{ACAD_REACTORS
330
C
102
}
330
C
100
AcDbDictionary
281
     1
  3
2dWireframe
350
2F
  3
Basic
350
2E
  3
Brighten
350
35
  3
ColorChange
350
39
  3
Conceptual
350
32
  3
Dim
350
34
  3
EdgeColorOff
350
41
  3
Facepattern
350
38
  3
Flat
350
2A
  3
FlatWithEdges
350
2B
  3
Gouraud
350
2C
  3
GouraudWithEdges
350
2D
  3
Hidden
350
31
  3
JitterOff
350
3F
  3
Linepattern
350
37
  3
OverhangOff
350
40
  3
Realistic
350
33
  3
Shaded
350
3E
  3
Shaded with edges
350
3D
  3
Shades of Gray
350
3A
  3
Sketchy
350
3B
  3
Thicken
350
36
  3
Wireframe
350
30
  3
X-Ray
350
3C
  0
XRECORD
  5
A3
102
{ACAD_REACTORS
330
C
102
}
330
C
100
AcDbXrecord
280
     1
 90
        1
330
65
  0
DICTIONARY
  5
9B
102
{ACAD_REACTORS
330
C
102
}
330
C
100
AcDbDictionary
281
     1
  3
CANNOSCALE
350
A0
  3
CMLEADERSTYLE
350
9D
  3
CTABLESTYLE
350
9C
  3
CVIEWDETAILSTYLE
350
9E
  3
CVIEWSECTIONSTYLE
350
9F
  0
ACDBDETAILVIEWSTYLE
  5
6B
102
{ACAD_REACTORS
330
6A
102
}
330
6A
100
AcDbModelDocViewStyle
 70
     0
  3
Imperial24
290
     1
300
Imperial24
 90
        0
100
AcDbDetailViewStyle
 70
     0
 71
     0
 90
        3
 71
     1
340
55
 62
   256
 40
0.24
340
0
 62
   256
 40
0.24
300

 40
0.36
280
     3
 71
     2
340
5D
 90
       25
 62
   256
 71
     3
340
55
 62
   256
 40
0.24
 90
        1
 40
0.75
 90
        1
300
%<\AcVar ViewType \f "%tc1">% %<\AcVar ViewDetailId>%\PSCALE %<\AcVar ViewScale \f "%sn">%
 71
     4
340
5D
 90
       25
 62
   256
340
5D
 90
       25
 62
   256
280
     0
  0
LAYOUT
  5
6F
102
{ACAD_REACTORS
330
62
102
}
330
62
100
AcDbPlotSettings
  1

  2

  4

  6

 40
0.0
 41
0.0
 42
0.0
 43
0.0
 44
0.0
 45
0.0
 46
0.0
 47
0.0
 48
0.0
 49
0.0
140
0.0
141
0.0
142
1.0
143
1.0
 70
   688
 72
     0
 73
     0
 74
     5
  7

 75
    16
147
1.0
 76
     0
 77
     2
 78
   300
148
0.0
149
0.0
100
AcDbLayout
  1
Layout1
 70
     1
 71
     1
 10
0.0
 20
0.0
 11
12.0
 21
9.0
 12
0.0
 22
0.0
 32
0.0
 14
0.0
 24
0.0
 34
0.0
 15
0.0
 25
0.0
 35
0.0
146
0.0
 13
0.0
 23
0.0
 33
0.0
 16
1.0
 26
0.0
 36
0.0
 17
0.0
 27
1.0
 37
0.0
 76
     0
330
6C
  0
LAYOUT
  5
77
102
{ACAD_REACTORS
330
62
102
}
330
62
100
AcDbPlotSettings
  1

  2

  4

  6

 40
0.0
 41
0.0
 42
0.0
 43
0.0
 44
0.0
 45
0.0
 46
0.0
 47
0.0
 48
0.0
 49
0.0
140
0.0
141
0.0
142
1.0
143
1.0
 70
   688
 72
     0
 73
     0
 74
     5
  7

 75
    16
147
1.0
 76
     0
 77
     2
 78
   300
148
0.0
149
0.0
100
AcDbLayout
  1
Layout2
 70
     1
 71
     2
 10
0.0
 20
0.0
 11
12.0
 21
9.0
 12
0.0
 22
0.0
 32
0.0
 14
0.0
 24
0.0
 34
0.0
 15
0.0
 25
0.0
 35
0.0
146
0.0
 13
0.0
 23
0.0
 33
0.0
 16
1.0
 26
0.0
 36
0.0
 17
0.0
 27
1.0
 37
0.0
 76
     0
330
74
  0
LAYOUT
  5
73
102
{ACAD_REACTORS
330
62
102
}
330
62
100
AcDbPlotSettings
  1

  2

  4

  6

 40
0.0
 41
0.0
 42
0.0
 43
0.0
 44
0.0
 45
0.0
 46
0.0
 47
0.0
 48
0.0
 49
0.0
140
0.0
141
0.0
142
1.0
143
1.0
 70
  1712
 72
     0
 73
     0
 74
     0
  7

 75
     0
147
1.0
 76
     0
 77
     2
 78
   300
148
0.0
149
0.0
100
AcDbLayout
  1
Model
 70
     1
 71
     0
 10
0.0
 20
0.0
 11
12.0
 21
9.0
 12
0.0
 22
0.0
 32
0.0
 14
0.0
 24
0.0
 34
0.0
 15
0.0
 25
0.0
 35
0.0
146
0.0
 13
0.0
 23
0.0
 33
0.0
 16
1.0
 26
0.0
 36
0.0
 17
0.0
 27
1.0
 37
0.0
 76
     0
330
70
  0
MATERIAL
  5
19
102
{ACAD_XDICTIONARY
360
1A
102
}
102
{ACAD_REACTORS
330
10
102
}
330
10
100
AcDbMaterial
  1
ByBlock
 72
     0
 43
0.0208333333333333
 43
0.0
 43
0.0
 43
0.0
 43
0.0
 43
0.0208333333333333
 43
0.0
 43
0.0
 43
0.0
 43
0.0
 43
1.0
 43
0.0
 43
0.0
 43
0.0
 43
0.0
 43
1.0
 77
     0
 47
0.0208333333333333
 47
0.0
 47
0.0
 47
0.0
 47
0.0
 47
0.0208333333333333
 47
0.0
 47
0.0
 47
0.0
 47
0.0
 47
1.0
 47
0.0
 47
0.0
 47
0.0
 47
0.0
 47
1.0
171
     0
 49
0.0208333333333333
 49
0.0
 49
0.0
 49
0.0
 49
0.0
 49
0.0208333333333333
 49
0.0
 49
0.0
 49
0.0
 49
0.0
 49
1.0
 49
0.0
 49
0.0
 49
0.0
 49
0.0
 49
1.0
175
     0
142
0.0208333333333333
142
0.0
142
0.0
142
0.0
142
0.0
142
0.0208333333333333
142
0.0
142
0.0
142
0.0
142
0.0
142
1.0
142
0.0
142
0.0
142
0.0
142
0.0
142
1.0
179
     0
144
0.0208333333333333
144
0.0
144
0.0
144
0.0
144
0.0
144
0.0208333333333333
144
0.0
144
0.0
144
0.0
144
0.0
144
1.0
144
0.0
144
0.0
144
0.0
144
0.0
144
1.0
147
0.0208333333333333
147
0.0
147
0.0
147
0.0
147
0.0
147
0.0208333333333333
147
0.0
147
0.0
147
0.0
147
0.0
147
1.0
147
0.0
147
0.0
147
0.0
147
0.0
147
1.0
  0
MATERIAL
  5
11
102
{ACAD_XDICTIONARY
360
12
102
}
102
{ACAD_REACTORS
330
10
102
}
330
10
100
AcDbMaterial
  1
ByLayer
 72
     0
 43
0.0208333333333333
 43
0.0
 43
0.0
 43
0.0
 43
0.0
 43
0.0208333333333333
 43
0.0
 43
0.0
 43
0.0
 43
0.0
 43
1.0
 43
0.0
 43
0.0
 43
0.0
 43
0.0
 43
1.0
 77
     0
 47
0.0208333333333333
 47
0.0
 47
0.0
 47
0.0
 47
0.0
 47
0.0208333333333333
 47
0.0
 47
0.0
 47
0.0
 47
0.0
 47
1.0
 47
0.0
 47
0.0
 47
0.0
 47
0.0
 47
1.0
171
     0
 49
0.0208333333333333
 49
0.0
 49
0.0
 49
0.0
 49
0.0
 49
0.0208333333333333
 49
0.0
 49
0.0
 49
0.0
 49
0.0
 49
1.0
 49
0.0
 49
0.0
 49
0.0
 49
0.0
 49
1.0
175
     0
142
0.0208333333333333
142
0.0
142
0.0
142
0.0
142
0.0
142
0.0208333333333333
142
0.0
142
0.0
142
0.0
142
0.0
142
1.0
142
0.0
142
0.0
142
0.0
142
0.0
142
1.0
179
     0
144
0.0208333333333333
144
0.0
144
0.0
144
0.0
144
0.0
144
0.0208333333333333
144
0.0
144
0.0
144
0.0
144
0.0
144
1.0
144
0.0
144
0.0
144
0.0
144
0.0
144
1.0
147
0.0208333333333333
147
0.0
147
0.0
147
0.0
147
0.0
147
0.0208333333333333
147
0.0
147
0.0
147
0.0
147
0.0
147
1.0
147
0.0
147
0.0
147
0.0
147
0.0
147
1.0
  0
MATERIAL
  5
21
102
{ACAD_XDICTIONARY
360
22
102
}
102
{ACAD_REACTORS
330
10
102
}
330
10
100
AcDbMaterial
  1
Global
 72
     0
 43
0.0208333333333333
 43
0.0
 43
0.0
 43
0.0
 43
0.0
 43
0.0208333333333333
 43
0.0
 43
0.0
 43
0.0
 43
0.0
 43
1.0
 43
0.0
 43
0.0
 43
0.0
 43
0.0
 43
1.0
 77
     0
 47
0.0208333333333333
 47
0.0
 47
0.0
 47
0.0
 47
0.0
 47
0.0208333333333333
 47
0.0
 47
0.0
 47
0.0
 47
0.0
 47
1.0
 47
0.0
 47
0.0
 47
0.0
 47
0.0
 47
1.0
171
     0
 49
0.0208333333333333
 49
0.0
 49
0.0
 49
0.0
 49
0.0
 49
0.0208333333333333
 49
0.0
 49
0.0
 49
0.0
 49
0.0
 49
1.0
 49
0.0
 49
0.0
 49
0.0
 49
0.0
 49
1.0
175
     0
142
0.0208333333333333
142
0.0
142
0.0
142
0.0
142
0.0
142
0.0208333333333333
142
0.0
142
0.0
142
0.0
142
0.0
142
1.0
142
0.0
142
0.0
142
0.0
142
0.0
142
1.0
179
     0
144
0.0208333333333333
144
0.0
144
0.0
144
0.0
144
0.0
144
0.0208333333333333
144
0.0
144
0.0
144
0.0
144
0.0
144
1.0
144
0.0
144
0.0
144
0.0
144
0.0
144
1.0
147
0.0208333333333333
147
0.0
147
0.0
147
0.0
147
0.0
147
0.0208333333333333
147
0.0
147
0.0
147
0.0
147
0.0
147
1.0
147
0.0
147
0.0
147
0.0
147
0.0
147
1.0
  0
MLEADERSTYLE
  5
67
102
{ACAD_REACTORS
330
66
102
}
330
66
100
AcDbMLeaderStyle
179
     2
170
     2
171
     1
172
     0
 90
        2
 40
0.0
 41
0.0
173
     1
 91
-1056964608
340
5B
 92
       -2
290
     1
 42
0.09
291
     1
 43
0.36
  3
Standard
 44
0.18
300

342
55
174
     1
178
     6
175
     1
176
     0
 93
-1056964608
 45
0.18
292
     0
297
     0
 46
0.18
 94
-1056964608
 47
1.0
 49
1.0
140
1.0
293
     1
141
0.0
294
     1
177
     0
142
1.0
295
     1
296
     0
143
0.125
271
     0
272
     9
273
     9
298
     1
  0
MLINESTYLE
  5
60
102
{ACAD_REACTORS
330
5F
102
}
330
5F
100
AcDbMlineStyle
  2
STANDARD
 70
     0
  3

 62
   256
 51
90.0
 52
90.0
 71
     2
 49
0.5
 62
   256
  6
BYLAYER
 49
-0.5
 62
   256
  6
BYLAYER
  0
ACDBPLACEHOLDER
  5
F
102
{ACAD_REACTORS
330
E
102
}
330
E
  0
SCALE
  5
43
102
{ACAD_REACTORS
330
42
102
}
330
42
100
AcDbScale
 70
     0
300
1:1
140
1.0
141
1.0
290
     1
  0
SCALE
  5
44
102
{ACAD_REACTORS
330
42
102
}
330
42
100
AcDbScale
 70
     0
300
1/128" = 1'-0"
140
0.0078125
141
12.0
290
     0
  0
SCALE
  5
45
102
{ACAD_REACTORS
330
42
102
}
330
42
100
AcDbScale
 70
     0
300
1/64" = 1'-0"
140
0.015625
141
12.0
290
     0
  0
SCALE
  5
46
102
{ACAD_REACTORS
330
42
102
}
330
42
100
AcDbScale
 70
     0
300
1/32" = 1'-0"
140
0.03125
141
12.0
290
     0
  0
SCALE
  5
47
102
{ACAD_REACTORS
330
42
102
}
330
42
100
AcDbScale
 70
     0
300
1/16" = 1'-0"
140
0.0625
141
12.0
290
     0
  0
SCALE
  5
48
102
{ACAD_REACTORS
330
42
102
}
330
42
100
AcDbScale
 70
     0
300
3/32" = 1'-0"
140
0.09375
141
12.0
290
     0
  0
SCALE
  5
49
102
{ACAD_REACTORS
330
42
102
}
330
42
100
AcDbScale
 70
     0
300
1/8" = 1'-0"
140
0.125
141
12.0
290
     0
  0
SCALE
  5
4A
102
{ACAD_REACTORS
330
42
102
}
330
42
100
AcDbScale
 70
     0
300
3/16" = 1'-0"
140
0.1875
141
12.0
290
     0
  0
SCALE
  5
4B
102
{ACAD_REACTORS
330
42
102
}
330
42
100
AcDbScale
 70
     0
300
1/4" = 1'-0"
140
0.25
141
12.0
290
     0
  0
SCALE
  5
4C
102
{ACAD_REACTORS
330
42
102
}
330
42
100
AcDbScale
 70
     0
300
3/8" = 1'-0"
140
0.375
141
12.0
290
     0
  0
SCALE
  5
4D
102
{ACAD_REACTORS
330
42
102
}
330
42
100
AcDbScale
 70
     0
300
1/2" = 1'-0"
140
0.5
141
12.0
290
     0
  0
SCALE
  5
4E
102
{ACAD_REACTORS
330
42
102
}
330
42
100
AcDbScale
 70
     0
300
3/4" = 1'-0"
140
0.75
141
12.0
290
     0
  0
SCALE
  5
4F
102
{ACAD_REACTORS
330
42
102
}
330
42
100
AcDbScale
 70
     0
300
1" = 1'-0"
140
1.0
141
12.0
290
     0
  0
SCALE
  5
50
102
{ACAD_REACTORS
330
42
102
}
330
42
100
AcDbScale
 70
     0
300
1-1/2" = 1'-0"
140
1.5
141
12.0
290
     0
  0
SCALE
  5
51
102
{ACAD_REACTORS
330
42
102
}
330
42
100
AcDbScale
 70
     0
300
3" = 1'-0"
140
3.0
141
12.0
290
     0
  0
SCALE
  5
52
102
{ACAD_REACTORS
330
42
102
}
330
42
100
AcDbScale
 70
     0
300
6" = 1'-0"
140
6.0
141
12.0
290
     0
  0
SCALE
  5
53
102
{ACAD_REACTORS
330
42
102
}
330
42
100
AcDbScale
 70
     0
300
1'-0" = 1'-0"
140
12.0
141
12.0
290
     0
  0
ACDBSECTIONVIEWSTYLE
  5
69
102
{ACAD_REACTORS
330
68
102
}
330
68
100
AcDbModelDocViewStyle
 70
     0
  3
Imperial24
290
     1
300
Imperial24
 90
        0
100
AcDbSectionViewStyle
 70
     0
 71
     0
 90
       78
 71
     1
340
55
 62
   256
 40
0.24
340
0
340
0
 62
   256
 40
0.24
300
I, O, Q, S, X, Z
 40
0.48
 90
        3
 40
0.18
 90
        1
 71
     2
340
5D
 90
       25
 62
   256
340
5D
 90
       50
 62
   256
 40
0.24
 40
0.0
 40
0.24
 71
     3
340
55
 62
   256
 40
0.24
 90
        1
 40
0.75
 90
        1
300
%<\AcVar ViewType \f "%tc1">% %<\AcVar ViewSectionStartId>%-%<\AcVar ViewSectionEndId>%\PSCALE %<\AcVar ViewScale \f "%sn">%
 71
     4
 62
   256
 62
   257
300
ANSI31
 40
1.0
 90
        0
290
     0
290
     0
 90
        6
 40
0.0
 40
1.570796326794896
 40
0.2617993877991494
 40
1.308996938995747
 40
-0.2617993877991494
 40
1.832595714594046
  0
TABLESTYLE
  5
65
102
{ACAD_XDICTIONARY
360
A1
102
}
102
{ACAD_REACTORS
330
64
102
}
330
64
100
AcDbTableStyle
280
     0
  3
Standard
 70
     0
 71
     0
 40
0.06
 41
0.06
280
     0
281
     0
  7
Standard
140
0.18
170
     2
 62
     0
 63
     7
283
     0
 90
      512
 91
        0
  1

274
    -2
284
     1
 64
     0
275
    -2
285
     1
 65
     0
276
    -2
286
     1
 66
     0
277
    -2
287
     1
 67
     0
278
    -2
288
     1
 68
     0
279
    -2
289
     1
 69
     0
  7
Standard
140
0.25
170
     5
 62
     0
 63
     7
283
     0
 90
      512
 91
        0
  1

274
    -2
284
     1
 64
     0
275
    -2
285
     1
 65
     0
276
    -2
286
     1
 66
     0
277
    -2
287
     1
 67
     0
278
    -2
288
     1
 68
     0
279
    -2
289
     1
 69
     0
  7
Standard
140
0.18
170
     5
 62
     0
 63
     7
283
     0
 90
      512
 91
        0
  1

274
    -2
284
     1
 64
     0
275
    -2
285
     1
 65
     0
276
    -2
286
     1
 66
     0
277
    -2
287
     1
 67
     0
278
    -2
288
     1
 68
     0
279
    -2
289
     1
 69
     0
  0
VISUALSTYLE
  5
2F
102
{ACAD_REACTORS
330
29
102
}
330
29
100
AcDbVisualStyle
  2
2dWireframe
 70
     4
177
     3
291
     0
 70
    58
 90
        0
176
     1
 90
        2
176
     1
 90
        0
176
     1
 90
        0
176
     1
 40
0.6
176
     1
 40
30.0
176
     1
 62
     7
420
 16777215
176
     1
 90
        1
176
     1
 90
        4
176
     1
 62
     7
176
     1
 62
   257
176
     1
 90
        1
176
     1
 90
        1
176
     1
 40
1.0
176
     1
 90
        0
176
     1
 62
   257
176
     1
 40
1.0
176
     1
 90
        1
176
     1
 90
        6
176
     1
 90
        2
176
     1
 62
     7
176
     1
 90
        5
176
     1
 90
        0
176
     1
 90
        0
176
     1
290
     0
176
     1
 90
        1
176
     1
 40
0.0
176
     1
 90
        0
176
     1
290
     1
176
     1
290
     1
176
     1
290
     0
176
     1
290
     0
176
     1
290
     0
176
     1
290
     0
176
     1
290
     0
176
     1
290
     0
176
     1
290
     0
176
     1
 90
       50
176
     1
 40
0.0
176
     1
 40
1.0
176
     1
 90
        0
176
     1
 62
    18
420
        0
176
     1
 90
       50
176
     1
 90
        3
176
     1
 62
     5
420
      255
176
     1
290
     0
176
     1
 90
       50
176
     1
 90
       50
176
     1
 90
       50
176
     1
290
     0
176
     1
 90
       50
176
     1
 62
   256
176
     0
 40
1.0
176
     0
 90
        2
176
     1
  1
strokes_ogs.tif
176
     1
290
     0
176
     1
 40
1.0
176
     1
 40
1.0
176
     1
  0
VISUALSTYLE
  5
2E
102
{ACAD_REACTORS
330
29
102
}
330
29
100
AcDbVisualStyle
  2
Basic
 70
     7
177
     3
291
     1
 70
    58
 90
        1
176
     1
 90
        0
176
     1
 90
        1
176
     1
 90
        0
176
     1
 40
0.6
176
     1
 40
30.0
176
     1
 62
     7
420
 16777215
176
     1
 90
        0
176
     1
 90
        4
176
     1
 62
     7
176
     1
 62
   257
176
     1
 90
        1
176
     1
 90
        1
176
     1
 40
1.0
176
     1
 90
        8
176
     1
 62
     7
176
     1
 40
1.0
176
     1
 90
        1
176
     1
 90
        6
176
     1
 90
        2
176
     1
 62
     7
176
     1
 90
        5
176
     1
 90
        0
176
     1
 90
        0
176
     1
290
     0
176
     1
 90
        1
176
     1
 40
0.0
176
     1
 90
        0
176
     1
290
     0
176
     1
290
     1
176
     1
290
     1
176
     1
290
     0
176
     1
290
     0
176
     1
290
     0
176
     1
290
     0
176
     1
290
     0
176
     1
290
     0
176
     1
 90
       50
176
     1
 40
0.0
176
     1
 40
1.0
176
     1
 90
        0
176
     1
 62
    18
420
        0
176
     1
 90
       50
176
     1
 90
        3
176
     1
 62
     5
420
      255
176
     1
290
     0
176
     1
 90
       50
176
     1
 90
       50
176
     1
 90
       50
176
     1
290
     0
176
     1
 90
       50
176
     1
 62
   256
176
     0
 40
1.0
176
     0
 90
        2
176
     1
  1
strokes_ogs.tif
176
     1
290
     0
176
     1
 40
1.0
176
     1
 40
1.0
176
     1
  0
VISUALSTYLE
  5
35
102
{ACAD_REACTORS
330
29
102
}
330
29
100
AcDbVisualStyle
  2
Brighten
 70
    12
177
     3
291
     1
 70
    58
 90
        2
176
     1
 90
        2
176
     1
 90
        0
176
     1
 90
        0
176
     1
 40
0.6
176
     1
 40
30.0
176
     1
 62
     7
420
 16777215
176
     1
 90
        1
176
     1
 90
        4
176
     1
 62
     7
176
     1
 62
   257
176
     1
 90
        1
176
     1
 90
        1
176
     1
 40
1.0
176
     1
 90
        8
176
     1
 62
     7
176
     1
 40
1.0
176
     1
 90
        1
176
     1
 90
        6
176
     1
 90
        2
176
     1
 62
     7
176
     1
 90
        5
176
     1
 90
        0
176
     1
 90
        0
176
     1
290
     0
176
     1
 90
        1
176
     1
 40
50.0
176
     1
 90
        0
176
     1
290
     0
176
     1
290
     1
176
     1
290
     1
176
     1
290
     0
176
     1
290
     0
176
     1
290
     0
176
     1
290
     0
176
     1
290
     0
176
     1
290
     0
176
     1
 90
       50
176
     1
 40
0.0
176
     1
 40
1.0
176
     1
 90
        0
176
     1
 62
    18
420
        0
176
     1
 90
       50
176
     1
 90
        3
176
     1
 62
     5
420
      255
176
     1
290
     0
176
     1
 90
       50
176
     1
 90
       50
176
     1
 90
       50
176
     1
290
     0
176
     1
 90
       50
176
     1
 62
   256
176
     0
 40
1.0
176
     0
 90
        2
176
     1
  1
strokes_ogs.tif
176
     1
290
     0
176
     1
 40
1.0
176
     1
 40
1.0
176
     1
  0
VISUALSTYLE
  5
39
102
{ACAD_REACTORS
330
29
102
}
330
29
100
AcDbVisualStyle
  2
ColorChange
 70
    16
177
     3
291
     1
 70
    58
 90
        2
176
     1
 90
        2
176
     1
 90
        3
176
     1
 90
        0
176
     1
 40
0.6
176
     1
 40
30.0
176
     1
 62
     8
420
  8421504
176
     1
 90
        1
176
     1
 90
        4
176
     1
 62
     7
176
     1
 62
   257
176
     1
 90
        1
176
     1
 90
        1
176
     1
 40
1.0
176
     1
 90
        8
176
     1
 62
     8
420
  8421504
176
     1
 40
1.0
176
     1
 90
        1
176
     1
 90
        6
176
     1
 90
        2
176
     1
 62
     7
176
     1
 90
        5
176
     1
 90
        0
176
     1
 90
        0
176
     1
290
     0
176
     1
 90
        1
176
     1
 40
0.0
176
     1
 90
        0
176
     1
290
     0
176
     1
290
     1
176
     1
290
     1
176
     1
290
     0
176
     1
290
     0
176
     1
290
     0
176
     1
290
     0
176
     1
290
     0
176
     1
290
     0
176
     1
 90
       50
176
     1
 40
0.0
176
     1
 40
1.0
176
     1
 90
        0
176
     1
 62
    18
420
        0
176
     1
 90
       50
176
     1
 90
        3
176
     1
 62
     5
420
      255
176
     1
290
     0
176
     1
 90
       50
176
     1
 90
       50
176
     1
 90
       50
176
     1
290
     0
176
     1
 90
       50
176
     1
 62
   256
176
     0
 40
1.0
176
     0
 90
        2
176
     1
  1
strokes_ogs.tif
176
     1
290
     0
176
     1
 40
1.0
176
     1
 40
1.0
176
     1
  0
VISUALSTYLE
  5
32
102
{ACAD_REACTORS
330
29
102
}
330
29
100
AcDbVisualStyle
  2
Conceptual
 70
     9
177
     3
291
     0
 70
    58
 90
        3
176
     1
 90
        2
176
     1
 90
        0
176
     1
 90
        0
176
     1
 40
0.6
176
     1
 40
30.0
176
     1
 62
     7
420
 16777215
176
     1
 90
        2
176
     1
 90
        2
176
     1
 62
     7
176
     1
 62
   257
176
     1
 90
        1
176
     1
 90
        1
176
     1
 40
179.0
176
     1
 90
        8
176
     1
 62
     7
176
     1
 40
1.0
176
     1
 90
        1
176
     1
 90
        6
176
     1
 90
        2
176
     1
 62
     7
176
     1
 90
        3
176
     1
 90
        0
176
     1
 90
        0
176
     1
290
     0
176
     1
 90
        1
176
     1
 40
0.0
176
     1
 90
        0
176
     1
290
     0
176
     1
290
     1
176
     1
290
     1
176
     1
290
     0
176
     1
290
     0
176
     1
290
     0
176
     1
290
     0
176
     1
290
     0
176
     1
290
     0
176
     1
 90
       50
176
     1
 40
0.0
176
     1
 40
1.0
176
     1
 90
        0
176
     1
 62
    18
420
        0
176
     1
 90
       50
176
     1
 90
        3
176
     1
 62
     5
420
      255
176
     1
290
     0
176
     1
 90
       50
176
     1
 90
       50
176
     1
 90
       50
176
     1
290
     0
176
     1
 90
       50
176
     1
 62
   256
176
     0
 40
1.0
176
     0
 90
        2
176
     1
  1
strokes_ogs.tif
176
     1
290
     0
176
     1
 40
1.0
176
     1
 40
1.0
176
     1
  0
VISUALSTYLE
  5
34
102
{ACAD_REACTORS
330
29
102
}
330
29
100
AcDbVisualStyle
  2
Dim
 70
    11
177
     3
291
     1
 70
    58
 90
        2
176
     1
 90
        2
176
     1
 90
        0
176
     1
 90
        0
176
     1
 40
0.6
176
     1
 40
30.0
176
     1
 62
     7
420
 16777215
176
     1
 90
        1
176
     1
 90
        4
176
     1
 62
     7
176
     1
 62
   257
176
     1
 90
        1
176
     1
 90
        1
176
     1
 40
1.0
176
     1
 90
        8
176
     1
 62
     7
176
     1
 40
1.0
176
     1
 90
        1
176
     1
 90
        6
176
     1
 90
        2
176
     1
 62
     7
176
     1
 90
        5
176
     1
 90
        0
176
     1
 90
        0
176
     1
290
     0
176
     1
 90
        1
176
     1
 40
-50.0
176
     1
 90
        0
176
     1
290
     0
176
     1
290
     1
176
     1
290
     1
176
     1
290
     0
176
     1
290
     0
176
     1
290
     0
176
     1
290
     0
176
     1
290
     0
176
     1
290
     0
176
     1
 90
       50
176
     1
 40
0.0
176
     1
 40
1.0
176
     1
 90
        0
176
     1
 62
    18
420
        0
176
     1
 90
       50
176
     1
 90
        3
176
     1
 62
     5
420
      255
176
     1
290
     0
176
     1
 90
       50
176
     1
 90
       50
176
     1
 90
       50
176
     1
290
     0
176
     1
 90
       50
176
     1
 62
   256
176
     0
 40
1.0
176
     0
 90
        2
176
     1
  1
strokes_ogs.tif
176
     1
290
     0
176
     1
 40
1.0
176
     1
 40
1.0
176
     1
  0
VISUALSTYLE
  5
41
102
{ACAD_REACTORS
330
29
102
}
330
29
100
AcDbVisualStyle
  2
EdgeColorOff
 70
    22
177
     3
291
     1
 70
    58
 90
        2
176
     0
 90
        2
176
     0
 90
        0
176
     0
 90
        0
176
     0
 40
0.6
176
     0
 40
30.0
176
     0
 62
     7
420
 16777215
176
     0
 90
        1
176
     0
 90
        4
176
     0
 62
     7
176
     0
 62
   257
176
     0
 90
        1
176
     0
 90
        1
176
     0
 40
1.0
176
     0
 90
        8
176
     2
 62
     7
176
     0
 40
1.0
176
     0
 90
        1
176
     0
 90
        6
176
     0
 90
        2
176
     0
 62
     7
176
     0
 90
        5
176
     0
 90
        0
176
     0
 90
        0
176
     0
290
     0
176
     0
 90
        1
176
     0
 40
0.0
176
     0
 90
        0
176
     0
290
     0
176
     0
290
     1
176
     0
290
     1
176
     0
290
     0
176
     0
290
     0
176
     0
290
     0
176
     0
290
     0
176
     0
290
     0
176
     0
290
     0
176
     0
 90
       50
176
     0
 40
0.0
176
     0
 40
1.0
176
     0
 90
        0
176
     0
 62
    18
420
        0
176
     0
 90
       50
176
     0
 90
        3
176
     0
 62
     5
420
      255
176
     0
290
     0
176
     0
 90
       50
176
     0
 90
       50
176
     0
 90
       50
176
     0
290
     0
176
     0
 90
       50
176
     0
 62
   256
176
     0
 40
1.0
176
     0
 90
        2
176
     0
  1
strokes_ogs.tif
176
     0
290
     0
176
     0
 40
1.0
176
     0
 40
1.0
176
     0
  0
VISUALSTYLE
  5
38
102
{ACAD_REACTORS
330
29
102
}
330
29
100
AcDbVisualStyle
  2
Facepattern
 70
    15
177
     3
291
     1
 70
    58
 90
        2
176
     1
 90
        2
176
     1
 90
        0
176
     1
 90
        0
176
     1
 40
0.6
176
     1
 40
30.0
176
     1
 62
     7
420
 16777215
176
     1
 90
        1
176
     1
 90
        4
176
     1
 62
     7
176
     1
 62
   257
176
     1
 90
        1
176
     1
 90
        1
176
     1
 40
1.0
176
     1
 90
        8
176
     1
 62
     7
176
     1
 40
1.0
176
     1
 90
        1
176
     1
 90
        6
176
     1
 90
        2
176
     1
 62
     7
176
     1
 90
        5
176
     1
 90
        0
176
     1
 90
        0
176
     1
290
     0
176
     1
 90
        1
176
     1
 40
0.0
176
     1
 90
        0
176
     1
290
     0
176
     1
290
     1
176
     1
290
     1
176
     1
290
     0
176
     1
290
     0
176
     1
290
     0
176
     1
290
     0
176
     1
290
     0
176
     1
290
     0
176
     1
 90
       50
176
     1
 40
0.0
176
     1
 40
1.0
176
     1
 90
        0
176
     1
 62
    18
420
        0
176
     1
 90
       50
176
     1
 90
        3
176
     1
 62
     5
420
      255
176
     1
290
     0
176
     1
 90
       50
176
     1
 90
       50
176
     1
 90
       50
176
     1
290
     0
176
     1
 90
       50
176
     1
 62
   256
176
     0
 40
1.0
176
     0
 90
        2
176
     1
  1
strokes_ogs.tif
176
     1
290
     0
176
     1
 40
1.0
176
     1
 40
1.0
176
     1
  0
VISUALSTYLE
  5
2A
102
{ACAD_REACTORS
330
29
102
}
330
29
100
AcDbVisualStyle
  2
Flat
 70
     0
177
     3
291
     1
 70
    58
 90
        2
176
     1
 90
        1
176
     1
 90
        1
176
     1
 90
        2
176
     1
 40
0.6
176
     1
 40
30.0
176
     1
 62
     7
420
 16777215
176
     1
 90
        0
176
     1
 90
        0
176
     1
 62
     7
176
     1
 62
   257
176
     1
 90
        1
176
     1
 90
        1
176
     1
 40
1.0
176
     1
 90
        8
176
     1
 62
     7
176
     1
 40
1.0
176
     1
 90
        1
176
     1
 90
        6
176
     1
 90
        2
176
     1
 62
     7
176
     1
 90
        5
176
     1
 90
        0
176
     1
 90
        0
176
     1
290
     0
176
     1
 90
       13
176
     1
 40
0.0
176
     1
 90
        0
176
     1
290
     0
176
     1
290
     1
176
     1
290
     1
176
     1
290
     0
176
     1
290
     0
176
     1
290
     0
176
     1
290
     0
176
     1
290
     0
176
     1
290
     0
176
     1
 90
       50
176
     1
 40
0.0
176
     1
 40
1.0
176
     1
 90
        0
176
     1
 62
    18
420
        0
176
     1
 90
       50
176
     1
 90
        3
176
     1
 62
     5
420
      255
176
     1
290
     0
176
     1
 90
       50
176
     1
 90
       50
176
     1
 90
       50
176
     1
290
     0
176
     1
 90
       50
176
     1
 62
   256
176
     0
 40
1.0
176
     0
 90
        2
176
     1
  1
strokes_ogs.tif
176
     1
290
     0
176
     1
 40
1.0
176
     1
 40
1.0
176
     1
  0
VISUALSTYLE
  5
2B
102
{ACAD_REACTORS
330
29
102
}
330
29
100
AcDbVisualStyle
  2
FlatWithEdges
 70
     1
177
     3
291
     1
 70
    58
 90
        2
176
     1
 90
        1
176
     1
 90
        1
176
     1
 90
        2
176
     1
 40
0.6
176
     1
 40
30.0
176
     1
 62
     7
420
 16777215
176
     1
 90
        1
176
     1
 90
        0
176
     1
 62
     7
176
     1
 62
   257
176
     1
 90
        1
176
     1
 90
        1
176
     1
 40
1.0
176
     1
 90
        0
176
     1
 62
   257
176
     1
 40
1.0
176
     1
 90
        1
176
     1
 90
        6
176
     1
 90
        2
176
     1
 62
     7
176
     1
 90
        5
176
     1
 90
        0
176
     1
 90
        0
176
     1
290
     0
176
     1
 90
       13
176
     1
 40
0.0
176
     1
 90
        0
176
     1
290
     0
176
     1
290
     1
176
     1
290
     1
176
     1
290
     0
176
     1
290
     0
176
     1
290
     0
176
     1
290
     0
176
     1
290
     0
176
     1
290
     0
176
     1
 90
       50
176
     1
 40
0.0
176
     1
 40
1.0
176
     1
 90
        0
176
     1
 62
    18
420
        0
176
     1
 90
       50
176
     1
 90
        3
176
     1
 62
     5
420
      255
176
     1
290
     0
176
     1
 90
       50
176
     1
 90
       50
176
     1
 90
       50
176
     1
290
     0
176
     1
 90
       50
176
     1
 62
   256
176
     0
 40
1.0
176
     0
 90
        2
176
     1
  1
strokes_ogs.tif
176
     1
290
     0
176
     1
 40
1.0
176
     1
 40
1.0
176
     1
  0
VISUALSTYLE
  5
2C
102
{ACAD_REACTORS
330
29
102
}
330
29
100
AcDbVisualStyle
  2
Gouraud
 70
     2
177
     3
291
     1
 70
    58
 90
        2
176
     1
 90
        2
176
     1
 90
        1
176
     1
 90
        2
176
     1
 40
0.6
176
     1
 40
30.0
176
     1
 62
     7
420
 16777215
176
     1
 90
        0
176
     1
 90
        0
176
     1
 62
     7
176
     1
 62
   257
176
     1
 90
        1
176
     1
 90
        1
176
     1
 40
1.0
176
     1
 90
        0
176
     1
 62
     7
176
     1
 40
1.0
176
     1
 90
        1
176
     1
 90
        6
176
     1
 90
        2
176
     1
 62
     7
176
     1
 90
        5
176
     1
 90
        0
176
     1
 90
        0
176
     1
290
     0
176
     1
 90
       13
176
     1
 40
0.0
176
     1
 90
        0
176
     1
290
     0
176
     1
290
     1
176
     1
290
     1
176
     1
290
     0
176
     1
290
     0
176
     1
290
     0
176
     1
290
     0
176
     1
290
     0
176
     1
290
     0
176
     1
 90
       50
176
     1
 40
0.0
176
     1
 40
1.0
176
     1
 90
        0
176
     1
 62
    18
420
        0
176
     1
 90
       50
176
     1
 90
        3
176
     1
 62
     5
420
      255
176
     1
290
     0
176
     1
 90
       50
176
     1
 90
       50
176
     1
 90
       50
176
     1
290
     0
176
     1
 90
       50
176
     1
 62
   256
176
     0
 40
1.0
176
     0
 90
        2
176
     1
  1
strokes_ogs.tif
176
     1
290
     0
176
     1
 40
1.0
176
     1
 40
1.0
176
     1
  0
VISUALSTYLE
  5
2D
102
{ACAD_REACTORS
330
29
102
}
330
29
100
AcDbVisualStyle
  2
GouraudWithEdges
 70
     3
177
     3
291
     1
 70
    58
 90
        2
176
     1
 90
        2
176
     1
 90
        1
176
     1
 90
        2
176
     1
 40
0.6
176
     1
 40
30.0
176
     1
 62
     7
420
 16777215
176
     1
 90
        1
176
     1
 90
        0
176
     1
 62
     7
176
     1
 62
   257
176
     1
 90
        1
176
     1
 90
        1
176
     1
 40
1.0
176
     1
 90
        0
176
     1
 62
   257
176
     1
 40
1.0
176
     1
 90
        1
176
     1
 90
        6
176
     1
 90
        2
176
     1
 62
     7
176
     1
 90
        5
176
     1
 90
        0
176
     1
 90
        0
176
     1
290
     0
176
     1
 90
       13
176
     1
 40
0.0
176
     1
 90
        0
176
     1
290
     0
176
     1
290
     1
176
     1
290
     1
176
     1
290
     0
176
     1
290
     0
176
     1
290
     0
176
     1
290
     0
176
     1
290
     0
176
     1
290
     0
176
     1
 90
       50
176
     1
 40
0.0
176
     1
 40
1.0
176
     1
 90
        0
176
     1
 62
    18
420
        0
176
     1
 90
       50
176
     1
 90
        3
176
     1
 62
     5
420
      255
176
     1
290
     0
176
     1
 90
       50
176
     1
 90
       50
176
     1
 90
       50
176
     1
290
     0
176
     1
 90
       50
176
     1
 62
   256
176
     0
 40
1.0
176
     0
 90
        2
176
     1
  1
strokes_ogs.tif
176
     1
290
     0
176
     1
 40
1.0
176
     1
 40
1.0
176
     1
  0
VISUALSTYLE
  5
31
102
{ACAD_REACTORS
330
29
102
}
330
29
100
AcDbVisualStyle
  2
Hidden
 70
     6
177
     3
291
     0
 70
    58
 90
        1
176
     1
 90
        2
176
     1
 90
        2
176
     1
 90
        0
176
     1
 40
0.6
176
     1
 40
30.0
176
     1
 62
     7
420
 16777215
176
     1
 90
        2
176
     1
 90
        2
176
     1
 62
     7
176
     1
 62
   257
176
     1
 90
        2
176
     1
 90
        1
176
     1
 40
40.0
176
     1
 90
        0
176
     1
 62
   257
176
     1
 40
1.0
176
     1
 90
        1
176
     1
 90
        6
176
     1
 90
        2
176
     1
 62
     7
176
     1
 90
        3
176
     1
 90
        0
176
     1
 90
        0
176
     1
290
     0
176
     1
 90
        1
176
     1
 40
0.0
176
     1
 90
        0
176
     1
290
     0
176
     1
290
     1
176
     1
290
     1
176
     1
290
     0
176
     1
290
     0
176
     1
290
     0
176
     1
290
     0
176
     1
290
     0
176
     1
290
     0
176
     1
 90
       50
176
     1
 40
0.0
176
     1
 40
1.0
176
     1
 90
        0
176
     1
 62
    18
420
        0
176
     1
 90
       50
176
     1
 90
        3
176
     1
 62
     5
420
      255
176
     1
290
     0
176
     1
 90
       50
176
     1
 90
       50
176
     1
 90
       50
176
     1
290
     0
176
     1
 90
       50
176
     1
 62
   256
176
     0
 40
1.0
176
     0
 90
        2
176
     1
  1
strokes_ogs.tif
176
     1
290
     0
176
     1
 40
1.0
176
     1
 40
1.0
176
     1
  0
VISUALSTYLE
  5
3F
102
{ACAD_REACTORS
330
29
102
}
330
29
100
AcDbVisualStyle
  2
JitterOff
 70
    20
177
     3
291
     1
 70
    58
 90
        2
176
     0
 90
        2
176
     0
 90
        0
176
     0
 90
        0
176
     0
 40
0.6
176
     0
 40
30.0
176
     0
 62
     7
420
 16777215
176
     0
 90
        1
176
     0
 90
        4
176
     0
 62
     7
176
     0
 62
   257
176
     0
 90
        1
176
     0
 90
        1
176
     0
 40
1.0
176
     0
 90
       10
176
     2
 62
     7
176
     0
 40
1.0
176
     0
 90
        1
176
     0
 90
        6
176
     0
 90
        2
176
     0
 62
     7
176
     0
 90
        5
176
     0
 90
        0
176
     0
 90
        0
176
     0
290
     0
176
     0
 90
        1
176
     0
 40
0.0
176
     0
 90
        0
176
     0
290
     0
176
     0
290
     1
176
     0
290
     1
176
     0
290
     0
176
     0
290
     0
176
     0
290
     0
176
     0
290
     0
176
     0
290
     0
176
     0
290
     0
176
     0
 90
       50
176
     0
 40
0.0
176
     0
 40
1.0
176
     0
 90
        0
176
     0
 62
    18
420
        0
176
     0
 90
       50
176
     0
 90
        3
176
     0
 62
     5
420
      255
176
     0
290
     0
176
     0
 90
       50
176
     0
 90
       50
176
     0
 90
       50
176
     0
290
     0
176
     0
 90
       50
176
     0
 62
   256
176
     0
 40
1.0
176
     0
 90
        2
176
     0
  1
strokes_ogs.tif
176
     0
290
     0
176
     0
 40
1.0
176
     0
 40
1.0
176
     0
  0
VISUALSTYLE
  5
37
102
{ACAD_REACTORS
330
29
102
}
330
29
100
AcDbVisualStyle
  2
Linepattern
 70
    14
177
     3
291
     1
 70
    58
 90
        2
176
     1
 90
        2
176
     1
 90
        0
176
     1
 90
        0
176
     1
 40
0.6
176
     1
 40
30.0
176
     1
 62
     7
420
 16777215
176
     1
 90
        1
176
     1
 90
        4
176
     1
 62
     7
176
     1
 62
   257
176
     1
 90
        7
176
     1
 90
        7
176
     1
 40
1.0
176
     1
 90
        8
176
     1
 62
     7
176
     1
 40
1.0
176
     1
 90
        1
176
     1
 90
        6
176
     1
 90
        2
176
     1
 62
     7
176
     1
 90
        5
176
     1
 90
        0
176
     1
 90
        0
176
     1
290
     0
176
     1
 90
        1
176
     1
 40
0.0
176
     1
 90
        0
176
     1
290
     0
176
     1
290
     1
176
     1
290
     1
176
     1
290
     0
176
     1
290
     0
176
     1
290
     0
176
     1
290
     0
176
     1
290
     0
176
     1
290
     0
176
     1
 90
       50
176
     1
 40
0.0
176
     1
 40
1.0
176
     1
 90
        0
176
     1
 62
    18
420
        0
176
     1
 90
       50
176
     1
 90
        3
176
     1
 62
     5
420
      255
176
     1
290
     0
176
     1
 90
       50
176
     1
 90
       50
176
     1
 90
       50
176
     1
290
     0
176
     1
 90
       50
176
     1
 62
   256
176
     0
 40
1.0
176
     0
 90
        2
176
     1
  1
strokes_ogs.tif
176
     1
290
     0
176
     1
 40
1.0
176
     1
 40
1.0
176
     1
  0
VISUALSTYLE
  5
40
102
{ACAD_REACTORS
330
29
102
}
330
29
100
AcDbVisualStyle
  2
OverhangOff
 70
    21
177
     3
291
     1
 70
    58
 90
        2
176
     0
 90
        2
176
     0
 90
        0
176
     0
 90
        0
176
     0
 40
0.6
176
     0
 40
30.0
176
     0
 62
     7
420
 16777215
176
     0
 90
        1
176
     0
 90
        4
176
     0
 62
     7
176
     0
 62
   257
176
     0
 90
        1
176
     0
 90
        1
176
     0
 40
1.0
176
     0
 90
        9
176
     2
 62
     7
176
     0
 40
1.0
176
     0
 90
        1
176
     0
 90
        6
176
     0
 90
        2
176
     0
 62
     7
176
     0
 90
        5
176
     0
 90
        0
176
     0
 90
        0
176
     0
290
     0
176
     0
 90
        1
176
     0
 40
0.0
176
     0
 90
        0
176
     0
290
     0
176
     0
290
     1
176
     0
290
     1
176
     0
290
     0
176
     0
290
     0
176
     0
290
     0
176
     0
290
     0
176
     0
290
     0
176
     0
290
     0
176
     0
 90
       50
176
     0
 40
0.0
176
     0
 40
1.0
176
     0
 90
        0
176
     0
 62
    18
420
        0
176
     0
 90
       50
176
     0
 90
        3
176
     0
 62
     5
420
      255
176
     0
290
     0
176
     0
 90
       50
176
     0
 90
       50
176
     0
 90
       50
176
     0
290
     0
176
     0
 90
       50
176
     0
 62
   256
176
     0
 40
1.0
176
     0
 90
        2
176
     0
  1
strokes_ogs.tif
176
     0
290
     0
176
     0
 40
1.0
176
     0
 40
1.0
176
     0
  0
VISUALSTYLE
  5
33
102
{ACAD_REACTORS
330
29
102
}
330
29
100
AcDbVisualStyle
  2
Realistic
 70
     8
177
     3
291
     0
 70
    58
 90
        2
176
     1
 90
        3
176
     1
 90
        0
176
     1
 90
        2
176
     1
 40
0.6
176
     1
 40
30.0
176
     1
 62
     7
420
 16777215
176
     1
 90
        0
176
     1
 90
        0
176
     1
 62
     7
176
     1
 62
   257
176
     1
 90
        1
176
     1
 90
        1
176
     1
 40
1.0
176
     1
 90
        8
176
     1
 62
   257
176
     1
 40
1.0
176
     1
 90
        1
176
     1
 90
        6
176
     1
 90
        2
176
     1
 62
     7
176
     1
 90
        3
176
     1
 90
        0
176
     1
 90
        0
176
     1
290
     0
176
     1
 90
       13
176
     1
 40
0.0
176
     1
 90
        0
176
     1
290
     0
176
     1
290
     1
176
     1
290
     1
176
     1
290
     0
176
     1
290
     0
176
     1
290
     0
176
     1
290
     0
176
     1
290
     0
176
     1
290
     0
176
     1
 90
       50
176
     1
 40
0.0
176
     1
 40
1.0
176
     1
 90
        0
176
     1
 62
    18
420
        0
176
     1
 90
       50
176
     1
 90
        3
176
     1
 62
     5
420
      255
176
     1
290
     0
176
     1
 90
       50
176
     1
 90
       50
176
     1
 90
       50
176
     1
290
     0
176
     1
 90
       50
176
     1
 62
   256
176
     0
 40
1.0
176
     0
 90
        2
176
     1
  1
strokes_ogs.tif
176
     1
290
     0
176
     1
 40
1.0
176
     1
 40
1.0
176
     1
  0
VISUALSTYLE
  5
3E
102
{ACAD_REACTORS
330
29
102
}
330
29
100
AcDbVisualStyle
  2
Shaded
 70
    27
177
     3
291
     0
 70
    58
 90
        2
176
     1
 90
        2
176
     1
 90
        1
176
     1
 90
        2
176
     1
 40
0.6
176
     1
 40
30.0
176
     1
 62
     7
420
 16777215
176
     1
 90
        0
176
     1
 90
        4
176
     1
 62
     7
176
     1
 62
   257
176
     1
 90
        1
176
     1
 90
        1
176
     1
 40
1.0
176
     1
 90
        8
176
     1
 62
   257
176
     1
 40
1.0
176
     1
 90
        1
176
     1
 90
        6
176
     1
 90
        2
176
     1
 62
     8
420
  7895160
176
     1
 90
        3
176
     1
 90
        0
176
     1
 90
        0
176
     1
290
     0
176
     1
 90
        5
176
     1
 40
0.0
176
     1
 90
        0
176
     1
290
     0
176
     1
290
     1
176
     1
290
     1
176
     1
290
     0
176
     1
290
     0
176
     1
290
     0
176
     1
290
     0
176
     1
290
     0
176
     1
290
     0
176
     1
 90
       50
176
     1
 40
0.0
176
     1
 40
1.0
176
     1
 90
        0
176
     1
 62
    18
420
        0
176
     1
 90
       50
176
     1
 90
        3
176
     1
 62
     5
420
      255
176
     1
290
     0
176
     1
 90
       50
176
     1
 90
       50
176
     1
 90
       50
176
     1
290
     0
176
     1
 90
       50
176
     1
 62
   256
176
     0
 40
1.0
176
     0
 90
        2
176
     1
  1
strokes_ogs.tif
176
     1
290
     0
176
     1
 40
1.0
176
     1
 40
1.0
176
     1
  0
VISUALSTYLE
  5
3D
102
{ACAD_REACTORS
330
29
102
}
330
29
100
AcDbVisualStyle
  2
Shaded with edges
 70
    26
177
     3
291
     0
 70
    58
 90
        2
176
     1
 90
        2
176
     1
 90
        1
176
     1
 90
        2
176
     1
 40
0.6
176
     1
 40
30.0
176
     1
 62
     7
420
 16777215
176
     1
 90
        1
176
     1
 90
        2
176
     1
 62
     7
176
     1
 62
   257
176
     1
 90
        2
176
     1
 90
        1
176
     1
 40
1.0
176
     1
 90
        8
176
     1
 62
   257
176
     1
 40
1.0
176
     1
 90
        1
176
     1
 90
        6
176
     1
 90
        2
176
     1
 62
     7
176
     1
 90
        3
176
     1
 90
        0
176
     1
 90
        0
176
     1
290
     0
176
     1
 90
        5
176
     1
 40
0.0
176
     1
 90
        0
176
     1
290
     0
176
     1
290
     1
176
     1
290
     1
176
     1
290
     0
176
     1
290
     0
176
     1
290
     0
176
     1
290
     0
176
     1
290
     0
176
     1
290
     0
176
     1
 90
       50
176
     1
 40
0.0
176
     1
 40
1.0
176
     1
 90
        0
176
     1
 62
    18
420
        0
176
     1
 90
       50
176
     1
 90
        3
176
     1
 62
     5
420
      255
176
     1
290
     0
176
     1
 90
       50
176
     1
 90
       50
176
     1
 90
       50
176
     1
290
     0
176
     1
 90
       50
176
     1
 62
   256
176
     0
 40
1.0
176
     0
 90
        2
176
     1
  1
strokes_ogs.tif
176
     1
290
     0
176
     1
 40
1.0
176
     1
 40
1.0
176
     1
  0
VISUALSTYLE
  5
3A
102
{ACAD_REACTORS
330
29
102
}
330
29
100
AcDbVisualStyle
  2
Shades of Gray
 70
    23
177
     3
291
     0
 70
    58
 90
        2
176
     1
 90
        2
176
     1
 90
        3
176
     1
 90
        0
176
     1
 40
0.6
176
     1
 40
30.0
176
     1
 62
     7
420
 16777215
176
     1
 90
        2
176
     1
 90
        2
176
     1
 62
     7
176
     1
 62
     7
176
     1
 90
        1
176
     1
 90
        1
176
     1
 40
40.0
176
     1
 90
        8
176
     1
 62
     7
176
     1
 40
1.0
176
     1
 90
        1
176
     1
 90
        6
176
     1
 90
        2
176
     1
 62
     7
176
     1
 90
        3
176
     1
 90
        0
176
     1
 90
        0
176
     1
290
     0
176
     1
 90
        1
176
     1
 40
0.0
176
     1
 90
        0
176
     1
290
     0
176
     1
290
     1
176
     1
290
     1
176
     1
290
     0
176
     1
290
     0
176
     1
290
     0
176
     1
290
     0
176
     1
290
     0
176
     1
290
     0
176
     1
 90
       50
176
     1
 40
0.0
176
     1
 40
1.0
176
     1
 90
        0
176
     1
 62
    18
420
        0
176
     1
 90
       50
176
     1
 90
        3
176
     1
 62
     5
420
      255
176
     1
290
     0
176
     1
 90
       50
176
     1
 90
       50
176
     1
 90
       50
176
     1
290
     0
176
     1
 90
       50
176
     1
 62
   256
176
     0
 40
1.0
176
     0
 90
        2
176
     1
  1
strokes_ogs.tif
176
     1
290
     0
176
     1
 40
1.0
176
     1
 40
1.0
176
     1
  0
VISUALSTYLE
  5
3B
102
{ACAD_REACTORS
330
29
102
}
330
29
100
AcDbVisualStyle
  2
Sketchy
 70
    24
177
     3
291
     0
 70
    58
 90
        1
176
     1
 90
        2
176
     1
 90
        2
176
     1
 90
        0
176
     1
 40
0.6
176
     1
 40
30.0
176
     1
 62
     7
420
 16777215
176
     1
 90
        2
176
     1
 90
        2
176
     1
 62
     7
176
     1
 62
     7
176
     1
 90
        1
176
     1
 90
        1
176
     1
 40
40.0
176
     1
 90
       11
176
     1
 62
     7
176
     1
 40
1.0
176
     1
 90
        1
176
     1
 90
        6
176
     1
 90
        2
176
     1
 62
     7
176
     1
 90
        6
176
     1
 90
        0
176
     1
 90
        0
176
     1
290
     0
176
     1
 90
        1
176
     1
 40
0.0
176
     1
 90
        0
176
     1
290
     0
176
     1
290
     1
176
     1
290
     1
176
     1
290
     0
176
     1
290
     0
176
     1
290
     0
176
     1
290
     0
176
     1
290
     0
176
     1
290
     0
176
     1
 90
       50
176
     1
 40
0.0
176
     1
 40
1.0
176
     1
 90
        0
176
     1
 62
    18
420
        0
176
     1
 90
       50
176
     1
 90
        3
176
     1
 62
     5
420
      255
176
     1
290
     0
176
     1
 90
       50
176
     1
 90
       50
176
     1
 90
       50
176
     1
290
     0
176
     1
 90
       50
176
     1
 62
   256
176
     0
 40
1.0
176
     0
 90
        2
176
     1
  1
strokes_ogs.tif
176
     1
290
     0
176
     1
 40
1.0
176
     1
 40
1.0
176
     1
  0
VISUALSTYLE
  5
36
102
{ACAD_REACTORS
330
29
102
}
330
29
100
AcDbVisualStyle
  2
Thicken
 70
    13
177
     3
291
     1
 70
    58
 90
        2
176
     1
 90
        2
176
     1
 90
        0
176
     1
 90
        0
176
     1
 40
0.6
176
     1
 40
30.0
176
     1
 62
     7
420
 16777215
176
     1
 90
        1
176
     1
 90
        4
176
     1
 62
     7
176
     1
 62
   257
176
     1
 90
        1
176
     1
 90
        1
176
     1
 40
1.0
176
     1
 90
       12
176
     1
 62
     7
176
     1
 40
1.0
176
     1
 90
        1
176
     1
 90
        6
176
     1
 90
        2
176
     1
 62
     7
176
     1
 90
        5
176
     1
 90
        0
176
     1
 90
        0
176
     1
290
     0
176
     1
 90
        1
176
     1
 40
0.0
176
     1
 90
        0
176
     1
290
     0
176
     1
290
     1
176
     1
290
     1
176
     1
290
     0
176
     1
290
     0
176
     1
290
     0
176
     1
290
     0
176
     1
290
     0
176
     1
290
     0
176
     1
 90
       50
176
     1
 40
0.0
176
     1
 40
1.0
176
     1
 90
        0
176
     1
 62
    18
420
        0
176
     1
 90
       50
176
     1
 90
        3
176
     1
 62
     5
420
      255
176
     1
290
     0
176
     1
 90
       50
176
     1
 90
       50
176
     1
 90
       50
176
     1
290
     0
176
     1
 90
       50
176
     1
 62
   256
176
     0
 40
1.0
176
     0
 90
        2
176
     1
  1
strokes_ogs.tif
176
     1
290
     0
176
     1
 40
1.0
176
     1
 40
1.0
176
     1
  0
VISUALSTYLE
  5
30
102
{ACAD_REACTORS
330
29
102
}
330
29
100
AcDbVisualStyle
  2
Wireframe
 70
     5
177
     3
291
     0
 70
    58
 90
        0
176
     1
 90
        2
176
     1
 90
        0
176
     1
 90
        0
176
     1
 40
0.6
176
     1
 40
30.0
176
     1
 62
     7
420
 16777215
176
     1
 90
        1
176
     1
 90
        4
176
     1
 62
     7
176
     1
 62
   257
176
     1
 90
        1
176
     1
 90
        1
176
     1
 40
1.0
176
     1
 90
        0
176
     1
 62
   257
176
     1
 40
1.0
176
     1
 90
        1
176
     1
 90
        6
176
     1
 90
        2
176
     1
 62
     7
176
     1
 90
        3
176
     1
 90
        0
176
     1
 90
        0
176
     1
290
     0
176
     1
 90
        1
176
     1
 40
0.0
176
     1
 90
        0
176
     1
290
     0
176
     1
290
     1
176
     1
290
     1
176
     1
290
     0
176
     1
290
     0
176
     1
290
     0
176
     1
290
     0
176
     1
290
     0
176
     1
290
     0
176
     1
 90
       50
176
     1
 40
0.0
176
     1
 40
1.0
176
     1
 90
        0
176
     1
 62
    18
420
        0
176
     1
 90
       50
176
     1
 90
        3
176
     1
 62
     5
420
      255
176
     1
290
     0
176
     1
 90
       50
176
     1
 90
       50
176
     1
 90
       50
176
     1
290
     0
176
     1
 90
       50
176
     1
 62
   256
176
     0
 40
1.0
176
     0
 90
        2
176
     1
  1
strokes_ogs.tif
176
     1
290
     0
176
     1
 40
1.0
176
     1
 40
1.0
176
     1
  0
VISUALSTYLE
  5
3C
102
{ACAD_REACTORS
330
29
102
}
330
29
100
AcDbVisualStyle
  2
X-Ray
 70
    25
177
     3
291
     0
 70
    58
 90
        2
176
     1
 90
        2
176
     1
 90
        1
176
     1
 90
        1
176
     1
 40
0.5
176
     1
 40
30.0
176
     1
 62
     7
420
 16777215
176
     1
 90
        1
176
     1
 90
        0
176
     1
 62
     7
176
     1
 62
   257
176
     1
 90
        1
176
     1
 90
        1
176
     1
 40
1.0
176
     1
 90
        8
176
     1
 62
     7
176
     1
 40
1.0
176
     1
 90
        1
176
     1
 90
        6
176
     1
 90
        2
176
     1
 62
     7
176
     1
 90
        3
176
     1
 90
        0
176
     1
 90
        0
176
     1
290
     0
176
     1
 90
       13
176
     1
 40
0.0
176
     1
 90
        0
176
     1
290
     0
176
     1
290
     1
176
     1
290
     1
176
     1
290
     0
176
     1
290
     0
176
     1
290
     0
176
     1
290
     0
176
     1
290
     0
176
     1
290
     0
176
     1
 90
       50
176
     1
 40
0.0
176
     1
 40
1.0
176
     1
 90
        0
176
     1
 62
    18
420
        0
176
     1
 90
       50
176
     1
 90
        3
176
     1
 62
     5
420
      255
176
     1
290
     0
176
     1
 90
       50
176
     1
 90
       50
176
     1
 90
       50
176
     1
290
     0
176
     1
 90
       50
176
     1
 62
   256
176
     0
 40
1.0
176
     0
 90
        2
176
     1
  1
strokes_ogs.tif
176
     1
290
     0
176
     1
 40
1.0
176
     1
 40
1.0
176
     1
  0
DICTIONARYVAR
  5
A0
102
{ACAD_REACTORS
330
9B
102
}
330
9B
100
DictionaryVariables
280
     0
  1
1:1
  0
DICTIONARYVAR
  5
9D
102
{ACAD_REACTORS
330
9B
102
}
330
9B
100
DictionaryVariables
280
     0
  1
STANDARD
  0
DICTIONARYVAR
  5
9C
102
{ACAD_REACTORS
330
9B
102
}
330
9B
100
DictionaryVariables
280
     0
  1
STANDARD
  0
DICTIONARYVAR
  5
9E
102
{ACAD_REACTORS
330
9B
102
}
330
9B
100
DictionaryVariables
280
     0
  1
Imperial24
  0
DICTIONARYVAR
  5
9F
102
{ACAD_REACTORS
330
9B
102
}
330
9B
100
DictionaryVariables
280
     0
  1
Imperial24
  0
DICTIONARY
  5
1A
330
19
100
AcDbDictionary
280
     1
281
     1
  3
BUMPTILE
360
1C
  3
DIFFUSETILE
360
1B
  3
OPACITYTILE
360
1F
  3
REFLECTIONTILE
360
1E
  3
REFRACTIONTILE
360
20
  3
SPECULARTILE
360
1D
  0
DICTIONARY
  5
12
330
11
100
AcDbDictionary
280
     1
281
     1
  3
BUMPTILE
360
14
  3
DIFFUSETILE
360
13
  3
OPACITYTILE
360
17
  3
REFLECTIONTILE
360
16
  3
REFRACTIONTILE
360
18
  3
SPECULARTILE
360
15
  0
DICTIONARY
  5
22
330
21
100
AcDbDictionary
280
     1
281
     1
  3
BUMPTILE
360
24
  3
DIFFUSETILE
360
23
  3
OPACITYTILE
360
27
  3
REFLECTIONTILE
360
26
  3
REFRACTIONTILE
360
28
  3
SPECULARTILE
360
25
  0
DICTIONARY
  5
A1
330
65
100
AcDbDictionary
280
     1
281
     1
  3
ACAD_ROUNDTRIP_2008_TABLESTYLE_CELLSTYLEMAP
360
A2
  0
XRECORD
  5
1C
102
{ACAD_REACTORS
330
1A
102
}
330
1A
100
AcDbXrecord
280
     1
270
     1
271
     1
  0
XRECORD
  5
1B
102
{ACAD_REACTORS
330
1A
102
}
330
1A
100
AcDbXrecord
280
     1
270
     1
271
     1
  0
XRECORD
  5
1F
102
{ACAD_REACTORS
330
1A
102
}
330
1A
100
AcDbXrecord
280
     1
270
     1
271
     1
  0
XRECORD
  5
1E
102
{ACAD_REACTORS
330
1A
102
}
330
1A
100
AcDbXrecord
280
     1
270
     1
271
     1
  0
XRECORD
  5
20
102
{ACAD_REACTORS
330
1A
102
}
330
1A
100
AcDbXrecord
280
     1
270
     1
271
     1
  0
XRECORD
  5
1D
102
{ACAD_REACTORS
330
1A
102
}
330
1A
100
AcDbXrecord
280
     1
270
     1
271
     1
  0
XRECORD
  5
14
102
{ACAD_REACTORS
330
12
102
}
330
12
100
AcDbXrecord
280
     1
270
     1
271
     1
  0
XRECORD
  5
13
102
{ACAD_REACTORS
330
12
102
}
330
12
100
AcDbXrecord
280
     1
270
     1
271
     1
  0
XRECORD
  5
17
102
{ACAD_REACTORS
330
12
102
}
330
12
100
AcDbXrecord
280
     1
270
     1
271
     1
  0
XRECORD
  5
16
102
{ACAD_REACTORS
330
12
102
}
330
12
100
AcDbXrecord
280
     1
270
     1
271
     1
  0
XRECORD
  5
18
102
{ACAD_REACTORS
330
12
102
}
330
12
100
AcDbXrecord
280
     1
270
     1
271
     1
  0
XRECORD
  5
15
102
{ACAD_REACTORS
330
12
102
}
330
12
100
AcDbXrecord
280
     1
270
     1
271
     1
  0
XRECORD
  5
24
102
{ACAD_REACTORS
330
22
102
}
330
22
100
AcDbXrecord
280
     1
270
     1
271
     1
  0
XRECORD
  5
23
102
{ACAD_REACTORS
330
22
102
}
330
22
100
AcDbXrecord
280
     1
270
     1
271
     1
  0
XRECORD
  5
27
102
{ACAD_REACTORS
330
22
102
}
330
22
100
AcDbXrecord
280
     1
270
     1
271
     1
  0
XRECORD
  5
26
102
{ACAD_REACTORS
330
22
102
}
330
22
100
AcDbXrecord
280
     1
270
     1
271
     1
  0
XRECORD
  5
28
102
{ACAD_REACTORS
330
22
102
}
330
22
100
AcDbXrecord
280
     1
270
     1
271
     1
  0
XRECORD
  5
25
102
{ACAD_REACTORS
330
22
102
}
330
22
100
AcDbXrecord
280
     1
270
     1
271
     1
  0
CELLSTYLEMAP
  5
A2
102
{ACAD_REACTORS
330
A1
102
}
330
A1
100
AcDbCellStyleMap
 90
        3
300
CELLSTYLE
  1
TABLEFORMAT_BEGIN
 90
        5
170
     1
 91
        0
 92
    32768
 62
   257
 93
        1
300
CONTENTFORMAT
  1
CONTENTFORMAT_BEGIN
 90
        0
 91
        0
 92
      512
 93
        0
300

 40
0.0
140
1.0
 94
        5
 62
     0
340
55
144
0.25
309
CONTENTFORMAT_END
171
     0
 94
        0
309
TABLEFORMAT_END
  1
CELLSTYLE_BEGIN
 90
        1
 91
        1
300
_TITLE
309
CELLSTYLE_END
300
CELLSTYLE
  1
TABLEFORMAT_BEGIN
 90
        5
170
     1
 91
        0
 92
        0
 62
   257
 93
        1
300
CONTENTFORMAT
  1
CONTENTFORMAT_BEGIN
 90
        0
 91
        0
 92
      512
 93
        0
300

 40
0.0
140
1.0
 94
        5
 62
     0
340
55
144
0.18
309
CONTENTFORMAT_END
171
     0
 94
        0
309
TABLEFORMAT_END
  1
CELLSTYLE_BEGIN
 90
        2
 91
        1
300
_HEADER
309
CELLSTYLE_END
300
CELLSTYLE
  1
TABLEFORMAT_BEGIN
 90
        5
170
     1
 91
        0
 92
        0
 62
   257
 93
        1
300
CONTENTFORMAT
  1
CONTENTFORMAT_BEGIN
 90
        0
 91
        0
 92
      512
 93
        0
300

 40
0.0
140
1.0
 94
        2
 62
     0
340
55
144
0.18
309
CONTENTFORMAT_END
171
     0
 94
        0
309
TABLEFORMAT_END
  1
CELLSTYLE_BEGIN
 90
        3
 91
        2
300
_DATA
309
CELLSTYLE_END
  0
ENDSEC
  0
EOF
