  0
SECTION
  2
HEADER
  9
$ACADVER
  1
AC1032
  9
$ACADMAINTVER
 90
      228
  9
$DWGCODEPAGE
  3
ANSI_1252
  9
$REQUIREDVERSIONS
160
                 0
  9
$INSBASE
 10
0.0
 20
0.0
 30
0.0
  9
$EXTMIN
 10
1.000000000000000E+20
 20
1.000000000000000E+20
 30
1.000000000000000E+20
  9
$EXTMAX
 10
-1.000000000000000E+20
 20
-1.000000000000000E+20
 30
-1.000000000000000E+20
  9
$LIMMIN
 10
0.0
 20
0.0
  9
$LIMMAX
 10
12.0
 20
9.0
  9
$ORTHOMODE
 70
     0
  9
$REGENMODE
 70
     1
  9
$FILLMODE
 70
     1
  9
$QTEXTMODE
 70
     0
  9
$MIRRTEXT
 70
     0
  9
$LTSCALE
 40
1.0
  9
$ATTMODE
 70
     1
  9
$TEXTSIZE
 40
0.2
  9
$TRACEWID
 40
0.05
  9
$TEXTSTYLE
  7
Standard
  9
$CLAYER
  8
0
  9
$CELTYPE
  6
ByLayer
  9
$CECOLOR
 62
   256
  9
$CELTSCALE
 40
1.0
  9
$DISPSILH
 70
     0
  9
$DIMSCALE
 40
1.0
  9
$DIMASZ
 40
0.18
  9
$DIMEXO
 40
0.0625
  9
$DIMDLI
 40
0.38
  9
$DIMRND
 40
0.0
  9
$DIMDLE
 40
0.0
  9
$DIMEXE
 40
0.18
  9
$DIMTP
 40
0.0
  9
$DIMTM
 40
0.0
  9
$DIMTXT
 40
0.18
  9
$DIMCEN
 40
0.09
  9
$DIMTSZ
 40
0.0
  9
$DIMTOL
 70
     0
  9
$DIMLIM
 70
     0
  9
$DIMTIH
 70
     1
  9
$DIMTOH
 70
     1
  9
$DIMSE1
 70
     0
  9
$DIMSE2
 70
     0
  9
$DIMTAD
 70
     0
  9
$DIMZIN
 70
     0
  9
$DIMBLK
  1

  9
$DIMASO
 70
     1
  9
$DIMSHO
 70
     1
  9
$DIMPOST
  1

  9
$DIMAPOST
  1

  9
$DIMALT
 70
     0
  9
$DIMALTD
 70
     2
  9
$DIMALTF
 40
25.4
  9
$DIMLFAC
 40
1.0
  9
$DIMTOFL
 70
     0
  9
$DIMTVP
 40
0.0
  9
$DIMTIX
 70
     0
  9
$DIMSOXD
 70
     0
  9
$DIMSAH
 70
     0
  9
$DIMBLK1
  1

  9
$DIMBLK2
  1

  9
$DIMSTYLE
  2
Standard
  9
$DIMCLRD
 70
     0
  9
$DIMCLRE
 70
     0
  9
$DIMCLRT
 70
     0
  9
$DIMTFAC
 40
1.0
  9
$DIMGAP
 40
0.09
  9
$DIMJUST
 70
     0
  9
$DIMSD1
 70
     0
  9
$DIMSD2
 70
     0
  9
$DIMTOLJ
 70
     1
  9
$DIMTZIN
 70
     0
  9
$DIMALTZ
 70
     0
  9
$DIMALTTZ
 70
     0
  9
$DIMUPT
 70
     0
  9
$DIMDEC
 70
     4
  9
$DIMTDEC
 70
     4
  9
$DIMALTU
 70
     2
  9
$DIMALTTD
 70
     2
  9
$DIMTXSTY
  7
Standard
  9
$DIMAUNIT
 70
     0
  9
$DIMADEC
 70
     0
  9
$DIMALTRND
 40
0.0
  9
$DIMAZIN
 70
     0
  9
$DIMDSEP
 70
    46
  9
$DIMATFIT
 70
     3
  9
$DIMFRAC
 70
     0
  9
$DIMLDRBLK
  1

  9
$DIMLUNIT
 70
     2
  9
$DIMLWD
 70
    -2
  9
$DIMLWE
 70
    -2
  9
$DIMTMOVE
 70
     0
  9
$DIMFXL
 40
1.0
  9
$DIMFXLON
 70
     0
  9
$DIMJOGANG
 40
0.7853981633974483
  9
$DIMTFILL
 70
     0
  9
$DIMTFILLCLR
 70
     0
  9
$DIMARCSYM
 70
     0
  9
$DIMLTYPE
  6

  9
$DIMLTEX1
  6

  9
$DIMLTEX2
  6

  9
$DIMTXTDIRECTION
 70
     0
  9
$LUNITS
 70
     2
  9
$LUPREC
 70
     4
  9
$SKETCHINC
 40
0.1
  9
$FILLETRAD
 40
0.0
  9
$AUNITS
 70
     0
  9
$AUPREC
 70
     0
  9
$MENU
  1
.
  9
$ELEVATION
 40
0.0
  9
$PELEVATION
 40
0.0
  9
$THICKNESS
 40
0.0
  9
$LIMCHECK
 70
     0
  9
$CHAMFERA
 40
0.0
  9
$CHAMFERB
 40
0.0
  9
$CHAMFERC
 40
0.0
  9
$CHAMFERD
 40
0.0
  9
$SKPOLY
 70
     0
  9
$TDCREATE
 40
2460319.685104167
  9
$TDUCREATE
 40
2460319.893437500
  9
$TDUPDATE
 40
2460319.685104167
  9
$TDUUPDATE
 40
2460319.893437500
  9
$TDINDWG
 40
0.0000000000
  9
$TDUSRTIMER
 40
0.0000000000
  9
$USRTIMER
 70
     1
  9
$ANGBASE
 50
0.0
  9
$ANGDIR
 70
     0
  9
$PDMODE
 70
     0
  9
$PDSIZE
 40
0.0
  9
$PLINEWID
 40
0.0
  9
$SPLFRAME
 70
     0
  9
$SPLINETYPE
 70
     6
  9
$SPLINESEGS
 70
     8
  9
$HANDSEED
  5
1AE
  9
$SURFTAB1
 70
     6
  9
$SURFTAB2
 70
     6
  9
$SURFTYPE
 70
     6
  9
$SURFU
 70
     6
  9
$SURFV
 70
     6
  9
$UCSBASE
  2

  9
$UCSNAME
  2

  9
$UCSORG
 10
0.0
 20
0.0
 30
0.0
  9
$UCSXDIR
 10
1.0
 20
0.0
 30
0.0
  9
$UCSYDIR
 10
0.0
 20
1.0
 30
0.0
  9
$UCSORTHOREF
  2

  9
$UCSORTHOVIEW
 70
     0
  9
$UCSORGTOP
 10
0.0
 20
0.0
 30
0.0
  9
$UCSORGBOTTOM
 10
0.0
 20
0.0
 30
0.0
  9
$UCSORGLEFT
 10
0.0
 20
0.0
 30
0.0
  9
$UCSORGRIGHT
 10
0.0
 20
0.0
 30
0.0
  9
$UCSORGFRONT
 10
0.0
 20
0.0
 30
0.0
  9
$UCSORGBACK
 10
0.0
 20
0.0
 30
0.0
  9
$PUCSBASE
  2

  9
$PUCSNAME
  2

  9
$PUCSORG
 10
0.0
 20
0.0
 30
0.0
  9
$PUCSXDIR
 10
1.0
 20
0.0
 30
0.0
  9
$PUCSYDIR
 10
0.0
 20
1.0
 30
0.0
  9
$PUCSORTHOREF
  2

  9
$PUCSORTHOVIEW
 70
     0
  9
$PUCSORGTOP
 10
0.0
 20
0.0
 30
0.0
  9
$PUCSORGBOTTOM
 10
0.0
 20
0.0
 30
0.0
  9
$PUCSORGLEFT
 10
0.0
 20
0.0
 30
0.0
  9
$PUCSORGRIGHT
 10
0.0
 20
0.0
 30
0.0
  9
$PUCSORGFRONT
 10
0.0
 20
0.0
 30
0.0
  9
$PUCSORGBACK
 10
0.0
 20
0.0
 30
0.0
  9
$USERI1
 70
     0
  9
$USERI2
 70
     0
  9
$USERI3
 70
     0
  9
$USERI4
 70
     0
  9
$USERI5
 70
     0
  9
$USERR1
 40
0.0
  9
$USERR2
 40
0.0
  9
$USERR3
 40
0.0
  9
$USERR4
 40
0.0
  9
$USERR5
 40
0.0
  9
$WORLDVIEW
 70
     1
  9
$SHADEDGE
 70
     3
  9
$SHADEDIF
 70
    70
  9
$TILEMODE
 70
     1
  9
$MAXACTVP
 70
    64
  9
$PINSBASE
 10
0.0
 20
0.0
 30
0.0
  9
$PLIMCHECK
 70
     0
  9
$PEXTMIN
 10
1.000000000000000E+20
 20
1.000000000000000E+20
 30
1.000000000000000E+20
  9
$PEXTMAX
 10
-1.000000000000000E+20
 20
-1.000000000000000E+20
 30
-1.000000000000000E+20
  9
$PLIMMIN
 10
0.0
 20
0.0
  9
$PLIMMAX
 10
12.0
 20
9.0
  9
$UNITMODE
 70
     0
  9
$VISRETAIN
 70
     1
  9
$PLINEGEN
 70
     0
  9
$PSLTSCALE
 70
     1
  9
$TREEDEPTH
 70
  3020
  9
$CMLSTYLE
  2
Standard
  9
$CMLJUST
 70
     0
  9
$CMLSCALE
 40
1.0
  9
$PROXYGRAPHICS
 70
     1
  9
$MEASUREMENT
 70
     0
  9
$CELWEIGHT
370
    -1
  9
$ENDCAPS
280
     0
  9
$JOINSTYLE
280
     0
  9
$LWDISPLAY
290
     1
  9
$INSUNITS
 70
     0
  9
$HYPERLINKBASE
  1

  9
$STYLESHEET
  1

  9
$XEDIT
290
     1
  9
$CEPSNTYPE
380
     0
  9
$PSTYLEMODE
290
     1
  9
$FINGERPRINTGUID
  2
{78B54D31-4929-924D-BA75-6901BC2A9366}
  9
$VERSIONGUID
  2
{1F668752-FC64-7543-ABEA-FECB59D3E52E}
  9
$EXTNAMES
290
     1
  9
$PSVPSCALE
 40
0.0
  9
$OLESTARTUP
290
     0
  9
$SORTENTS
280
   127
  9
$INDEXCTL
280
     0
  9
$HIDETEXT
280
     1
  9
$XCLIPFRAME
280
     2
  9
$HALOGAP
280
     0
  9
$OBSCOLOR
 70
   257
  9
$OBSLTYPE
280
     0
  9
$INTERSECTIONDISPLAY
280
     0
  9
$INTERSECTIONCOLOR
 70
   257
  9
$DIMASSOC
280
     2
  9
$PROJECTNAME
  1

  9
$CAMERADISPLAY
290
     0
  9
$LENSLENGTH
 40
50.0
  9
$CAMERAHEIGHT
 40
0.0
  9
$STEPSPERSEC
 40
2.0
  9
$STEPSIZE
 40
6.0
  9
$3DDWFPREC
 40
2.0
  9
$PSOLWIDTH
 40
0.25
  9
$PSOLHEIGHT
 40
4.0
  9
$LOFTANG1
 40
1.570796326794896
  9
$LOFTANG2
 40
1.570796326794896
  9
$LOFTMAG1
 40
0.0
  9
$LOFTMAG2
 40
0.0
  9
$LOFTPARAM
 70
     7
  9
$LOFTNORMALS
280
     1
  9
$LATITUDE
 40
37.795
  9
$LONGITUDE
 40
-122.394
  9
$NORTHDIRECTION
 40
0.0
  9
$TIMEZONE
 70
 -8000
  9
$LIGHTGLYPHDISPLAY
280
     1
  9
$TILEMODELIGHTSYNCH
280
     1
  9
$CMATERIAL
347
11
  9
$SOLIDHIST
280
     0
  9
$SHOWHIST
280
     1
  9
$DWFFRAME
280
     2
  9
$DGNFRAME
280
     0
  9
$REALWORLDSCALE
290
     1
  9
$INTERFERECOLOR
 62
     1
  9
$INTERFEREOBJVS
345
33
  9
$INTERFEREVPVS
346
30
  9
$CSHADOW
280
     0
  9
$SHADOWPLANELOCATION
 40
0.0
  0
ENDSEC
  0
SECTION
  2
CLASSES
  0
CLASS
  1
ACDBDICTIONARYWDFLT
  2
AcDbDictionaryWithDefault
  3
ObjectDBX Classes
 90
        0
 91
        1
280
     0
281
     0
  0
CLASS
  1
MATERIAL
  2
AcDbMaterial
  3
ObjectDBX Classes
 90
     1153
 91
        3
280
     0
281
     0
  0
CLASS
  1
VISUALSTYLE
  2
AcDbVisualStyle
  3
ObjectDBX Classes
 90
     4095
 91
       24
280
     0
281
     0
  0
CLASS
  1
SCALE
  2
AcDbScale
  3
ObjectDBX Classes
 90
     1153
 91
       17
280
     0
281
     0
  0
CLASS
  1
TABLESTYLE
  2
AcDbTableStyle
  3
ObjectDBX Classes
 90
     4095
 91
        1
280
     0
281
     0
  0
CLASS
  1
MLEADERSTYLE
  2
AcDbMLeaderStyle
  3
ACDB_MLEADERSTYLE_CLASS
 90
     4095
 91
        1
280
     0
281
     0
  0
CLASS
  1
ACDBSECTIONVIEWSTYLE
  2
AcDbSectionViewStyle
  3
ObjectDBX Classes
 90
     1025
 91
        1
280
     0
281
     0
  0
CLASS
  1
ACDBDETAILVIEWSTYLE
  2
AcDbDetailViewStyle
  3
ObjectDBX Classes
 90
     1025
 91
        1
280
     0
281
     0
  0
CLASS
  1
DICTIONARYVAR
  2
AcDbDictionaryVar
  3
ObjectDBX Classes
 90
        0
 91
        5
280
     0
281
     0
  0
CLASS
  1
CELLSTYLEMAP
  2
AcDbCellStyleMap
  3
ObjectDBX Classes
 90
     1152
 91
        1
280
     0
281
     0
  0
ENDSEC
  0
SECTION
  2
TABLES
  0
TABLE
  2
VPORT
  5
8
330
0
100
AcDbSymbolTable
 70
     1
  0
VPORT
  5
57
330
8
100
AcDbSymbolTableRecord
100
AcDbViewportTableRecord
  2
*Active
 70
     0
 10
0.0
 20
0.0
 11
1.0
 21
1.0
 12
0.0
 22
0.0
 13
0.0
 23
0.0
 14
1.0
 24
1.0
 15
0.0
 25
0.0
 16
0.0
 26
0.0
 36
1.0
 17
297.6377868652498
 27
420.9449157714998
 37
0.0
 40
858.7276281738596
 41
0.7070706301791172
 42
50.0
 43
0.0
 44
0.0
 50
0.0
 51
0.0
 71
     0
 72
   100
 73
     1
 74
     1
 75
     0
 76
     0
 77
     0
 78
     0
281
     0
 65
     1
110
0.0
120
0.0
130
0.0
111
1.0
121
0.0
131
0.0
112
0.0
122
1.0
132
0.0
 79
     0
146
0.0
 60
     3
 61
     5
292
     1
282
     1
141
0.0
142
0.0
 63
   250
421
  3355443
  0
ENDTAB
  0
TABLE
  2
LTYPE
  5
5
330
0
100
AcDbSymbolTable
 70
     1
  0
LTYPE
  5
5B
330
5
100
AcDbSymbolTableRecord
100
AcDbLinetypeTableRecord
  2
ByBlock
 70
     0
  3

 72
    65
 73
     0
 40
0.0
  0
LTYPE
  5
5C
330
5
100
AcDbSymbolTableRecord
100
AcDbLinetypeTableRecord
  2
ByLayer
 70
     0
  3

 72
    65
 73
     0
 40
0.0
  0
LTYPE
  5
5D
330
5
100
AcDbSymbolTableRecord
100
AcDbLinetypeTableRecord
  2
Continuous
 70
     0
  3
Solid line
 72
    65
 73
     0
 40
0.0
  0
ENDTAB
  0
TABLE
  2
LAYER
  5
2
330
0
100
AcDbSymbolTable
 70
     2
  0
LAYER
  5
54
330
2
100
AcDbSymbolTableRecord
100
AcDbLayerTableRecord
  2
0
 70
     0
 62
     7
  6
Continuous
370
    -3
390
F
347
21
348
0
  0
LAYER
  5
78
330
2
100
AcDbSymbolTableRecord
100
AcDbLayerTableRecord
  2
Layer 1
 70
     0
 62
     7
  6
Continuous
370
     0
390
F
347
21
348
0
  0
ENDTAB
  0
TABLE
  2
STYLE
  5
3
330
0
100
AcDbSymbolTable
 70
     2
  0
STYLE
  5
55
330
3
100
AcDbSymbolTableRecord
100
AcDbTextStyleTableRecord
  2
Standard
 70
     0
 40
0.0
 41
1.0
 50
0.0
 71
     0
 42
0.2
  3
txt
  4

  0
STYLE
  5
5A
330
3
100
AcDbSymbolTableRecord
100
AcDbTextStyleTableRecord
  2
Annotative
 70
     0
 40
0.0
 41
1.0
 50
0.0
 71
     0
 42
0.2
  3
txt
  4

1001
AcadAnnotative
1000
AnnotativeData
1002
{
1070
     1
1070
     1
1002
}
  0
ENDTAB
  0
TABLE
  2
VIEW
  5
6
330
0
100
AcDbSymbolTable
 70
     0
  0
ENDTAB
  0
TABLE
  2
UCS
  5
7
330
0
100
AcDbSymbolTable
 70
     0
  0
ENDTAB
  0
TABLE
  2
APPID
  5
9
330
0
100
AcDbSymbolTable
 70
     2
  0
APPID
  5
56
330
9
100
AcDbSymbolTableRecord
100
AcDbRegAppTableRecord
  2
ACAD
 70
     0
  0
APPID
  5
5E
330
9
100
AcDbSymbolTableRecord
100
AcDbRegAppTableRecord
  2
AcadAnnotative
 70
     0
  0
ENDTAB
  0
TABLE
  2
DIMSTYLE
  5
A
330
0
100
AcDbSymbolTable
 70
     2
100
AcDbDimStyleTable
 71
     0
  0
DIMSTYLE
105
58
330
A
100
AcDbSymbolTableRecord
100
AcDbDimStyleTableRecord
  2
Standard
 70
     0
340
55
  0
DIMSTYLE
105
59
330
A
100
AcDbSymbolTableRecord
100
AcDbDimStyleTableRecord
  2
Annotative
 70
     0
340
55
1001
AcadAnnotative
1000
AnnotativeData
1002
{
1070
     1
1070
     1
1002
}
  0
ENDTAB
  0
TABLE
  2
BLOCK_RECORD
  5
1
330
0
100
AcDbSymbolTable
 70
     1
  0
BLOCK_RECORD
  5
70
330
1
100
AcDbSymbolTableRecord
100
AcDbBlockTableRecord
  2
*Model_Space
340
73
 70
     0
280
     1
281
     0
  0
BLOCK_RECORD
  5
6C
330
1
100
AcDbSymbolTableRecord
100
AcDbBlockTableRecord
  2
*Paper_Space
340
6F
 70
     0
280
     1
281
     0
  0
BLOCK_RECORD
  5
74
330
1
100
AcDbSymbolTableRecord
100
AcDbBlockTableRecord
  2
*Paper_Space0
340
77
 70
     0
280
     1
281
     0
  0
ENDTAB
  0
ENDSEC
  0
SECTION
  2
BLOCKS
  0
BLOCK
  5
71
330
70
100
AcDbEntity
  8
0
100
AcDbBlockBegin
  2
*Model_Space
 70
     0
 10
0.0
 20
0.0
 30
0.0
  3
*Model_Space
  1

  0
ENDBLK
  5
72
330
70
100
AcDbEntity
  8
0
100
AcDbBlockEnd
  0
BLOCK
  5
6D
330
6C
100
AcDbEntity
 67
     1
  8
0
100
AcDbBlockBegin
  2
*Paper_Space
 70
     0
 10
0.0
 20
0.0
 30
0.0
  3
*Paper_Space
  1

  0
ENDBLK
  5
6E
330
6C
100
AcDbEntity
 67
     1
  8
0
100
AcDbBlockEnd
  0
BLOCK
  5
75
330
74
100
AcDbEntity
 67
     1
  8
0
100
AcDbBlockBegin
  2
*Paper_Space0
 70
     0
 10
0.0
 20
0.0
 30
0.0
  3
*Paper_Space0
  1

  0
ENDBLK
  5
76
330
74
100
AcDbEntity
 67
     1
  8
0
100
AcDbBlockEnd
  0
ENDSEC
  0
SECTION
  2
ENTITIES
  0
LINE
  5
79
330
70
100
AcDbEntity
  8
Layer 1
 62
   177
420
  3027346
370
     5
100
AcDbLine
 10
358.2728941853384
 20
397.8818938182048
 30
0.0
 11
358.2728941853384
 21
385.0676118641222
 31
0.0
  0
LINE
  5
7A
330
70
100
AcDbEntity
  8
Layer 1
 62
   177
420
  3027346
370
     5
100
AcDbLine
 10
372.0728941853395
 20
385.0676118641222
 30
0.0
 11
372.0728941853395
 21
397.8818938182048
 31
0.0
  0
LINE
  5
7B
330
70
100
AcDbEntity
  8
Layer 1
 62
   177
420
  3027346
370
     5
100
AcDbLine
 10
371.5800370424822
 20
398.3747509610639
 30
0.0
 11
358.7657513281938
 21
398.3747509610639
 31
0.0
  0
LINE
  5
7C
330
70
100
AcDbEntity
  8
Layer 1
 62
   177
420
  3027346
370
     5
100
AcDbLine
 10
358.7657513281938
 20
384.574754721265
 30
0.0
 11
371.5800370424822
 21
384.574754721265
 31
0.0
  0
SPLINE
  5
7D
330
70
100
AcDbEntity
  8
Layer 1
 62
   177
420
  3027346
370
     5
100
AcDbSpline
210
0.0
220
0.0
230
1.0
 70
     8
 71
     3
 72
     8
 73
     4
 74
     0
 42
0.0000000001
 43
0.0000000001
 40
0.0
 40
0.0
 40
0.0
 40
0.0
 40
1.0
 40
1.0
 40
1.0
 40
1.0
 10
358.7657513281938
 20
398.3747509610639
 30
0.0
 10
358.4935578554687
 20
398.3747509610639
 30
0.0
 10
358.2728941853384
 20
398.1540910511339
 30
0.0
 10
358.2728941853384
 20
397.8818938182048
 30
0.0
  0
SPLINE
  5
7E
330
70
100
AcDbEntity
  8
Layer 1
 62
   177
420
  3027346
370
     5
100
AcDbSpline
210
0.0
220
0.0
230
1.0
 70
     8
 71
     3
 72
     8
 73
     4
 74
     0
 42
0.0000000001
 43
0.0000000001
 40
0.0
 40
0.0
 40
0.0
 40
0.0
 40
1.0
 40
1.0
 40
1.0
 40
1.0
 10
372.0728941853395
 20
397.8818938182048
 30
0.0
 10
372.0728941853395
 20
398.1540910511339
 30
0.0
 10
371.8522305152073
 20
398.3747509610639
 30
0.0
 10
371.5800370424822
 20
398.3747509610639
 30
0.0
  0
SPLINE
  5
7F
330
70
100
AcDbEntity
  8
Layer 1
 62
   177
420
  3027346
370
     5
100
AcDbSpline
210
0.0
220
0.0
230
1.0
 70
     8
 71
     3
 72
     8
 73
     4
 74
     0
 42
0.0000000001
 43
0.0000000001
 40
0.0
 40
0.0
 40
0.0
 40
0.0
 40
1.0
 40
1.0
 40
1.0
 40
1.0
 10
371.5800370424822
 20
384.574754721265
 30
0.0
 10
371.8522305152073
 20
384.574754721265
 30
0.0
 10
372.0728941853395
 20
384.7954108709928
 30
0.0
 10
372.0728941853395
 20
385.0676118641222
 30
0.0
  0
SPLINE
  5
80
330
70
100
AcDbEntity
  8
Layer 1
 62
   177
420
  3027346
370
     5
100
AcDbSpline
210
0.0
220
0.0
230
1.0
 70
     8
 71
     3
 72
     8
 73
     4
 74
     0
 42
0.0000000001
 43
0.0000000001
 40
0.0
 40
0.0
 40
0.0
 40
0.0
 40
1.0
 40
1.0
 40
1.0
 40
1.0
 10
358.2728941853384
 20
385.0676118641222
 30
0.0
 10
358.2728941853384
 20
384.7954108709928
 30
0.0
 10
358.4935578554687
 20
384.574754721265
 30
0.0
 10
358.7657513281938
 20
384.574754721265
 30
0.0
  0
LINE
  5
81
330
70
100
AcDbEntity
  8
Layer 1
 62
   177
420
  3027346
370
     5
100
AcDbLine
 10
311.4228416392034
 20
385.0680868130785
 30
0.0
 11
311.4228416392034
 21
398.8814198954896
 31
0.0
  0
LINE
  5
82
330
70
100
AcDbEntity
  8
Layer 1
 62
   177
420
  3027346
370
     5
100
AcDbLine
 10
304.6228416392023
 20
398.8814198954896
 30
0.0
 11
304.6228416392023
 21
385.0680868130785
 31
0.0
  0
LINE
  5
83
330
70
100
AcDbEntity
  8
Layer 1
 62
   177
420
  3027346
370
     5
100
AcDbLine
 10
305.1085559249168
 20
384.5747533542835
 30
0.0
 11
310.9371273534889
 21
384.5747533542835
 31
0.0
  0
LINE
  5
84
330
70
100
AcDbEntity
  8
Layer 1
 62
   177
420
  3027346
370
     5
100
AcDbLine
 10
310.9371273534889
 20
399.3747533542846
 30
0.0
 11
305.1085559249168
 21
399.3747533542846
 31
0.0
  0
SPLINE
  5
85
330
70
100
AcDbEntity
  8
Layer 1
 62
   177
420
  3027346
370
     5
100
AcDbSpline
210
0.0
220
0.0
230
1.0
 70
     8
 71
     3
 72
     8
 73
     4
 74
     0
 42
0.0000000001
 43
0.0000000001
 40
0.0
 40
0.0
 40
0.0
 40
0.0
 40
1.0
 40
1.0
 40
1.0
 40
1.0
 10
310.9371273534889
 20
384.5747533542835
 30
0.0
 10
311.2053834046892
 20
384.5747533542835
 30
0.0
 10
311.4228416392034
 20
384.795622754531
 30
0.0
 10
311.4228416392034
 20
385.0680868130785
 30
0.0
  0
SPLINE
  5
86
330
70
100
AcDbEntity
  8
Layer 1
 62
   177
420
  3027346
370
     5
100
AcDbSpline
210
0.0
220
0.0
230
1.0
 70
     8
 71
     3
 72
     8
 73
     4
 74
     0
 42
0.0000000001
 43
0.0000000001
 40
0.0
 40
0.0
 40
0.0
 40
0.0
 40
1.0
 40
1.0
 40
1.0
 40
1.0
 10
304.6228416392023
 20
385.0680868130785
 30
0.0
 10
304.6228416392023
 20
384.795622754531
 30
0.0
 10
304.8402998737183
 20
384.5747533542835
 30
0.0
 10
305.1085559249168
 20
384.5747533542835
 30
0.0
  0
SPLINE
  5
87
330
70
100
AcDbEntity
  8
Layer 1
 62
   177
420
  3027346
370
     5
100
AcDbSpline
210
0.0
220
0.0
230
1.0
 70
     8
 71
     3
 72
     8
 73
     4
 74
     0
 42
0.0000000001
 43
0.0000000001
 40
0.0
 40
0.0
 40
0.0
 40
0.0
 40
1.0
 40
1.0
 40
1.0
 40
1.0
 10
305.1085559249168
 20
399.3747533542846
 30
0.0
 10
304.8402998737183
 20
399.3747533542846
 30
0.0
 10
304.6228416392023
 20
399.1538801902043
 30
0.0
 10
304.6228416392023
 20
398.8814198954896
 30
0.0
  0
SPLINE
  5
88
330
70
100
AcDbEntity
  8
Layer 1
 62
   177
420
  3027346
370
     5
100
AcDbSpline
210
0.0
220
0.0
230
1.0
 70
     8
 71
     3
 72
     8
 73
     4
 74
     0
 42
0.0000000001
 43
0.0000000001
 40
0.0
 40
0.0
 40
0.0
 40
0.0
 40
1.0
 40
1.0
 40
1.0
 40
1.0
 10
311.4228416392034
 20
398.8814198954896
 30
0.0
 10
311.4228416392034
 20
399.1538801902043
 30
0.0
 10
311.2053834046892
 20
399.3747533542846
 30
0.0
 10
310.9371273534889
 20
399.3747533542846
 30
0.0
  0
LINE
  5
89
330
70
100
AcDbEntity
  8
Layer 1
 62
   177
420
  3027346
370
     5
100
AcDbLine
 10
349.5228715836929
 20
385.0680868130785
 30
0.0
 11
349.5228715836929
 21
398.8814198954896
 31
0.0
  0
LINE
  5
8A
330
70
100
AcDbEntity
  8
Layer 1
 62
   177
420
  3027346
370
     5
100
AcDbLine
 10
342.7228715836918
 20
398.8814198954896
 30
0.0
 11
342.7228715836918
 21
385.0680868130785
 31
0.0
  0
LINE
  5
8B
330
70
100
AcDbEntity
  8
Layer 1
 62
   177
420
  3027346
370
     5
100
AcDbLine
 10
343.2085858694063
 20
384.5747533542835
 30
0.0
 11
349.0371572979766
 21
384.5747533542835
 31
0.0
  0
LINE
  5
8C
330
70
100
AcDbEntity
  8
Layer 1
 62
   177
420
  3027346
370
     5
100
AcDbLine
 10
349.0371572979766
 20
399.3747533542846
 30
0.0
 11
343.2085858694063
 21
399.3747533542846
 31
0.0
  0
SPLINE
  5
8D
330
70
100
AcDbEntity
  8
Layer 1
 62
   177
420
  3027346
370
     5
100
AcDbSpline
210
0.0
220
0.0
230
1.0
 70
     8
 71
     3
 72
     8
 73
     4
 74
     0
 42
0.0000000001
 43
0.0000000001
 40
0.0
 40
0.0
 40
0.0
 40
0.0
 40
1.0
 40
1.0
 40
1.0
 40
1.0
 10
349.0371572979766
 20
384.5747533542835
 30
0.0
 10
349.3054059377664
 20
384.5747533542835
 30
0.0
 10
349.5228715836929
 20
384.795622754531
 30
0.0
 10
349.5228715836929
 20
385.0680868130785
 30
0.0
  0
SPLINE
  5
8E
330
70
100
AcDbEntity
  8
Layer 1
 62
   177
420
  3027346
370
     5
100
AcDbSpline
210
0.0
220
0.0
230
1.0
 70
     8
 71
     3
 72
     8
 73
     4
 74
     0
 42
0.0000000001
 43
0.0000000001
 40
0.0
 40
0.0
 40
0.0
 40
0.0
 40
1.0
 40
1.0
 40
1.0
 40
1.0
 10
342.7228715836918
 20
385.0680868130785
 30
0.0
 10
342.7228715836918
 20
384.795622754531
 30
0.0
 10
342.9403372296201
 20
384.5747533542835
 30
0.0
 10
343.2085858694063
 20
384.5747533542835
 30
0.0
  0
SPLINE
  5
8F
330
70
100
AcDbEntity
  8
Layer 1
 62
   177
420
  3027346
370
     5
100
AcDbSpline
210
0.0
220
0.0
230
1.0
 70
     8
 71
     3
 72
     8
 73
     4
 74
     0
 42
0.0000000001
 43
0.0000000001
 40
0.0
 40
0.0
 40
0.0
 40
0.0
 40
1.0
 40
1.0
 40
1.0
 40
1.0
 10
343.2085858694063
 20
399.3747533542846
 30
0.0
 10
342.9403372296201
 20
399.3747533542846
 30
0.0
 10
342.7228715836918
 20
399.1538801902043
 30
0.0
 10
342.7228715836918
 20
398.8814198954896
 30
0.0
  0
SPLINE
  5
90
330
70
100
AcDbEntity
  8
Layer 1
 62
   177
420
  3027346
370
     5
100
AcDbSpline
210
0.0
220
0.0
230
1.0
 70
     8
 71
     3
 72
     8
 73
     4
 74
     0
 42
0.0000000001
 43
0.0000000001
 40
0.0
 40
0.0
 40
0.0
 40
0.0
 40
1.0
 40
1.0
 40
1.0
 40
1.0
 10
349.5228715836929
 20
398.8814198954896
 30
0.0
 10
349.5228715836929
 20
399.1538801902043
 30
0.0
 10
349.3054059377664
 20
399.3747533542846
 30
0.0
 10
349.0371572979766
 20
399.3747533542846
 30
0.0
  0
LINE
  5
91
330
70
100
AcDbEntity
  8
Layer 1
 62
   177
420
  3027346
370
     5
100
AcDbLine
 10
320.172856611447
 20
397.8818938688128
 30
0.0
 11
320.172856611447
 21
385.0676118135143
 31
0.0
  0
LINE
  5
92
330
70
100
AcDbEntity
  8
Layer 1
 62
   177
420
  3027346
370
     5
100
AcDbLine
 10
333.97286424085
 20
385.0676118135143
 30
0.0
 11
333.97286424085
 21
397.8818938688128
 31
0.0
  0
LINE
  5
93
330
70
100
AcDbEntity
  8
Layer 1
 62
   177
420
  3027346
370
     5
100
AcDbLine
 10
333.4800070941001
 20
398.3747510155645
 30
0.0
 11
320.6657137581951
 21
398.3747510155645
 31
0.0
  0
LINE
  5
94
330
70
100
AcDbEntity
  8
Layer 1
 62
   177
420
  3027346
370
     5
100
AcDbLine
 10
320.6657137581951
 20
384.5747546667644
 30
0.0
 11
333.4800070941001
 21
384.5747546667644
 31
0.0
  0
SPLINE
  5
95
330
70
100
AcDbEntity
  8
Layer 1
 62
   177
420
  3027346
370
     5
100
AcDbSpline
210
0.0
220
0.0
230
1.0
 70
     8
 71
     3
 72
     8
 73
     4
 74
     0
 42
0.0000000001
 43
0.0000000001
 40
0.0
 40
0.0
 40
0.0
 40
0.0
 40
1.0
 40
1.0
 40
1.0
 40
1.0
 10
320.6657137581951
 20
398.3747510155645
 30
0.0
 10
320.3935127629175
 20
398.3747510155645
 30
0.0
 10
320.172856611447
 20
398.1540911038901
 30
0.0
 10
320.172856611447
 20
397.8818938688128
 30
0.0
  0
SPLINE
  5
96
330
70
100
AcDbEntity
  8
Layer 1
 62
   177
420
  3027346
370
     5
100
AcDbSpline
210
0.0
220
0.0
230
1.0
 70
     8
 71
     3
 72
     8
 73
     4
 74
     0
 42
0.0000000001
 43
0.0000000001
 40
0.0
 40
0.0
 40
0.0
 40
0.0
 40
1.0
 40
1.0
 40
1.0
 40
1.0
 10
333.97286424085
 20
397.8818938688128
 30
0.0
 10
333.97286424085
 20
398.1540911038901
 30
0.0
 10
333.7522005689752
 20
398.3747510155645
 30
0.0
 10
333.4800070941001
 20
398.3747510155645
 30
0.0
  0
SPLINE
  5
97
330
70
100
AcDbEntity
  8
Layer 1
 62
   177
420
  3027346
370
     5
100
AcDbSpline
210
0.0
220
0.0
230
1.0
 70
     8
 71
     3
 72
     8
 73
     4
 74
     0
 42
0.0000000001
 43
0.0000000001
 40
0.0
 40
0.0
 40
0.0
 40
0.0
 40
1.0
 40
1.0
 40
1.0
 40
1.0
 10
333.4800070941001
 20
384.5747546667644
 30
0.0
 10
333.7522005689752
 20
384.5747546667644
 30
0.0
 10
333.97286424085
 20
384.7954108182366
 30
0.0
 10
333.97286424085
 20
385.0676118135143
 30
0.0
  0
SPLINE
  5
98
330
70
100
AcDbEntity
  8
Layer 1
 62
   177
420
  3027346
370
     5
100
AcDbSpline
210
0.0
220
0.0
230
1.0
 70
     8
 71
     3
 72
     8
 73
     4
 74
     0
 42
0.0000000001
 43
0.0000000001
 40
0.0
 40
0.0
 40
0.0
 40
0.0
 40
1.0
 40
1.0
 40
1.0
 40
1.0
 10
320.172856611447
 20
385.0676118135143
 30
0.0
 10
320.172856611447
 20
384.7954108182366
 30
0.0
 10
320.3935127629175
 20
384.5747546667644
 30
0.0
 10
320.6657137581951
 20
384.5747546667644
 30
0.0
  0
LINE
  5
99
330
70
100
AcDbEntity
  8
Layer 1
 62
   177
420
  3027346
370
     5
100
AcDbLine
 10
254.2727814636646
 20
385.0680868130785
 30
0.0
 11
254.2727814636646
 21
398.8814198954896
 31
0.0
  0
LINE
  5
9A
330
70
100
AcDbEntity
  8
Layer 1
 62
   177
420
  3027346
370
     5
100
AcDbLine
 10
247.4727814636653
 20
398.8814198954896
 30
0.0
 11
247.4727814636653
 21
385.0680868130785
 31
0.0
  0
LINE
  5
9B
330
70
100
AcDbEntity
  8
Layer 1
 62
   177
420
  3027346
370
     5
100
AcDbLine
 10
247.9584957493789
 20
384.5747533542835
 30
0.0
 11
253.7870671779501
 21
384.5747533542835
 31
0.0
  0
LINE
  5
9C
330
70
100
AcDbEntity
  8
Layer 1
 62
   177
420
  3027346
370
     5
100
AcDbLine
 10
253.7870671779501
 20
399.3747533542846
 30
0.0
 11
247.9584957493789
 21
399.3747533542846
 31
0.0
  0
SPLINE
  5
9D
330
70
100
AcDbEntity
  8
Layer 1
 62
   177
420
  3027346
370
     5
100
AcDbSpline
210
0.0
220
0.0
230
1.0
 70
     8
 71
     3
 72
     8
 73
     4
 74
     0
 42
0.0000000001
 43
0.0000000001
 40
0.0
 40
0.0
 40
0.0
 40
0.0
 40
1.0
 40
1.0
 40
1.0
 40
1.0
 10
253.7870671779501
 20
384.5747533542835
 30
0.0
 10
254.0553195234434
 20
384.5747533542835
 30
0.0
 10
254.2727814636646
 20
384.795622754531
 30
0.0
 10
254.2727814636646
 20
385.0680868130785
 30
0.0
  0
SPLINE
  5
9E
330
70
100
AcDbEntity
  8
Layer 1
 62
   177
420
  3027346
370
     5
100
AcDbSpline
210
0.0
220
0.0
230
1.0
 70
     8
 71
     3
 72
     8
 73
     4
 74
     0
 42
0.0000000001
 43
0.0000000001
 40
0.0
 40
0.0
 40
0.0
 40
0.0
 40
1.0
 40
1.0
 40
1.0
 40
1.0
 10
247.4727814636653
 20
385.0680868130785
 30
0.0
 10
247.4727814636653
 20
384.795622754531
 30
0.0
 10
247.6902434038857
 20
384.5747533542835
 30
0.0
 10
247.9584957493789
 20
384.5747533542835
 30
0.0
  0
SPLINE
  5
9F
330
70
100
AcDbEntity
  8
Layer 1
 62
   177
420
  3027346
370
     5
100
AcDbSpline
210
0.0
220
0.0
230
1.0
 70
     8
 71
     3
 72
     8
 73
     4
 74
     0
 42
0.0000000001
 43
0.0000000001
 40
0.0
 40
0.0
 40
0.0
 40
0.0
 40
1.0
 40
1.0
 40
1.0
 40
1.0
 10
247.9584957493789
 20
399.3747533542846
 30
0.0
 10
247.6902434038857
 20
399.3747533542846
 30
0.0
 10
247.4727814636653
 20
399.1538801902043
 30
0.0
 10
247.4727814636653
 20
398.8814198954896
 30
0.0
  0
SPLINE
  5
A0
330
70
100
AcDbEntity
  8
Layer 1
 62
   177
420
  3027346
370
     5
100
AcDbSpline
210
0.0
220
0.0
230
1.0
 70
     8
 71
     3
 72
     8
 73
     4
 74
     0
 42
0.0000000001
 43
0.0000000001
 40
0.0
 40
0.0
 40
0.0
 40
0.0
 40
1.0
 40
1.0
 40
1.0
 40
1.0
 10
254.2727814636646
 20
398.8814198954896
 30
0.0
 10
254.2727814636646
 20
399.1538801902043
 30
0.0
 10
254.0553195234434
 20
399.3747533542846
 30
0.0
 10
253.7870671779501
 20
399.3747533542846
 30
0.0
  0
LINE
  5
A1
330
70
100
AcDbEntity
  8
Layer 1
 62
   177
420
  3027346
370
     5
100
AcDbLine
 10
292.3728190375559
 20
385.0680868130785
 30
0.0
 11
292.3728190375559
 21
398.8814198954896
 31
0.0
  0
LINE
  5
A2
330
70
100
AcDbEntity
  8
Layer 1
 62
   177
420
  3027346
370
     5
100
AcDbLine
 10
285.5728190375566
 20
398.8814198954896
 30
0.0
 11
285.5728190375566
 21
385.0680868130785
 31
0.0
  0
LINE
  5
A3
330
70
100
AcDbEntity
  8
Layer 1
 62
   177
420
  3027346
370
     5
100
AcDbLine
 10
286.0585333232702
 20
384.5747533542835
 30
0.0
 11
291.8871047518424
 21
384.5747533542835
 31
0.0
  0
LINE
  5
A4
330
70
100
AcDbEntity
  8
Layer 1
 62
   177
420
  3027346
370
     5
100
AcDbLine
 10
291.8871047518424
 20
399.3747533542846
 30
0.0
 11
286.0585333232702
 21
399.3747533542846
 31
0.0
  0
SPLINE
  5
A5
330
70
100
AcDbEntity
  8
Layer 1
 62
   177
420
  3027346
370
     5
100
AcDbSpline
210
0.0
220
0.0
230
1.0
 70
     8
 71
     3
 72
     8
 73
     4
 74
     0
 42
0.0000000001
 43
0.0000000001
 40
0.0
 40
0.0
 40
0.0
 40
0.0
 40
1.0
 40
1.0
 40
1.0
 40
1.0
 10
291.8871047518424
 20
384.5747533542835
 30
0.0
 10
292.1553608030408
 20
384.5747533542835
 30
0.0
 10
292.3728190375559
 20
384.795622754531
 30
0.0
 10
292.3728190375559
 20
385.0680868130785
 30
0.0
  0
SPLINE
  5
A6
330
70
100
AcDbEntity
  8
Layer 1
 62
   177
420
  3027346
370
     5
100
AcDbSpline
210
0.0
220
0.0
230
1.0
 70
     8
 71
     3
 72
     8
 73
     4
 74
     0
 42
0.0000000001
 43
0.0000000001
 40
0.0
 40
0.0
 40
0.0
 40
0.0
 40
1.0
 40
1.0
 40
1.0
 40
1.0
 10
285.5728190375566
 20
385.0680868130785
 30
0.0
 10
285.5728190375566
 20
384.795622754531
 30
0.0
 10
285.7902772720708
 20
384.5747533542835
 30
0.0
 10
286.0585333232702
 20
384.5747533542835
 30
0.0
  0
SPLINE
  5
A7
330
70
100
AcDbEntity
  8
Layer 1
 62
   177
420
  3027346
370
     5
100
AcDbSpline
210
0.0
220
0.0
230
1.0
 70
     8
 71
     3
 72
     8
 73
     4
 74
     0
 42
0.0000000001
 43
0.0000000001
 40
0.0
 40
0.0
 40
0.0
 40
0.0
 40
1.0
 40
1.0
 40
1.0
 40
1.0
 10
286.0585333232702
 20
399.3747533542846
 30
0.0
 10
285.7902772720708
 20
399.3747533542846
 30
0.0
 10
285.5728190375566
 20
399.1538801902043
 30
0.0
 10
285.5728190375566
 20
398.8814198954896
 30
0.0
  0
SPLINE
  5
A8
330
70
100
AcDbEntity
  8
Layer 1
 62
   177
420
  3027346
370
     5
100
AcDbSpline
210
0.0
220
0.0
230
1.0
 70
     8
 71
     3
 72
     8
 73
     4
 74
     0
 42
0.0000000001
 43
0.0000000001
 40
0.0
 40
0.0
 40
0.0
 40
0.0
 40
1.0
 40
1.0
 40
1.0
 40
1.0
 10
292.3728190375559
 20
398.8814198954896
 30
0.0
 10
292.3728190375559
 20
399.1538801902043
 30
0.0
 10
292.1553608030408
 20
399.3747533542846
 30
0.0
 10
291.8871047518424
 20
399.3747533542846
 30
0.0
  0
LINE
  5
A9
330
70
100
AcDbEntity
  8
Layer 1
 62
   177
420
  3027346
370
     5
100
AcDbLine
 10
263.0228040653119
 20
397.8818938182048
 30
0.0
 11
263.0228040653119
 21
385.0676118641222
 31
0.0
  0
LINE
  5
AA
330
70
100
AcDbEntity
  8
Layer 1
 62
   177
420
  3027346
370
     5
100
AcDbLine
 10
276.8228040653112
 20
385.0676118641222
 30
0.0
 11
276.8228040653112
 21
397.8818938182048
 31
0.0
  0
LINE
  5
AB
330
70
100
AcDbEntity
  8
Layer 1
 62
   177
420
  3027346
370
     5
100
AcDbLine
 10
276.3299469224539
 20
398.3747509610639
 30
0.0
 11
263.5156612081691
 21
398.3747509610639
 31
0.0
  0
LINE
  5
AC
330
70
100
AcDbEntity
  8
Layer 1
 62
   177
420
  3027346
370
     5
100
AcDbLine
 10
263.5156612081691
 20
384.574754721265
 30
0.0
 11
276.3299469224539
 21
384.574754721265
 31
0.0
  0
SPLINE
  5
AD
330
70
100
AcDbEntity
  8
Layer 1
 62
   177
420
  3027346
370
     5
100
AcDbSpline
210
0.0
220
0.0
230
1.0
 70
     8
 71
     3
 72
     8
 73
     4
 74
     0
 42
0.0000000001
 43
0.0000000001
 40
0.0
 40
0.0
 40
0.0
 40
0.0
 40
1.0
 40
1.0
 40
1.0
 40
1.0
 10
263.5156612081691
 20
398.3747509610639
 30
0.0
 10
263.2434602150388
 20
398.3747509610639
 30
0.0
 10
263.0228040653119
 20
398.1540910511339
 30
0.0
 10
263.0228040653119
 20
397.8818938182048
 30
0.0
  0
SPLINE
  5
AE
330
70
100
AcDbEntity
  8
Layer 1
 62
   177
420
  3027346
370
     5
100
AcDbSpline
210
0.0
220
0.0
230
1.0
 70
     8
 71
     3
 72
     8
 73
     4
 74
     0
 42
0.0000000001
 43
0.0000000001
 40
0.0
 40
0.0
 40
0.0
 40
0.0
 40
1.0
 40
1.0
 40
1.0
 40
1.0
 10
276.8228040653112
 20
397.8818938182048
 30
0.0
 10
276.8228040653112
 20
398.1540910511339
 30
0.0
 10
276.6021479155843
 20
398.3747509610639
 30
0.0
 10
276.3299469224539
 20
398.3747509610639
 30
0.0
  0
SPLINE
  5
AF
330
70
100
AcDbEntity
  8
Layer 1
 62
   177
420
  3027346
370
     5
100
AcDbSpline
210
0.0
220
0.0
230
1.0
 70
     8
 71
     3
 72
     8
 73
     4
 74
     0
 42
0.0000000001
 43
0.0000000001
 40
0.0
 40
0.0
 40
0.0
 40
0.0
 40
1.0
 40
1.0
 40
1.0
 40
1.0
 10
276.3299469224539
 20
384.574754721265
 30
0.0
 10
276.6021479155843
 20
384.574754721265
 30
0.0
 10
276.8228040653112
 20
384.7954108709928
 30
0.0
 10
276.8228040653112
 20
385.0676118641222
 30
0.0
  0
SPLINE
  5
B0
330
70
100
AcDbEntity
  8
Layer 1
 62
   177
420
  3027346
370
     5
100
AcDbSpline
210
0.0
220
0.0
230
1.0
 70
     8
 71
     3
 72
     8
 73
     4
 74
     0
 42
0.0000000001
 43
0.0000000001
 40
0.0
 40
0.0
 40
0.0
 40
0.0
 40
1.0
 40
1.0
 40
1.0
 40
1.0
 10
263.0228040653119
 20
385.0676118641222
 30
0.0
 10
263.0228040653119
 20
384.7954108709928
 30
0.0
 10
263.2434602150388
 20
384.574754721265
 30
0.0
 10
263.5156612081691
 20
384.574754721265
 30
0.0
  0
LINE
  5
B1
330
70
100
AcDbEntity
  8
Layer 1
 62
   177
420
  3027346
370
     5
100
AcDbLine
 10
224.9227607693693
 20
397.8818938308577
 30
0.0
 11
224.9227607693693
 21
385.0676118514694
 31
0.0
  0
LINE
  5
B2
330
70
100
AcDbEntity
  8
Layer 1
 62
   177
420
  3027346
370
     5
100
AcDbLine
 10
238.7227626767189
 20
385.0676118514694
 30
0.0
 11
238.7227626767189
 21
397.8818938308577
 31
0.0
  0
LINE
  5
B3
330
70
100
AcDbEntity
  8
Layer 1
 62
   177
420
  3027346
370
     5
100
AcDbLine
 10
238.2299055328886
 20
398.3747509746899
 30
0.0
 11
225.4156197932998
 21
398.3747509746899
 31
0.0
  0
LINE
  5
B4
330
70
100
AcDbEntity
  8
Layer 1
 62
   177
420
  3027346
370
     5
100
AcDbLine
 10
225.4156197932998
 20
384.5747547076389
 30
0.0
 11
238.2299055328886
 21
384.5747547076389
 31
0.0
  0
SPLINE
  5
B5
330
70
100
AcDbEntity
  8
Layer 1
 62
   177
420
  3027346
370
     5
100
AcDbSpline
210
0.0
220
0.0
230
1.0
 70
     8
 71
     3
 72
    11
 73
     7
 74
     0
 42
0.0000000001
 43
0.0000000001
 40
0.0
 40
0.0
 40
0.0
 40
0.0
 40
1.0
 40
1.0
 40
1.0
 40
2.0
 40
2.0
 40
2.0
 40
2.0
 10
225.4156197932998
 20
398.3747509746899
 30
0.0
 10
225.143422559835
 20
398.3747509746899
 30
0.0
 10
224.9227626494694
 20
398.1540948245256
 30
0.0
 10
224.9227607693693
 20
397.8818975910599
 30
0.0
 10
224.9227607693693
 20
397.8818938308577
 30
0.0
 10
224.9227607693693
 20
397.8818938308577
 30
0.0
 10
224.9227607693693
 20
397.8818938308577
 30
0.0
  0
SPLINE
  5
B6
330
70
100
AcDbEntity
  8
Layer 1
 62
   177
420
  3027346
370
     5
100
AcDbSpline
210
0.0
220
0.0
230
1.0
 70
     8
 71
     3
 72
     8
 73
     4
 74
     0
 42
0.0000000001
 43
0.0000000001
 40
0.0
 40
0.0
 40
0.0
 40
0.0
 40
1.0
 40
1.0
 40
1.0
 40
1.0
 10
238.7227626767189
 20
397.8818938308577
 30
0.0
 10
238.7227626767189
 20
398.1540910643234
 30
0.0
 10
238.5021027663551
 20
398.3747509746899
 30
0.0
 10
238.2299055328886
 20
398.3747509746899
 30
0.0
  0
SPLINE
  5
B7
330
70
100
AcDbEntity
  8
Layer 1
 62
   177
420
  3027346
370
     5
100
AcDbSpline
210
0.0
220
0.0
230
1.0
 70
     8
 71
     3
 72
     8
 73
     4
 74
     0
 42
0.0000000001
 43
0.0000000001
 40
0.0
 40
0.0
 40
0.0
 40
0.0
 40
1.0
 40
1.0
 40
1.0
 40
1.0
 10
238.2299055328886
 20
384.5747547076389
 30
0.0
 10
238.5021027663551
 20
384.5747547076389
 30
0.0
 10
238.7227626767189
 20
384.7954108578033
 30
0.0
 10
238.7227626767189
 20
385.0676118514694
 30
0.0
  0
SPLINE
  5
B8
330
70
100
AcDbEntity
  8
Layer 1
 62
   177
420
  3027346
370
     5
100
AcDbSpline
210
0.0
220
0.0
230
1.0
 70
     8
 71
     3
 72
    11
 73
     7
 74
     0
 42
0.0000000001
 43
0.0000000001
 40
0.0
 40
0.0
 40
0.0
 40
0.0
 40
1.0
 40
1.0
 40
1.0
 40
2.0
 40
2.0
 40
2.0
 40
2.0
 10
224.9227607693693
 20
385.0676118514694
 30
0.0
 10
224.9227607693693
 20
384.7954108578033
 30
0.0
 10
225.1434187996328
 20
384.5747547076389
 30
0.0
 10
225.4156160330985
 20
384.5747547076389
 30
0.0
 10
225.4156197932998
 20
384.5747547076389
 30
0.0
 10
225.4156197932998
 20
384.5747547076389
 30
0.0
 10
225.4156197932998
 20
384.5747547076389
 30
0.0
  0
LINE
  5
B9
330
70
100
AcDbEntity
  8
Layer 1
 62
   177
420
  3027346
370
     5
100
AcDbLine
 10
367.7979131155626
 20
416.9319125779038
 30
0.0
 11
367.7979131155626
 21
404.1176268636154
 31
0.0
  0
LINE
  5
BA
330
70
100
AcDbEntity
  8
Layer 1
 62
   177
420
  3027346
370
     5
100
AcDbLine
 10
381.5979131155655
 20
404.1176268636154
 30
0.0
 11
381.5979131155655
 21
416.9319125779038
 31
0.0
  0
LINE
  5
BB
330
70
100
AcDbEntity
  8
Layer 1
 62
   177
420
  3027346
370
     5
100
AcDbLine
 10
381.1050559727082
 20
417.4247697207593
 30
0.0
 11
368.2907702584216
 21
417.4247697207593
 31
0.0
  0
LINE
  5
BC
330
70
100
AcDbEntity
  8
Layer 1
 62
   177
420
  3027346
370
     5
100
AcDbLine
 10
368.2907702584216
 20
403.6247697207581
 30
0.0
 11
381.1050559727082
 21
403.6247697207581
 31
0.0
  0
SPLINE
  5
BD
330
70
100
AcDbEntity
  8
Layer 1
 62
   177
420
  3027346
370
     5
100
AcDbSpline
210
0.0
220
0.0
230
1.0
 70
     8
 71
     3
 72
     8
 73
     4
 74
     0
 42
0.0000000001
 43
0.0000000001
 40
0.0
 40
0.0
 40
0.0
 40
0.0
 40
1.0
 40
1.0
 40
1.0
 40
1.0
 10
368.2907702584216
 20
417.4247697207593
 30
0.0
 10
368.0185767856947
 20
417.4247697207593
 30
0.0
 10
367.7979131155626
 20
417.2041098108293
 30
0.0
 10
367.7979131155626
 20
416.9319125779038
 30
0.0
  0
SPLINE
  5
BE
330
70
100
AcDbEntity
  8
Layer 1
 62
   177
420
  3027346
370
     5
100
AcDbSpline
210
0.0
220
0.0
230
1.0
 70
     8
 71
     3
 72
     8
 73
     4
 74
     0
 42
0.0000000001
 43
0.0000000001
 40
0.0
 40
0.0
 40
0.0
 40
0.0
 40
1.0
 40
1.0
 40
1.0
 40
1.0
 10
381.5979131155655
 20
416.9319125779038
 30
0.0
 10
381.5979131155655
 20
417.2041098108293
 30
0.0
 10
381.3772494454333
 20
417.4247697207593
 30
0.0
 10
381.1050559727082
 20
417.4247697207593
 30
0.0
  0
SPLINE
  5
BF
330
70
100
AcDbEntity
  8
Layer 1
 62
   177
420
  3027346
370
     5
100
AcDbSpline
210
0.0
220
0.0
230
1.0
 70
     8
 71
     3
 72
     8
 73
     4
 74
     0
 42
0.0000000001
 43
0.0000000001
 40
0.0
 40
0.0
 40
0.0
 40
0.0
 40
1.0
 40
1.0
 40
1.0
 40
1.0
 10
381.1050559727082
 20
403.6247697207581
 30
0.0
 10
381.3772494454333
 20
403.6247697207581
 30
0.0
 10
381.5979131155655
 20
403.8454296306899
 30
0.0
 10
381.5979131155655
 20
404.1176268636154
 30
0.0
  0
SPLINE
  5
C0
330
70
100
AcDbEntity
  8
Layer 1
 62
   177
420
  3027346
370
     5
100
AcDbSpline
210
0.0
220
0.0
230
1.0
 70
     8
 71
     3
 72
     8
 73
     4
 74
     0
 42
0.0000000001
 43
0.0000000001
 40
0.0
 40
0.0
 40
0.0
 40
0.0
 40
1.0
 40
1.0
 40
1.0
 40
1.0
 10
367.7979131155626
 20
404.1176268636154
 30
0.0
 10
367.7979131155626
 20
403.8454296306899
 30
0.0
 10
368.0185767856947
 20
403.6247697207581
 30
0.0
 10
368.2907702584216
 20
403.6247697207581
 30
0.0
  0
LINE
  5
C1
330
70
100
AcDbEntity
  8
Layer 1
 62
   177
420
  3027346
370
     5
100
AcDbLine
 10
348.747890513916
 20
416.9319125779038
 30
0.0
 11
348.747890513916
 21
404.1176268636154
 31
0.0
  0
LINE
  5
C2
330
70
100
AcDbEntity
  8
Layer 1
 62
   177
420
  3027346
370
     5
100
AcDbLine
 10
362.5478905139189
 20
404.1176268636154
 30
0.0
 11
362.5478905139189
 21
416.9319125779038
 31
0.0
  0
LINE
  5
C3
330
70
100
AcDbEntity
  8
Layer 1
 62
   177
420
  3027346
370
     5
100
AcDbLine
 10
362.0550333710617
 20
417.4247697207593
 30
0.0
 11
349.2407476567732
 21
417.4247697207593
 31
0.0
  0
LINE
  5
C4
330
70
100
AcDbEntity
  8
Layer 1
 62
   177
420
  3027346
370
     5
100
AcDbLine
 10
349.2407476567732
 20
403.6247697207581
 30
0.0
 11
362.0550333710617
 21
403.6247697207581
 31
0.0
  0
SPLINE
  5
C5
330
70
100
AcDbEntity
  8
Layer 1
 62
   177
420
  3027346
370
     5
100
AcDbSpline
210
0.0
220
0.0
230
1.0
 70
     8
 71
     3
 72
     8
 73
     4
 74
     0
 42
0.0000000001
 43
0.0000000001
 40
0.0
 40
0.0
 40
0.0
 40
0.0
 40
1.0
 40
1.0
 40
1.0
 40
1.0
 10
349.2407476567732
 20
417.4247697207593
 30
0.0
 10
348.9685541840481
 20
417.4247697207593
 30
0.0
 10
348.747890513916
 20
417.2041098108293
 30
0.0
 10
348.747890513916
 20
416.9319125779038
 30
0.0
  0
SPLINE
  5
C6
330
70
100
AcDbEntity
  8
Layer 1
 62
   177
420
  3027346
370
     5
100
AcDbSpline
210
0.0
220
0.0
230
1.0
 70
     8
 71
     3
 72
     8
 73
     4
 74
     0
 42
0.0000000001
 43
0.0000000001
 40
0.0
 40
0.0
 40
0.0
 40
0.0
 40
1.0
 40
1.0
 40
1.0
 40
1.0
 10
362.5478905139189
 20
416.9319125779038
 30
0.0
 10
362.5478905139189
 20
417.2041098108293
 30
0.0
 10
362.3272268437868
 20
417.4247697207593
 30
0.0
 10
362.0550333710617
 20
417.4247697207593
 30
0.0
  0
SPLINE
  5
C7
330
70
100
AcDbEntity
  8
Layer 1
 62
   177
420
  3027346
370
     5
100
AcDbSpline
210
0.0
220
0.0
230
1.0
 70
     8
 71
     3
 72
     8
 73
     4
 74
     0
 42
0.0000000001
 43
0.0000000001
 40
0.0
 40
0.0
 40
0.0
 40
0.0
 40
1.0
 40
1.0
 40
1.0
 40
1.0
 10
362.0550333710617
 20
403.6247697207581
 30
0.0
 10
362.3272268437868
 20
403.6247697207581
 30
0.0
 10
362.5478905139189
 20
403.8454296306899
 30
0.0
 10
362.5478905139189
 20
404.1176268636154
 30
0.0
  0
SPLINE
  5
C8
330
70
100
AcDbEntity
  8
Layer 1
 62
   177
420
  3027346
370
     5
100
AcDbSpline
210
0.0
220
0.0
230
1.0
 70
     8
 71
     3
 72
     8
 73
     4
 74
     0
 42
0.0000000001
 43
0.0000000001
 40
0.0
 40
0.0
 40
0.0
 40
0.0
 40
1.0
 40
1.0
 40
1.0
 40
1.0
 10
348.747890513916
 20
404.1176268636154
 30
0.0
 10
348.747890513916
 20
403.8454296306899
 30
0.0
 10
348.9685541840481
 20
403.6247697207581
 30
0.0
 10
349.2407476567732
 20
403.6247697207581
 30
0.0
  0
LINE
  5
C9
330
70
100
AcDbEntity
  8
Layer 1
 62
   177
420
  3027346
370
     5
100
AcDbLine
 10
329.6978679122694
 20
416.9319125779038
 30
0.0
 11
329.6978679122694
 21
404.1176268636154
 31
0.0
  0
LINE
  5
CA
330
70
100
AcDbEntity
  8
Layer 1
 62
   177
420
  3027346
370
     5
100
AcDbLine
 10
343.4978679122723
 20
404.1176268636154
 30
0.0
 11
343.4978679122723
 21
416.9319125779038
 31
0.0
  0
LINE
  5
CB
330
70
100
AcDbEntity
  8
Layer 1
 62
   177
420
  3027346
370
     5
100
AcDbLine
 10
343.0050107694151
 20
417.4247697207593
 30
0.0
 11
330.1907250551267
 21
417.4247697207593
 31
0.0
  0
LINE
  5
CC
330
70
100
AcDbEntity
  8
Layer 1
 62
   177
420
  3027346
370
     5
100
AcDbLine
 10
330.1907250551267
 20
403.6247697207581
 30
0.0
 11
343.0050107694151
 21
403.6247697207581
 31
0.0
  0
SPLINE
  5
CD
330
70
100
AcDbEntity
  8
Layer 1
 62
   177
420
  3027346
370
     5
100
AcDbSpline
210
0.0
220
0.0
230
1.0
 70
     8
 71
     3
 72
     8
 73
     4
 74
     0
 42
0.0000000001
 43
0.0000000001
 40
0.0
 40
0.0
 40
0.0
 40
0.0
 40
1.0
 40
1.0
 40
1.0
 40
1.0
 10
330.1907250551267
 20
417.4247697207593
 30
0.0
 10
329.9185315824015
 20
417.4247697207593
 30
0.0
 10
329.6978679122694
 20
417.2041098108293
 30
0.0
 10
329.6978679122694
 20
416.9319125779038
 30
0.0
  0
SPLINE
  5
CE
330
70
100
AcDbEntity
  8
Layer 1
 62
   177
420
  3027346
370
     5
100
AcDbSpline
210
0.0
220
0.0
230
1.0
 70
     8
 71
     3
 72
     8
 73
     4
 74
     0
 42
0.0000000001
 43
0.0000000001
 40
0.0
 40
0.0
 40
0.0
 40
0.0
 40
1.0
 40
1.0
 40
1.0
 40
1.0
 10
343.4978679122723
 20
416.9319125779038
 30
0.0
 10
343.4978679122723
 20
417.2041098108293
 30
0.0
 10
343.2772042421402
 20
417.4247697207593
 30
0.0
 10
343.0050107694151
 20
417.4247697207593
 30
0.0
  0
SPLINE
  5
CF
330
70
100
AcDbEntity
  8
Layer 1
 62
   177
420
  3027346
370
     5
100
AcDbSpline
210
0.0
220
0.0
230
1.0
 70
     8
 71
     3
 72
     8
 73
     4
 74
     0
 42
0.0000000001
 43
0.0000000001
 40
0.0
 40
0.0
 40
0.0
 40
0.0
 40
1.0
 40
1.0
 40
1.0
 40
1.0
 10
343.0050107694151
 20
403.6247697207581
 30
0.0
 10
343.2772042421402
 20
403.6247697207581
 30
0.0
 10
343.4978679122723
 20
403.8454296306899
 30
0.0
 10
343.4978679122723
 20
404.1176268636154
 30
0.0
  0
SPLINE
  5
D0
330
70
100
AcDbEntity
  8
Layer 1
 62
   177
420
  3027346
370
     5
100
AcDbSpline
210
0.0
220
0.0
230
1.0
 70
     8
 71
     3
 72
     8
 73
     4
 74
     0
 42
0.0000000001
 43
0.0000000001
 40
0.0
 40
0.0
 40
0.0
 40
0.0
 40
1.0
 40
1.0
 40
1.0
 40
1.0
 10
329.6978679122694
 20
404.1176268636154
 30
0.0
 10
329.6978679122694
 20
403.8454296306899
 30
0.0
 10
329.9185315824015
 20
403.6247697207581
 30
0.0
 10
330.1907250551267
 20
403.6247697207581
 30
0.0
  0
LINE
  5
D1
330
70
100
AcDbEntity
  8
Layer 1
 62
   177
420
  3027346
370
     5
100
AcDbLine
 10
310.6478529400265
 20
416.9319125272959
 30
0.0
 11
310.6478529400265
 21
404.1176269142233
 31
0.0
  0
LINE
  5
D2
330
70
100
AcDbEntity
  8
Layer 1
 62
   177
420
  3027346
370
     5
100
AcDbLine
 10
324.447845310624
 20
404.1176269142233
 30
0.0
 11
324.447845310624
 21
416.9319125272959
 31
0.0
  0
LINE
  5
D3
330
70
100
AcDbEntity
  8
Layer 1
 62
   177
420
  3027346
370
     5
100
AcDbLine
 10
323.9549881716612
 20
417.4247696662587
 30
0.0
 11
311.1407100789893
 21
417.4247696662587
 31
0.0
  0
LINE
  5
D4
330
70
100
AcDbEntity
  8
Layer 1
 62
   177
420
  3027346
370
     5
100
AcDbLine
 10
311.1407100789893
 20
403.6247697752587
 30
0.0
 11
323.9549881716612
 21
403.6247697752587
 31
0.0
  0
SPLINE
  5
D5
330
70
100
AcDbEntity
  8
Layer 1
 62
   177
420
  3027346
370
     5
100
AcDbSpline
210
0.0
220
0.0
230
1.0
 70
     8
 71
     3
 72
     8
 73
     4
 74
     0
 42
0.0000000001
 43
0.0000000001
 40
0.0
 40
0.0
 40
0.0
 40
0.0
 40
1.0
 40
1.0
 40
1.0
 40
1.0
 10
311.1407100789893
 20
417.4247696662587
 30
0.0
 10
310.8685090880117
 20
417.4247696662587
 30
0.0
 10
310.6478529400265
 20
417.2041097580732
 30
0.0
 10
310.6478529400265
 20
416.9319125272959
 30
0.0
  0
SPLINE
  5
D6
330
70
100
AcDbEntity
  8
Layer 1
 62
   177
420
  3027346
370
     5
100
AcDbSpline
210
0.0
220
0.0
230
1.0
 70
     8
 71
     3
 72
     8
 73
     4
 74
     0
 42
0.0000000001
 43
0.0000000001
 40
0.0
 40
0.0
 40
0.0
 40
0.0
 40
1.0
 40
1.0
 40
1.0
 40
1.0
 10
324.447845310624
 20
416.9319125272959
 30
0.0
 10
324.447845310624
 20
417.2041097580732
 30
0.0
 10
324.2271816422363
 20
417.4247696662587
 30
0.0
 10
323.9549881716612
 20
417.4247696662587
 30
0.0
  0
SPLINE
  5
D7
330
70
100
AcDbEntity
  8
Layer 1
 62
   177
420
  3027346
370
     5
100
AcDbSpline
210
0.0
220
0.0
230
1.0
 70
     8
 71
     3
 72
     8
 73
     4
 74
     0
 42
0.0000000001
 43
0.0000000001
 40
0.0
 40
0.0
 40
0.0
 40
0.0
 40
1.0
 40
1.0
 40
1.0
 40
1.0
 10
323.9549881716612
 20
403.6247697752587
 30
0.0
 10
324.2271816422363
 20
403.6247697752587
 30
0.0
 10
324.447845310624
 20
403.8454296834461
 30
0.0
 10
324.447845310624
 20
404.1176269142233
 30
0.0
  0
SPLINE
  5
D8
330
70
100
AcDbEntity
  8
Layer 1
 62
   177
420
  3027346
370
     5
100
AcDbSpline
210
0.0
220
0.0
230
1.0
 70
     8
 71
     3
 72
     8
 73
     4
 74
     0
 42
0.0000000001
 43
0.0000000001
 40
0.0
 40
0.0
 40
0.0
 40
0.0
 40
1.0
 40
1.0
 40
1.0
 40
1.0
 10
310.6478529400265
 20
404.1176269142233
 30
0.0
 10
310.6478529400265
 20
403.8454296834461
 30
0.0
 10
310.8685090880117
 20
403.6247697752587
 30
0.0
 10
311.1407100789893
 20
403.6247697752587
 30
0.0
  0
LINE
  5
D9
330
70
100
AcDbEntity
  8
Layer 1
 62
   177
420
  3027346
370
     5
100
AcDbLine
 10
291.597830338379
 20
416.9319125779038
 30
0.0
 11
291.597830338379
 21
404.1176268636154
 31
0.0
  0
LINE
  5
DA
330
70
100
AcDbEntity
  8
Layer 1
 62
   177
420
  3027346
370
     5
100
AcDbLine
 10
305.397830338381
 20
404.1176268636154
 30
0.0
 11
305.397830338381
 21
416.9319125779038
 31
0.0
  0
LINE
  5
DB
330
70
100
AcDbEntity
  8
Layer 1
 62
   177
420
  3027346
370
     5
100
AcDbLine
 10
304.9049731955238
 20
417.4247697207593
 30
0.0
 11
292.0906874812363
 21
417.4247697207593
 31
0.0
  0
LINE
  5
DC
330
70
100
AcDbEntity
  8
Layer 1
 62
   177
420
  3027346
370
     5
100
AcDbLine
 10
292.0906874812363
 20
403.6247697207581
 30
0.0
 11
304.9049731955238
 21
403.6247697207581
 31
0.0
  0
SPLINE
  5
DD
330
70
100
AcDbEntity
  8
Layer 1
 62
   177
420
  3027346
370
     5
100
AcDbSpline
210
0.0
220
0.0
230
1.0
 70
     8
 71
     3
 72
     8
 73
     4
 74
     0
 42
0.0000000001
 43
0.0000000001
 40
0.0
 40
0.0
 40
0.0
 40
0.0
 40
1.0
 40
1.0
 40
1.0
 40
1.0
 10
292.0906874812363
 20
417.4247697207593
 30
0.0
 10
291.8184864881077
 20
417.4247697207593
 30
0.0
 10
291.597830338379
 20
417.2041098108293
 30
0.0
 10
291.597830338379
 20
416.9319125779038
 30
0.0
  0
SPLINE
  5
DE
330
70
100
AcDbEntity
  8
Layer 1
 62
   177
420
  3027346
370
     5
100
AcDbSpline
210
0.0
220
0.0
230
1.0
 70
     8
 71
     3
 72
     8
 73
     4
 74
     0
 42
0.0000000001
 43
0.0000000001
 40
0.0
 40
0.0
 40
0.0
 40
0.0
 40
1.0
 40
1.0
 40
1.0
 40
1.0
 10
305.397830338381
 20
416.9319125779038
 30
0.0
 10
305.397830338381
 20
417.2041098108293
 30
0.0
 10
305.1771741886514
 20
417.4247697207593
 30
0.0
 10
304.9049731955238
 20
417.4247697207593
 30
0.0
  0
SPLINE
  5
DF
330
70
100
AcDbEntity
  8
Layer 1
 62
   177
420
  3027346
370
     5
100
AcDbSpline
210
0.0
220
0.0
230
1.0
 70
     8
 71
     3
 72
     8
 73
     4
 74
     0
 42
0.0000000001
 43
0.0000000001
 40
0.0
 40
0.0
 40
0.0
 40
0.0
 40
1.0
 40
1.0
 40
1.0
 40
1.0
 10
304.9049731955238
 20
403.6247697207581
 30
0.0
 10
305.1771741886514
 20
403.6247697207581
 30
0.0
 10
305.397830338381
 20
403.8454296306899
 30
0.0
 10
305.397830338381
 20
404.1176268636154
 30
0.0
  0
SPLINE
  5
E0
330
70
100
AcDbEntity
  8
Layer 1
 62
   177
420
  3027346
370
     5
100
AcDbSpline
210
0.0
220
0.0
230
1.0
 70
     8
 71
     3
 72
     8
 73
     4
 74
     0
 42
0.0000000001
 43
0.0000000001
 40
0.0
 40
0.0
 40
0.0
 40
0.0
 40
1.0
 40
1.0
 40
1.0
 40
1.0
 10
291.597830338379
 20
404.1176268636154
 30
0.0
 10
291.597830338379
 20
403.8454296306899
 30
0.0
 10
291.8184864881077
 20
403.6247697207581
 30
0.0
 10
292.0906874812363
 20
403.6247697207581
 30
0.0
  0
LINE
  5
E1
330
70
100
AcDbEntity
  8
Layer 1
 62
   177
420
  3027346
370
     5
100
AcDbLine
 10
272.5478077367325
 20
416.9319125779038
 30
0.0
 11
272.5478077367325
 21
404.1176268636154
 31
0.0
  0
LINE
  5
E2
330
70
100
AcDbEntity
  8
Layer 1
 62
   177
420
  3027346
370
     5
100
AcDbLine
 10
286.3478077367327
 20
404.1176268636154
 30
0.0
 11
286.3478077367327
 21
416.9319125779038
 31
0.0
  0
LINE
  5
E3
330
70
100
AcDbEntity
  8
Layer 1
 62
   177
420
  3027346
370
     5
100
AcDbLine
 10
285.8549505938754
 20
417.4247697207593
 30
0.0
 11
273.0406648795897
 21
417.4247697207593
 31
0.0
  0
LINE
  5
E4
330
70
100
AcDbEntity
  8
Layer 1
 62
   177
420
  3027346
370
     5
100
AcDbLine
 10
273.0406648795897
 20
403.6247697207581
 30
0.0
 11
285.8549505938754
 21
403.6247697207581
 31
0.0
  0
SPLINE
  5
E5
330
70
100
AcDbEntity
  8
Layer 1
 62
   177
420
  3027346
370
     5
100
AcDbSpline
210
0.0
220
0.0
230
1.0
 70
     8
 71
     3
 72
     8
 73
     4
 74
     0
 42
0.0000000001
 43
0.0000000001
 40
0.0
 40
0.0
 40
0.0
 40
0.0
 40
1.0
 40
1.0
 40
1.0
 40
1.0
 10
273.0406648795897
 20
417.4247697207593
 30
0.0
 10
272.7684638864602
 20
417.4247697207593
 30
0.0
 10
272.5478077367325
 20
417.2041098108293
 30
0.0
 10
272.5478077367325
 20
416.9319125779038
 30
0.0
  0
SPLINE
  5
E6
330
70
100
AcDbEntity
  8
Layer 1
 62
   177
420
  3027346
370
     5
100
AcDbSpline
210
0.0
220
0.0
230
1.0
 70
     8
 71
     3
 72
     8
 73
     4
 74
     0
 42
0.0000000001
 43
0.0000000001
 40
0.0
 40
0.0
 40
0.0
 40
0.0
 40
1.0
 40
1.0
 40
1.0
 40
1.0
 10
286.3478077367327
 20
416.9319125779038
 30
0.0
 10
286.3478077367327
 20
417.2041098108293
 30
0.0
 10
286.1271515870048
 20
417.4247697207593
 30
0.0
 10
285.8549505938754
 20
417.4247697207593
 30
0.0
  0
SPLINE
  5
E7
330
70
100
AcDbEntity
  8
Layer 1
 62
   177
420
  3027346
370
     5
100
AcDbSpline
210
0.0
220
0.0
230
1.0
 70
     8
 71
     3
 72
     8
 73
     4
 74
     0
 42
0.0000000001
 43
0.0000000001
 40
0.0
 40
0.0
 40
0.0
 40
0.0
 40
1.0
 40
1.0
 40
1.0
 40
1.0
 10
285.8549505938754
 20
403.6247697207581
 30
0.0
 10
286.1271515870048
 20
403.6247697207581
 30
0.0
 10
286.3478077367327
 20
403.8454296306899
 30
0.0
 10
286.3478077367327
 20
404.1176268636154
 30
0.0
  0
SPLINE
  5
E8
330
70
100
AcDbEntity
  8
Layer 1
 62
   177
420
  3027346
370
     5
100
AcDbSpline
210
0.0
220
0.0
230
1.0
 70
     8
 71
     3
 72
     8
 73
     4
 74
     0
 42
0.0000000001
 43
0.0000000001
 40
0.0
 40
0.0
 40
0.0
 40
0.0
 40
1.0
 40
1.0
 40
1.0
 40
1.0
 10
272.5478077367325
 20
404.1176268636154
 30
0.0
 10
272.5478077367325
 20
403.8454296306899
 30
0.0
 10
272.7684638864602
 20
403.6247697207581
 30
0.0
 10
273.0406648795897
 20
403.6247697207581
 30
0.0
  0
LINE
  5
E9
330
70
100
AcDbEntity
  8
Layer 1
 62
   177
420
  3027346
370
     5
100
AcDbLine
 10
253.4977889497868
 20
416.931912603206
 30
0.0
 11
253.4977889497868
 21
404.1176268383132
 31
0.0
  0
LINE
  5
EA
330
70
100
AcDbEntity
  8
Layer 1
 62
   177
420
  3027346
370
     5
100
AcDbLine
 10
267.2977927644888
 20
404.1176268383132
 30
0.0
 11
267.2977927644888
 21
416.931912603206
 31
0.0
  0
LINE
  5
EB
330
70
100
AcDbEntity
  8
Layer 1
 62
   177
420
  3027346
370
     5
100
AcDbLine
 10
266.8049356196852
 20
417.4247697480077
 30
0.0
 11
253.9906460945904
 21
417.4247697480077
 31
0.0
  0
LINE
  5
EC
330
70
100
AcDbEntity
  8
Layer 1
 62
   177
420
  3027346
370
     5
100
AcDbLine
 10
253.9906460945904
 20
403.6247696935097
 30
0.0
 11
266.8049356196852
 21
403.6247696935097
 31
0.0
  0
SPLINE
  5
ED
330
70
100
AcDbEntity
  8
Layer 1
 62
   177
420
  3027346
370
     5
100
AcDbSpline
210
0.0
220
0.0
230
1.0
 70
     8
 71
     3
 72
     8
 73
     4
 74
     0
 42
0.0000000001
 43
0.0000000001
 40
0.0
 40
0.0
 40
0.0
 40
0.0
 40
1.0
 40
1.0
 40
1.0
 40
1.0
 10
253.9906460945904
 20
417.4247697480077
 30
0.0
 10
253.718448860588
 20
417.4247697480077
 30
0.0
 10
253.4977889497868
 20
417.2041098372083
 30
0.0
 10
253.4977889497868
 20
416.931912603206
 30
0.0
  0
SPLINE
  5
EE
330
70
100
AcDbEntity
  8
Layer 1
 62
   177
420
  3027346
370
     5
100
AcDbSpline
210
0.0
220
0.0
230
1.0
 70
     8
 71
     3
 72
     8
 73
     4
 74
     0
 42
0.0000000001
 43
0.0000000001
 40
0.0
 40
0.0
 40
0.0
 40
0.0
 40
1.0
 40
1.0
 40
1.0
 40
1.0
 10
267.2977927644888
 20
416.931912603206
 30
0.0
 10
267.2977927644888
 20
417.2041098372083
 30
0.0
 10
267.0771366138888
 20
417.4247697480077
 30
0.0
 10
266.8049356196852
 20
417.4247697480077
 30
0.0
  0
SPLINE
  5
EF
330
70
100
AcDbEntity
  8
Layer 1
 62
   177
420
  3027346
370
     5
100
AcDbSpline
210
0.0
220
0.0
230
1.0
 70
     8
 71
     3
 72
     8
 73
     4
 74
     0
 42
0.0000000001
 43
0.0000000001
 40
0.0
 40
0.0
 40
0.0
 40
0.0
 40
1.0
 40
1.0
 40
1.0
 40
1.0
 10
266.8049356196852
 20
403.6247696935097
 30
0.0
 10
267.0771366138888
 20
403.6247696935097
 30
0.0
 10
267.2977927644888
 20
403.8454296043109
 30
0.0
 10
267.2977927644888
 20
404.1176268383132
 30
0.0
  0
SPLINE
  5
F0
330
70
100
AcDbEntity
  8
Layer 1
 62
   177
420
  3027346
370
     5
100
AcDbSpline
210
0.0
220
0.0
230
1.0
 70
     8
 71
     3
 72
     8
 73
     4
 74
     0
 42
0.0000000001
 43
0.0000000001
 40
0.0
 40
0.0
 40
0.0
 40
0.0
 40
1.0
 40
1.0
 40
1.0
 40
1.0
 10
253.4977889497868
 20
404.1176268383132
 30
0.0
 10
253.4977889497868
 20
403.8454296043109
 30
0.0
 10
253.718448860588
 20
403.6247696935097
 30
0.0
 10
253.9906460945904
 20
403.6247696935097
 30
0.0
  0
LINE
  5
F1
330
70
100
AcDbEntity
  8
Layer 1
 62
   177
420
  3027346
370
     5
100
AcDbLine
 10
234.4477701628412
 20
416.9319125779038
 30
0.0
 11
234.4477701628412
 21
404.1176268636154
 31
0.0
  0
LINE
  5
F2
330
70
100
AcDbEntity
  8
Layer 1
 62
   177
420
  3027346
370
     5
100
AcDbLine
 10
248.2477701628413
 20
404.1176268636154
 30
0.0
 11
248.2477701628413
 21
416.9319125779038
 31
0.0
  0
LINE
  5
F3
330
70
100
AcDbEntity
  8
Layer 1
 62
   177
420
  3027346
370
     5
100
AcDbLine
 10
247.754913019985
 20
417.4247697207593
 30
0.0
 11
234.9406273056984
 21
417.4247697207593
 31
0.0
  0
LINE
  5
F4
330
70
100
AcDbEntity
  8
Layer 1
 62
   177
420
  3027346
370
     5
100
AcDbLine
 10
234.9406273056984
 20
403.6247697207581
 30
0.0
 11
247.754913019985
 21
403.6247697207581
 31
0.0
  0
SPLINE
  5
F5
330
70
100
AcDbEntity
  8
Layer 1
 62
   177
420
  3027346
370
     5
100
AcDbSpline
210
0.0
220
0.0
230
1.0
 70
     8
 71
     3
 72
     8
 73
     4
 74
     0
 42
0.0000000001
 43
0.0000000001
 40
0.0
 40
0.0
 40
0.0
 40
0.0
 40
1.0
 40
1.0
 40
1.0
 40
1.0
 10
234.9406273056984
 20
417.4247697207593
 30
0.0
 10
234.6684300727711
 20
417.4247697207593
 30
0.0
 10
234.4477701628412
 20
417.2041098108293
 30
0.0
 10
234.4477701628412
 20
416.9319125779038
 30
0.0
  0
SPLINE
  5
F6
330
70
100
AcDbEntity
  8
Layer 1
 62
   177
420
  3027346
370
     5
100
AcDbSpline
210
0.0
220
0.0
230
1.0
 70
     8
 71
     3
 72
     8
 73
     4
 74
     0
 42
0.0000000001
 43
0.0000000001
 40
0.0
 40
0.0
 40
0.0
 40
0.0
 40
1.0
 40
1.0
 40
1.0
 40
1.0
 10
248.2477701628413
 20
416.9319125779038
 30
0.0
 10
248.2477701628413
 20
417.2041098108293
 30
0.0
 10
248.0271102529123
 20
417.4247697207593
 30
0.0
 10
247.754913019985
 20
417.4247697207593
 30
0.0
  0
SPLINE
  5
F7
330
70
100
AcDbEntity
  8
Layer 1
 62
   177
420
  3027346
370
     5
100
AcDbSpline
210
0.0
220
0.0
230
1.0
 70
     8
 71
     3
 72
     8
 73
     4
 74
     0
 42
0.0000000001
 43
0.0000000001
 40
0.0
 40
0.0
 40
0.0
 40
0.0
 40
1.0
 40
1.0
 40
1.0
 40
1.0
 10
247.754913019985
 20
403.6247697207581
 30
0.0
 10
248.0271102529123
 20
403.6247697207581
 30
0.0
 10
248.2477701628413
 20
403.8454296306899
 30
0.0
 10
248.2477701628413
 20
404.1176268636154
 30
0.0
  0
SPLINE
  5
F8
330
70
100
AcDbEntity
  8
Layer 1
 62
   177
420
  3027346
370
     5
100
AcDbSpline
210
0.0
220
0.0
230
1.0
 70
     8
 71
     3
 72
     8
 73
     4
 74
     0
 42
0.0000000001
 43
0.0000000001
 40
0.0
 40
0.0
 40
0.0
 40
0.0
 40
1.0
 40
1.0
 40
1.0
 40
1.0
 10
234.4477701628412
 20
404.1176268636154
 30
0.0
 10
234.4477701628412
 20
403.8454296306899
 30
0.0
 10
234.6684300727711
 20
403.6247697207581
 30
0.0
 10
234.9406273056984
 20
403.6247697207581
 30
0.0
  0
LINE
  5
F9
330
70
100
AcDbEntity
  8
Layer 1
 62
   177
420
  3027346
370
     5
100
AcDbLine
 10
215.3977513758955
 20
416.9319125779038
 30
0.0
 11
215.3977513758955
 21
404.1176268636154
 31
0.0
  0
LINE
  5
FA
330
70
100
AcDbEntity
  8
Layer 1
 62
   177
420
  3027346
370
     5
100
AcDbLine
 10
229.1977513758957
 20
404.1176268636154
 30
0.0
 11
229.1977513758957
 21
416.9319125779038
 31
0.0
  0
LINE
  5
FB
330
70
100
AcDbEntity
  8
Layer 1
 62
   177
420
  3027346
370
     5
100
AcDbLine
 10
228.7048942330393
 20
417.4247697207593
 30
0.0
 11
215.8906085187528
 21
417.4247697207593
 31
0.0
  0
LINE
  5
FC
330
70
100
AcDbEntity
  8
Layer 1
 62
   177
420
  3027346
370
     5
100
AcDbLine
 10
215.8906085187528
 20
403.6247697207581
 30
0.0
 11
228.7048942330393
 21
403.6247697207581
 31
0.0
  0
SPLINE
  5
FD
330
70
100
AcDbEntity
  8
Layer 1
 62
   177
420
  3027346
370
     5
100
AcDbSpline
210
0.0
220
0.0
230
1.0
 70
     8
 71
     3
 72
     8
 73
     4
 74
     0
 42
0.0000000001
 43
0.0000000001
 40
0.0
 40
0.0
 40
0.0
 40
0.0
 40
1.0
 40
1.0
 40
1.0
 40
1.0
 10
215.8906085187528
 20
417.4247697207593
 30
0.0
 10
215.6184112858255
 20
417.4247697207593
 30
0.0
 10
215.3977513758955
 20
417.2041098108293
 30
0.0
 10
215.3977513758955
 20
416.9319125779038
 30
0.0
  0
SPLINE
  5
FE
330
70
100
AcDbEntity
  8
Layer 1
 62
   177
420
  3027346
370
     5
100
AcDbSpline
210
0.0
220
0.0
230
1.0
 70
     8
 71
     3
 72
     8
 73
     4
 74
     0
 42
0.0000000001
 43
0.0000000001
 40
0.0
 40
0.0
 40
0.0
 40
0.0
 40
1.0
 40
1.0
 40
1.0
 40
1.0
 10
229.1977513758957
 20
416.9319125779038
 30
0.0
 10
229.1977513758957
 20
417.2041098108293
 30
0.0
 10
228.9770914659666
 20
417.4247697207593
 30
0.0
 10
228.7048942330393
 20
417.4247697207593
 30
0.0
  0
SPLINE
  5
FF
330
70
100
AcDbEntity
  8
Layer 1
 62
   177
420
  3027346
370
     5
100
AcDbSpline
210
0.0
220
0.0
230
1.0
 70
     8
 71
     3
 72
     8
 73
     4
 74
     0
 42
0.0000000001
 43
0.0000000001
 40
0.0
 40
0.0
 40
0.0
 40
0.0
 40
1.0
 40
1.0
 40
1.0
 40
1.0
 10
228.7048942330393
 20
403.6247697207581
 30
0.0
 10
228.9770914659666
 20
403.6247697207581
 30
0.0
 10
229.1977513758957
 20
403.8454296306899
 30
0.0
 10
229.1977513758957
 20
404.1176268636154
 30
0.0
  0
SPLINE
  5
100
330
70
100
AcDbEntity
  8
Layer 1
 62
   177
420
  3027346
370
     5
100
AcDbSpline
210
0.0
220
0.0
230
1.0
 70
     8
 71
     3
 72
     8
 73
     4
 74
     0
 42
0.0000000001
 43
0.0000000001
 40
0.0
 40
0.0
 40
0.0
 40
0.0
 40
1.0
 40
1.0
 40
1.0
 40
1.0
 10
215.3977513758955
 20
404.1176268636154
 30
0.0
 10
215.3977513758955
 20
403.8454296306899
 30
0.0
 10
215.6184112858255
 20
403.6247697207581
 30
0.0
 10
215.8906085187528
 20
403.6247697207581
 30
0.0
  0
LINE
  5
101
330
70
100
AcDbEntity
  8
Layer 1
 62
   177
420
  3027346
370
     5
100
AcDbLine
 10
384.4666313935377
 20
435.9819325500793
 30
0.0
 11
384.4666313935377
 21
423.1676487158929
 31
0.0
  0
LINE
  5
102
330
70
100
AcDbEntity
  8
Layer 1
 62
   177
420
  3027346
370
     5
100
AcDbLine
 10
398.2666313935406
 20
423.1676487158929
 30
0.0
 11
398.2666313935406
 21
435.9819325500793
 31
0.0
  0
LINE
  5
103
330
70
100
AcDbEntity
  8
Layer 1
 62
   177
420
  3027346
370
     5
100
AcDbLine
 10
397.7737742506834
 20
436.4747896929365
 30
0.0
 11
384.9594885363949
 21
436.4747896929365
 31
0.0
  0
LINE
  5
104
330
70
100
AcDbEntity
  8
Layer 1
 62
   177
420
  3027346
370
     5
100
AcDbLine
 10
384.9594885363949
 20
422.6747915730356
 30
0.0
 11
397.7737742506834
 21
422.6747915730356
 31
0.0
  0
SPLINE
  5
105
330
70
100
AcDbEntity
  8
Layer 1
 62
   177
420
  3027346
370
     5
100
AcDbSpline
210
0.0
220
0.0
230
1.0
 70
     8
 71
     3
 72
     8
 73
     4
 74
     0
 42
0.0000000001
 43
0.0000000001
 40
0.0
 40
0.0
 40
0.0
 40
0.0
 40
1.0
 40
1.0
 40
1.0
 40
1.0
 10
384.9594885363949
 20
436.4747896929365
 30
0.0
 10
384.6872950636698
 20
436.4747896929365
 30
0.0
 10
384.4666313935377
 20
436.2541297830066
 30
0.0
 10
384.4666313935377
 20
435.9819325500793
 30
0.0
  0
SPLINE
  5
106
330
70
100
AcDbEntity
  8
Layer 1
 62
   177
420
  3027346
370
     5
100
AcDbSpline
210
0.0
220
0.0
230
1.0
 70
     8
 71
     3
 72
     8
 73
     4
 74
     0
 42
0.0000000001
 43
0.0000000001
 40
0.0
 40
0.0
 40
0.0
 40
0.0
 40
1.0
 40
1.0
 40
1.0
 40
1.0
 10
398.2666313935406
 20
435.9819325500793
 30
0.0
 10
398.2666313935406
 20
436.2541297830066
 30
0.0
 10
398.0459677234085
 20
436.4747896929365
 30
0.0
 10
397.7737742506834
 20
436.4747896929365
 30
0.0
  0
SPLINE
  5
107
330
70
100
AcDbEntity
  8
Layer 1
 62
   177
420
  3027346
370
     5
100
AcDbSpline
210
0.0
220
0.0
230
1.0
 70
     8
 71
     3
 72
    11
 73
     7
 74
     0
 42
0.0000000001
 43
0.0000000001
 40
0.0
 40
0.0
 40
0.0
 40
0.0
 40
1.0
 40
1.0
 40
1.0
 40
2.0
 40
2.0
 40
2.0
 40
2.0
 10
397.7737742506834
 20
422.6746900475936
 30
0.0
 10
398.0459677234085
 20
422.6746900475936
 30
0.0
 10
398.2666313935406
 20
422.8953499575236
 30
0.0
 10
398.2666313935406
 20
423.1675471904509
 30
0.0
 10
398.2666313935406
 20
423.1675810322649
 30
0.0
 10
398.2666313935406
 20
423.1676148740807
 30
0.0
 10
398.2666313935406
 20
423.1676487158929
 30
0.0
  0
SPLINE
  5
108
330
70
100
AcDbEntity
  8
Layer 1
 62
   177
420
  3027346
370
     5
100
AcDbSpline
210
0.0
220
0.0
230
1.0
 70
     8
 71
     3
 72
     8
 73
     4
 74
     0
 42
0.0000000001
 43
0.0000000001
 40
0.0
 40
0.0
 40
0.0
 40
0.0
 40
1.0
 40
1.0
 40
1.0
 40
1.0
 10
384.4667216383768
 20
423.1676487158929
 30
0.0
 10
384.4667216383768
 20
422.8954853247796
 30
0.0
 10
384.6873251452817
 20
422.6748404556564
 30
0.0
 10
384.9594885363949
 20
422.6747915730356
 30
0.0
  0
LINE
  5
109
330
70
100
AcDbEntity
  8
Layer 1
 62
   177
420
  3027346
370
     5
100
AcDbLine
 10
363.0353960210487
 20
435.9819332858233
 30
0.0
 11
363.0353960210487
 21
423.1676494516377
 31
0.0
  0
LINE
  5
10A
330
70
100
AcDbEntity
  8
Layer 1
 62
   177
420
  3027346
370
     5
100
AcDbLine
 10
376.8353960210498
 20
423.1676494516377
 30
0.0
 11
376.8353960210498
 21
435.9819332858233
 31
0.0
  0
LINE
  5
10B
330
70
100
AcDbEntity
  8
Layer 1
 62
   177
420
  3027346
370
     5
100
AcDbLine
 10
376.3425388781925
 20
436.4747904286814
 30
0.0
 11
363.5282531639059
 21
436.4747904286814
 31
0.0
  0
LINE
  5
10C
330
70
100
AcDbEntity
  8
Layer 1
 62
   177
420
  3027346
370
     5
100
AcDbLine
 10
363.5282531639059
 20
422.6747923087804
 30
0.0
 11
376.3425388781925
 21
422.6747923087804
 31
0.0
  0
SPLINE
  5
10D
330
70
100
AcDbEntity
  8
Layer 1
 62
   177
420
  3027346
370
     5
100
AcDbSpline
210
0.0
220
0.0
230
1.0
 70
     8
 71
     3
 72
     8
 73
     4
 74
     0
 42
0.0000000001
 43
0.0000000001
 40
0.0
 40
0.0
 40
0.0
 40
0.0
 40
1.0
 40
1.0
 40
1.0
 40
1.0
 10
363.5282531639059
 20
436.4747904286814
 30
0.0
 10
363.256059691179
 20
436.4747904286814
 30
0.0
 10
363.0353960210487
 20
436.2541305187514
 30
0.0
 10
363.0353960210487
 20
435.9819332858233
 30
0.0
  0
SPLINE
  5
10E
330
70
100
AcDbEntity
  8
Layer 1
 62
   177
420
  3027346
370
     5
100
AcDbSpline
210
0.0
220
0.0
230
1.0
 70
     8
 71
     3
 72
     8
 73
     4
 74
     0
 42
0.0000000001
 43
0.0000000001
 40
0.0
 40
0.0
 40
0.0
 40
0.0
 40
1.0
 40
1.0
 40
1.0
 40
1.0
 10
376.8353960210498
 20
435.9819332858233
 30
0.0
 10
376.8353960210498
 20
436.2541305187514
 30
0.0
 10
376.6147323509176
 20
436.4747904286814
 30
0.0
 10
376.3425388781925
 20
436.4747904286814
 30
0.0
  0
SPLINE
  5
10F
330
70
100
AcDbEntity
  8
Layer 1
 62
   177
420
  3027346
370
     5
100
AcDbSpline
210
0.0
220
0.0
230
1.0
 70
     8
 71
     3
 72
     8
 73
     4
 74
     0
 42
0.0000000001
 43
0.0000000001
 40
0.0
 40
0.0
 40
0.0
 40
0.0
 40
1.0
 40
1.0
 40
1.0
 40
1.0
 10
376.3425388781925
 20
422.6747923087804
 30
0.0
 10
376.6147323509176
 20
422.6747923087804
 30
0.0
 10
376.8353960210498
 20
422.8954522187104
 30
0.0
 10
376.8353960210498
 20
423.1676494516377
 30
0.0
  0
SPLINE
  5
110
330
70
100
AcDbEntity
  8
Layer 1
 62
   177
420
  3027346
370
     5
100
AcDbSpline
210
0.0
220
0.0
230
1.0
 70
     8
 71
     3
 72
     8
 73
     4
 74
     0
 42
0.0000000001
 43
0.0000000001
 40
0.0
 40
0.0
 40
0.0
 40
0.0
 40
1.0
 40
1.0
 40
1.0
 40
1.0
 10
363.0353960210487
 20
423.1676494516377
 30
0.0
 10
363.0353960210487
 20
422.8954522187104
 30
0.0
 10
363.256059691179
 20
422.6747923087804
 30
0.0
 10
363.5282531639059
 20
422.6747923087804
 30
0.0
  0
LINE
  5
111
330
70
100
AcDbEntity
  8
Layer 1
 62
   177
420
  3027346
370
     5
100
AcDbLine
 10
343.9853886782057
 20
435.9819332858233
 30
0.0
 11
343.9853886782057
 21
423.1676494516377
 31
0.0
  0
LINE
  5
112
330
70
100
AcDbEntity
  8
Layer 1
 62
   177
420
  3027346
370
     5
100
AcDbLine
 10
357.7853886782068
 20
423.1676494516377
 30
0.0
 11
357.7853886782068
 21
435.9819332858233
 31
0.0
  0
LINE
  5
113
330
70
100
AcDbEntity
  8
Layer 1
 62
   177
420
  3027346
370
     5
100
AcDbLine
 10
357.2925315353514
 20
436.4747904286814
 30
0.0
 11
344.4782458210629
 21
436.4747904286814
 31
0.0
  0
LINE
  5
114
330
70
100
AcDbEntity
  8
Layer 1
 62
   177
420
  3027346
370
     5
100
AcDbLine
 10
344.4782458210629
 20
422.6747923087804
 30
0.0
 11
357.2925315353514
 21
422.6747923087804
 31
0.0
  0
SPLINE
  5
115
330
70
100
AcDbEntity
  8
Layer 1
 62
   177
420
  3027346
370
     5
100
AcDbSpline
210
0.0
220
0.0
230
1.0
 70
     8
 71
     3
 72
     8
 73
     4
 74
     0
 42
0.0000000001
 43
0.0000000001
 40
0.0
 40
0.0
 40
0.0
 40
0.0
 40
1.0
 40
1.0
 40
1.0
 40
1.0
 10
344.4782458210629
 20
436.4747904286814
 30
0.0
 10
344.2060523483378
 20
436.4747904286814
 30
0.0
 10
343.9853886782057
 20
436.2541305187514
 30
0.0
 10
343.9853886782057
 20
435.9819332858233
 30
0.0
  0
SPLINE
  5
116
330
70
100
AcDbEntity
  8
Layer 1
 62
   177
420
  3027346
370
     5
100
AcDbSpline
210
0.0
220
0.0
230
1.0
 70
     8
 71
     3
 72
     8
 73
     4
 74
     0
 42
0.0000000001
 43
0.0000000001
 40
0.0
 40
0.0
 40
0.0
 40
0.0
 40
1.0
 40
1.0
 40
1.0
 40
1.0
 10
357.7853886782068
 20
435.9819332858233
 30
0.0
 10
357.7853886782068
 20
436.2541305187514
 30
0.0
 10
357.5647250080765
 20
436.4747904286814
 30
0.0
 10
357.2925315353514
 20
436.4747904286814
 30
0.0
  0
SPLINE
  5
117
330
70
100
AcDbEntity
  8
Layer 1
 62
   177
420
  3027346
370
     5
100
AcDbSpline
210
0.0
220
0.0
230
1.0
 70
     8
 71
     3
 72
     8
 73
     4
 74
     0
 42
0.0000000001
 43
0.0000000001
 40
0.0
 40
0.0
 40
0.0
 40
0.0
 40
1.0
 40
1.0
 40
1.0
 40
1.0
 10
357.2925315353514
 20
422.6747923087804
 30
0.0
 10
357.5647250080765
 20
422.6747923087804
 30
0.0
 10
357.7853886782068
 20
422.8954522187104
 30
0.0
 10
357.7853886782068
 20
423.1676494516377
 30
0.0
  0
SPLINE
  5
118
330
70
100
AcDbEntity
  8
Layer 1
 62
   177
420
  3027346
370
     5
100
AcDbSpline
210
0.0
220
0.0
230
1.0
 70
     8
 71
     3
 72
     8
 73
     4
 74
     0
 42
0.0000000001
 43
0.0000000001
 40
0.0
 40
0.0
 40
0.0
 40
0.0
 40
1.0
 40
1.0
 40
1.0
 40
1.0
 10
343.9853886782057
 20
423.1676494516377
 30
0.0
 10
343.9853886782057
 20
422.8954522187104
 30
0.0
 10
344.2060523483378
 20
422.6747923087804
 30
0.0
 10
344.4782458210629
 20
422.6747923087804
 30
0.0
  0
LINE
  5
119
330
70
100
AcDbEntity
  8
Layer 1
 62
   177
420
  3027346
370
     5
100
AcDbLine
 10
324.9353660765592
 20
435.9819332858233
 30
0.0
 11
324.9353660765592
 21
423.1676494516377
 31
0.0
  0
LINE
  5
11A
330
70
100
AcDbEntity
  8
Layer 1
 62
   177
420
  3027346
370
     5
100
AcDbLine
 10
338.735366076562
 20
423.1676494516377
 30
0.0
 11
338.735366076562
 21
435.9819332858233
 31
0.0
  0
LINE
  5
11B
330
70
100
AcDbEntity
  8
Layer 1
 62
   177
420
  3027346
370
     5
100
AcDbLine
 10
338.242508933703
 20
436.4747904286814
 30
0.0
 11
325.4282232194164
 21
436.4747904286814
 31
0.0
  0
LINE
  5
11C
330
70
100
AcDbEntity
  8
Layer 1
 62
   177
420
  3027346
370
     5
100
AcDbLine
 10
325.4282232194164
 20
422.6747923087804
 30
0.0
 11
338.242508933703
 21
422.6747923087804
 31
0.0
  0
SPLINE
  5
11D
330
70
100
AcDbEntity
  8
Layer 1
 62
   177
420
  3027346
370
     5
100
AcDbSpline
210
0.0
220
0.0
230
1.0
 70
     8
 71
     3
 72
     8
 73
     4
 74
     0
 42
0.0000000001
 43
0.0000000001
 40
0.0
 40
0.0
 40
0.0
 40
0.0
 40
1.0
 40
1.0
 40
1.0
 40
1.0
 10
325.4282232194164
 20
436.4747904286814
 30
0.0
 10
325.1560297466913
 20
436.4747904286814
 30
0.0
 10
324.9353660765592
 20
436.2541305187514
 30
0.0
 10
324.9353660765592
 20
435.9819332858233
 30
0.0
  0
SPLINE
  5
11E
330
70
100
AcDbEntity
  8
Layer 1
 62
   177
420
  3027346
370
     5
100
AcDbSpline
210
0.0
220
0.0
230
1.0
 70
     8
 71
     3
 72
     8
 73
     4
 74
     0
 42
0.0000000001
 43
0.0000000001
 40
0.0
 40
0.0
 40
0.0
 40
0.0
 40
1.0
 40
1.0
 40
1.0
 40
1.0
 10
338.735366076562
 20
435.9819332858233
 30
0.0
 10
338.735366076562
 20
436.2541305187514
 30
0.0
 10
338.5147024064299
 20
436.4747904286814
 30
0.0
 10
338.242508933703
 20
436.4747904286814
 30
0.0
  0
SPLINE
  5
11F
330
70
100
AcDbEntity
  8
Layer 1
 62
   177
420
  3027346
370
     5
100
AcDbSpline
210
0.0
220
0.0
230
1.0
 70
     8
 71
     3
 72
     8
 73
     4
 74
     0
 42
0.0000000001
 43
0.0000000001
 40
0.0
 40
0.0
 40
0.0
 40
0.0
 40
1.0
 40
1.0
 40
1.0
 40
1.0
 10
338.242508933703
 20
422.6747923087804
 30
0.0
 10
338.5147024064299
 20
422.6747923087804
 30
0.0
 10
338.735366076562
 20
422.8954522187104
 30
0.0
 10
338.735366076562
 20
423.1676494516377
 30
0.0
  0
SPLINE
  5
120
330
70
100
AcDbEntity
  8
Layer 1
 62
   177
420
  3027346
370
     5
100
AcDbSpline
210
0.0
220
0.0
230
1.0
 70
     8
 71
     3
 72
     8
 73
     4
 74
     0
 42
0.0000000001
 43
0.0000000001
 40
0.0
 40
0.0
 40
0.0
 40
0.0
 40
1.0
 40
1.0
 40
1.0
 40
1.0
 10
324.9353660765592
 20
423.1676494516377
 30
0.0
 10
324.9353660765592
 20
422.8954522187104
 30
0.0
 10
325.1560297466913
 20
422.6747923087804
 30
0.0
 10
325.4282232194164
 20
422.6747923087804
 30
0.0
  0
LINE
  5
121
330
70
100
AcDbEntity
  8
Layer 1
 62
   177
420
  3027346
370
     5
100
AcDbLine
 10
305.8853434749126
 20
435.9819332858233
 30
0.0
 11
305.8853434749126
 21
423.1676494516377
 31
0.0
  0
LINE
  5
122
330
70
100
AcDbEntity
  8
Layer 1
 62
   177
420
  3027346
370
     5
100
AcDbLine
 10
319.6853434749137
 20
423.1676494516377
 30
0.0
 11
319.6853434749137
 21
435.9819332858233
 31
0.0
  0
LINE
  5
123
330
70
100
AcDbEntity
  8
Layer 1
 62
   177
420
  3027346
370
     5
100
AcDbLine
 10
319.1924863320583
 20
436.4747904286814
 30
0.0
 11
306.3782006177699
 21
436.4747904286814
 31
0.0
  0
LINE
  5
124
330
70
100
AcDbEntity
  8
Layer 1
 62
   177
420
  3027346
370
     5
100
AcDbLine
 10
306.3782006177699
 20
422.6747923087804
 30
0.0
 11
319.1924863320583
 21
422.6747923087804
 31
0.0
  0
SPLINE
  5
125
330
70
100
AcDbEntity
  8
Layer 1
 62
   177
420
  3027346
370
     5
100
AcDbSpline
210
0.0
220
0.0
230
1.0
 70
     8
 71
     3
 72
     8
 73
     4
 74
     0
 42
0.0000000001
 43
0.0000000001
 40
0.0
 40
0.0
 40
0.0
 40
0.0
 40
1.0
 40
1.0
 40
1.0
 40
1.0
 10
306.3782006177699
 20
436.4747904286814
 30
0.0
 10
306.1059996246422
 20
436.4747904286814
 30
0.0
 10
305.8853434749126
 20
436.2541305187514
 30
0.0
 10
305.8853434749126
 20
435.9819332858233
 30
0.0
  0
SPLINE
  5
126
330
70
100
AcDbEntity
  8
Layer 1
 62
   177
420
  3027346
370
     5
100
AcDbSpline
210
0.0
220
0.0
230
1.0
 70
     8
 71
     3
 72
     8
 73
     4
 74
     0
 42
0.0000000001
 43
0.0000000001
 40
0.0
 40
0.0
 40
0.0
 40
0.0
 40
1.0
 40
1.0
 40
1.0
 40
1.0
 10
319.6853434749137
 20
435.9819332858233
 30
0.0
 10
319.6853434749137
 20
436.2541305187514
 30
0.0
 10
319.4646873251859
 20
436.4747904286814
 30
0.0
 10
319.1924863320583
 20
436.4747904286814
 30
0.0
  0
SPLINE
  5
127
330
70
100
AcDbEntity
  8
Layer 1
 62
   177
420
  3027346
370
     5
100
AcDbSpline
210
0.0
220
0.0
230
1.0
 70
     8
 71
     3
 72
     8
 73
     4
 74
     0
 42
0.0000000001
 43
0.0000000001
 40
0.0
 40
0.0
 40
0.0
 40
0.0
 40
1.0
 40
1.0
 40
1.0
 40
1.0
 10
319.1924863320583
 20
422.6747923087804
 30
0.0
 10
319.4646873251859
 20
422.6747923087804
 30
0.0
 10
319.6853434749137
 20
422.8954522187104
 30
0.0
 10
319.6853434749137
 20
423.1676494516377
 30
0.0
  0
SPLINE
  5
128
330
70
100
AcDbEntity
  8
Layer 1
 62
   177
420
  3027346
370
     5
100
AcDbSpline
210
0.0
220
0.0
230
1.0
 70
     8
 71
     3
 72
     8
 73
     4
 74
     0
 42
0.0000000001
 43
0.0000000001
 40
0.0
 40
0.0
 40
0.0
 40
0.0
 40
1.0
 40
1.0
 40
1.0
 40
1.0
 10
305.8853434749126
 20
423.1676494516377
 30
0.0
 10
305.8853434749126
 20
422.8954522187104
 30
0.0
 10
306.1059996246422
 20
422.6747923087804
 30
0.0
 10
306.3782006177699
 20
422.6747923087804
 30
0.0
  0
LINE
  5
129
330
70
100
AcDbEntity
  8
Layer 1
 62
   177
420
  3027346
370
     5
100
AcDbLine
 10
277.3103172018464
 20
435.9819332858233
 30
0.0
 11
277.3103172018464
 21
423.1676494516377
 31
0.0
  0
LINE
  5
12A
330
70
100
AcDbEntity
  8
Layer 1
 62
   177
420
  3027346
370
     5
100
AcDbLine
 10
291.1103172018457
 20
423.1676494516377
 30
0.0
 11
291.1103172018457
 21
435.9819332858233
 31
0.0
  0
LINE
  5
12B
330
70
100
AcDbEntity
  8
Layer 1
 62
   177
420
  3027346
370
     5
100
AcDbLine
 10
290.6174600589884
 20
436.4747904286814
 30
0.0
 11
277.8031743447027
 21
436.4747904286814
 31
0.0
  0
LINE
  5
12C
330
70
100
AcDbEntity
  8
Layer 1
 62
   177
420
  3027346
370
     5
100
AcDbLine
 10
277.8031743447027
 20
422.6747923087804
 30
0.0
 11
290.6174600589884
 21
422.6747923087804
 31
0.0
  0
SPLINE
  5
12D
330
70
100
AcDbEntity
  8
Layer 1
 62
   177
420
  3027346
370
     5
100
AcDbSpline
210
0.0
220
0.0
230
1.0
 70
     8
 71
     3
 72
     8
 73
     4
 74
     0
 42
0.0000000001
 43
0.0000000001
 40
0.0
 40
0.0
 40
0.0
 40
0.0
 40
1.0
 40
1.0
 40
1.0
 40
1.0
 10
277.8031743447027
 20
436.4747904286814
 30
0.0
 10
277.5309733515733
 20
436.4747904286814
 30
0.0
 10
277.3103172018464
 20
436.2541305187514
 30
0.0
 10
277.3103172018464
 20
435.9819332858233
 30
0.0
  0
SPLINE
  5
12E
330
70
100
AcDbEntity
  8
Layer 1
 62
   177
420
  3027346
370
     5
100
AcDbSpline
210
0.0
220
0.0
230
1.0
 70
     8
 71
     3
 72
     8
 73
     4
 74
     0
 42
0.0000000001
 43
0.0000000001
 40
0.0
 40
0.0
 40
0.0
 40
0.0
 40
1.0
 40
1.0
 40
1.0
 40
1.0
 10
291.1103172018457
 20
435.9819332858233
 30
0.0
 10
291.1103172018457
 20
436.2541305187514
 30
0.0
 10
290.8896610521178
 20
436.4747904286814
 30
0.0
 10
290.6174600589884
 20
436.4747904286814
 30
0.0
  0
SPLINE
  5
12F
330
70
100
AcDbEntity
  8
Layer 1
 62
   177
420
  3027346
370
     5
100
AcDbSpline
210
0.0
220
0.0
230
1.0
 70
     8
 71
     3
 72
     8
 73
     4
 74
     0
 42
0.0000000001
 43
0.0000000001
 40
0.0
 40
0.0
 40
0.0
 40
0.0
 40
1.0
 40
1.0
 40
1.0
 40
1.0
 10
290.6174600589884
 20
422.6747923087804
 30
0.0
 10
290.8896610521178
 20
422.6747923087804
 30
0.0
 10
291.1103172018457
 20
422.8954522187104
 30
0.0
 10
291.1103172018457
 20
423.1676494516377
 30
0.0
  0
SPLINE
  5
130
330
70
100
AcDbEntity
  8
Layer 1
 62
   177
420
  3027346
370
     5
100
AcDbSpline
210
0.0
220
0.0
230
1.0
 70
     8
 71
     3
 72
     8
 73
     4
 74
     0
 42
0.0000000001
 43
0.0000000001
 40
0.0
 40
0.0
 40
0.0
 40
0.0
 40
1.0
 40
1.0
 40
1.0
 40
1.0
 10
277.3103172018464
 20
423.1676494516377
 30
0.0
 10
277.3103172018464
 20
422.8954522187104
 30
0.0
 10
277.5309733515733
 20
422.6747923087804
 30
0.0
 10
277.8031743447027
 20
422.6747923087804
 30
0.0
  0
LINE
  5
131
330
70
100
AcDbEntity
  8
Layer 1
 62
   177
420
  3027346
370
     5
100
AcDbLine
 10
258.2602946001989
 20
435.9819332858233
 30
0.0
 11
258.2602946001989
 21
423.1676494516377
 31
0.0
  0
LINE
  5
132
330
70
100
AcDbEntity
  8
Layer 1
 62
   177
420
  3027346
370
     5
100
AcDbLine
 10
272.0602946001991
 20
423.1676494516377
 30
0.0
 11
272.0602946001991
 21
435.9819332858233
 31
0.0
  0
LINE
  5
133
330
70
100
AcDbEntity
  8
Layer 1
 62
   177
420
  3027346
370
     5
100
AcDbLine
 10
271.5674374573418
 20
436.4747904286814
 30
0.0
 11
258.7531517430562
 21
436.4747904286814
 31
0.0
  0
LINE
  5
134
330
70
100
AcDbEntity
  8
Layer 1
 62
   177
420
  3027346
370
     5
100
AcDbLine
 10
258.7531517430562
 20
422.6747923087804
 30
0.0
 11
271.5674374573418
 21
422.6747923087804
 31
0.0
  0
SPLINE
  5
135
330
70
100
AcDbEntity
  8
Layer 1
 62
   177
420
  3027346
370
     5
100
AcDbSpline
210
0.0
220
0.0
230
1.0
 70
     8
 71
     3
 72
     8
 73
     4
 74
     0
 42
0.0000000001
 43
0.0000000001
 40
0.0
 40
0.0
 40
0.0
 40
0.0
 40
1.0
 40
1.0
 40
1.0
 40
1.0
 10
258.7531517430562
 20
436.4747904286814
 30
0.0
 10
258.4809507499267
 20
436.4747904286814
 30
0.0
 10
258.2602946001989
 20
436.2541305187514
 30
0.0
 10
258.2602946001989
 20
435.9819332858233
 30
0.0
  0
SPLINE
  5
136
330
70
100
AcDbEntity
  8
Layer 1
 62
   177
420
  3027346
370
     5
100
AcDbSpline
210
0.0
220
0.0
230
1.0
 70
     8
 71
     3
 72
     8
 73
     4
 74
     0
 42
0.0000000001
 43
0.0000000001
 40
0.0
 40
0.0
 40
0.0
 40
0.0
 40
1.0
 40
1.0
 40
1.0
 40
1.0
 10
272.0602946001991
 20
435.9819332858233
 30
0.0
 10
272.0602946001991
 20
436.2541305187514
 30
0.0
 10
271.8396384504713
 20
436.4747904286814
 30
0.0
 10
271.5674374573418
 20
436.4747904286814
 30
0.0
  0
SPLINE
  5
137
330
70
100
AcDbEntity
  8
Layer 1
 62
   177
420
  3027346
370
     5
100
AcDbSpline
210
0.0
220
0.0
230
1.0
 70
     8
 71
     3
 72
     8
 73
     4
 74
     0
 42
0.0000000001
 43
0.0000000001
 40
0.0
 40
0.0
 40
0.0
 40
0.0
 40
1.0
 40
1.0
 40
1.0
 40
1.0
 10
271.5674374573418
 20
422.6747923087804
 30
0.0
 10
271.8396384504713
 20
422.6747923087804
 30
0.0
 10
272.0602946001991
 20
422.8954522187104
 30
0.0
 10
272.0602946001991
 20
423.1676494516377
 30
0.0
  0
SPLINE
  5
138
330
70
100
AcDbEntity
  8
Layer 1
 62
   177
420
  3027346
370
     5
100
AcDbSpline
210
0.0
220
0.0
230
1.0
 70
     8
 71
     3
 72
     8
 73
     4
 74
     0
 42
0.0000000001
 43
0.0000000001
 40
0.0
 40
0.0
 40
0.0
 40
0.0
 40
1.0
 40
1.0
 40
1.0
 40
1.0
 10
258.2602946001989
 20
423.1676494516377
 30
0.0
 10
258.2602946001989
 20
422.8954522187104
 30
0.0
 10
258.4809507499267
 20
422.6747923087804
 30
0.0
 10
258.7531517430562
 20
422.6747923087804
 30
0.0
  0
LINE
  5
139
330
70
100
AcDbEntity
  8
Layer 1
 62
   177
420
  3027346
370
     5
100
AcDbLine
 10
239.2102758132533
 20
435.9819332858233
 30
0.0
 11
239.2102758132533
 21
423.1676494516377
 31
0.0
  0
LINE
  5
13A
330
70
100
AcDbEntity
  8
Layer 1
 62
   177
420
  3027346
370
     5
100
AcDbLine
 10
253.0102758132534
 20
423.1676494516377
 30
0.0
 11
253.0102758132534
 21
435.9819332858233
 31
0.0
  0
LINE
  5
13B
330
70
100
AcDbEntity
  8
Layer 1
 62
   177
420
  3027346
370
     5
100
AcDbLine
 10
252.5174186703962
 20
436.4747904286814
 30
0.0
 11
239.7031329561105
 21
436.4747904286814
 31
0.0
  0
LINE
  5
13C
330
70
100
AcDbEntity
  8
Layer 1
 62
   177
420
  3027346
370
     5
100
AcDbLine
 10
239.7031329561105
 20
422.6747923087804
 30
0.0
 11
252.5174186703962
 21
422.6747923087804
 31
0.0
  0
SPLINE
  5
13D
330
70
100
AcDbEntity
  8
Layer 1
 62
   177
420
  3027346
370
     5
100
AcDbSpline
210
0.0
220
0.0
230
1.0
 70
     8
 71
     3
 72
     8
 73
     4
 74
     0
 42
0.0000000001
 43
0.0000000001
 40
0.0
 40
0.0
 40
0.0
 40
0.0
 40
1.0
 40
1.0
 40
1.0
 40
1.0
 10
239.7031329561105
 20
436.4747904286814
 30
0.0
 10
239.4309357231823
 20
436.4747904286814
 30
0.0
 10
239.2102758132533
 20
436.2541305187514
 30
0.0
 10
239.2102758132533
 20
435.9819332858233
 30
0.0
  0
SPLINE
  5
13E
330
70
100
AcDbEntity
  8
Layer 1
 62
   177
420
  3027346
370
     5
100
AcDbSpline
210
0.0
220
0.0
230
1.0
 70
     8
 71
     3
 72
     8
 73
     4
 74
     0
 42
0.0000000001
 43
0.0000000001
 40
0.0
 40
0.0
 40
0.0
 40
0.0
 40
1.0
 40
1.0
 40
1.0
 40
1.0
 10
253.0102758132534
 20
435.9819332858233
 30
0.0
 10
253.0102758132534
 20
436.2541305187514
 30
0.0
 10
252.7896159033235
 20
436.4747904286814
 30
0.0
 10
252.5174186703962
 20
436.4747904286814
 30
0.0
  0
SPLINE
  5
13F
330
70
100
AcDbEntity
  8
Layer 1
 62
   177
420
  3027346
370
     5
100
AcDbSpline
210
0.0
220
0.0
230
1.0
 70
     8
 71
     3
 72
     8
 73
     4
 74
     0
 42
0.0000000001
 43
0.0000000001
 40
0.0
 40
0.0
 40
0.0
 40
0.0
 40
1.0
 40
1.0
 40
1.0
 40
1.0
 10
252.5174186703962
 20
422.6747923087804
 30
0.0
 10
252.7896159033235
 20
422.6747923087804
 30
0.0
 10
253.0102758132534
 20
422.8954522187104
 30
0.0
 10
253.0102758132534
 20
423.1676494516377
 30
0.0
  0
SPLINE
  5
140
330
70
100
AcDbEntity
  8
Layer 1
 62
   177
420
  3027346
370
     5
100
AcDbSpline
210
0.0
220
0.0
230
1.0
 70
     8
 71
     3
 72
     8
 73
     4
 74
     0
 42
0.0000000001
 43
0.0000000001
 40
0.0
 40
0.0
 40
0.0
 40
0.0
 40
1.0
 40
1.0
 40
1.0
 40
1.0
 10
239.2102758132533
 20
423.1676494516377
 30
0.0
 10
239.2102758132533
 20
422.8954522187104
 30
0.0
 10
239.4309357231823
 20
422.6747923087804
 30
0.0
 10
239.7031329561105
 20
422.6747923087804
 30
0.0
  0
LINE
  5
141
330
70
100
AcDbEntity
  8
Layer 1
 62
   177
420
  3027346
370
     5
100
AcDbLine
 10
220.1602570263076
 20
435.9819332858233
 30
0.0
 11
220.1602570263076
 21
423.1676494516377
 31
0.0
  0
LINE
  5
142
330
70
100
AcDbEntity
  8
Layer 1
 62
   177
420
  3027346
370
     5
100
AcDbLine
 10
233.9602570263078
 20
423.1676494516377
 30
0.0
 11
233.9602570263078
 21
435.9819332858233
 31
0.0
  0
LINE
  5
143
330
70
100
AcDbEntity
  8
Layer 1
 62
   177
420
  3027346
370
     5
100
AcDbLine
 10
233.4673998834505
 20
436.4747904286814
 30
0.0
 11
220.6531141691648
 21
436.4747904286814
 31
0.0
  0
LINE
  5
144
330
70
100
AcDbEntity
  8
Layer 1
 62
   177
420
  3027346
370
     5
100
AcDbLine
 10
220.6531141691648
 20
422.6747923087804
 30
0.0
 11
233.4673998834505
 21
422.6747923087804
 31
0.0
  0
SPLINE
  5
145
330
70
100
AcDbEntity
  8
Layer 1
 62
   177
420
  3027346
370
     5
100
AcDbSpline
210
0.0
220
0.0
230
1.0
 70
     8
 71
     3
 72
     8
 73
     4
 74
     0
 42
0.0000000001
 43
0.0000000001
 40
0.0
 40
0.0
 40
0.0
 40
0.0
 40
1.0
 40
1.0
 40
1.0
 40
1.0
 10
220.6531141691648
 20
436.4747904286814
 30
0.0
 10
220.3809169362366
 20
436.4747904286814
 30
0.0
 10
220.1602570263076
 20
436.2541305187514
 30
0.0
 10
220.1602570263076
 20
435.9819332858233
 30
0.0
  0
SPLINE
  5
146
330
70
100
AcDbEntity
  8
Layer 1
 62
   177
420
  3027346
370
     5
100
AcDbSpline
210
0.0
220
0.0
230
1.0
 70
     8
 71
     3
 72
     8
 73
     4
 74
     0
 42
0.0000000001
 43
0.0000000001
 40
0.0
 40
0.0
 40
0.0
 40
0.0
 40
1.0
 40
1.0
 40
1.0
 40
1.0
 10
233.9602570263078
 20
435.9819332858233
 30
0.0
 10
233.9602570263078
 20
436.2541305187514
 30
0.0
 10
233.7395971163778
 20
436.4747904286814
 30
0.0
 10
233.4673998834505
 20
436.4747904286814
 30
0.0
  0
SPLINE
  5
147
330
70
100
AcDbEntity
  8
Layer 1
 62
   177
420
  3027346
370
     5
100
AcDbSpline
210
0.0
220
0.0
230
1.0
 70
     8
 71
     3
 72
     8
 73
     4
 74
     0
 42
0.0000000001
 43
0.0000000001
 40
0.0
 40
0.0
 40
0.0
 40
0.0
 40
1.0
 40
1.0
 40
1.0
 40
1.0
 10
233.4673998834505
 20
422.6747923087804
 30
0.0
 10
233.7395971163778
 20
422.6747923087804
 30
0.0
 10
233.9602570263078
 20
422.8954522187104
 30
0.0
 10
233.9602570263078
 20
423.1676494516377
 30
0.0
  0
SPLINE
  5
148
330
70
100
AcDbEntity
  8
Layer 1
 62
   177
420
  3027346
370
     5
100
AcDbSpline
210
0.0
220
0.0
230
1.0
 70
     8
 71
     3
 72
     8
 73
     4
 74
     0
 42
0.0000000001
 43
0.0000000001
 40
0.0
 40
0.0
 40
0.0
 40
0.0
 40
1.0
 40
1.0
 40
1.0
 40
1.0
 10
220.1602570263076
 20
423.1676494516377
 30
0.0
 10
220.1602570263076
 20
422.8954522187104
 30
0.0
 10
220.3809169362366
 20
422.6747923087804
 30
0.0
 10
220.6531141691648
 20
422.6747923087804
 30
0.0
  0
LINE
  5
149
330
70
100
AcDbEntity
  8
Layer 1
 62
   177
420
  3027346
370
     5
100
AcDbLine
 10
198.7289343925285
 20
435.9819325469161
 30
0.0
 11
198.7289343925285
 21
423.1676487190561
 31
0.0
  0
LINE
  5
14A
330
70
100
AcDbEntity
  8
Layer 1
 62
   177
420
  3027346
370
     5
100
AcDbLine
 10
212.5289339156907
 20
423.1676487190561
 30
0.0
 11
212.5289339156907
 21
435.9819325469161
 31
0.0
  0
LINE
  5
14B
330
70
100
AcDbEntity
  8
Layer 1
 62
   177
420
  3027346
370
     5
100
AcDbLine
 10
212.0360767730772
 20
436.4747896895296
 30
0.0
 11
199.2217915351421
 21
436.4747896895296
 31
0.0
  0
LINE
  5
14C
330
70
100
AcDbEntity
  8
Layer 1
 62
   177
420
  3027346
370
     5
100
AcDbLine
 10
199.2217915351421
 20
422.6747915764426
 30
0.0
 11
212.0360767730772
 21
422.6747915764426
 31
0.0
  0
SPLINE
  5
14D
330
70
100
AcDbEntity
  8
Layer 1
 62
   177
420
  3027346
370
     5
100
AcDbSpline
210
0.0
220
0.0
230
1.0
 70
     8
 71
     3
 72
     8
 73
     4
 74
     0
 42
0.0000000001
 43
0.0000000001
 40
0.0
 40
0.0
 40
0.0
 40
0.0
 40
1.0
 40
1.0
 40
1.0
 40
1.0
 10
199.2217915351421
 20
436.4747896895296
 30
0.0
 10
198.9495938323234
 20
436.4747896895296
 30
0.0
 10
198.7289343925285
 20
436.2541297797097
 30
0.0
 10
198.7289343925285
 20
435.9819325469161
 30
0.0
  0
SPLINE
  5
14E
330
70
100
AcDbEntity
  8
Layer 1
 62
   177
420
  3027346
370
     5
100
AcDbSpline
210
0.0
220
0.0
230
1.0
 70
     8
 71
     3
 72
     8
 73
     4
 74
     0
 42
0.0000000001
 43
0.0000000001
 40
0.0
 40
0.0
 40
0.0
 40
0.0
 40
1.0
 40
1.0
 40
1.0
 40
1.0
 10
212.5289339156907
 20
435.9819325469161
 30
0.0
 10
212.5289339156907
 20
436.2541297797097
 30
0.0
 10
212.3082740058698
 20
436.4747896895296
 30
0.0
 10
212.0360767730772
 20
436.4747896895296
 30
0.0
  0
SPLINE
  5
14F
330
70
100
AcDbEntity
  8
Layer 1
 62
   177
420
  3027346
370
     5
100
AcDbSpline
210
0.0
220
0.0
230
1.0
 70
     8
 71
     3
 72
    11
 73
     7
 74
     0
 42
0.0000000001
 43
0.0000000001
 40
0.0
 40
0.0
 40
0.0
 40
0.0
 40
1.0
 40
1.0
 40
1.0
 40
2.0
 40
2.0
 40
2.0
 40
2.0
 10
212.0360767730772
 20
422.6746900510006
 30
0.0
 10
212.3082740058698
 20
422.6746900510006
 30
0.0
 10
212.5289339156907
 20
422.8953499608214
 30
0.0
 10
212.5289339156907
 20
423.1675471936141
 30
0.0
 10
212.5289339156907
 20
423.1675810354281
 30
0.0
 10
212.5289339156907
 20
423.1676148772421
 30
0.0
 10
212.5289339156907
 20
423.1676487190561
 30
0.0
  0
SPLINE
  5
150
330
70
100
AcDbEntity
  8
Layer 1
 62
   177
420
  3027346
370
     5
100
AcDbSpline
210
0.0
220
0.0
230
1.0
 70
     8
 71
     3
 72
     8
 73
     4
 74
     0
 42
0.0000000001
 43
0.0000000001
 40
0.0
 40
0.0
 40
0.0
 40
0.0
 40
1.0
 40
1.0
 40
1.0
 40
1.0
 10
198.7289343925285
 20
423.1676487190561
 30
0.0
 10
198.7289343925285
 20
422.8954514862635
 30
0.0
 10
198.9495938323234
 20
422.6747915764426
 30
0.0
 10
199.2217915351421
 20
422.6747915764426
 30
0.0
  0
LINE
  5
151
330
70
100
AcDbEntity
  8
Layer 1
 62
   177
420
  3027346
370
     5
100
AcDbLine
 10
358.2728941853384
 20
455.0319530060069
 30
0.0
 11
358.2728941853384
 21
442.2176663516711
 31
0.0
  0
LINE
  5
152
330
70
100
AcDbEntity
  8
Layer 1
 62
   177
420
  3027346
370
     5
100
AcDbLine
 10
372.0728941853395
 20
442.2176663516711
 30
0.0
 11
372.0728941853395
 21
455.0319530060069
 31
0.0
  0
LINE
  5
153
330
70
100
AcDbEntity
  8
Layer 1
 62
   177
420
  3027346
370
     5
100
AcDbLine
 10
371.5800370424822
 20
455.5248101488651
 30
0.0
 11
358.7657513281938
 21
455.5248101488651
 31
0.0
  0
LINE
  5
154
330
70
100
AcDbEntity
  8
Layer 1
 62
   177
420
  3027346
370
     5
100
AcDbLine
 10
358.7657513281938
 20
441.7248092088138
 30
0.0
 11
371.5800370424822
 21
441.7248092088138
 31
0.0
  0
SPLINE
  5
155
330
70
100
AcDbEntity
  8
Layer 1
 62
   177
420
  3027346
370
     5
100
AcDbSpline
210
0.0
220
0.0
230
1.0
 70
     8
 71
     3
 72
     8
 73
     4
 74
     0
 42
0.0000000001
 43
0.0000000001
 40
0.0
 40
0.0
 40
0.0
 40
0.0
 40
1.0
 40
1.0
 40
1.0
 40
1.0
 10
358.7657513281938
 20
455.5248101488651
 30
0.0
 10
358.4935578554687
 20
455.5248101488651
 30
0.0
 10
358.2728941853384
 20
455.3041504739467
 30
0.0
 10
358.2728941853384
 20
455.0319530060069
 30
0.0
  0
SPLINE
  5
156
330
70
100
AcDbEntity
  8
Layer 1
 62
   177
420
  3027346
370
     5
100
AcDbSpline
210
0.0
220
0.0
230
1.0
 70
     8
 71
     3
 72
     8
 73
     4
 74
     0
 42
0.0000000001
 43
0.0000000001
 40
0.0
 40
0.0
 40
0.0
 40
0.0
 40
1.0
 40
1.0
 40
1.0
 40
1.0
 10
372.0728941853395
 20
455.0319530060069
 30
0.0
 10
372.0728941853395
 20
455.3041504739467
 30
0.0
 10
371.8522305152073
 20
455.5248101488651
 30
0.0
 10
371.5800370424822
 20
455.5248101488651
 30
0.0
  0
SPLINE
  5
157
330
70
100
AcDbEntity
  8
Layer 1
 62
   177
420
  3027346
370
     5
100
AcDbSpline
210
0.0
220
0.0
230
1.0
 70
     8
 71
     3
 72
     8
 73
     4
 74
     0
 42
0.0000000001
 43
0.0000000001
 40
0.0
 40
0.0
 40
0.0
 40
0.0
 40
1.0
 40
1.0
 40
1.0
 40
1.0
 10
371.5800370424822
 20
441.7248092088138
 30
0.0
 10
371.8522305152073
 20
441.7248092088138
 30
0.0
 10
372.0728941853395
 20
441.9454691187438
 30
0.0
 10
372.0728941853395
 20
442.2176663516711
 30
0.0
  0
SPLINE
  5
158
330
70
100
AcDbEntity
  8
Layer 1
 62
   177
420
  3027346
370
     5
100
AcDbSpline
210
0.0
220
0.0
230
1.0
 70
     8
 71
     3
 72
     8
 73
     4
 74
     0
 42
0.0000000001
 43
0.0000000001
 40
0.0
 40
0.0
 40
0.0
 40
0.0
 40
1.0
 40
1.0
 40
1.0
 40
1.0
 10
358.2728941853384
 20
442.2176663516711
 30
0.0
 10
358.2728941853384
 20
441.9454691187438
 30
0.0
 10
358.4935578554687
 20
441.7248092088138
 30
0.0
 10
358.7657513281938
 20
441.7248092088138
 30
0.0
  0
LINE
  5
159
330
70
100
AcDbEntity
  8
Layer 1
 62
   177
420
  3027346
370
     5
100
AcDbLine
 10
339.22287158369
 20
455.0319530060069
 30
0.0
 11
339.22287158369
 21
442.2176663516711
 31
0.0
  0
LINE
  5
15A
330
70
100
AcDbEntity
  8
Layer 1
 62
   177
420
  3027346
370
     5
100
AcDbLine
 10
353.0228715836929
 20
442.2176663516711
 30
0.0
 11
353.0228715836929
 21
455.0319530060069
 31
0.0
  0
LINE
  5
15B
330
70
100
AcDbEntity
  8
Layer 1
 62
   177
420
  3027346
370
     5
100
AcDbLine
 10
352.5300144408356
 20
455.5248101488651
 30
0.0
 11
339.715728726549
 21
455.5248101488651
 31
0.0
  0
LINE
  5
15C
330
70
100
AcDbEntity
  8
Layer 1
 62
   177
420
  3027346
370
     5
100
AcDbLine
 10
339.715728726549
 20
441.7248092088138
 30
0.0
 11
352.5300144408356
 21
441.7248092088138
 31
0.0
  0
SPLINE
  5
15D
330
70
100
AcDbEntity
  8
Layer 1
 62
   177
420
  3027346
370
     5
100
AcDbSpline
210
0.0
220
0.0
230
1.0
 70
     8
 71
     3
 72
     8
 73
     4
 74
     0
 42
0.0000000001
 43
0.0000000001
 40
0.0
 40
0.0
 40
0.0
 40
0.0
 40
1.0
 40
1.0
 40
1.0
 40
1.0
 10
339.715728726549
 20
455.5248101488651
 30
0.0
 10
339.4435352538221
 20
455.5248101488651
 30
0.0
 10
339.22287158369
 20
455.3041504739467
 30
0.0
 10
339.22287158369
 20
455.0319530060069
 30
0.0
  0
SPLINE
  5
15E
330
70
100
AcDbEntity
  8
Layer 1
 62
   177
420
  3027346
370
     5
100
AcDbSpline
210
0.0
220
0.0
230
1.0
 70
     8
 71
     3
 72
     8
 73
     4
 74
     0
 42
0.0000000001
 43
0.0000000001
 40
0.0
 40
0.0
 40
0.0
 40
0.0
 40
1.0
 40
1.0
 40
1.0
 40
1.0
 10
353.0228715836929
 20
455.0319530060069
 30
0.0
 10
353.0228715836929
 20
455.3041504739467
 30
0.0
 10
352.8022079135608
 20
455.5248101488651
 30
0.0
 10
352.5300144408356
 20
455.5248101488651
 30
0.0
  0
SPLINE
  5
15F
330
70
100
AcDbEntity
  8
Layer 1
 62
   177
420
  3027346
370
     5
100
AcDbSpline
210
0.0
220
0.0
230
1.0
 70
     8
 71
     3
 72
     8
 73
     4
 74
     0
 42
0.0000000001
 43
0.0000000001
 40
0.0
 40
0.0
 40
0.0
 40
0.0
 40
1.0
 40
1.0
 40
1.0
 40
1.0
 10
352.5300144408356
 20
441.7248092088138
 30
0.0
 10
352.8022079135608
 20
441.7248092088138
 30
0.0
 10
353.0228715836929
 20
441.9454691187438
 30
0.0
 10
353.0228715836929
 20
442.2176663516711
 30
0.0
  0
SPLINE
  5
160
330
70
100
AcDbEntity
  8
Layer 1
 62
   177
420
  3027346
370
     5
100
AcDbSpline
210
0.0
220
0.0
230
1.0
 70
     8
 71
     3
 72
     8
 73
     4
 74
     0
 42
0.0000000001
 43
0.0000000001
 40
0.0
 40
0.0
 40
0.0
 40
0.0
 40
1.0
 40
1.0
 40
1.0
 40
1.0
 10
339.22287158369
 20
442.2176663516711
 30
0.0
 10
339.22287158369
 20
441.9454691187438
 30
0.0
 10
339.4435352538221
 20
441.7248092088138
 30
0.0
 10
339.715728726549
 20
441.7248092088138
 30
0.0
  0
LINE
  5
161
330
70
100
AcDbEntity
  8
Layer 1
 62
   177
420
  3027346
370
     5
100
AcDbLine
 10
320.172856611447
 20
455.0319530566139
 30
0.0
 11
320.172856611447
 21
442.2176663010632
 31
0.0
  0
LINE
  5
162
330
70
100
AcDbEntity
  8
Layer 1
 62
   177
420
  3027346
370
     5
100
AcDbLine
 10
333.97286424085
 20
442.2176663010632
 30
0.0
 11
333.97286424085
 21
455.0319530566139
 31
0.0
  0
LINE
  5
163
330
70
100
AcDbEntity
  8
Layer 1
 62
   177
420
  3027346
370
     5
100
AcDbLine
 10
333.4800070941001
 20
455.5248102033638
 30
0.0
 11
320.6657137581951
 21
455.5248102033638
 31
0.0
  0
LINE
  5
164
330
70
100
AcDbEntity
  8
Layer 1
 62
   177
420
  3027346
370
     5
100
AcDbLine
 10
320.6657137581951
 20
441.7248091543133
 30
0.0
 11
333.4800070941001
 21
441.7248091543133
 31
0.0
  0
SPLINE
  5
165
330
70
100
AcDbEntity
  8
Layer 1
 62
   177
420
  3027346
370
     5
100
AcDbSpline
210
0.0
220
0.0
230
1.0
 70
     8
 71
     3
 72
     8
 73
     4
 74
     0
 42
0.0000000001
 43
0.0000000001
 40
0.0
 40
0.0
 40
0.0
 40
0.0
 40
1.0
 40
1.0
 40
1.0
 40
1.0
 10
320.6657137581951
 20
455.5248102033638
 30
0.0
 10
320.3935127629175
 20
455.5248102033638
 30
0.0
 10
320.172856611447
 20
455.3041505267047
 30
0.0
 10
320.172856611447
 20
455.0319530566139
 30
0.0
  0
SPLINE
  5
166
330
70
100
AcDbEntity
  8
Layer 1
 62
   177
420
  3027346
370
     5
100
AcDbSpline
210
0.0
220
0.0
230
1.0
 70
     8
 71
     3
 72
     8
 73
     4
 74
     0
 42
0.0000000001
 43
0.0000000001
 40
0.0
 40
0.0
 40
0.0
 40
0.0
 40
1.0
 40
1.0
 40
1.0
 40
1.0
 10
333.97286424085
 20
455.0319530566139
 30
0.0
 10
333.97286424085
 20
455.3041505267047
 30
0.0
 10
333.7522005689752
 20
455.5248102033638
 30
0.0
 10
333.4800070941001
 20
455.5248102033638
 30
0.0
  0
SPLINE
  5
167
330
70
100
AcDbEntity
  8
Layer 1
 62
   177
420
  3027346
370
     5
100
AcDbSpline
210
0.0
220
0.0
230
1.0
 70
     8
 71
     3
 72
     8
 73
     4
 74
     0
 42
0.0000000001
 43
0.0000000001
 40
0.0
 40
0.0
 40
0.0
 40
0.0
 40
1.0
 40
1.0
 40
1.0
 40
1.0
 10
333.4800070941001
 20
441.7248091543133
 30
0.0
 10
333.7522005689752
 20
441.7248091543133
 30
0.0
 10
333.97286424085
 20
441.9454690659876
 30
0.0
 10
333.97286424085
 20
442.2176663010632
 30
0.0
  0
SPLINE
  5
168
330
70
100
AcDbEntity
  8
Layer 1
 62
   177
420
  3027346
370
     5
100
AcDbSpline
210
0.0
220
0.0
230
1.0
 70
     8
 71
     3
 72
     8
 73
     4
 74
     0
 42
0.0000000001
 43
0.0000000001
 40
0.0
 40
0.0
 40
0.0
 40
0.0
 40
1.0
 40
1.0
 40
1.0
 40
1.0
 10
320.172856611447
 20
442.2176663010632
 30
0.0
 10
320.172856611447
 20
441.9454690659876
 30
0.0
 10
320.3935127629175
 20
441.7248091543133
 30
0.0
 10
320.6657137581951
 20
441.7248091543133
 30
0.0
  0
LINE
  5
169
330
70
100
AcDbEntity
  8
Layer 1
 62
   177
420
  3027346
370
     5
100
AcDbLine
 10
301.1228416392023
 20
455.0319530060069
 30
0.0
 11
301.1228416392023
 21
442.2176663516711
 31
0.0
  0
LINE
  5
16A
330
70
100
AcDbEntity
  8
Layer 1
 62
   177
420
  3027346
370
     5
100
AcDbLine
 10
314.9228416392034
 20
442.2176663516711
 30
0.0
 11
314.9228416392034
 21
455.0319530060069
 31
0.0
  0
LINE
  5
16B
330
70
100
AcDbEntity
  8
Layer 1
 62
   177
420
  3027346
370
     5
100
AcDbLine
 10
314.4299844963462
 20
455.5248101488651
 30
0.0
 11
301.6156987820596
 21
455.5248101488651
 31
0.0
  0
LINE
  5
16C
330
70
100
AcDbEntity
  8
Layer 1
 62
   177
420
  3027346
370
     5
100
AcDbLine
 10
301.6156987820596
 20
441.7248092088138
 30
0.0
 11
314.4299844963462
 21
441.7248092088138
 31
0.0
  0
SPLINE
  5
16D
330
70
100
AcDbEntity
  8
Layer 1
 62
   177
420
  3027346
370
     5
100
AcDbSpline
210
0.0
220
0.0
230
1.0
 70
     8
 71
     3
 72
     8
 73
     4
 74
     0
 42
0.0000000001
 43
0.0000000001
 40
0.0
 40
0.0
 40
0.0
 40
0.0
 40
1.0
 40
1.0
 40
1.0
 40
1.0
 10
301.6156987820596
 20
455.5248101488651
 30
0.0
 10
301.3434977889301
 20
455.5248101488651
 30
0.0
 10
301.1228416392023
 20
455.3041504739467
 30
0.0
 10
301.1228416392023
 20
455.0319530060069
 30
0.0
  0
SPLINE
  5
16E
330
70
100
AcDbEntity
  8
Layer 1
 62
   177
420
  3027346
370
     5
100
AcDbSpline
210
0.0
220
0.0
230
1.0
 70
     8
 71
     3
 72
     8
 73
     4
 74
     0
 42
0.0000000001
 43
0.0000000001
 40
0.0
 40
0.0
 40
0.0
 40
0.0
 40
1.0
 40
1.0
 40
1.0
 40
1.0
 10
314.9228416392034
 20
455.0319530060069
 30
0.0
 10
314.9228416392034
 20
455.3041504739467
 30
0.0
 10
314.7021854894756
 20
455.5248101488651
 30
0.0
 10
314.4299844963462
 20
455.5248101488651
 30
0.0
  0
SPLINE
  5
16F
330
70
100
AcDbEntity
  8
Layer 1
 62
   177
420
  3027346
370
     5
100
AcDbSpline
210
0.0
220
0.0
230
1.0
 70
     8
 71
     3
 72
     8
 73
     4
 74
     0
 42
0.0000000001
 43
0.0000000001
 40
0.0
 40
0.0
 40
0.0
 40
0.0
 40
1.0
 40
1.0
 40
1.0
 40
1.0
 10
314.4299844963462
 20
441.7248092088138
 30
0.0
 10
314.7021854894756
 20
441.7248092088138
 30
0.0
 10
314.9228416392034
 20
441.9454691187438
 30
0.0
 10
314.9228416392034
 20
442.2176663516711
 30
0.0
  0
SPLINE
  5
170
330
70
100
AcDbEntity
  8
Layer 1
 62
   177
420
  3027346
370
     5
100
AcDbSpline
210
0.0
220
0.0
230
1.0
 70
     8
 71
     3
 72
     8
 73
     4
 74
     0
 42
0.0000000001
 43
0.0000000001
 40
0.0
 40
0.0
 40
0.0
 40
0.0
 40
1.0
 40
1.0
 40
1.0
 40
1.0
 10
301.1228416392023
 20
442.2176663516711
 30
0.0
 10
301.1228416392023
 20
441.9454691187438
 30
0.0
 10
301.3434977889301
 20
441.7248092088138
 30
0.0
 10
301.6156987820596
 20
441.7248092088138
 30
0.0
  0
LINE
  5
171
330
70
100
AcDbEntity
  8
Layer 1
 62
   177
420
  3027346
370
     5
100
AcDbLine
 10
282.0728190375567
 20
455.0319530060069
 30
0.0
 11
282.0728190375567
 21
442.2176663516711
 31
0.0
  0
LINE
  5
172
330
70
100
AcDbEntity
  8
Layer 1
 62
   177
420
  3027346
370
     5
100
AcDbLine
 10
295.8728190375559
 20
442.2176663516711
 30
0.0
 11
295.8728190375559
 21
455.0319530060069
 31
0.0
  0
LINE
  5
173
330
70
100
AcDbEntity
  8
Layer 1
 62
   177
420
  3027346
370
     5
100
AcDbLine
 10
295.3799618946987
 20
455.5248101488651
 30
0.0
 11
282.5656761804139
 21
455.5248101488651
 31
0.0
  0
LINE
  5
174
330
70
100
AcDbEntity
  8
Layer 1
 62
   177
420
  3027346
370
     5
100
AcDbLine
 10
282.5656761804139
 20
441.7248092088138
 30
0.0
 11
295.3799618946987
 21
441.7248092088138
 31
0.0
  0
SPLINE
  5
175
330
70
100
AcDbEntity
  8
Layer 1
 62
   177
420
  3027346
370
     5
100
AcDbSpline
210
0.0
220
0.0
230
1.0
 70
     8
 71
     3
 72
     8
 73
     4
 74
     0
 42
0.0000000001
 43
0.0000000001
 40
0.0
 40
0.0
 40
0.0
 40
0.0
 40
1.0
 40
1.0
 40
1.0
 40
1.0
 10
282.5656761804139
 20
455.5248101488651
 30
0.0
 10
282.2934751872836
 20
455.5248101488651
 30
0.0
 10
282.0728190375567
 20
455.3041504739467
 30
0.0
 10
282.0728190375567
 20
455.0319530060069
 30
0.0
  0
SPLINE
  5
176
330
70
100
AcDbEntity
  8
Layer 1
 62
   177
420
  3027346
370
     5
100
AcDbSpline
210
0.0
220
0.0
230
1.0
 70
     8
 71
     3
 72
     8
 73
     4
 74
     0
 42
0.0000000001
 43
0.0000000001
 40
0.0
 40
0.0
 40
0.0
 40
0.0
 40
1.0
 40
1.0
 40
1.0
 40
1.0
 10
295.8728190375559
 20
455.0319530060069
 30
0.0
 10
295.8728190375559
 20
455.3041504739467
 30
0.0
 10
295.652162887829
 20
455.5248101488651
 30
0.0
 10
295.3799618946987
 20
455.5248101488651
 30
0.0
  0
SPLINE
  5
177
330
70
100
AcDbEntity
  8
Layer 1
 62
   177
420
  3027346
370
     5
100
AcDbSpline
210
0.0
220
0.0
230
1.0
 70
     8
 71
     3
 72
     8
 73
     4
 74
     0
 42
0.0000000001
 43
0.0000000001
 40
0.0
 40
0.0
 40
0.0
 40
0.0
 40
1.0
 40
1.0
 40
1.0
 40
1.0
 10
295.3799618946987
 20
441.7248092088138
 30
0.0
 10
295.652162887829
 20
441.7248092088138
 30
0.0
 10
295.8728190375559
 20
441.9454691187438
 30
0.0
 10
295.8728190375559
 20
442.2176663516711
 30
0.0
  0
SPLINE
  5
178
330
70
100
AcDbEntity
  8
Layer 1
 62
   177
420
  3027346
370
     5
100
AcDbSpline
210
0.0
220
0.0
230
1.0
 70
     8
 71
     3
 72
     8
 73
     4
 74
     0
 42
0.0000000001
 43
0.0000000001
 40
0.0
 40
0.0
 40
0.0
 40
0.0
 40
1.0
 40
1.0
 40
1.0
 40
1.0
 10
282.0728190375567
 20
442.2176663516711
 30
0.0
 10
282.0728190375567
 20
441.9454691187438
 30
0.0
 10
282.2934751872836
 20
441.7248092088138
 30
0.0
 10
282.5656761804139
 20
441.7248092088138
 30
0.0
  0
LINE
  5
179
330
70
100
AcDbEntity
  8
Layer 1
 62
   177
420
  3027346
370
     5
100
AcDbLine
 10
263.0228040653119
 20
455.0319530060069
 30
0.0
 11
263.0228040653119
 21
442.2176663516711
 31
0.0
  0
LINE
  5
17A
330
70
100
AcDbEntity
  8
Layer 1
 62
   177
420
  3027346
370
     5
100
AcDbLine
 10
276.8228040653112
 20
442.2176663516711
 30
0.0
 11
276.8228040653112
 21
455.0319530060069
 31
0.0
  0
LINE
  5
17B
330
70
100
AcDbEntity
  8
Layer 1
 62
   177
420
  3027346
370
     5
100
AcDbLine
 10
276.3299469224539
 20
455.5248101488651
 30
0.0
 11
263.5156612081691
 21
455.5248101488651
 31
0.0
  0
LINE
  5
17C
330
70
100
AcDbEntity
  8
Layer 1
 62
   177
420
  3027346
370
     5
100
AcDbLine
 10
263.5156612081691
 20
441.7248092088138
 30
0.0
 11
276.3299469224539
 21
441.7248092088138
 31
0.0
  0
SPLINE
  5
17D
330
70
100
AcDbEntity
  8
Layer 1
 62
   177
420
  3027346
370
     5
100
AcDbSpline
210
0.0
220
0.0
230
1.0
 70
     8
 71
     3
 72
     8
 73
     4
 74
     0
 42
0.0000000001
 43
0.0000000001
 40
0.0
 40
0.0
 40
0.0
 40
0.0
 40
1.0
 40
1.0
 40
1.0
 40
1.0
 10
263.5156612081691
 20
455.5248101488651
 30
0.0
 10
263.2434602150388
 20
455.5248101488651
 30
0.0
 10
263.0228040653119
 20
455.3041504739467
 30
0.0
 10
263.0228040653119
 20
455.0319530060069
 30
0.0
  0
SPLINE
  5
17E
330
70
100
AcDbEntity
  8
Layer 1
 62
   177
420
  3027346
370
     5
100
AcDbSpline
210
0.0
220
0.0
230
1.0
 70
     8
 71
     3
 72
     8
 73
     4
 74
     0
 42
0.0000000001
 43
0.0000000001
 40
0.0
 40
0.0
 40
0.0
 40
0.0
 40
1.0
 40
1.0
 40
1.0
 40
1.0
 10
276.8228040653112
 20
455.0319530060069
 30
0.0
 10
276.8228040653112
 20
455.3041504739467
 30
0.0
 10
276.6021479155843
 20
455.5248101488651
 30
0.0
 10
276.3299469224539
 20
455.5248101488651
 30
0.0
  0
SPLINE
  5
17F
330
70
100
AcDbEntity
  8
Layer 1
 62
   177
420
  3027346
370
     5
100
AcDbSpline
210
0.0
220
0.0
230
1.0
 70
     8
 71
     3
 72
     8
 73
     4
 74
     0
 42
0.0000000001
 43
0.0000000001
 40
0.0
 40
0.0
 40
0.0
 40
0.0
 40
1.0
 40
1.0
 40
1.0
 40
1.0
 10
276.3299469224539
 20
441.7248092088138
 30
0.0
 10
276.6021479155843
 20
441.7248092088138
 30
0.0
 10
276.8228040653112
 20
441.9454691187438
 30
0.0
 10
276.8228040653112
 20
442.2176663516711
 30
0.0
  0
SPLINE
  5
180
330
70
100
AcDbEntity
  8
Layer 1
 62
   177
420
  3027346
370
     5
100
AcDbSpline
210
0.0
220
0.0
230
1.0
 70
     8
 71
     3
 72
     8
 73
     4
 74
     0
 42
0.0000000001
 43
0.0000000001
 40
0.0
 40
0.0
 40
0.0
 40
0.0
 40
1.0
 40
1.0
 40
1.0
 40
1.0
 10
263.0228040653119
 20
442.2176663516711
 30
0.0
 10
263.0228040653119
 20
441.9454691187438
 30
0.0
 10
263.2434602150388
 20
441.7248092088138
 30
0.0
 10
263.5156612081691
 20
441.7248092088138
 30
0.0
  0
LINE
  5
181
330
70
100
AcDbEntity
  8
Layer 1
 62
   177
420
  3027346
370
     5
100
AcDbLine
 10
243.9727814636654
 20
455.0319530060069
 30
0.0
 11
243.9727814636654
 21
442.2176663516711
 31
0.0
  0
LINE
  5
182
330
70
100
AcDbEntity
  8
Layer 1
 62
   177
420
  3027346
370
     5
100
AcDbLine
 10
257.7727814636646
 20
442.2176663516711
 30
0.0
 11
257.7727814636646
 21
455.0319530060069
 31
0.0
  0
LINE
  5
183
330
70
100
AcDbEntity
  8
Layer 1
 62
   177
420
  3027346
370
     5
100
AcDbLine
 10
257.2799243208073
 20
455.5248101488651
 30
0.0
 11
244.4656386065226
 21
455.5248101488651
 31
0.0
  0
LINE
  5
184
330
70
100
AcDbEntity
  8
Layer 1
 62
   177
420
  3027346
370
     5
100
AcDbLine
 10
244.4656386065226
 20
441.7248092088138
 30
0.0
 11
257.2799243208073
 21
441.7248092088138
 31
0.0
  0
SPLINE
  5
185
330
70
100
AcDbEntity
  8
Layer 1
 62
   177
420
  3027346
370
     5
100
AcDbSpline
210
0.0
220
0.0
230
1.0
 70
     8
 71
     3
 72
     8
 73
     4
 74
     0
 42
0.0000000001
 43
0.0000000001
 40
0.0
 40
0.0
 40
0.0
 40
0.0
 40
1.0
 40
1.0
 40
1.0
 40
1.0
 10
244.4656386065226
 20
455.5248101488651
 30
0.0
 10
244.1934413735944
 20
455.5248101488651
 30
0.0
 10
243.9727814636654
 20
455.3041504739467
 30
0.0
 10
243.9727814636654
 20
455.0319530060069
 30
0.0
  0
SPLINE
  5
186
330
70
100
AcDbEntity
  8
Layer 1
 62
   177
420
  3027346
370
     5
100
AcDbSpline
210
0.0
220
0.0
230
1.0
 70
     8
 71
     3
 72
     8
 73
     4
 74
     0
 42
0.0000000001
 43
0.0000000001
 40
0.0
 40
0.0
 40
0.0
 40
0.0
 40
1.0
 40
1.0
 40
1.0
 40
1.0
 10
257.7727814636646
 20
455.0319530060069
 30
0.0
 10
257.7727814636646
 20
455.3041504739467
 30
0.0
 10
257.5521253139377
 20
455.5248101488651
 30
0.0
 10
257.2799243208073
 20
455.5248101488651
 30
0.0
  0
SPLINE
  5
187
330
70
100
AcDbEntity
  8
Layer 1
 62
   177
420
  3027346
370
     5
100
AcDbSpline
210
0.0
220
0.0
230
1.0
 70
     8
 71
     3
 72
     8
 73
     4
 74
     0
 42
0.0000000001
 43
0.0000000001
 40
0.0
 40
0.0
 40
0.0
 40
0.0
 40
1.0
 40
1.0
 40
1.0
 40
1.0
 10
257.2799243208073
 20
441.7248092088138
 30
0.0
 10
257.5521253139377
 20
441.7248092088138
 30
0.0
 10
257.7727814636646
 20
441.9454691187438
 30
0.0
 10
257.7727814636646
 20
442.2176663516711
 30
0.0
  0
SPLINE
  5
188
330
70
100
AcDbEntity
  8
Layer 1
 62
   177
420
  3027346
370
     5
100
AcDbSpline
210
0.0
220
0.0
230
1.0
 70
     8
 71
     3
 72
     8
 73
     4
 74
     0
 42
0.0000000001
 43
0.0000000001
 40
0.0
 40
0.0
 40
0.0
 40
0.0
 40
1.0
 40
1.0
 40
1.0
 40
1.0
 10
243.9727814636654
 20
442.2176663516711
 30
0.0
 10
243.9727814636654
 20
441.9454691187438
 30
0.0
 10
244.1934413735944
 20
441.7248092088138
 30
0.0
 10
244.4656386065226
 20
441.7248092088138
 30
0.0
  0
LINE
  5
189
330
70
100
AcDbEntity
  8
Layer 1
 62
   177
420
  3027346
370
     5
100
AcDbLine
 10
224.9227617230445
 20
455.031952569554
 30
0.0
 11
224.9227617230445
 21
442.217666788123
 31
0.0
  0
LINE
  5
18A
330
70
100
AcDbEntity
  8
Layer 1
 62
   177
420
  3027346
370
     5
100
AcDbLine
 10
238.7227617230437
 20
442.217666788123
 30
0.0
 11
238.7227617230437
 21
455.031952569554
 31
0.0
  0
LINE
  5
18B
330
70
100
AcDbEntity
  8
Layer 1
 62
   177
420
  3027346
370
     5
100
AcDbLine
 10
238.2299046473336
 20
455.5248096788382
 30
0.0
 11
225.4156206788557
 21
455.5248096788382
 31
0.0
  0
LINE
  5
18C
330
70
100
AcDbEntity
  8
Layer 1
 62
   177
420
  3027346
370
     5
100
AcDbLine
 10
225.4156206788557
 20
441.7248096788389
 30
0.0
 11
238.2299046473336
 21
441.7248096788389
 31
0.0
  0
SPLINE
  5
18D
330
70
100
AcDbEntity
  8
Layer 1
 62
   177
420
  3027346
370
     5
100
AcDbSpline
210
0.0
220
0.0
230
1.0
 70
     8
 71
     3
 72
    11
 73
     7
 74
     0
 42
0.0000000001
 43
0.0000000001
 40
0.0
 40
0.0
 40
0.0
 40
0.0
 40
1.0
 40
1.0
 40
1.0
 40
2.0
 40
2.0
 40
2.0
 40
2.0
 10
225.4156206788557
 20
455.5248096788382
 30
0.0
 10
225.1434234830112
 20
455.5248106188892
 30
0.0
 10
224.9227636031446
 20
455.3041518990539
 30
0.0
 10
224.9227617230445
 20
455.031954449656
 30
0.0
 10
224.9227617230445
 20
455.0319537446175
 30
0.0
 10
224.9227617230445
 20
455.0319532745925
 30
0.0
 10
224.9227617230445
 20
455.031952569554
 30
0.0
  0
SPLINE
  5
18E
330
70
100
AcDbEntity
  8
Layer 1
 62
   177
420
  3027346
370
     5
100
AcDbSpline
210
0.0
220
0.0
230
1.0
 70
     8
 71
     3
 72
     8
 73
     4
 74
     0
 42
0.0000000001
 43
0.0000000001
 40
0.0
 40
0.0
 40
0.0
 40
0.0
 40
1.0
 40
1.0
 40
1.0
 40
1.0
 10
238.7227617230437
 20
455.031952569554
 30
0.0
 10
238.7227617230437
 20
455.3041500189538
 30
0.0
 10
238.502101843178
 20
455.5248096788382
 30
0.0
 10
238.2299046473336
 20
455.5248096788382
 30
0.0
  0
SPLINE
  5
18F
330
70
100
AcDbEntity
  8
Layer 1
 62
   177
420
  3027346
370
     5
100
AcDbSpline
210
0.0
220
0.0
230
1.0
 70
     8
 71
     3
 72
     8
 73
     4
 74
     0
 42
0.0000000001
 43
0.0000000001
 40
0.0
 40
0.0
 40
0.0
 40
0.0
 40
1.0
 40
1.0
 40
1.0
 40
1.0
 10
238.2299046473336
 20
441.7248096788389
 30
0.0
 10
238.502101843178
 20
441.7248096788389
 30
0.0
 10
238.7227617230437
 20
441.9454695737385
 30
0.0
 10
238.7227617230437
 20
442.217666788123
 30
0.0
  0
SPLINE
  5
190
330
70
100
AcDbEntity
  8
Layer 1
 62
   177
420
  3027346
370
     5
100
AcDbSpline
210
0.0
220
0.0
230
1.0
 70
     8
 71
     3
 72
    11
 73
     7
 74
     0
 42
0.0000000001
 43
0.0000000001
 40
0.0
 40
0.0
 40
0.0
 40
0.0
 40
1.0
 40
1.0
 40
1.0
 40
2.0
 40
2.0
 40
2.0
 40
2.0
 10
224.9227617230445
 20
442.217666788123
 30
0.0
 10
224.9227617230445
 20
441.9454695737385
 30
0.0
 10
225.14341972281
 20
441.7248096788389
 30
0.0
 10
225.4156169186544
 20
441.7248096788389
 30
0.0
 10
225.4156206788557
 20
441.7248096788389
 30
0.0
 10
225.4156206788557
 20
441.7248096788389
 30
0.0
 10
225.4156206788557
 20
441.7248096788389
 30
0.0
  0
SPLINE
  5
191
330
70
100
AcDbEntity
  8
Layer 1
 62
   177
420
  3027346
370
     5
100
AcDbSpline
210
0.0
220
0.0
230
1.0
 70
     8
 71
     3
 72
     8
 73
     4
 74
     0
 42
0.0000000001
 43
0.0000000001
 40
0.0
 40
0.0
 40
0.0
 40
0.0
 40
1.0
 40
1.0
 40
1.0
 40
1.0
 10
192.9444291789778
 20
455.7879694562853
 30
0.0
 10
192.9444291789778
 20
457.5249136319907
 30
0.0
 10
194.3223421765297
 20
458.9073321395799
 30
0.0
 10
196.0536253896725
 20
458.9073321395799
 30
0.0
  0
SPLINE
  5
192
330
70
100
AcDbEntity
  8
Layer 1
 62
   177
420
  3027346
370
     5
100
AcDbSpline
210
0.0
220
0.0
230
1.0
 70
     8
 71
     3
 72
     8
 73
     4
 74
     0
 42
0.0000000001
 43
0.0000000001
 40
0.0
 40
0.0
 40
0.0
 40
0.0
 40
1.0
 40
1.0
 40
1.0
 40
1.0
 10
403.9789291789784
 20
403.4683556385825
 30
0.0
 10
403.9789291789784
 20
401.7314146981879
 30
0.0
 10
402.6010109486451
 20
400.3489947751495
 30
0.0
 10
400.8697309602685
 20
400.3489947751495
 30
0.0
  0
LINE
  5
193
330
70
100
AcDbEntity
  8
Layer 1
 62
   177
420
  3027346
370
     5
100
AcDbLine
 10
375.3604640104113
 20
399.143787430261
 30
0.0
 11
375.3604640104113
 21
384.3269891685722
 31
0.0
  0
LINE
  5
194
330
70
100
AcDbEntity
  8
Layer 1
 62
   177
420
  3027346
370
     5
100
AcDbLine
 10
403.9789291789784
 20
455.7879694562853
 30
0.0
 11
403.9789291789784
 21
403.4683556385825
 31
0.0
  0
SPLINE
  5
195
330
70
100
AcDbEntity
  8
Layer 1
 62
   177
420
  3027346
370
     5
100
AcDbSpline
210
0.0
220
0.0
230
1.0
 70
     8
 71
     3
 72
     8
 73
     4
 74
     0
 42
0.0000000001
 43
0.0000000001
 40
0.0
 40
0.0
 40
0.0
 40
0.0
 40
1.0
 40
1.0
 40
1.0
 40
1.0
 10
224.6719973983272
 20
381.2076321395798
 30
0.0
 10
222.940812958579
 20
381.2076321395798
 30
0.0
 10
221.5629004611638
 20
382.5900482281777
 30
0.0
 10
221.5629004611638
 20
384.3269891685722
 30
0.0
  0
LINE
  5
196
330
70
100
AcDbEntity
  8
Layer 1
 62
   177
420
  3027346
370
     5
100
AcDbLine
 10
220.3616229794288
 20
400.3489947751495
 30
0.0
 11
196.0536253896725
 21
400.3489947751495
 31
0.0
  0
SPLINE
  5
197
330
70
100
AcDbEntity
  8
Layer 1
 62
   177
420
  3027346
370
     5
100
AcDbSpline
210
0.0
220
0.0
230
1.0
 70
     8
 71
     3
 72
     8
 73
     4
 74
     0
 42
0.0000000001
 43
0.0000000001
 40
0.0
 40
0.0
 40
0.0
 40
0.0
 40
1.0
 40
1.0
 40
1.0
 40
1.0
 10
400.8697309602685
 20
458.9073321395799
 30
0.0
 10
402.6010109486451
 20
458.9073321395799
 30
0.0
 10
403.9789291789784
 20
457.5249136319907
 30
0.0
 10
403.9789291789784
 20
455.7879694562853
 30
0.0
  0
SPLINE
  5
198
330
70
100
AcDbEntity
  8
Layer 1
 62
   177
420
  3027346
370
     5
100
AcDbSpline
210
0.0
220
0.0
230
1.0
 70
     8
 71
     3
 72
     8
 73
     4
 74
     0
 42
0.0000000001
 43
0.0000000001
 40
0.0
 40
0.0
 40
0.0
 40
0.0
 40
1.0
 40
1.0
 40
1.0
 40
1.0
 10
375.3604640104113
 20
384.3269891685722
 30
0.0
 10
375.3604640104113
 20
382.5900482281777
 30
0.0
 10
373.982545780078
 20
381.2076321395798
 30
0.0
 10
372.2513575183839
 20
381.2076321395798
 30
0.0
  0
SPLINE
  5
199
330
70
100
AcDbEntity
  8
Layer 1
 62
   177
420
  3027346
370
     5
100
AcDbSpline
210
0.0
220
0.0
230
1.0
 70
     8
 71
     3
 72
     8
 73
     4
 74
     0
 42
0.0000000001
 43
0.0000000001
 40
0.0
 40
0.0
 40
0.0
 40
0.0
 40
1.0
 40
1.0
 40
1.0
 40
1.0
 10
196.0536253896725
 20
400.3489947751495
 30
0.0
 10
194.3223421765297
 20
400.3489947751495
 30
0.0
 10
192.9444291789778
 20
401.7314146981879
 30
0.0
 10
192.9444291789778
 20
403.4683556385825
 30
0.0
  0
LINE
  5
19A
330
70
100
AcDbEntity
  8
Layer 1
 62
   177
420
  3027346
370
     5
100
AcDbLine
 10
192.9444291789778
 20
403.4683556385825
 30
0.0
 11
192.9444291789778
 21
455.7879694562853
 31
0.0
  0
LINE
  5
19B
330
70
100
AcDbEntity
  8
Layer 1
 62
   177
420
  3027346
370
     5
100
AcDbLine
 10
400.8697309602685
 20
400.3489947751495
 30
0.0
 11
376.5617319372832
 21
400.3489947751495
 31
0.0
  0
SPLINE
  5
19C
330
70
100
AcDbEntity
  8
Layer 1
 62
   177
420
  3027346
370
     5
100
AcDbSpline
210
0.0
220
0.0
230
1.0
 70
     8
 71
     3
 72
     8
 73
     4
 74
     0
 42
0.0000000001
 43
0.0000000001
 40
0.0
 40
0.0
 40
0.0
 40
0.0
 40
1.0
 40
1.0
 40
1.0
 40
1.0
 10
221.5629004611638
 20
399.143787430261
 30
0.0
 10
221.5629004611638
 20
399.8172573451993
 30
0.0
 10
221.0328960435508
 20
400.3489947751495
 30
0.0
 10
220.3616229794288
 20
400.3489947751495
 30
0.0
  0
SPLINE
  5
19D
330
70
100
AcDbEntity
  8
Layer 1
 62
   177
420
  3027346
370
     5
100
AcDbSpline
210
0.0
220
0.0
230
1.0
 70
     8
 71
     3
 72
     8
 73
     4
 74
     0
 42
0.0000000001
 43
0.0000000001
 40
0.0
 40
0.0
 40
0.0
 40
0.0
 40
1.0
 40
1.0
 40
1.0
 40
1.0
 10
376.5617319372832
 20
400.3489947751495
 30
0.0
 10
375.8904607841341
 20
400.3489947751495
 30
0.0
 10
375.3604640104113
 20
399.8172573451993
 30
0.0
 10
375.3604640104113
 20
399.143787430261
 30
0.0
  0
LINE
  5
19E
330
70
100
AcDbEntity
  8
Layer 1
 62
   177
420
  3027346
370
     5
100
AcDbLine
 10
221.5629004611638
 20
384.3269891685722
 30
0.0
 11
221.5629004611638
 21
399.143787430261
 31
0.0
  0
SPLINE
  5
19F
330
70
100
AcDbEntity
  8
Layer 1
 62
   177
420
  3027346
370
     5
100
AcDbSpline
210
0.0
220
0.0
230
1.0
 70
     8
 71
     3
 72
    47
 73
    43
 74
     0
 42
0.0000000001
 43
0.0000000001
 40
0.0
 40
0.0
 40
0.0
 40
0.0
 40
1.0
 40
1.0
 40
1.0
 40
2.0
 40
2.0
 40
2.0
 40
3.0
 40
3.0
 40
3.0
 40
4.0
 40
4.0
 40
4.0
 40
5.0
 40
5.0
 40
5.0
 40
6.0
 40
6.0
 40
6.0
 40
7.0
 40
7.0
 40
7.0
 40
8.0
 40
8.0
 40
8.0
 40
9.0
 40
9.0
 40
9.0
 40
10.0
 40
10.0
 40
10.0
 40
11.0
 40
11.0
 40
11.0
 40
12.0
 40
12.0
 40
12.0
 40
13.0
 40
13.0
 40
13.0
 40
14.0
 40
14.0
 40
14.0
 40
14.0
 10
399.7601455500953
 20
403.5995581188999
 30
0.0
 10
399.7253265779818
 20
403.5300039305311
 30
0.0
 10
399.7253265779818
 20
403.4256218400332
 30
0.0
 10
399.7253265779818
 20
403.3560676516644
 30
0.0
 10
399.7253265779818
 20
402.7297788722498
 30
0.0
 10
400.247204712532
 20
402.2078684197768
 30
0.0
 10
400.8733741738433
 20
402.2078684197768
 30
0.0
 10
401.4996339567442
 20
402.2078684197768
 30
0.0
 10
402.0215271448924
 20
402.7297788722498
 30
0.0
 10
402.0215271448924
 20
403.3560676516644
 30
0.0
 10
401.9866931191809
 20
403.9822548152005
 30
0.0
 10
401.4996339567442
 20
404.5041652676736
 30
0.0
 10
400.873464495431
 20
404.5041652676736
 30
0.0
 10
400.7690979006802
 20
404.5041652676736
 30
0.0
 10
400.699444902857
 20
404.5041652676736
 30
0.0
 10
400.6663872017051
 20
404.4693373655499
 30
0.0
 10
400.6663872017051
 20
404.4693373655499
 30
0.0
 10
400.6571535734947
 20
404.4805682037186
 30
0.0
 10
400.6571535734947
 20
404.4805682037186
 30
0.0
 10
400.6571535734947
 20
404.4805682037186
 30
0.0
 10
400.6571535734947
 20
416.9128631098283
 30
0.0
 10
400.6571535734947
 20
416.9128631098283
 30
0.0
 10
400.6571535734947
 20
417.1884925749618
 30
0.0
 10
400.4151492710953
 20
417.4155007016452
 30
0.0
 10
400.1393797187866
 20
417.4155007016452
 30
0.0
 10
400.1393797187866
 20
417.4155007016452
 30
0.0
 10
387.3564858766404
 20
417.4155007016452
 30
0.0
 10
387.3564858766404
 20
417.4155007016452
 30
0.0
 10
387.0807163243335
 20
417.4155007016452
 30
0.0
 10
386.8571535734955
 20
417.1920584120361
 30
0.0
 10
386.8571535734955
 20
416.9164289469026
 30
0.0
 10
386.8571535734955
 20
416.9164289469026
 30
0.0
 10
386.8571535734955
 20
416.9128644083939
 30
0.0
 10
386.8571535734955
 20
416.9128644083939
 30
0.0
 10
386.8571535734955
 20
416.9128644083939
 30
0.0
 10
386.8571535734955
 20
404.1366405984445
 30
0.0
 10
386.8571535734955
 20
404.1366405984445
 30
0.0
 10
386.8571699233671
 20
403.8610111333091
 30
0.0
 10
387.0807388219964
 20
403.6155105492325
 30
0.0
 10
387.356507720855
 20
403.6155105492325
 30
0.0
 10
387.356507720855
 20
403.6155105492325
 30
0.0
 10
399.7521088347075
 20
403.6155007016441
 30
0.0
 10
399.7521088347075
 20
403.6155007016441
 30
0.0
  0
LINE
  5
1A0
330
70
100
AcDbEntity
  8
Layer 1
 62
   177
420
  3027346
370
     5
100
AcDbLine
 10
196.0536253896725
 20
458.9073321395799
 30
0.0
 11
400.8697309602685
 21
458.9073321395799
 31
0.0
  0
LINE
  5
1A1
330
70
100
AcDbEntity
  8
Layer 1
 62
   177
420
  3027346
370
     5
100
AcDbLine
 10
372.2513575183839
 20
381.2076321395798
 30
0.0
 11
224.6719973983272
 21
381.2076321395798
 31
0.0
  0
SPLINE
  5
1A2
330
70
100
AcDbEntity
  8
Layer 1
 62
   177
420
  3027346
370
     5
100
AcDbSpline
210
0.0
220
0.0
230
1.0
 70
     8
 71
     3
 72
    56
 73
    52
 74
     0
 42
0.0000000001
 43
0.0000000001
 40
0.0
 40
0.0
 40
0.0
 40
0.0
 40
1.0
 40
1.0
 40
1.0
 40
2.0
 40
2.0
 40
2.0
 40
3.0
 40
3.0
 40
3.0
 40
4.0
 40
4.0
 40
4.0
 40
5.0
 40
5.0
 40
5.0
 40
6.0
 40
6.0
 40
6.0
 40
7.0
 40
7.0
 40
7.0
 40
8.0
 40
8.0
 40
8.0
 40
9.0
 40
9.0
 40
9.0
 40
10.0
 40
10.0
 40
10.0
 40
11.0
 40
11.0
 40
11.0
 40
12.0
 40
12.0
 40
12.0
 40
13.0
 40
13.0
 40
13.0
 40
14.0
 40
14.0
 40
14.0
 40
15.0
 40
15.0
 40
15.0
 40
16.0
 40
16.0
 40
16.0
 40
17.0
 40
17.0
 40
17.0
 40
17.0
 10
213.932550228973
 20
455.5283823469035
 30
0.0
 10
213.9325502290003
 20
456.1423828206134
 30
0.0
 10
213.4116818396015
 20
456.6713834073871
 30
0.0
 10
212.7867419357553
 20
456.6713834073635
 30
0.0
 10
212.1617118876766
 20
456.6713834073925
 30
0.0
 10
211.6409486664988
 20
456.1423828206643
 30
0.0
 10
211.6409486664716
 20
455.5283823469544
 30
0.0
 10
211.6409486664716
 20
455.5283823469544
 30
0.0
 10
211.6409486664707
 20
455.5319539890042
 30
0.0
 10
211.6409486664707
 20
455.5319539890042
 30
0.0
 10
211.6409486664707
 20
455.5319539890042
 30
0.0
 10
201.6102368091315
 20
455.5319539894535
 30
0.0
 10
201.6102368091315
 20
455.5319539894535
 30
0.0
 10
201.3340982200825
 20
455.5319539894535
 30
0.0
 10
201.1102362960019
 20
455.3080961185115
 30
0.0
 10
201.11023629599
 20
455.0319534763421
 30
0.0
 10
201.11023629599
 20
455.0319534763421
 30
0.0
 10
201.1102362954152
 20
442.2319534763428
 30
0.0
 10
201.1102362954152
 20
442.2319534763428
 30
0.0
 10
201.1102362954152
 20
442.2319534763428
 30
0.0
 10
201.1102362954152
 20
442.2283818343057
 30
0.0
 10
201.1102362954152
 20
442.2283818343057
 30
0.0
 10
201.1102362954025
 20
441.9522394305568
 30
0.0
 10
201.3340982194632
 20
441.7283813211752
 30
0.0
 10
201.610236808513
 20
441.7283813211634
 30
0.0
 10
201.610236808513
 20
441.7283813211634
 30
0.0
 10
201.610236808513
 20
441.7248096791263
 30
0.0
 10
201.610236808513
 20
441.7248096791263
 30
0.0
 10
201.610236808513
 20
441.7248096791263
 30
0.0
 10
214.4102368085141
 20
441.7248096785515
 30
0.0
 10
214.4102368085141
 20
441.7248096785515
 30
0.0
 10
214.4102368085141
 20
441.7248096785515
 30
0.0
 10
214.4102368085141
 20
441.7265954995709
 30
0.0
 10
214.4102368085141
 20
441.7265954995709
 30
0.0
 10
214.6863753975622
 20
441.7265954995573
 30
0.0
 10
214.9102373216447
 20
441.9504536089188
 30
0.0
 10
214.9102373216574
 20
442.2265960126678
 30
0.0
 10
214.9102373216574
 20
442.2265960126678
 30
0.0
 10
214.9102373216574
 20
442.2301676547049
 30
0.0
 10
214.9102373216574
 20
442.2301676547049
 30
0.0
 10
214.9102373216574
 20
442.2301676547049
 30
0.0
 10
214.9102373222322
 20
455.0301676547042
 30
0.0
 10
214.9102373222322
 20
455.0301676547042
 30
0.0
 10
214.910237322244
 20
455.3063102968735
 30
0.0
 10
214.6863753981815
 20
455.5301681678356
 30
0.0
 10
214.4102368091335
 20
455.5301681678484
 30
0.0
 10
214.4102368091335
 20
455.5301681678484
 30
0.0
 10
214.4154980440617
 20
455.530168167832
 30
0.0
 10
214.4154980440617
 20
455.530168167832
 30
0.0
 10
214.4154980440617
 20
455.530168167832
 30
0.0
 10
213.9378114639012
 20
455.5301681679066
 30
0.0
 10
213.9378114639012
 20
455.5301681679066
 30
0.0
  0
SPLINE
  5
1A3
330
70
100
AcDbEntity
  8
Layer 1
 62
   177
420
  3027346
370
     5
100
AcDbSpline
210
0.0
220
0.0
230
1.0
 70
     8
 71
     3
 72
    56
 73
    52
 74
     0
 42
0.0000000001
 43
0.0000000001
 40
0.0
 40
0.0
 40
0.0
 40
0.0
 40
1.0
 40
1.0
 40
1.0
 40
2.0
 40
2.0
 40
2.0
 40
3.0
 40
3.0
 40
3.0
 40
4.0
 40
4.0
 40
4.0
 40
5.0
 40
5.0
 40
5.0
 40
6.0
 40
6.0
 40
6.0
 40
7.0
 40
7.0
 40
7.0
 40
8.0
 40
8.0
 40
8.0
 40
9.0
 40
9.0
 40
9.0
 40
10.0
 40
10.0
 40
10.0
 40
11.0
 40
11.0
 40
11.0
 40
12.0
 40
12.0
 40
12.0
 40
13.0
 40
13.0
 40
13.0
 40
14.0
 40
14.0
 40
14.0
 40
15.0
 40
15.0
 40
15.0
 40
16.0
 40
16.0
 40
16.0
 40
17.0
 40
17.0
 40
17.0
 40
17.0
 10
383.0578439679048
 20
455.5265960132283
 30
0.0
 10
383.0578439679048
 20
455.5265960132283
 30
0.0
 10
382.5801573877434
 20
455.5265960131764
 30
0.0
 10
382.5801573877434
 20
455.5265960131764
 30
0.0
 10
382.5801573877434
 20
455.5265960131764
 30
0.0
 10
382.5854186226716
 20
455.526596013191
 30
0.0
 10
382.5854186226716
 20
455.526596013191
 30
0.0
 10
382.3092800336235
 20
455.526596013191
 30
0.0
 10
382.0854181095528
 20
455.302738142238
 30
0.0
 10
382.0854181095528
 20
455.0265955000704
 30
0.0
 10
382.0854181095528
 20
455.0265955000704
 30
0.0
 10
382.0854181095528
 20
442.2265955000711
 30
0.0
 10
382.0854181095528
 20
442.2265955000711
 30
0.0
 10
382.0854181095528
 20
442.2265955000711
 30
0.0
 10
382.0854181095528
 20
442.2230238580332
 30
0.0
 10
382.0854181095528
 20
442.2230238580332
 30
0.0
 10
382.085418109551
 20
441.9468814542852
 30
0.0
 10
382.3092800336235
 20
441.7230233449126
 30
0.0
 10
382.5854186226716
 20
441.7230233449126
 30
0.0
 10
382.5854186226716
 20
441.7230233449126
 30
0.0
 10
382.5854186226716
 20
441.7212375238941
 30
0.0
 10
382.5854186226716
 20
441.7212375238941
 30
0.0
 10
382.5854186226716
 20
441.7212375238941
 30
0.0
 10
395.3854186226727
 20
441.7212375238941
 30
0.0
 10
395.3854186226727
 20
441.7212375238941
 30
0.0
 10
395.3854186226727
 20
441.7212375238941
 30
0.0
 10
395.3854186226727
 20
441.7248091659311
 30
0.0
 10
395.3854186226727
 20
441.7248091659311
 30
0.0
 10
395.6615572117225
 20
441.7248091659311
 30
0.0
 10
395.885419135795
 20
441.9486672753028
 30
0.0
 10
395.8854191357932
 20
442.2248096790517
 30
0.0
 10
395.8854191357932
 20
442.2248096790517
 30
0.0
 10
395.8854191357932
 20
442.2283813210888
 30
0.0
 10
395.8854191357932
 20
442.2283813210888
 30
0.0
 10
395.8854191357932
 20
442.2283813210888
 30
0.0
 10
395.8854191357932
 20
455.0283813210881
 30
0.0
 10
395.8854191357932
 20
455.0283813210881
 30
0.0
 10
395.885419135795
 20
455.3045239632574
 30
0.0
 10
395.6615572117225
 20
455.5283818342086
 30
0.0
 10
395.3854186226745
 20
455.5283818342213
 30
0.0
 10
395.3854186226745
 20
455.5283818342213
 30
0.0
 10
385.3547067653344
 20
455.5283818342231
 30
0.0
 10
385.3547067653344
 20
455.5283818342231
 30
0.0
 10
385.3547067653344
 20
455.5283818342231
 30
0.0
 10
385.3547067653344
 20
455.5248101921733
 30
0.0
 10
385.3547067653344
 20
455.5248101921733
 30
0.0
 10
385.3547067653344
 20
456.1388106658832
 30
0.0
 10
384.8339435441813
 20
456.6678112526333
 30
0.0
 10
384.2089134961025
 20
456.6678112526333
 30
0.0
 10
383.5839735922564
 20
456.6678112526861
 30
0.0
 10
383.063105202833
 20
456.1388106659342
 30
0.0
 10
383.063105202833
 20
455.5248101922261
 30
0.0
  0
SPLINE
  5
1A4
330
70
100
AcDbEntity
  8
Layer 1
 62
   177
420
  3027346
370
     5
100
AcDbSpline
210
0.0
220
0.0
230
1.0
 70
     8
 71
     3
 72
    47
 73
    43
 74
     0
 42
0.0000000001
 43
0.0000000001
 40
0.0
 40
0.0
 40
0.0
 40
0.0
 40
1.0
 40
1.0
 40
1.0
 40
2.0
 40
2.0
 40
2.0
 40
3.0
 40
3.0
 40
3.0
 40
4.0
 40
4.0
 40
4.0
 40
5.0
 40
5.0
 40
5.0
 40
6.0
 40
6.0
 40
6.0
 40
7.0
 40
7.0
 40
7.0
 40
8.0
 40
8.0
 40
8.0
 40
9.0
 40
9.0
 40
9.0
 40
10.0
 40
10.0
 40
10.0
 40
11.0
 40
11.0
 40
11.0
 40
12.0
 40
12.0
 40
12.0
 40
13.0
 40
13.0
 40
13.0
 40
14.0
 40
14.0
 40
14.0
 40
14.0
 10
197.2478911650305
 20
403.6247697207418
 30
0.0
 10
197.2478911650305
 20
403.6247697207418
 30
0.0
 10
209.6434922788831
 20
403.6247795677736
 30
0.0
 10
209.6434922788831
 20
403.6247795677736
 30
0.0
 10
209.9192611777417
 20
403.6247795677609
 30
0.0
 10
210.1428300763819
 20
403.8702801518265
 30
0.0
 10
210.1428464262663
 20
404.1459096169619
 30
0.0
 10
210.1428464262663
 20
404.1459096169619
 30
0.0
 10
210.1428464268401
 20
416.9221334269131
 30
0.0
 10
210.1428464268401
 20
416.9221334269131
 30
0.0
 10
210.1428464268401
 20
416.9221334269131
 30
0.0
 10
210.1428464268401
 20
416.9256979654201
 30
0.0
 10
210.1428464268401
 20
416.9256979654201
 30
0.0
 10
210.1428464268529
 20
417.2013274305536
 30
0.0
 10
209.9192836760249
 20
417.4247697201735
 30
0.0
 10
209.643514123718
 20
417.4247697201862
 30
0.0
 10
209.643514123718
 20
417.4247697201862
 30
0.0
 10
196.8606202815717
 20
417.4247697207593
 30
0.0
 10
196.8606202815717
 20
417.4247697207593
 30
0.0
 10
196.584850729263
 20
417.424769720772
 30
0.0
 10
196.3428464268527
 20
417.1977615940996
 30
0.0
 10
196.3428464268409
 20
416.922132128966
 30
0.0
 10
196.3428464268409
 20
416.922132128966
 30
0.0
 10
196.3428464262824
 20
404.4898372228563
 30
0.0
 10
196.3428464262824
 20
404.4898372228563
 30
0.0
 10
196.3428464262824
 20
404.4898372228563
 30
0.0
 10
196.333612798071
 20
404.4786063846877
 30
0.0
 10
196.333612798071
 20
404.4786063846877
 30
0.0
 10
196.300555096921
 20
404.5134342868132
 30
0.0
 10
196.2309020990979
 20
404.5134342868168
 30
0.0
 10
196.126535504347
 20
404.5134342868204
 30
0.0
 10
195.5003660430338
 20
404.5134342868496
 30
0.0
 10
195.0133068805735
 20
403.9915238343983
 30
0.0
 10
194.9784728548347
 20
403.365336670864
 30
0.0
 10
194.9784728548065
 20
402.7390478914494
 30
0.0
 10
195.5003660429311
 20
402.2171374389527
 30
0.0
 10
196.1266258258319
 20
402.2171374389236
 30
0.0
 10
196.7527952871432
 20
402.2171374388963
 30
0.0
 10
197.2746734217171
 20
402.7390478913457
 30
0.0
 10
197.2746734217453
 20
403.3653366707603
 30
0.0
 10
197.274673421748
 20
403.4348908591291
 30
0.0
 10
197.2746734217526
 20
403.539272949627
 30
0.0
 10
197.2398544496427
 20
403.6088271379976
 30
0.0
  0
ENDSEC
  0
SECTION
  2
OBJECTS
  0
DICTIONARY
  5
C
330
0
100
AcDbDictionary
281
     1
  3
ACAD_COLOR
350
63
  3
ACAD_DETAILVIEWSTYLE
350
6A
  3
ACAD_GROUP
350
D
  3
ACAD_LAYOUT
350
62
  3
ACAD_MATERIAL
350
10
  3
ACAD_MLEADERSTYLE
350
66
  3
ACAD_MLINESTYLE
350
5F
  3
ACAD_PLOTSETTINGS
350
61
  3
ACAD_PLOTSTYLENAME
350
E
  3
ACAD_SCALELIST
350
42
  3
ACAD_SECTIONVIEWSTYLE
350
68
  3
ACAD_TABLESTYLE
350
64
  3
ACAD_VISUALSTYLE
350
29
  3
ACDB_RECOMPOSE_DATA
350
1AD
  3
AcDbVariableDictionary
350
1A5
  0
DICTIONARY
  5
63
102
{ACAD_REACTORS
330
C
102
}
330
C
100
AcDbDictionary
281
     1
  0
DICTIONARY
  5
6A
102
{ACAD_REACTORS
330
C
102
}
330
C
100
AcDbDictionary
281
     1
  3
Imperial24
350
6B
  0
DICTIONARY
  5
D
102
{ACAD_REACTORS
330
C
102
}
330
C
100
AcDbDictionary
281
     1
  0
DICTIONARY
  5
62
102
{ACAD_REACTORS
330
C
102
}
330
C
100
AcDbDictionary
281
     1
  3
Layout1
350
6F
  3
Layout2
350
77
  3
Model
350
73
  0
DICTIONARY
  5
10
102
{ACAD_REACTORS
330
C
102
}
330
C
100
AcDbDictionary
281
     1
  3
ByBlock
350
19
  3
ByLayer
350
11
  3
Global
350
21
  0
DICTIONARY
  5
66
102
{ACAD_REACTORS
330
C
102
}
330
C
100
AcDbDictionary
281
     1
  3
Standard
350
67
  0
DICTIONARY
  5
5F
102
{ACAD_REACTORS
330
C
102
}
330
C
100
AcDbDictionary
281
     1
  3
Standard
350
60
  0
DICTIONARY
  5
61
102
{ACAD_REACTORS
330
C
102
}
330
C
100
AcDbDictionary
281
     1
  0
ACDBDICTIONARYWDFLT
  5
E
102
{ACAD_REACTORS
330
C
102
}
330
C
100
AcDbDictionary
281
     1
  3
Normal
350
F
100
AcDbDictionaryWithDefault
340
F
  0
DICTIONARY
  5
42
102
{ACAD_REACTORS
330
C
102
}
330
C
100
AcDbDictionary
281
     1
  3
A0
350
43
  3
A1
350
44
  3
A2
350
45
  3
A3
350
46
  3
A4
350
47
  3
A5
350
48
  3
A6
350
49
  3
A7
350
4A
  3
A8
350
4B
  3
A9
350
4C
  3
B0
350
4D
  3
B1
350
4E
  3
B2
350
4F
  3
B3
350
50
  3
B4
350
51
  3
B5
350
52
  3
B6
350
53
  0
DICTIONARY
  5
68
102
{ACAD_REACTORS
330
C
102
}
330
C
100
AcDbDictionary
281
     1
  3
Imperial24
350
69
  0
DICTIONARY
  5
64
102
{ACAD_REACTORS
330
C
102
}
330
C
100
AcDbDictionary
281
     1
  3
Standard
350
65
  0
DICTIONARY
  5
29
102
{ACAD_REACTORS
330
C
102
}
330
C
100
AcDbDictionary
281
     1
  3
2dWireframe
350
2F
  3
Basic
350
2E
  3
Brighten
350
35
  3
ColorChange
350
39
  3
Conceptual
350
32
  3
Dim
350
34
  3
EdgeColorOff
350
41
  3
Facepattern
350
38
  3
Flat
350
2A
  3
FlatWithEdges
350
2B
  3
Gouraud
350
2C
  3
GouraudWithEdges
350
2D
  3
Hidden
350
31
  3
JitterOff
350
3F
  3
Linepattern
350
37
  3
OverhangOff
350
40
  3
Realistic
350
33
  3
Shaded
350
3E
  3
Shaded with edges
350
3D
  3
Shades of Gray
350
3A
  3
Sketchy
350
3B
  3
Thicken
350
36
  3
Wireframe
350
30
  3
X-Ray
350
3C
  0
XRECORD
  5
1AD
102
{ACAD_REACTORS
330
C
102
}
330
C
100
AcDbXrecord
280
     1
 90
        1
330
65
  0
DICTIONARY
  5
1A5
102
{ACAD_REACTORS
330
C
102
}
330
C
100
AcDbDictionary
281
     1
  3
CANNOSCALE
350
1AA
  3
CMLEADERSTYLE
350
1A7
  3
CTABLESTYLE
350
1A6
  3
CVIEWDETAILSTYLE
350
1A8
  3
CVIEWSECTIONSTYLE
350
1A9
  0
ACDBDETAILVIEWSTYLE
  5
6B
102
{ACAD_REACTORS
330
6A
102
}
330
6A
100
AcDbModelDocViewStyle
 70
     0
  3
Imperial24
290
     1
300
Imperial24
 90
        0
100
AcDbDetailViewStyle
 70
     0
 71
     0
 90
        3
 71
     1
340
55
 62
   256
 40
0.24
340
0
 62
   256
 40
0.24
300

 40
0.36
280
     3
 71
     2
340
5D
 90
       25
 62
   256
 71
     3
340
55
 62
   256
 40
0.24
 90
        1
 40
0.75
 90
        1
300
%<\AcVar ViewType \f "%tc1">% %<\AcVar ViewDetailId>%\PSCALE %<\AcVar ViewScale \f "%sn">%
 71
     4
340
5D
 90
       25
 62
   256
340
5D
 90
       25
 62
   256
280
     0
  0
LAYOUT
  5
6F
102
{ACAD_REACTORS
330
62
102
}
330
62
100
AcDbPlotSettings
  1

  2

  4

  6

 40
0.0
 41
0.0
 42
0.0
 43
0.0
 44
0.0
 45
0.0
 46
0.0
 47
0.0
 48
0.0
 49
0.0
140
0.0
141
0.0
142
1.0
143
1.0
 70
   688
 72
     0
 73
     0
 74
     5
  7

 75
    16
147
1.0
 76
     0
 77
     2
 78
   300
148
0.0
149
0.0
100
AcDbLayout
  1
Layout1
 70
     1
 71
     1
 10
0.0
 20
0.0
 11
12.0
 21
9.0
 12
0.0
 22
0.0
 32
0.0
 14
0.0
 24
0.0
 34
0.0
 15
0.0
 25
0.0
 35
0.0
146
0.0
 13
0.0
 23
0.0
 33
0.0
 16
1.0
 26
0.0
 36
0.0
 17
0.0
 27
1.0
 37
0.0
 76
     0
330
6C
  0
LAYOUT
  5
77
102
{ACAD_REACTORS
330
62
102
}
330
62
100
AcDbPlotSettings
  1

  2

  4

  6

 40
0.0
 41
0.0
 42
0.0
 43
0.0
 44
0.0
 45
0.0
 46
0.0
 47
0.0
 48
0.0
 49
0.0
140
0.0
141
0.0
142
1.0
143
1.0
 70
   688
 72
     0
 73
     0
 74
     5
  7

 75
    16
147
1.0
 76
     0
 77
     2
 78
   300
148
0.0
149
0.0
100
AcDbLayout
  1
Layout2
 70
     1
 71
     2
 10
0.0
 20
0.0
 11
12.0
 21
9.0
 12
0.0
 22
0.0
 32
0.0
 14
0.0
 24
0.0
 34
0.0
 15
0.0
 25
0.0
 35
0.0
146
0.0
 13
0.0
 23
0.0
 33
0.0
 16
1.0
 26
0.0
 36
0.0
 17
0.0
 27
1.0
 37
0.0
 76
     0
330
74
  0
LAYOUT
  5
73
102
{ACAD_REACTORS
330
62
102
}
330
62
100
AcDbPlotSettings
  1

  2

  4

  6

 40
0.0
 41
0.0
 42
0.0
 43
0.0
 44
0.0
 45
0.0
 46
0.0
 47
0.0
 48
0.0
 49
0.0
140
0.0
141
0.0
142
1.0
143
1.0
 70
  1712
 72
     0
 73
     0
 74
     0
  7

 75
     0
147
1.0
 76
     0
 77
     2
 78
   300
148
0.0
149
0.0
100
AcDbLayout
  1
Model
 70
     1
 71
     0
 10
0.0
 20
0.0
 11
12.0
 21
9.0
 12
0.0
 22
0.0
 32
0.0
 14
0.0
 24
0.0
 34
0.0
 15
0.0
 25
0.0
 35
0.0
146
0.0
 13
0.0
 23
0.0
 33
0.0
 16
1.0
 26
0.0
 36
0.0
 17
0.0
 27
1.0
 37
0.0
 76
     0
330
70
  0
MATERIAL
  5
19
102
{ACAD_XDICTIONARY
360
1A
102
}
102
{ACAD_REACTORS
330
10
102
}
330
10
100
AcDbMaterial
  1
ByBlock
 72
     0
 43
0.0208333333333333
 43
0.0
 43
0.0
 43
0.0
 43
0.0
 43
0.0208333333333333
 43
0.0
 43
0.0
 43
0.0
 43
0.0
 43
1.0
 43
0.0
 43
0.0
 43
0.0
 43
0.0
 43
1.0
 77
     0
 47
0.0208333333333333
 47
0.0
 47
0.0
 47
0.0
 47
0.0
 47
0.0208333333333333
 47
0.0
 47
0.0
 47
0.0
 47
0.0
 47
1.0
 47
0.0
 47
0.0
 47
0.0
 47
0.0
 47
1.0
171
     0
 49
0.0208333333333333
 49
0.0
 49
0.0
 49
0.0
 49
0.0
 49
0.0208333333333333
 49
0.0
 49
0.0
 49
0.0
 49
0.0
 49
1.0
 49
0.0
 49
0.0
 49
0.0
 49
0.0
 49
1.0
175
     0
142
0.0208333333333333
142
0.0
142
0.0
142
0.0
142
0.0
142
0.0208333333333333
142
0.0
142
0.0
142
0.0
142
0.0
142
1.0
142
0.0
142
0.0
142
0.0
142
0.0
142
1.0
179
     0
144
0.0208333333333333
144
0.0
144
0.0
144
0.0
144
0.0
144
0.0208333333333333
144
0.0
144
0.0
144
0.0
144
0.0
144
1.0
144
0.0
144
0.0
144
0.0
144
0.0
144
1.0
147
0.0208333333333333
147
0.0
147
0.0
147
0.0
147
0.0
147
0.0208333333333333
147
0.0
147
0.0
147
0.0
147
0.0
147
1.0
147
0.0
147
0.0
147
0.0
147
0.0
147
1.0
  0
MATERIAL
  5
11
102
{ACAD_XDICTIONARY
360
12
102
}
102
{ACAD_REACTORS
330
10
102
}
330
10
100
AcDbMaterial
  1
ByLayer
 72
     0
 43
0.0208333333333333
 43
0.0
 43
0.0
 43
0.0
 43
0.0
 43
0.0208333333333333
 43
0.0
 43
0.0
 43
0.0
 43
0.0
 43
1.0
 43
0.0
 43
0.0
 43
0.0
 43
0.0
 43
1.0
 77
     0
 47
0.0208333333333333
 47
0.0
 47
0.0
 47
0.0
 47
0.0
 47
0.0208333333333333
 47
0.0
 47
0.0
 47
0.0
 47
0.0
 47
1.0
 47
0.0
 47
0.0
 47
0.0
 47
0.0
 47
1.0
171
     0
 49
0.0208333333333333
 49
0.0
 49
0.0
 49
0.0
 49
0.0
 49
0.0208333333333333
 49
0.0
 49
0.0
 49
0.0
 49
0.0
 49
1.0
 49
0.0
 49
0.0
 49
0.0
 49
0.0
 49
1.0
175
     0
142
0.0208333333333333
142
0.0
142
0.0
142
0.0
142
0.0
142
0.0208333333333333
142
0.0
142
0.0
142
0.0
142
0.0
142
1.0
142
0.0
142
0.0
142
0.0
142
0.0
142
1.0
179
     0
144
0.0208333333333333
144
0.0
144
0.0
144
0.0
144
0.0
144
0.0208333333333333
144
0.0
144
0.0
144
0.0
144
0.0
144
1.0
144
0.0
144
0.0
144
0.0
144
0.0
144
1.0
147
0.0208333333333333
147
0.0
147
0.0
147
0.0
147
0.0
147
0.0208333333333333
147
0.0
147
0.0
147
0.0
147
0.0
147
1.0
147
0.0
147
0.0
147
0.0
147
0.0
147
1.0
  0
MATERIAL
  5
21
102
{ACAD_XDICTIONARY
360
22
102
}
102
{ACAD_REACTORS
330
10
102
}
330
10
100
AcDbMaterial
  1
Global
 72
     0
 43
0.0208333333333333
 43
0.0
 43
0.0
 43
0.0
 43
0.0
 43
0.0208333333333333
 43
0.0
 43
0.0
 43
0.0
 43
0.0
 43
1.0
 43
0.0
 43
0.0
 43
0.0
 43
0.0
 43
1.0
 77
     0
 47
0.0208333333333333
 47
0.0
 47
0.0
 47
0.0
 47
0.0
 47
0.0208333333333333
 47
0.0
 47
0.0
 47
0.0
 47
0.0
 47
1.0
 47
0.0
 47
0.0
 47
0.0
 47
0.0
 47
1.0
171
     0
 49
0.0208333333333333
 49
0.0
 49
0.0
 49
0.0
 49
0.0
 49
0.0208333333333333
 49
0.0
 49
0.0
 49
0.0
 49
0.0
 49
1.0
 49
0.0
 49
0.0
 49
0.0
 49
0.0
 49
1.0
175
     0
142
0.0208333333333333
142
0.0
142
0.0
142
0.0
142
0.0
142
0.0208333333333333
142
0.0
142
0.0
142
0.0
142
0.0
142
1.0
142
0.0
142
0.0
142
0.0
142
0.0
142
1.0
179
     0
144
0.0208333333333333
144
0.0
144
0.0
144
0.0
144
0.0
144
0.0208333333333333
144
0.0
144
0.0
144
0.0
144
0.0
144
1.0
144
0.0
144
0.0
144
0.0
144
0.0
144
1.0
147
0.0208333333333333
147
0.0
147
0.0
147
0.0
147
0.0
147
0.0208333333333333
147
0.0
147
0.0
147
0.0
147
0.0
147
1.0
147
0.0
147
0.0
147
0.0
147
0.0
147
1.0
  0
MLEADERSTYLE
  5
67
102
{ACAD_REACTORS
330
66
102
}
330
66
100
AcDbMLeaderStyle
179
     2
170
     2
171
     1
172
     0
 90
        2
 40
0.0
 41
0.0
173
     1
 91
-1056964608
340
5B
 92
       -2
290
     1
 42
0.09
291
     1
 43
0.36
  3
Standard
 44
0.18
300

342
55
174
     1
178
     6
175
     1
176
     0
 93
-1056964608
 45
0.18
292
     0
297
     0
 46
0.18
 94
-1056964608
 47
1.0
 49
1.0
140
1.0
293
     1
141
0.0
294
     1
177
     0
142
1.0
295
     1
296
     0
143
0.125
271
     0
272
     9
273
     9
298
     1
  0
MLINESTYLE
  5
60
102
{ACAD_REACTORS
330
5F
102
}
330
5F
100
AcDbMlineStyle
  2
STANDARD
 70
     0
  3

 62
   256
 51
90.0
 52
90.0
 71
     2
 49
0.5
 62
   256
  6
BYLAYER
 49
-0.5
 62
   256
  6
BYLAYER
  0
ACDBPLACEHOLDER
  5
F
102
{ACAD_REACTORS
330
E
102
}
330
E
  0
SCALE
  5
43
102
{ACAD_REACTORS
330
42
102
}
330
42
100
AcDbScale
 70
     0
300
1:1
140
1.0
141
1.0
290
     1
  0
SCALE
  5
44
102
{ACAD_REACTORS
330
42
102
}
330
42
100
AcDbScale
 70
     0
300
1/128" = 1'-0"
140
0.0078125
141
12.0
290
     0
  0
SCALE
  5
45
102
{ACAD_REACTORS
330
42
102
}
330
42
100
AcDbScale
 70
     0
300
1/64" = 1'-0"
140
0.015625
141
12.0
290
     0
  0
SCALE
  5
46
102
{ACAD_REACTORS
330
42
102
}
330
42
100
AcDbScale
 70
     0
300
1/32" = 1'-0"
140
0.03125
141
12.0
290
     0
  0
SCALE
  5
47
102
{ACAD_REACTORS
330
42
102
}
330
42
100
AcDbScale
 70
     0
300
1/16" = 1'-0"
140
0.0625
141
12.0
290
     0
  0
SCALE
  5
48
102
{ACAD_REACTORS
330
42
102
}
330
42
100
AcDbScale
 70
     0
300
3/32" = 1'-0"
140
0.09375
141
12.0
290
     0
  0
SCALE
  5
49
102
{ACAD_REACTORS
330
42
102
}
330
42
100
AcDbScale
 70
     0
300
1/8" = 1'-0"
140
0.125
141
12.0
290
     0
  0
SCALE
  5
4A
102
{ACAD_REACTORS
330
42
102
}
330
42
100
AcDbScale
 70
     0
300
3/16" = 1'-0"
140
0.1875
141
12.0
290
     0
  0
SCALE
  5
4B
102
{ACAD_REACTORS
330
42
102
}
330
42
100
AcDbScale
 70
     0
300
1/4" = 1'-0"
140
0.25
141
12.0
290
     0
  0
SCALE
  5
4C
102
{ACAD_REACTORS
330
42
102
}
330
42
100
AcDbScale
 70
     0
300
3/8" = 1'-0"
140
0.375
141
12.0
290
     0
  0
SCALE
  5
4D
102
{ACAD_REACTORS
330
42
102
}
330
42
100
AcDbScale
 70
     0
300
1/2" = 1'-0"
140
0.5
141
12.0
290
     0
  0
SCALE
  5
4E
102
{ACAD_REACTORS
330
42
102
}
330
42
100
AcDbScale
 70
     0
300
3/4" = 1'-0"
140
0.75
141
12.0
290
     0
  0
SCALE
  5
4F
102
{ACAD_REACTORS
330
42
102
}
330
42
100
AcDbScale
 70
     0
300
1" = 1'-0"
140
1.0
141
12.0
290
     0
  0
SCALE
  5
50
102
{ACAD_REACTORS
330
42
102
}
330
42
100
AcDbScale
 70
     0
300
1-1/2" = 1'-0"
140
1.5
141
12.0
290
     0
  0
SCALE
  5
51
102
{ACAD_REACTORS
330
42
102
}
330
42
100
AcDbScale
 70
     0
300
3" = 1'-0"
140
3.0
141
12.0
290
     0
  0
SCALE
  5
52
102
{ACAD_REACTORS
330
42
102
}
330
42
100
AcDbScale
 70
     0
300
6" = 1'-0"
140
6.0
141
12.0
290
     0
  0
SCALE
  5
53
102
{ACAD_REACTORS
330
42
102
}
330
42
100
AcDbScale
 70
     0
300
1'-0" = 1'-0"
140
12.0
141
12.0
290
     0
  0
ACDBSECTIONVIEWSTYLE
  5
69
102
{ACAD_REACTORS
330
68
102
}
330
68
100
AcDbModelDocViewStyle
 70
     0
  3
Imperial24
290
     1
300
Imperial24
 90
        0
100
AcDbSectionViewStyle
 70
     0
 71
     0
 90
       78
 71
     1
340
55
 62
   256
 40
0.24
340
0
340
0
 62
   256
 40
0.24
300
I, O, Q, S, X, Z
 40
0.48
 90
        3
 40
0.18
 90
        1
 71
     2
340
5D
 90
       25
 62
   256
340
5D
 90
       50
 62
   256
 40
0.24
 40
0.0
 40
0.24
 71
     3
340
55
 62
   256
 40
0.24
 90
        1
 40
0.75
 90
        1
300
%<\AcVar ViewType \f "%tc1">% %<\AcVar ViewSectionStartId>%-%<\AcVar ViewSectionEndId>%\PSCALE %<\AcVar ViewScale \f "%sn">%
 71
     4
 62
   256
 62
   257
300
ANSI31
 40
1.0
 90
        0
290
     0
290
     0
 90
        6
 40
0.0
 40
1.570796326794896
 40
0.2617993877991494
 40
1.308996938995747
 40
-0.2617993877991494
 40
1.832595714594046
  0
TABLESTYLE
  5
65
102
{ACAD_XDICTIONARY
360
1AB
102
}
102
{ACAD_REACTORS
330
64
102
}
330
64
100
AcDbTableStyle
280
     0
  3
Standard
 70
     0
 71
     0
 40
0.06
 41
0.06
280
     0
281
     0
  7
Standard
140
0.18
170
     2
 62
     0
 63
     7
283
     0
 90
      512
 91
        0
  1

274
    -2
284
     1
 64
     0
275
    -2
285
     1
 65
     0
276
    -2
286
     1
 66
     0
277
    -2
287
     1
 67
     0
278
    -2
288
     1
 68
     0
279
    -2
289
     1
 69
     0
  7
Standard
140
0.25
170
     5
 62
     0
 63
     7
283
     0
 90
      512
 91
        0
  1

274
    -2
284
     1
 64
     0
275
    -2
285
     1
 65
     0
276
    -2
286
     1
 66
     0
277
    -2
287
     1
 67
     0
278
    -2
288
     1
 68
     0
279
    -2
289
     1
 69
     0
  7
Standard
140
0.18
170
     5
 62
     0
 63
     7
283
     0
 90
      512
 91
        0
  1

274
    -2
284
     1
 64
     0
275
    -2
285
     1
 65
     0
276
    -2
286
     1
 66
     0
277
    -2
287
     1
 67
     0
278
    -2
288
     1
 68
     0
279
    -2
289
     1
 69
     0
  0
VISUALSTYLE
  5
2F
102
{ACAD_REACTORS
330
29
102
}
330
29
100
AcDbVisualStyle
  2
2dWireframe
 70
     4
177
     3
291
     0
 70
    58
 90
        0
176
     1
 90
        2
176
     1
 90
        0
176
     1
 90
        0
176
     1
 40
0.6
176
     1
 40
30.0
176
     1
 62
     7
420
 16777215
176
     1
 90
        1
176
     1
 90
        4
176
     1
 62
     7
176
     1
 62
   257
176
     1
 90
        1
176
     1
 90
        1
176
     1
 40
1.0
176
     1
 90
        0
176
     1
 62
   257
176
     1
 40
1.0
176
     1
 90
        1
176
     1
 90
        6
176
     1
 90
        2
176
     1
 62
     7
176
     1
 90
        5
176
     1
 90
        0
176
     1
 90
        0
176
     1
290
     0
176
     1
 90
        1
176
     1
 40
0.0
176
     1
 90
        0
176
     1
290
     1
176
     1
290
     1
176
     1
290
     0
176
     1
290
     0
176
     1
290
     0
176
     1
290
     0
176
     1
290
     0
176
     1
290
     0
176
     1
290
     0
176
     1
 90
       50
176
     1
 40
0.0
176
     1
 40
1.0
176
     1
 90
        0
176
     1
 62
    18
420
        0
176
     1
 90
       50
176
     1
 90
        3
176
     1
 62
     5
420
      255
176
     1
290
     0
176
     1
 90
       50
176
     1
 90
       50
176
     1
 90
       50
176
     1
290
     0
176
     1
 90
       50
176
     1
 62
   256
176
     0
 40
1.0
176
     0
 90
        2
176
     1
  1
strokes_ogs.tif
176
     1
290
     0
176
     1
 40
1.0
176
     1
 40
1.0
176
     1
  0
VISUALSTYLE
  5
2E
102
{ACAD_REACTORS
330
29
102
}
330
29
100
AcDbVisualStyle
  2
Basic
 70
     7
177
     3
291
     1
 70
    58
 90
        1
176
     1
 90
        0
176
     1
 90
        1
176
     1
 90
        0
176
     1
 40
0.6
176
     1
 40
30.0
176
     1
 62
     7
420
 16777215
176
     1
 90
        0
176
     1
 90
        4
176
     1
 62
     7
176
     1
 62
   257
176
     1
 90
        1
176
     1
 90
        1
176
     1
 40
1.0
176
     1
 90
        8
176
     1
 62
     7
176
     1
 40
1.0
176
     1
 90
        1
176
     1
 90
        6
176
     1
 90
        2
176
     1
 62
     7
176
     1
 90
        5
176
     1
 90
        0
176
     1
 90
        0
176
     1
290
     0
176
     1
 90
        1
176
     1
 40
0.0
176
     1
 90
        0
176
     1
290
     0
176
     1
290
     1
176
     1
290
     1
176
     1
290
     0
176
     1
290
     0
176
     1
290
     0
176
     1
290
     0
176
     1
290
     0
176
     1
290
     0
176
     1
 90
       50
176
     1
 40
0.0
176
     1
 40
1.0
176
     1
 90
        0
176
     1
 62
    18
420
        0
176
     1
 90
       50
176
     1
 90
        3
176
     1
 62
     5
420
      255
176
     1
290
     0
176
     1
 90
       50
176
     1
 90
       50
176
     1
 90
       50
176
     1
290
     0
176
     1
 90
       50
176
     1
 62
   256
176
     0
 40
1.0
176
     0
 90
        2
176
     1
  1
strokes_ogs.tif
176
     1
290
     0
176
     1
 40
1.0
176
     1
 40
1.0
176
     1
  0
VISUALSTYLE
  5
35
102
{ACAD_REACTORS
330
29
102
}
330
29
100
AcDbVisualStyle
  2
Brighten
 70
    12
177
     3
291
     1
 70
    58
 90
        2
176
     1
 90
        2
176
     1
 90
        0
176
     1
 90
        0
176
     1
 40
0.6
176
     1
 40
30.0
176
     1
 62
     7
420
 16777215
176
     1
 90
        1
176
     1
 90
        4
176
     1
 62
     7
176
     1
 62
   257
176
     1
 90
        1
176
     1
 90
        1
176
     1
 40
1.0
176
     1
 90
        8
176
     1
 62
     7
176
     1
 40
1.0
176
     1
 90
        1
176
     1
 90
        6
176
     1
 90
        2
176
     1
 62
     7
176
     1
 90
        5
176
     1
 90
        0
176
     1
 90
        0
176
     1
290
     0
176
     1
 90
        1
176
     1
 40
50.0
176
     1
 90
        0
176
     1
290
     0
176
     1
290
     1
176
     1
290
     1
176
     1
290
     0
176
     1
290
     0
176
     1
290
     0
176
     1
290
     0
176
     1
290
     0
176
     1
290
     0
176
     1
 90
       50
176
     1
 40
0.0
176
     1
 40
1.0
176
     1
 90
        0
176
     1
 62
    18
420
        0
176
     1
 90
       50
176
     1
 90
        3
176
     1
 62
     5
420
      255
176
     1
290
     0
176
     1
 90
       50
176
     1
 90
       50
176
     1
 90
       50
176
     1
290
     0
176
     1
 90
       50
176
     1
 62
   256
176
     0
 40
1.0
176
     0
 90
        2
176
     1
  1
strokes_ogs.tif
176
     1
290
     0
176
     1
 40
1.0
176
     1
 40
1.0
176
     1
  0
VISUALSTYLE
  5
39
102
{ACAD_REACTORS
330
29
102
}
330
29
100
AcDbVisualStyle
  2
ColorChange
 70
    16
177
     3
291
     1
 70
    58
 90
        2
176
     1
 90
        2
176
     1
 90
        3
176
     1
 90
        0
176
     1
 40
0.6
176
     1
 40
30.0
176
     1
 62
     8
420
  8421504
176
     1
 90
        1
176
     1
 90
        4
176
     1
 62
     7
176
     1
 62
   257
176
     1
 90
        1
176
     1
 90
        1
176
     1
 40
1.0
176
     1
 90
        8
176
     1
 62
     8
420
  8421504
176
     1
 40
1.0
176
     1
 90
        1
176
     1
 90
        6
176
     1
 90
        2
176
     1
 62
     7
176
     1
 90
        5
176
     1
 90
        0
176
     1
 90
        0
176
     1
290
     0
176
     1
 90
        1
176
     1
 40
0.0
176
     1
 90
        0
176
     1
290
     0
176
     1
290
     1
176
     1
290
     1
176
     1
290
     0
176
     1
290
     0
176
     1
290
     0
176
     1
290
     0
176
     1
290
     0
176
     1
290
     0
176
     1
 90
       50
176
     1
 40
0.0
176
     1
 40
1.0
176
     1
 90
        0
176
     1
 62
    18
420
        0
176
     1
 90
       50
176
     1
 90
        3
176
     1
 62
     5
420
      255
176
     1
290
     0
176
     1
 90
       50
176
     1
 90
       50
176
     1
 90
       50
176
     1
290
     0
176
     1
 90
       50
176
     1
 62
   256
176
     0
 40
1.0
176
     0
 90
        2
176
     1
  1
strokes_ogs.tif
176
     1
290
     0
176
     1
 40
1.0
176
     1
 40
1.0
176
     1
  0
VISUALSTYLE
  5
32
102
{ACAD_REACTORS
330
29
102
}
330
29
100
AcDbVisualStyle
  2
Conceptual
 70
     9
177
     3
291
     0
 70
    58
 90
        3
176
     1
 90
        2
176
     1
 90
        0
176
     1
 90
        0
176
     1
 40
0.6
176
     1
 40
30.0
176
     1
 62
     7
420
 16777215
176
     1
 90
        2
176
     1
 90
        2
176
     1
 62
     7
176
     1
 62
   257
176
     1
 90
        1
176
     1
 90
        1
176
     1
 40
179.0
176
     1
 90
        8
176
     1
 62
     7
176
     1
 40
1.0
176
     1
 90
        1
176
     1
 90
        6
176
     1
 90
        2
176
     1
 62
     7
176
     1
 90
        3
176
     1
 90
        0
176
     1
 90
        0
176
     1
290
     0
176
     1
 90
        1
176
     1
 40
0.0
176
     1
 90
        0
176
     1
290
     0
176
     1
290
     1
176
     1
290
     1
176
     1
290
     0
176
     1
290
     0
176
     1
290
     0
176
     1
290
     0
176
     1
290
     0
176
     1
290
     0
176
     1
 90
       50
176
     1
 40
0.0
176
     1
 40
1.0
176
     1
 90
        0
176
     1
 62
    18
420
        0
176
     1
 90
       50
176
     1
 90
        3
176
     1
 62
     5
420
      255
176
     1
290
     0
176
     1
 90
       50
176
     1
 90
       50
176
     1
 90
       50
176
     1
290
     0
176
     1
 90
       50
176
     1
 62
   256
176
     0
 40
1.0
176
     0
 90
        2
176
     1
  1
strokes_ogs.tif
176
     1
290
     0
176
     1
 40
1.0
176
     1
 40
1.0
176
     1
  0
VISUALSTYLE
  5
34
102
{ACAD_REACTORS
330
29
102
}
330
29
100
AcDbVisualStyle
  2
Dim
 70
    11
177
     3
291
     1
 70
    58
 90
        2
176
     1
 90
        2
176
     1
 90
        0
176
     1
 90
        0
176
     1
 40
0.6
176
     1
 40
30.0
176
     1
 62
     7
420
 16777215
176
     1
 90
        1
176
     1
 90
        4
176
     1
 62
     7
176
     1
 62
   257
176
     1
 90
        1
176
     1
 90
        1
176
     1
 40
1.0
176
     1
 90
        8
176
     1
 62
     7
176
     1
 40
1.0
176
     1
 90
        1
176
     1
 90
        6
176
     1
 90
        2
176
     1
 62
     7
176
     1
 90
        5
176
     1
 90
        0
176
     1
 90
        0
176
     1
290
     0
176
     1
 90
        1
176
     1
 40
-50.0
176
     1
 90
        0
176
     1
290
     0
176
     1
290
     1
176
     1
290
     1
176
     1
290
     0
176
     1
290
     0
176
     1
290
     0
176
     1
290
     0
176
     1
290
     0
176
     1
290
     0
176
     1
 90
       50
176
     1
 40
0.0
176
     1
 40
1.0
176
     1
 90
        0
176
     1
 62
    18
420
        0
176
     1
 90
       50
176
     1
 90
        3
176
     1
 62
     5
420
      255
176
     1
290
     0
176
     1
 90
       50
176
     1
 90
       50
176
     1
 90
       50
176
     1
290
     0
176
     1
 90
       50
176
     1
 62
   256
176
     0
 40
1.0
176
     0
 90
        2
176
     1
  1
strokes_ogs.tif
176
     1
290
     0
176
     1
 40
1.0
176
     1
 40
1.0
176
     1
  0
VISUALSTYLE
  5
41
102
{ACAD_REACTORS
330
29
102
}
330
29
100
AcDbVisualStyle
  2
EdgeColorOff
 70
    22
177
     3
291
     1
 70
    58
 90
        2
176
     0
 90
        2
176
     0
 90
        0
176
     0
 90
        0
176
     0
 40
0.6
176
     0
 40
30.0
176
     0
 62
     7
420
 16777215
176
     0
 90
        1
176
     0
 90
        4
176
     0
 62
     7
176
     0
 62
   257
176
     0
 90
        1
176
     0
 90
        1
176
     0
 40
1.0
176
     0
 90
        8
176
     2
 62
     7
176
     0
 40
1.0
176
     0
 90
        1
176
     0
 90
        6
176
     0
 90
        2
176
     0
 62
     7
176
     0
 90
        5
176
     0
 90
        0
176
     0
 90
        0
176
     0
290
     0
176
     0
 90
        1
176
     0
 40
0.0
176
     0
 90
        0
176
     0
290
     0
176
     0
290
     1
176
     0
290
     1
176
     0
290
     0
176
     0
290
     0
176
     0
290
     0
176
     0
290
     0
176
     0
290
     0
176
     0
290
     0
176
     0
 90
       50
176
     0
 40
0.0
176
     0
 40
1.0
176
     0
 90
        0
176
     0
 62
    18
420
        0
176
     0
 90
       50
176
     0
 90
        3
176
     0
 62
     5
420
      255
176
     0
290
     0
176
     0
 90
       50
176
     0
 90
       50
176
     0
 90
       50
176
     0
290
     0
176
     0
 90
       50
176
     0
 62
   256
176
     0
 40
1.0
176
     0
 90
        2
176
     0
  1
strokes_ogs.tif
176
     0
290
     0
176
     0
 40
1.0
176
     0
 40
1.0
176
     0
  0
VISUALSTYLE
  5
38
102
{ACAD_REACTORS
330
29
102
}
330
29
100
AcDbVisualStyle
  2
Facepattern
 70
    15
177
     3
291
     1
 70
    58
 90
        2
176
     1
 90
        2
176
     1
 90
        0
176
     1
 90
        0
176
     1
 40
0.6
176
     1
 40
30.0
176
     1
 62
     7
420
 16777215
176
     1
 90
        1
176
     1
 90
        4
176
     1
 62
     7
176
     1
 62
   257
176
     1
 90
        1
176
     1
 90
        1
176
     1
 40
1.0
176
     1
 90
        8
176
     1
 62
     7
176
     1
 40
1.0
176
     1
 90
        1
176
     1
 90
        6
176
     1
 90
        2
176
     1
 62
     7
176
     1
 90
        5
176
     1
 90
        0
176
     1
 90
        0
176
     1
290
     0
176
     1
 90
        1
176
     1
 40
0.0
176
     1
 90
        0
176
     1
290
     0
176
     1
290
     1
176
     1
290
     1
176
     1
290
     0
176
     1
290
     0
176
     1
290
     0
176
     1
290
     0
176
     1
290
     0
176
     1
290
     0
176
     1
 90
       50
176
     1
 40
0.0
176
     1
 40
1.0
176
     1
 90
        0
176
     1
 62
    18
420
        0
176
     1
 90
       50
176
     1
 90
        3
176
     1
 62
     5
420
      255
176
     1
290
     0
176
     1
 90
       50
176
     1
 90
       50
176
     1
 90
       50
176
     1
290
     0
176
     1
 90
       50
176
     1
 62
   256
176
     0
 40
1.0
176
     0
 90
        2
176
     1
  1
strokes_ogs.tif
176
     1
290
     0
176
     1
 40
1.0
176
     1
 40
1.0
176
     1
  0
VISUALSTYLE
  5
2A
102
{ACAD_REACTORS
330
29
102
}
330
29
100
AcDbVisualStyle
  2
Flat
 70
     0
177
     3
291
     1
 70
    58
 90
        2
176
     1
 90
        1
176
     1
 90
        1
176
     1
 90
        2
176
     1
 40
0.6
176
     1
 40
30.0
176
     1
 62
     7
420
 16777215
176
     1
 90
        0
176
     1
 90
        0
176
     1
 62
     7
176
     1
 62
   257
176
     1
 90
        1
176
     1
 90
        1
176
     1
 40
1.0
176
     1
 90
        8
176
     1
 62
     7
176
     1
 40
1.0
176
     1
 90
        1
176
     1
 90
        6
176
     1
 90
        2
176
     1
 62
     7
176
     1
 90
        5
176
     1
 90
        0
176
     1
 90
        0
176
     1
290
     0
176
     1
 90
       13
176
     1
 40
0.0
176
     1
 90
        0
176
     1
290
     0
176
     1
290
     1
176
     1
290
     1
176
     1
290
     0
176
     1
290
     0
176
     1
290
     0
176
     1
290
     0
176
     1
290
     0
176
     1
290
     0
176
     1
 90
       50
176
     1
 40
0.0
176
     1
 40
1.0
176
     1
 90
        0
176
     1
 62
    18
420
        0
176
     1
 90
       50
176
     1
 90
        3
176
     1
 62
     5
420
      255
176
     1
290
     0
176
     1
 90
       50
176
     1
 90
       50
176
     1
 90
       50
176
     1
290
     0
176
     1
 90
       50
176
     1
 62
   256
176
     0
 40
1.0
176
     0
 90
        2
176
     1
  1
strokes_ogs.tif
176
     1
290
     0
176
     1
 40
1.0
176
     1
 40
1.0
176
     1
  0
VISUALSTYLE
  5
2B
102
{ACAD_REACTORS
330
29
102
}
330
29
100
AcDbVisualStyle
  2
FlatWithEdges
 70
     1
177
     3
291
     1
 70
    58
 90
        2
176
     1
 90
        1
176
     1
 90
        1
176
     1
 90
        2
176
     1
 40
0.6
176
     1
 40
30.0
176
     1
 62
     7
420
 16777215
176
     1
 90
        1
176
     1
 90
        0
176
     1
 62
     7
176
     1
 62
   257
176
     1
 90
        1
176
     1
 90
        1
176
     1
 40
1.0
176
     1
 90
        0
176
     1
 62
   257
176
     1
 40
1.0
176
     1
 90
        1
176
     1
 90
        6
176
     1
 90
        2
176
     1
 62
     7
176
     1
 90
        5
176
     1
 90
        0
176
     1
 90
        0
176
     1
290
     0
176
     1
 90
       13
176
     1
 40
0.0
176
     1
 90
        0
176
     1
290
     0
176
     1
290
     1
176
     1
290
     1
176
     1
290
     0
176
     1
290
     0
176
     1
290
     0
176
     1
290
     0
176
     1
290
     0
176
     1
290
     0
176
     1
 90
       50
176
     1
 40
0.0
176
     1
 40
1.0
176
     1
 90
        0
176
     1
 62
    18
420
        0
176
     1
 90
       50
176
     1
 90
        3
176
     1
 62
     5
420
      255
176
     1
290
     0
176
     1
 90
       50
176
     1
 90
       50
176
     1
 90
       50
176
     1
290
     0
176
     1
 90
       50
176
     1
 62
   256
176
     0
 40
1.0
176
     0
 90
        2
176
     1
  1
strokes_ogs.tif
176
     1
290
     0
176
     1
 40
1.0
176
     1
 40
1.0
176
     1
  0
VISUALSTYLE
  5
2C
102
{ACAD_REACTORS
330
29
102
}
330
29
100
AcDbVisualStyle
  2
Gouraud
 70
     2
177
     3
291
     1
 70
    58
 90
        2
176
     1
 90
        2
176
     1
 90
        1
176
     1
 90
        2
176
     1
 40
0.6
176
     1
 40
30.0
176
     1
 62
     7
420
 16777215
176
     1
 90
        0
176
     1
 90
        0
176
     1
 62
     7
176
     1
 62
   257
176
     1
 90
        1
176
     1
 90
        1
176
     1
 40
1.0
176
     1
 90
        0
176
     1
 62
     7
176
     1
 40
1.0
176
     1
 90
        1
176
     1
 90
        6
176
     1
 90
        2
176
     1
 62
     7
176
     1
 90
        5
176
     1
 90
        0
176
     1
 90
        0
176
     1
290
     0
176
     1
 90
       13
176
     1
 40
0.0
176
     1
 90
        0
176
     1
290
     0
176
     1
290
     1
176
     1
290
     1
176
     1
290
     0
176
     1
290
     0
176
     1
290
     0
176
     1
290
     0
176
     1
290
     0
176
     1
290
     0
176
     1
 90
       50
176
     1
 40
0.0
176
     1
 40
1.0
176
     1
 90
        0
176
     1
 62
    18
420
        0
176
     1
 90
       50
176
     1
 90
        3
176
     1
 62
     5
420
      255
176
     1
290
     0
176
     1
 90
       50
176
     1
 90
       50
176
     1
 90
       50
176
     1
290
     0
176
     1
 90
       50
176
     1
 62
   256
176
     0
 40
1.0
176
     0
 90
        2
176
     1
  1
strokes_ogs.tif
176
     1
290
     0
176
     1
 40
1.0
176
     1
 40
1.0
176
     1
  0
VISUALSTYLE
  5
2D
102
{ACAD_REACTORS
330
29
102
}
330
29
100
AcDbVisualStyle
  2
GouraudWithEdges
 70
     3
177
     3
291
     1
 70
    58
 90
        2
176
     1
 90
        2
176
     1
 90
        1
176
     1
 90
        2
176
     1
 40
0.6
176
     1
 40
30.0
176
     1
 62
     7
420
 16777215
176
     1
 90
        1
176
     1
 90
        0
176
     1
 62
     7
176
     1
 62
   257
176
     1
 90
        1
176
     1
 90
        1
176
     1
 40
1.0
176
     1
 90
        0
176
     1
 62
   257
176
     1
 40
1.0
176
     1
 90
        1
176
     1
 90
        6
176
     1
 90
        2
176
     1
 62
     7
176
     1
 90
        5
176
     1
 90
        0
176
     1
 90
        0
176
     1
290
     0
176
     1
 90
       13
176
     1
 40
0.0
176
     1
 90
        0
176
     1
290
     0
176
     1
290
     1
176
     1
290
     1
176
     1
290
     0
176
     1
290
     0
176
     1
290
     0
176
     1
290
     0
176
     1
290
     0
176
     1
290
     0
176
     1
 90
       50
176
     1
 40
0.0
176
     1
 40
1.0
176
     1
 90
        0
176
     1
 62
    18
420
        0
176
     1
 90
       50
176
     1
 90
        3
176
     1
 62
     5
420
      255
176
     1
290
     0
176
     1
 90
       50
176
     1
 90
       50
176
     1
 90
       50
176
     1
290
     0
176
     1
 90
       50
176
     1
 62
   256
176
     0
 40
1.0
176
     0
 90
        2
176
     1
  1
strokes_ogs.tif
176
     1
290
     0
176
     1
 40
1.0
176
     1
 40
1.0
176
     1
  0
VISUALSTYLE
  5
31
102
{ACAD_REACTORS
330
29
102
}
330
29
100
AcDbVisualStyle
  2
Hidden
 70
     6
177
     3
291
     0
 70
    58
 90
        1
176
     1
 90
        2
176
     1
 90
        2
176
     1
 90
        0
176
     1
 40
0.6
176
     1
 40
30.0
176
     1
 62
     7
420
 16777215
176
     1
 90
        2
176
     1
 90
        2
176
     1
 62
     7
176
     1
 62
   257
176
     1
 90
        2
176
     1
 90
        1
176
     1
 40
40.0
176
     1
 90
        0
176
     1
 62
   257
176
     1
 40
1.0
176
     1
 90
        1
176
     1
 90
        6
176
     1
 90
        2
176
     1
 62
     7
176
     1
 90
        3
176
     1
 90
        0
176
     1
 90
        0
176
     1
290
     0
176
     1
 90
        1
176
     1
 40
0.0
176
     1
 90
        0
176
     1
290
     0
176
     1
290
     1
176
     1
290
     1
176
     1
290
     0
176
     1
290
     0
176
     1
290
     0
176
     1
290
     0
176
     1
290
     0
176
     1
290
     0
176
     1
 90
       50
176
     1
 40
0.0
176
     1
 40
1.0
176
     1
 90
        0
176
     1
 62
    18
420
        0
176
     1
 90
       50
176
     1
 90
        3
176
     1
 62
     5
420
      255
176
     1
290
     0
176
     1
 90
       50
176
     1
 90
       50
176
     1
 90
       50
176
     1
290
     0
176
     1
 90
       50
176
     1
 62
   256
176
     0
 40
1.0
176
     0
 90
        2
176
     1
  1
strokes_ogs.tif
176
     1
290
     0
176
     1
 40
1.0
176
     1
 40
1.0
176
     1
  0
VISUALSTYLE
  5
3F
102
{ACAD_REACTORS
330
29
102
}
330
29
100
AcDbVisualStyle
  2
JitterOff
 70
    20
177
     3
291
     1
 70
    58
 90
        2
176
     0
 90
        2
176
     0
 90
        0
176
     0
 90
        0
176
     0
 40
0.6
176
     0
 40
30.0
176
     0
 62
     7
420
 16777215
176
     0
 90
        1
176
     0
 90
        4
176
     0
 62
     7
176
     0
 62
   257
176
     0
 90
        1
176
     0
 90
        1
176
     0
 40
1.0
176
     0
 90
       10
176
     2
 62
     7
176
     0
 40
1.0
176
     0
 90
        1
176
     0
 90
        6
176
     0
 90
        2
176
     0
 62
     7
176
     0
 90
        5
176
     0
 90
        0
176
     0
 90
        0
176
     0
290
     0
176
     0
 90
        1
176
     0
 40
0.0
176
     0
 90
        0
176
     0
290
     0
176
     0
290
     1
176
     0
290
     1
176
     0
290
     0
176
     0
290
     0
176
     0
290
     0
176
     0
290
     0
176
     0
290
     0
176
     0
290
     0
176
     0
 90
       50
176
     0
 40
0.0
176
     0
 40
1.0
176
     0
 90
        0
176
     0
 62
    18
420
        0
176
     0
 90
       50
176
     0
 90
        3
176
     0
 62
     5
420
      255
176
     0
290
     0
176
     0
 90
       50
176
     0
 90
       50
176
     0
 90
       50
176
     0
290
     0
176
     0
 90
       50
176
     0
 62
   256
176
     0
 40
1.0
176
     0
 90
        2
176
     0
  1
strokes_ogs.tif
176
     0
290
     0
176
     0
 40
1.0
176
     0
 40
1.0
176
     0
  0
VISUALSTYLE
  5
37
102
{ACAD_REACTORS
330
29
102
}
330
29
100
AcDbVisualStyle
  2
Linepattern
 70
    14
177
     3
291
     1
 70
    58
 90
        2
176
     1
 90
        2
176
     1
 90
        0
176
     1
 90
        0
176
     1
 40
0.6
176
     1
 40
30.0
176
     1
 62
     7
420
 16777215
176
     1
 90
        1
176
     1
 90
        4
176
     1
 62
     7
176
     1
 62
   257
176
     1
 90
        7
176
     1
 90
        7
176
     1
 40
1.0
176
     1
 90
        8
176
     1
 62
     7
176
     1
 40
1.0
176
     1
 90
        1
176
     1
 90
        6
176
     1
 90
        2
176
     1
 62
     7
176
     1
 90
        5
176
     1
 90
        0
176
     1
 90
        0
176
     1
290
     0
176
     1
 90
        1
176
     1
 40
0.0
176
     1
 90
        0
176
     1
290
     0
176
     1
290
     1
176
     1
290
     1
176
     1
290
     0
176
     1
290
     0
176
     1
290
     0
176
     1
290
     0
176
     1
290
     0
176
     1
290
     0
176
     1
 90
       50
176
     1
 40
0.0
176
     1
 40
1.0
176
     1
 90
        0
176
     1
 62
    18
420
        0
176
     1
 90
       50
176
     1
 90
        3
176
     1
 62
     5
420
      255
176
     1
290
     0
176
     1
 90
       50
176
     1
 90
       50
176
     1
 90
       50
176
     1
290
     0
176
     1
 90
       50
176
     1
 62
   256
176
     0
 40
1.0
176
     0
 90
        2
176
     1
  1
strokes_ogs.tif
176
     1
290
     0
176
     1
 40
1.0
176
     1
 40
1.0
176
     1
  0
VISUALSTYLE
  5
40
102
{ACAD_REACTORS
330
29
102
}
330
29
100
AcDbVisualStyle
  2
OverhangOff
 70
    21
177
     3
291
     1
 70
    58
 90
        2
176
     0
 90
        2
176
     0
 90
        0
176
     0
 90
        0
176
     0
 40
0.6
176
     0
 40
30.0
176
     0
 62
     7
420
 16777215
176
     0
 90
        1
176
     0
 90
        4
176
     0
 62
     7
176
     0
 62
   257
176
     0
 90
        1
176
     0
 90
        1
176
     0
 40
1.0
176
     0
 90
        9
176
     2
 62
     7
176
     0
 40
1.0
176
     0
 90
        1
176
     0
 90
        6
176
     0
 90
        2
176
     0
 62
     7
176
     0
 90
        5
176
     0
 90
        0
176
     0
 90
        0
176
     0
290
     0
176
     0
 90
        1
176
     0
 40
0.0
176
     0
 90
        0
176
     0
290
     0
176
     0
290
     1
176
     0
290
     1
176
     0
290
     0
176
     0
290
     0
176
     0
290
     0
176
     0
290
     0
176
     0
290
     0
176
     0
290
     0
176
     0
 90
       50
176
     0
 40
0.0
176
     0
 40
1.0
176
     0
 90
        0
176
     0
 62
    18
420
        0
176
     0
 90
       50
176
     0
 90
        3
176
     0
 62
     5
420
      255
176
     0
290
     0
176
     0
 90
       50
176
     0
 90
       50
176
     0
 90
       50
176
     0
290
     0
176
     0
 90
       50
176
     0
 62
   256
176
     0
 40
1.0
176
     0
 90
        2
176
     0
  1
strokes_ogs.tif
176
     0
290
     0
176
     0
 40
1.0
176
     0
 40
1.0
176
     0
  0
VISUALSTYLE
  5
33
102
{ACAD_REACTORS
330
29
102
}
330
29
100
AcDbVisualStyle
  2
Realistic
 70
     8
177
     3
291
     0
 70
    58
 90
        2
176
     1
 90
        3
176
     1
 90
        0
176
     1
 90
        2
176
     1
 40
0.6
176
     1
 40
30.0
176
     1
 62
     7
420
 16777215
176
     1
 90
        0
176
     1
 90
        0
176
     1
 62
     7
176
     1
 62
   257
176
     1
 90
        1
176
     1
 90
        1
176
     1
 40
1.0
176
     1
 90
        8
176
     1
 62
   257
176
     1
 40
1.0
176
     1
 90
        1
176
     1
 90
        6
176
     1
 90
        2
176
     1
 62
     7
176
     1
 90
        3
176
     1
 90
        0
176
     1
 90
        0
176
     1
290
     0
176
     1
 90
       13
176
     1
 40
0.0
176
     1
 90
        0
176
     1
290
     0
176
     1
290
     1
176
     1
290
     1
176
     1
290
     0
176
     1
290
     0
176
     1
290
     0
176
     1
290
     0
176
     1
290
     0
176
     1
290
     0
176
     1
 90
       50
176
     1
 40
0.0
176
     1
 40
1.0
176
     1
 90
        0
176
     1
 62
    18
420
        0
176
     1
 90
       50
176
     1
 90
        3
176
     1
 62
     5
420
      255
176
     1
290
     0
176
     1
 90
       50
176
     1
 90
       50
176
     1
 90
       50
176
     1
290
     0
176
     1
 90
       50
176
     1
 62
   256
176
     0
 40
1.0
176
     0
 90
        2
176
     1
  1
strokes_ogs.tif
176
     1
290
     0
176
     1
 40
1.0
176
     1
 40
1.0
176
     1
  0
VISUALSTYLE
  5
3E
102
{ACAD_REACTORS
330
29
102
}
330
29
100
AcDbVisualStyle
  2
Shaded
 70
    27
177
     3
291
     0
 70
    58
 90
        2
176
     1
 90
        2
176
     1
 90
        1
176
     1
 90
        2
176
     1
 40
0.6
176
     1
 40
30.0
176
     1
 62
     7
420
 16777215
176
     1
 90
        0
176
     1
 90
        4
176
     1
 62
     7
176
     1
 62
   257
176
     1
 90
        1
176
     1
 90
        1
176
     1
 40
1.0
176
     1
 90
        8
176
     1
 62
   257
176
     1
 40
1.0
176
     1
 90
        1
176
     1
 90
        6
176
     1
 90
        2
176
     1
 62
     8
420
  7895160
176
     1
 90
        3
176
     1
 90
        0
176
     1
 90
        0
176
     1
290
     0
176
     1
 90
        5
176
     1
 40
0.0
176
     1
 90
        0
176
     1
290
     0
176
     1
290
     1
176
     1
290
     1
176
     1
290
     0
176
     1
290
     0
176
     1
290
     0
176
     1
290
     0
176
     1
290
     0
176
     1
290
     0
176
     1
 90
       50
176
     1
 40
0.0
176
     1
 40
1.0
176
     1
 90
        0
176
     1
 62
    18
420
        0
176
     1
 90
       50
176
     1
 90
        3
176
     1
 62
     5
420
      255
176
     1
290
     0
176
     1
 90
       50
176
     1
 90
       50
176
     1
 90
       50
176
     1
290
     0
176
     1
 90
       50
176
     1
 62
   256
176
     0
 40
1.0
176
     0
 90
        2
176
     1
  1
strokes_ogs.tif
176
     1
290
     0
176
     1
 40
1.0
176
     1
 40
1.0
176
     1
  0
VISUALSTYLE
  5
3D
102
{ACAD_REACTORS
330
29
102
}
330
29
100
AcDbVisualStyle
  2
Shaded with edges
 70
    26
177
     3
291
     0
 70
    58
 90
        2
176
     1
 90
        2
176
     1
 90
        1
176
     1
 90
        2
176
     1
 40
0.6
176
     1
 40
30.0
176
     1
 62
     7
420
 16777215
176
     1
 90
        1
176
     1
 90
        2
176
     1
 62
     7
176
     1
 62
   257
176
     1
 90
        2
176
     1
 90
        1
176
     1
 40
1.0
176
     1
 90
        8
176
     1
 62
   257
176
     1
 40
1.0
176
     1
 90
        1
176
     1
 90
        6
176
     1
 90
        2
176
     1
 62
     7
176
     1
 90
        3
176
     1
 90
        0
176
     1
 90
        0
176
     1
290
     0
176
     1
 90
        5
176
     1
 40
0.0
176
     1
 90
        0
176
     1
290
     0
176
     1
290
     1
176
     1
290
     1
176
     1
290
     0
176
     1
290
     0
176
     1
290
     0
176
     1
290
     0
176
     1
290
     0
176
     1
290
     0
176
     1
 90
       50
176
     1
 40
0.0
176
     1
 40
1.0
176
     1
 90
        0
176
     1
 62
    18
420
        0
176
     1
 90
       50
176
     1
 90
        3
176
     1
 62
     5
420
      255
176
     1
290
     0
176
     1
 90
       50
176
     1
 90
       50
176
     1
 90
       50
176
     1
290
     0
176
     1
 90
       50
176
     1
 62
   256
176
     0
 40
1.0
176
     0
 90
        2
176
     1
  1
strokes_ogs.tif
176
     1
290
     0
176
     1
 40
1.0
176
     1
 40
1.0
176
     1
  0
VISUALSTYLE
  5
3A
102
{ACAD_REACTORS
330
29
102
}
330
29
100
AcDbVisualStyle
  2
Shades of Gray
 70
    23
177
     3
291
     0
 70
    58
 90
        2
176
     1
 90
        2
176
     1
 90
        3
176
     1
 90
        0
176
     1
 40
0.6
176
     1
 40
30.0
176
     1
 62
     7
420
 16777215
176
     1
 90
        2
176
     1
 90
        2
176
     1
 62
     7
176
     1
 62
     7
176
     1
 90
        1
176
     1
 90
        1
176
     1
 40
40.0
176
     1
 90
        8
176
     1
 62
     7
176
     1
 40
1.0
176
     1
 90
        1
176
     1
 90
        6
176
     1
 90
        2
176
     1
 62
     7
176
     1
 90
        3
176
     1
 90
        0
176
     1
 90
        0
176
     1
290
     0
176
     1
 90
        1
176
     1
 40
0.0
176
     1
 90
        0
176
     1
290
     0
176
     1
290
     1
176
     1
290
     1
176
     1
290
     0
176
     1
290
     0
176
     1
290
     0
176
     1
290
     0
176
     1
290
     0
176
     1
290
     0
176
     1
 90
       50
176
     1
 40
0.0
176
     1
 40
1.0
176
     1
 90
        0
176
     1
 62
    18
420
        0
176
     1
 90
       50
176
     1
 90
        3
176
     1
 62
     5
420
      255
176
     1
290
     0
176
     1
 90
       50
176
     1
 90
       50
176
     1
 90
       50
176
     1
290
     0
176
     1
 90
       50
176
     1
 62
   256
176
     0
 40
1.0
176
     0
 90
        2
176
     1
  1
strokes_ogs.tif
176
     1
290
     0
176
     1
 40
1.0
176
     1
 40
1.0
176
     1
  0
VISUALSTYLE
  5
3B
102
{ACAD_REACTORS
330
29
102
}
330
29
100
AcDbVisualStyle
  2
Sketchy
 70
    24
177
     3
291
     0
 70
    58
 90
        1
176
     1
 90
        2
176
     1
 90
        2
176
     1
 90
        0
176
     1
 40
0.6
176
     1
 40
30.0
176
     1
 62
     7
420
 16777215
176
     1
 90
        2
176
     1
 90
        2
176
     1
 62
     7
176
     1
 62
     7
176
     1
 90
        1
176
     1
 90
        1
176
     1
 40
40.0
176
     1
 90
       11
176
     1
 62
     7
176
     1
 40
1.0
176
     1
 90
        1
176
     1
 90
        6
176
     1
 90
        2
176
     1
 62
     7
176
     1
 90
        6
176
     1
 90
        0
176
     1
 90
        0
176
     1
290
     0
176
     1
 90
        1
176
     1
 40
0.0
176
     1
 90
        0
176
     1
290
     0
176
     1
290
     1
176
     1
290
     1
176
     1
290
     0
176
     1
290
     0
176
     1
290
     0
176
     1
290
     0
176
     1
290
     0
176
     1
290
     0
176
     1
 90
       50
176
     1
 40
0.0
176
     1
 40
1.0
176
     1
 90
        0
176
     1
 62
    18
420
        0
176
     1
 90
       50
176
     1
 90
        3
176
     1
 62
     5
420
      255
176
     1
290
     0
176
     1
 90
       50
176
     1
 90
       50
176
     1
 90
       50
176
     1
290
     0
176
     1
 90
       50
176
     1
 62
   256
176
     0
 40
1.0
176
     0
 90
        2
176
     1
  1
strokes_ogs.tif
176
     1
290
     0
176
     1
 40
1.0
176
     1
 40
1.0
176
     1
  0
VISUALSTYLE
  5
36
102
{ACAD_REACTORS
330
29
102
}
330
29
100
AcDbVisualStyle
  2
Thicken
 70
    13
177
     3
291
     1
 70
    58
 90
        2
176
     1
 90
        2
176
     1
 90
        0
176
     1
 90
        0
176
     1
 40
0.6
176
     1
 40
30.0
176
     1
 62
     7
420
 16777215
176
     1
 90
        1
176
     1
 90
        4
176
     1
 62
     7
176
     1
 62
   257
176
     1
 90
        1
176
     1
 90
        1
176
     1
 40
1.0
176
     1
 90
       12
176
     1
 62
     7
176
     1
 40
1.0
176
     1
 90
        1
176
     1
 90
        6
176
     1
 90
        2
176
     1
 62
     7
176
     1
 90
        5
176
     1
 90
        0
176
     1
 90
        0
176
     1
290
     0
176
     1
 90
        1
176
     1
 40
0.0
176
     1
 90
        0
176
     1
290
     0
176
     1
290
     1
176
     1
290
     1
176
     1
290
     0
176
     1
290
     0
176
     1
290
     0
176
     1
290
     0
176
     1
290
     0
176
     1
290
     0
176
     1
 90
       50
176
     1
 40
0.0
176
     1
 40
1.0
176
     1
 90
        0
176
     1
 62
    18
420
        0
176
     1
 90
       50
176
     1
 90
        3
176
     1
 62
     5
420
      255
176
     1
290
     0
176
     1
 90
       50
176
     1
 90
       50
176
     1
 90
       50
176
     1
290
     0
176
     1
 90
       50
176
     1
 62
   256
176
     0
 40
1.0
176
     0
 90
        2
176
     1
  1
strokes_ogs.tif
176
     1
290
     0
176
     1
 40
1.0
176
     1
 40
1.0
176
     1
  0
VISUALSTYLE
  5
30
102
{ACAD_REACTORS
330
29
102
}
330
29
100
AcDbVisualStyle
  2
Wireframe
 70
     5
177
     3
291
     0
 70
    58
 90
        0
176
     1
 90
        2
176
     1
 90
        0
176
     1
 90
        0
176
     1
 40
0.6
176
     1
 40
30.0
176
     1
 62
     7
420
 16777215
176
     1
 90
        1
176
     1
 90
        4
176
     1
 62
     7
176
     1
 62
   257
176
     1
 90
        1
176
     1
 90
        1
176
     1
 40
1.0
176
     1
 90
        0
176
     1
 62
   257
176
     1
 40
1.0
176
     1
 90
        1
176
     1
 90
        6
176
     1
 90
        2
176
     1
 62
     7
176
     1
 90
        3
176
     1
 90
        0
176
     1
 90
        0
176
     1
290
     0
176
     1
 90
        1
176
     1
 40
0.0
176
     1
 90
        0
176
     1
290
     0
176
     1
290
     1
176
     1
290
     1
176
     1
290
     0
176
     1
290
     0
176
     1
290
     0
176
     1
290
     0
176
     1
290
     0
176
     1
290
     0
176
     1
 90
       50
176
     1
 40
0.0
176
     1
 40
1.0
176
     1
 90
        0
176
     1
 62
    18
420
        0
176
     1
 90
       50
176
     1
 90
        3
176
     1
 62
     5
420
      255
176
     1
290
     0
176
     1
 90
       50
176
     1
 90
       50
176
     1
 90
       50
176
     1
290
     0
176
     1
 90
       50
176
     1
 62
   256
176
     0
 40
1.0
176
     0
 90
        2
176
     1
  1
strokes_ogs.tif
176
     1
290
     0
176
     1
 40
1.0
176
     1
 40
1.0
176
     1
  0
VISUALSTYLE
  5
3C
102
{ACAD_REACTORS
330
29
102
}
330
29
100
AcDbVisualStyle
  2
X-Ray
 70
    25
177
     3
291
     0
 70
    58
 90
        2
176
     1
 90
        2
176
     1
 90
        1
176
     1
 90
        1
176
     1
 40
0.5
176
     1
 40
30.0
176
     1
 62
     7
420
 16777215
176
     1
 90
        1
176
     1
 90
        0
176
     1
 62
     7
176
     1
 62
   257
176
     1
 90
        1
176
     1
 90
        1
176
     1
 40
1.0
176
     1
 90
        8
176
     1
 62
     7
176
     1
 40
1.0
176
     1
 90
        1
176
     1
 90
        6
176
     1
 90
        2
176
     1
 62
     7
176
     1
 90
        3
176
     1
 90
        0
176
     1
 90
        0
176
     1
290
     0
176
     1
 90
       13
176
     1
 40
0.0
176
     1
 90
        0
176
     1
290
     0
176
     1
290
     1
176
     1
290
     1
176
     1
290
     0
176
     1
290
     0
176
     1
290
     0
176
     1
290
     0
176
     1
290
     0
176
     1
290
     0
176
     1
 90
       50
176
     1
 40
0.0
176
     1
 40
1.0
176
     1
 90
        0
176
     1
 62
    18
420
        0
176
     1
 90
       50
176
     1
 90
        3
176
     1
 62
     5
420
      255
176
     1
290
     0
176
     1
 90
       50
176
     1
 90
       50
176
     1
 90
       50
176
     1
290
     0
176
     1
 90
       50
176
     1
 62
   256
176
     0
 40
1.0
176
     0
 90
        2
176
     1
  1
strokes_ogs.tif
176
     1
290
     0
176
     1
 40
1.0
176
     1
 40
1.0
176
     1
  0
DICTIONARYVAR
  5
1AA
102
{ACAD_REACTORS
330
1A5
102
}
330
1A5
100
DictionaryVariables
280
     0
  1
1:1
  0
DICTIONARYVAR
  5
1A7
102
{ACAD_REACTORS
330
1A5
102
}
330
1A5
100
DictionaryVariables
280
     0
  1
STANDARD
  0
DICTIONARYVAR
  5
1A6
102
{ACAD_REACTORS
330
1A5
102
}
330
1A5
100
DictionaryVariables
280
     0
  1
STANDARD
  0
DICTIONARYVAR
  5
1A8
102
{ACAD_REACTORS
330
1A5
102
}
330
1A5
100
DictionaryVariables
280
     0
  1
Imperial24
  0
DICTIONARYVAR
  5
1A9
102
{ACAD_REACTORS
330
1A5
102
}
330
1A5
100
DictionaryVariables
280
     0
  1
Imperial24
  0
DICTIONARY
  5
1A
330
19
100
AcDbDictionary
280
     1
281
     1
  3
BUMPTILE
360
1C
  3
DIFFUSETILE
360
1B
  3
OPACITYTILE
360
1F
  3
REFLECTIONTILE
360
1E
  3
REFRACTIONTILE
360
20
  3
SPECULARTILE
360
1D
  0
DICTIONARY
  5
12
330
11
100
AcDbDictionary
280
     1
281
     1
  3
BUMPTILE
360
14
  3
DIFFUSETILE
360
13
  3
OPACITYTILE
360
17
  3
REFLECTIONTILE
360
16
  3
REFRACTIONTILE
360
18
  3
SPECULARTILE
360
15
  0
DICTIONARY
  5
22
330
21
100
AcDbDictionary
280
     1
281
     1
  3
BUMPTILE
360
24
  3
DIFFUSETILE
360
23
  3
OPACITYTILE
360
27
  3
REFLECTIONTILE
360
26
  3
REFRACTIONTILE
360
28
  3
SPECULARTILE
360
25
  0
DICTIONARY
  5
1AB
330
65
100
AcDbDictionary
280
     1
281
     1
  3
ACAD_ROUNDTRIP_2008_TABLESTYLE_CELLSTYLEMAP
360
1AC
  0
XRECORD
  5
1C
102
{ACAD_REACTORS
330
1A
102
}
330
1A
100
AcDbXrecord
280
     1
270
     1
271
     1
  0
XRECORD
  5
1B
102
{ACAD_REACTORS
330
1A
102
}
330
1A
100
AcDbXrecord
280
     1
270
     1
271
     1
  0
XRECORD
  5
1F
102
{ACAD_REACTORS
330
1A
102
}
330
1A
100
AcDbXrecord
280
     1
270
     1
271
     1
  0
XRECORD
  5
1E
102
{ACAD_REACTORS
330
1A
102
}
330
1A
100
AcDbXrecord
280
     1
270
     1
271
     1
  0
XRECORD
  5
20
102
{ACAD_REACTORS
330
1A
102
}
330
1A
100
AcDbXrecord
280
     1
270
     1
271
     1
  0
XRECORD
  5
1D
102
{ACAD_REACTORS
330
1A
102
}
330
1A
100
AcDbXrecord
280
     1
270
     1
271
     1
  0
XRECORD
  5
14
102
{ACAD_REACTORS
330
12
102
}
330
12
100
AcDbXrecord
280
     1
270
     1
271
     1
  0
XRECORD
  5
13
102
{ACAD_REACTORS
330
12
102
}
330
12
100
AcDbXrecord
280
     1
270
     1
271
     1
  0
XRECORD
  5
17
102
{ACAD_REACTORS
330
12
102
}
330
12
100
AcDbXrecord
280
     1
270
     1
271
     1
  0
XRECORD
  5
16
102
{ACAD_REACTORS
330
12
102
}
330
12
100
AcDbXrecord
280
     1
270
     1
271
     1
  0
XRECORD
  5
18
102
{ACAD_REACTORS
330
12
102
}
330
12
100
AcDbXrecord
280
     1
270
     1
271
     1
  0
XRECORD
  5
15
102
{ACAD_REACTORS
330
12
102
}
330
12
100
AcDbXrecord
280
     1
270
     1
271
     1
  0
XRECORD
  5
24
102
{ACAD_REACTORS
330
22
102
}
330
22
100
AcDbXrecord
280
     1
270
     1
271
     1
  0
XRECORD
  5
23
102
{ACAD_REACTORS
330
22
102
}
330
22
100
AcDbXrecord
280
     1
270
     1
271
     1
  0
XRECORD
  5
27
102
{ACAD_REACTORS
330
22
102
}
330
22
100
AcDbXrecord
280
     1
270
     1
271
     1
  0
XRECORD
  5
26
102
{ACAD_REACTORS
330
22
102
}
330
22
100
AcDbXrecord
280
     1
270
     1
271
     1
  0
XRECORD
  5
28
102
{ACAD_REACTORS
330
22
102
}
330
22
100
AcDbXrecord
280
     1
270
     1
271
     1
  0
XRECORD
  5
25
102
{ACAD_REACTORS
330
22
102
}
330
22
100
AcDbXrecord
280
     1
270
     1
271
     1
  0
CELLSTYLEMAP
  5
1AC
102
{ACAD_REACTORS
330
1AB
102
}
330
1AB
100
AcDbCellStyleMap
 90
        3
300
CELLSTYLE
  1
TABLEFORMAT_BEGIN
 90
        5
170
     1
 91
        0
 92
    32768
 62
   257
 93
        1
300
CONTENTFORMAT
  1
CONTENTFORMAT_BEGIN
 90
        0
 91
        0
 92
      512
 93
        0
300

 40
0.0
140
1.0
 94
        5
 62
     0
340
55
144
0.25
309
CONTENTFORMAT_END
171
     0
 94
        0
309
TABLEFORMAT_END
  1
CELLSTYLE_BEGIN
 90
        1
 91
        1
300
_TITLE
309
CELLSTYLE_END
300
CELLSTYLE
  1
TABLEFORMAT_BEGIN
 90
        5
170
     1
 91
        0
 92
        0
 62
   257
 93
        1
300
CONTENTFORMAT
  1
CONTENTFORMAT_BEGIN
 90
        0
 91
        0
 92
      512
 93
        0
300

 40
0.0
140
1.0
 94
        5
 62
     0
340
55
144
0.18
309
CONTENTFORMAT_END
171
     0
 94
        0
309
TABLEFORMAT_END
  1
CELLSTYLE_BEGIN
 90
        2
 91
        1
300
_HEADER
309
CELLSTYLE_END
300
CELLSTYLE
  1
TABLEFORMAT_BEGIN
 90
        5
170
     1
 91
        0
 92
        0
 62
   257
 93
        1
300
CONTENTFORMAT
  1
CONTENTFORMAT_BEGIN
 90
        0
 91
        0
 92
      512
 93
        0
300

 40
0.0
140
1.0
 94
        2
 62
     0
340
55
144
0.18
309
CONTENTFORMAT_END
171
     0
 94
        0
309
TABLEFORMAT_END
  1
CELLSTYLE_BEGIN
 90
        3
 91
        2
300
_DATA
309
CELLSTYLE_END
  0
ENDSEC
  0
EOF
