<?xml version="1.0" encoding="utf-8"?>
<!-- Generator: Adobe Illustrator 27.8.1, SVG Export Plug-In . SVG Version: 6.00 Build 0)  -->
<svg version="1.1" id="Layer_1" xmlns:svg="http://www.w3.org/2000/svg"
	 xmlns="http://www.w3.org/2000/svg" xmlns:xlink="http://www.w3.org/1999/xlink" x="0px" y="0px" viewBox="0 0 841.9 595.3"
	 style="enable-background:new 0 0 841.9 595.3;" xml:space="preserve">
<style type="text/css">
	
		.st0{fill:#2F2D31;fill-opacity:0;stroke:#2F2D31;stroke-width:0.5669;stroke-linecap:round;stroke-linejoin:round;stroke-miterlimit:11.3386;}
	.st1{fill:none;stroke:#FF2D31;stroke-width:0.5669;stroke-linecap:round;stroke-linejoin:round;stroke-miterlimit:11.3386;}
</style>
<g transform="translate(0 0) scale(1 1)">
</g>
<g>
	<path class="st0" d="M369.4,307.3c-0.3,0-0.5-0.2-0.5-0.5"/>
	<path class="st0" d="M478.4,325.8c0,0.3,0.2,0.5,0.5,0.5"/>
	<path class="st0" d="M492.4,312.8c0-0.3-0.2-0.5-0.5-0.5"/>
	<path class="st0" d="M525.8,293.8v13"/>
	<path class="st0" d="M472.4,329.9v0.9"/>
	<path class="st0" d="M511.5,325.8v-13"/>
	<path class="st0" d="M455.1,307.3c-0.3,0-0.5-0.2-0.5-0.5"/>
	<path class="st0" d="M349.7,274.8c0-0.3-0.2-0.5-0.5-0.5"/>
	<path class="st0" d="M323,274.2c0-1.7,1.4-3.1,3.1-3.1"/>
	<path class="st0" d="M401.4,345.3h3.9"/>
	<path class="st0" d="M432,345.3c0,0,0.2,0,0.5,0"/>
	<path class="st0" d="M414.8,345.3c0.3,0,0.5,0,0.5,0"/>
	<path class="st0" d="M364.2,325.8c0,0.3,0.2,0.5,0.5,0.5"/>
	<path class="st0" d="M393.3,331.3h-8.6"/>
	<path class="st0" d="M364.7,312.3c-0.3,0-0.5,0.2-0.5,0.5"/>
	<path class="st0" d="M432.5,345.3h5.9"/>
	<path class="st0" d="M378.2,312.8c0-0.3-0.2-0.5-0.5-0.5"/>
	<path class="st0" d="M441.3,329.9c0-0.3-0.2-0.5-0.5-0.5"/>
	<path class="st0" d="M368.2,274.2c0.3,0,0.5,0.2,0.5,0.5"/>
	<path class="st0" d="M336.2,288.2h13"/>
	<path class="st0" d="M411.8,287.8v-13"/>
	<path class="st0" d="M415.3,330.8c0,0.3-0.2,0.5-0.5,0.5"/>
	<path class="st0" d="M462.2,329.3h-5.9"/>
	<path class="st0" d="M407.5,293.3h13"/>
	<path class="st0" d="M443.8,330.8c0,0.3-0.2,0.5-0.5,0.5"/>
	<path class="st0" d="M450.8,329.9c0-0.3-0.2-0.5-0.5-0.5"/>
	<path class="st0" d="M373.7,331.8v12.9"/>
	<path class="st0" d="M412.3,274.2h13"/>
	<path class="st0" d="M455.8,329.9v0.9"/>
	<path class="st0" d="M382.9,306.8c0,0.3-0.2,0.5-0.5,0.5"/>
	<path class="st0" d="M449.6,306.8c0,0.3-0.2,0.5-0.5,0.5"/>
	<path class="st0" d="M512.3,307.3c-0.3,0-0.5-0.2-0.5-0.5"/>
	<path class="st0" d="M439.5,345.3h42.9"/>
	<path class="st0" d="M401.4,331.3c-0.3,0-0.5-0.2-0.5-0.5"/>
	<path class="st0" d="M434.3,329.3c0,0-0.2,0-0.5,0"/>
	<path class="st0" d="M325.9,325.4c-0.6,0-1.2,0.5-1.2,1.2"/>
	<path class="st0" d="M491.9,326.3c0.3,0,0.5-0.2,0.5-0.5"/>
	<path class="st0" d="M511,312.3h-13"/>
	<path class="st0" d="M449.1,293.3c0.3,0,0.5,0.2,0.5,0.5"/>
	<path class="st0" d="M454.4,312.8c0-0.3-0.2-0.5-0.5-0.5"/>
	<path class="st0" d="M431.3,288.2c-0.3,0-0.5-0.2-0.5-0.5"/>
	<path class="st0" d="M511,326.3c0.3,0,0.5-0.2,0.5-0.5"/>
	<path class="st0" d="M350.4,293.3h13"/>
	<path class="st0" d="M331.4,307.3c-0.3,0-0.5-0.2-0.5-0.5"/>
	<path class="st0" d="M354.7,344.8v-13"/>
	<path class="st0" d="M502,287.8c0,0.3-0.2,0.5-0.5,0.5"/>
	<path class="st0" d="M393.8,330.8c0,0.3-0.2,0.5-0.5,0.5"/>
	<path class="st0" d="M501.4,331.3c0.3,0,0.6,0.2,0.6,0.5"/>
	<path class="st0" d="M373.7,344.8c0,0.3,0.2,0.5,0.5,0.5"/>
	<path class="st0" d="M415.3,345.3c0,0,0.2,0,0.5,0"/>
	<path class="st0" d="M520.5,274.3h-5.3"/>
	<path class="st0" d="M363.9,306.8c0,0.3-0.2,0.5-0.5,0.5"/>
	<path class="st0" d="M478.9,329.3H473"/>
	<path class="st0" d="M533.6,326.3c0,1.7-1.4,3.1-3.1,3.1"/>
	<path class="st0" d="M505.1,330.6v14.7"/>
	<path class="st0" d="M533.6,274.2v52.1"/>
	<path class="st0" d="M416.3,325.8v-13"/>
	<path class="st0" d="M507,287.8c0,0.3,0.2,0.5,0.5,0.5"/>
	<path class="st0" d="M512.9,274.2L512.9,274.2"/>
	<path class="st0" d="M438.9,345.3c0,0,0.2,0,0.5,0"/>
	<path class="st0" d="M400.8,345.3c0,0,0.2,0,0.5,0"/>
	<path class="st0" d="M493.2,307.3c-0.3,0-0.5-0.2-0.5-0.5"/>
	<path class="st0" d="M443.3,331.3h-1.5"/>
	<path class="st0" d="M421,293.8v13"/>
	<path class="st0" d="M407,293.8c0-0.3,0.2-0.5,0.5-0.5"/>
	<path class="st0" d="M434.8,312.3h-13"/>
	<path class="st0" d="M507,274.8v13"/>
	<path class="st0" d="M406.8,274.7v13"/>
	<path class="st0" d="M456.3,329.3c-0.3,0-0.5,0.2-0.5,0.5"/>
	<path class="st0" d="M330.9,293.8c0-0.3,0.2-0.5,0.5-0.5"/>
	<path class="st0" d="M412.3,288.2c-0.3,0-0.5-0.2-0.5-0.5"/>
	<path class="st0" d="M436.1,307.3c-0.3,0-0.5-0.2-0.5-0.5"/>
	<path class="st0" d="M368.7,274.7v13"/>
	<path class="st0" d="M453.9,312.3h-13"/>
	<path class="st0" d="M530.1,312.3h-13"/>
	<path class="st0" d="M344.4,307.3h-13"/>
	<path class="st0" d="M482.4,331.3H480"/>
	<path class="st0" d="M463.4,274.2c0.3,0,0.5,0.2,0.5,0.5"/>
	<path class="st0" d="M515.2,274.2c0-0.6-0.5-1.2-1.2-1.2"/>
	<path class="st0" d="M371,344.8c0,0.3-0.2,0.5-0.5,0.5"/>
	<path class="st0" d="M354.7,348.4c-1.7,0-3.1-1.4-3.1-3.1"/>
	<path class="st0" d="M354.7,331.8c0-0.3,0.2-0.5,0.6-0.5"/>
	<path class="st0" d="M406.3,345.3h5.9"/>
	<path class="st0" d="M434.9,329.3c-0.3,0-0.5,0-0.5,0"/>
	<path class="st0" d="M406.3,274.2c0.3,0,0.5,0.2,0.5,0.5"/>
	<path class="st0" d="M506.7,306.8c0,0.3-0.2,0.5-0.5,0.5"/>
	<path class="st0" d="M449.6,293.8v13"/>
	<path class="st0" d="M478.9,326.3h13"/>
	<path class="st0" d="M377.7,326.3c0.3,0,0.5-0.2,0.5-0.5"/>
	<path class="st0" d="M424.7,330.8v-0.9"/>
	<path class="st0" d="M396.7,312.3h-13"/>
	<path class="st0" d="M468.1,293.3c0.3,0,0.5,0.2,0.5,0.5"/>
	<path class="st0" d="M355.2,345.3c-0.3,0-0.6-0.2-0.6-0.5"/>
	<path class="st0" d="M417.7,329.3c0,0-0.2,0-0.5,0"/>
	<path class="st0" d="M374.2,345.3h19.1"/>
	<path class="st0" d="M388.5,307.3c-0.3,0-0.5-0.2-0.5-0.5"/>
	<path class="st0" d="M501.4,345.3h-15.2"/>
	<path class="st0" d="M432.5,329.3c-0.3,0-0.5,0.2-0.5,0.5"/>
	<path class="st0" d="M400.3,329.3h-5.9"/>
	<path class="st0" d="M449.9,274.7c0-0.3,0.2-0.5,0.5-0.5"/>
	<path class="st0" d="M345.6,312.3c-0.3,0-0.5,0.2-0.5,0.5"/>
	<path class="st0" d="M405.2,331.3h-3.9"/>
	<path class="st0" d="M412.7,345.3c0,0,0.2,0,0.5,0"/>
	<path class="st0" d="M471.9,331.3h-8.6"/>
	<path class="st0" d="M514,273.1c-0.6,0-1.2,0.5-1.2,1.2"/>
	<path class="st0" d="M424.7,329.9c0-0.3-0.2-0.5-0.5-0.5"/>
	<path class="st0" d="M463.4,288.2h-13"/>
	<path class="st0" d="M435.3,325.8v-13"/>
	<path class="st0" d="M459.4,325.8c0,0.3,0.2,0.5,0.5,0.5"/>
	<path class="st0" d="M516.6,325.8c0,0.3,0.2,0.5,0.5,0.5"/>
	<path class="st0" d="M402.3,312.8v13"/>
	<path class="st0" d="M406.3,288.2h-13"/>
	<path class="st0" d="M444.3,274.2c0.3,0,0.5,0.2,0.5,0.5"/>
	<path class="st0" d="M434.8,326.3c0.3,0,0.5-0.2,0.5-0.5"/>
	<path class="st0" d="M406.8,287.8c0,0.3-0.2,0.5-0.5,0.5"/>
	<path class="st0" d="M383.7,326.3h13"/>
	<path class="st0" d="M413.3,331.3c-0.3,0-0.5-0.2-0.5-0.5"/>
	<path class="st0" d="M415.8,312.3h-13"/>
	<path class="st0" d="M488,274.7c0-0.3,0.2-0.5,0.5-0.5"/>
	<path class="st0" d="M454.6,306.8v-13"/>
	<path class="st0" d="M374.2,288.2c-0.3,0-0.5-0.2-0.5-0.5"/>
	<path class="st0" d="M507.5,274.3c-0.3,0-0.5,0.2-0.5,0.5"/>
	<path class="st0" d="M511.8,293.8c0-0.3,0.2-0.5,0.5-0.5"/>
	<path class="st0" d="M374.2,274.2h13"/>
	<path class="st0" d="M459.4,312.8v13"/>
	<path class="st0" d="M492.7,293.8c0-0.3,0.2-0.5,0.5-0.5"/>
	<path class="st0" d="M450.4,288.2c-0.3,0-0.5-0.2-0.5-0.5"/>
	<path class="st0" d="M384.1,329.9c0-0.3-0.2-0.5-0.5-0.5"/>
	<path class="st0" d="M369.4,293.3h13"/>
	<path class="st0" d="M401.5,293.3c0.3,0,0.5,0.2,0.5,0.5"/>
	<path class="st0" d="M393.8,329.9v0.9"/>
	<path class="st0" d="M377.7,329.3c-0.3,0-0.5,0.2-0.5,0.5"/>
	<path class="st0" d="M449.1,307.3h-13"/>
	<path class="st0" d="M400.3,345.3c0.3,0,0.5,0,0.5,0"/>
	<path class="st0" d="M345.6,326.3h13"/>
	<path class="st0" d="M425.2,331.3c-0.3,0-0.5-0.2-0.5-0.5"/>
	<path class="st0" d="M343.8,274.3c0-0.6-0.5-1.2-1.2-1.2"/>
	<path class="st0" d="M388,293.8c0-0.3,0.2-0.5,0.5-0.5"/>
	<path class="st0" d="M363.9,293.8v13"/>
	<path class="st0" d="M358.6,312.3h-13"/>
	<path class="st0" d="M355.2,288.2c-0.3,0-0.5-0.2-0.5-0.5"/>
	<path class="st0" d="M520.5,288.2c0.3,0,0.5-0.2,0.5-0.5"/>
	<path class="st0" d="M516.6,312.8v13"/>
	<path class="st0" d="M359.1,312.8c0-0.3-0.2-0.5-0.5-0.5"/>
	<path class="st0" d="M433.8,329.3h-1.3"/>
	<path class="st0" d="M444.3,288.2h-13"/>
	<path class="st0" d="M388,306.8v-13"/>
	<path class="st0" d="M441.8,331.3c-0.3,0-0.5-0.2-0.5-0.5"/>
	<path class="st0" d="M459.9,312.3c-0.3,0-0.5,0.2-0.5,0.5"/>
	<path class="st0" d="M336.2,274.3c-0.3,0-0.5,0.2-0.5,0.5"/>
	<path class="st0" d="M463.9,287.8c0,0.3-0.2,0.5-0.5,0.5"/>
	<path class="st0" d="M502,344.8c0,0.3-0.2,0.5-0.6,0.5"/>
	<path class="st0" d="M350.4,329.4h-24.3"/>
	<path class="st0" d="M421.3,312.8v13"/>
	<path class="st0" d="M486.2,345.3c-0.3,0-0.6-0.2-0.6-0.5"/>
	<path class="st0" d="M440.8,329.3h-5.9"/>
	<path class="st0" d="M454.6,293.8c0-0.3,0.2-0.5,0.5-0.5"/>
	<path class="st0" d="M377.2,329.9v0.9"/>
	<path class="st0" d="M488.5,274.2h13"/>
	<path class="st0" d="M349.9,293.8c0-0.3,0.2-0.5,0.5-0.5"/>
	<path class="st0" d="M472.4,330.8c0,0.3-0.2,0.5-0.5,0.5"/>
	<path class="st0" d="M382.5,293.3c0.3,0,0.5,0.2,0.5,0.5"/>
	<path class="st0" d="M525.8,306.8c0,0.3-0.2,0.5-0.5,0.5"/>
	<path class="st0" d="M345.1,312.8v13"/>
	<path class="st0" d="M349.7,287.7v-13"/>
	<path class="st0" d="M413.3,345.3h1.5"/>
	<path class="st0" d="M517.1,312.3c-0.3,0-0.5,0.2-0.5,0.5"/>
	<path class="st0" d="M443.8,329.9v0.9"/>
	<path class="st0" d="M373.7,274.7c0-0.3,0.2-0.5,0.5-0.5"/>
	<path class="st0" d="M435.3,312.8c0-0.3-0.2-0.5-0.5-0.5"/>
	<path class="st0" d="M326.1,325.4c-0.1,0-0.2,0-0.2,0"/>
	<path class="st0" d="M359.1,325.8v-13"/>
	<path class="st0" d="M435.6,306.8v-13"/>
	<path class="st0" d="M425.3,274.2c0.3,0,0.5,0.2,0.5,0.5"/>
	<path class="st0" d="M421.7,345.3c0.3,0,0.5,0,0.5,0"/>
	<path class="st0" d="M364.7,326.3h13"/>
	<path class="st0" d="M449.9,287.8v-13"/>
	<path class="st0" d="M459.9,326.3h13"/>
	<path class="st0" d="M387.2,274.2c0.3,0,0.5,0.2,0.5,0.5"/>
	<path class="st0" d="M451.4,331.3c-0.3,0-0.5-0.2-0.5-0.5"/>
	<path class="st0" d="M387.7,287.8c0,0.3-0.2,0.5-0.5,0.5"/>
	<path class="st0" d="M515.2,274.3L515.2,274.3"/>
	<path class="st0" d="M472.9,312.3h-13"/>
	<path class="st0" d="M511.5,312.8c0-0.3-0.2-0.5-0.5-0.5"/>
	<path class="st0" d="M462.8,329.9c0-0.3-0.2-0.5-0.5-0.5"/>
	<path class="st0" d="M344.9,306.8c0,0.3-0.2,0.5-0.5,0.5"/>
	<path class="st0" d="M397.2,325.8v-13"/>
	<path class="st0" d="M415.3,329.9v0.9"/>
	<path class="st0" d="M420.5,293.3c0.3,0,0.5,0.2,0.5,0.5"/>
	<path class="st0" d="M384.7,331.3c-0.3,0-0.5-0.2-0.5-0.5"/>
	<path class="st0" d="M517.1,326.3h12.6"/>
	<path class="st0" d="M530.5,271.1c1.7,0,3.1,1.4,3.1,3.1"/>
	<path class="st0" d="M497.5,325.8c0,0.3,0.2,0.5,0.5,0.5"/>
	<path class="st0" d="M331.4,293.3h13"/>
	<path class="st0" d="M450.4,274.2h13"/>
	<path class="st0" d="M421,306.8c0,0.3-0.2,0.5-0.5,0.5"/>
	<path class="st0" d="M468.1,307.3h-13"/>
	<path class="st0" d="M363.4,293.3c0.3,0,0.5,0.2,0.5,0.5"/>
	<path class="st0" d="M454.4,325.8v-13"/>
	<path class="st0" d="M478.4,312.8v13"/>
	<path class="st0" d="M382.5,307.3h-13"/>
	<path class="st0" d="M340.1,312.8c0-0.3-0.2-0.5-0.5-0.5"/>
	<path class="st0" d="M421.8,312.3c-0.3,0-0.5,0.2-0.5,0.5"/>
	<path class="st0" d="M368.2,288.2h-13"/>
	<path class="st0" d="M383.2,325.8c0,0.3,0.2,0.5,0.5,0.5"/>
	<path class="st0" d="M440.4,325.8c0,0.3,0.2,0.5,0.5,0.5"/>
	<path class="st0" d="M506.2,307.3h-13"/>
	<path class="st0" d="M488,287.8v-13"/>
	<path class="st0" d="M405.2,345.3c0.3,0,0.5,0,0.5,0"/>
	<path class="st0" d="M335.7,274.8v13"/>
	<path class="st0" d="M431.3,274.2h13"/>
	<path class="st0" d="M505.1,345.3c0,1.7-1.4,3.1-3.1,3.1"/>
	<path class="st0" d="M393.2,288.2c-0.3,0-0.5-0.2-0.5-0.5"/>
	<path class="st0" d="M421.3,325.8c0,0.3,0.2,0.5,0.5,0.5"/>
	<path class="st0" d="M402.8,312.3c-0.3,0-0.5,0.2-0.5,0.5"/>
	<path class="st0" d="M468.6,306.8c0,0.3-0.2,0.5-0.5,0.5"/>
	<path class="st0" d="M492.7,306.8v-13"/>
	<path class="st0" d="M412.2,329.3h-5.9"/>
	<path class="st0" d="M488.5,288.2c-0.3,0-0.5-0.2-0.5-0.5"/>
	<path class="st0" d="M521,274.8c0-0.3-0.2-0.5-0.5-0.5"/>
	<path class="st0" d="M444.8,287.8c0,0.3-0.2,0.5-0.5,0.5"/>
	<path class="st0" d="M506.2,293.3c0.3,0,0.5,0.2,0.5,0.5"/>
	<path class="st0" d="M339.6,326.3c0.3,0,0.5-0.2,0.5-0.5"/>
	<path class="st0" d="M422.8,345.3h8.6"/>
	<path class="st0" d="M358.6,326.3c0.3,0,0.5-0.2,0.5-0.5"/>
	<path class="st0" d="M383.2,312.8v13"/>
	<path class="st0" d="M507.5,288.2h13"/>
	<path class="st0" d="M485.6,344.8v-13"/>
	<path class="st0" d="M425.3,288.2h-13"/>
	<path class="st0" d="M393.3,345.3c0.3,0,0.5,0,0.5,0"/>
	<path class="st0" d="M436.1,293.3h13"/>
	<path class="st0" d="M482.9,344.8v-12.9"/>
	<path class="st0" d="M368.9,293.8c0-0.3,0.2-0.5,0.5-0.5"/>
	<path class="st0" d="M478.9,312.3c-0.3,0-0.5,0.2-0.5,0.5"/>
	<path class="st0" d="M377.7,312.3h-13"/>
	<path class="st0" d="M388.5,293.3h13"/>
	<path class="st0" d="M529.6,326.6c0,0.6,0.5,1.2,1.2,1.2"/>
	<path class="st0" d="M463.9,274.7v13"/>
	<path class="st0" d="M374.2,331.3c-0.3,0-0.5,0.2-0.5,0.5"/>
	<path class="st0" d="M502,274.7v13"/>
	<path class="st0" d="M486.2,331.3h15.2"/>
	<path class="st0" d="M326.1,329.4c-1.7,0-3.1-1.4-3.1-3.1"/>
	<path class="st0" d="M415.8,329.3c-0.3,0-0.5,0.2-0.5,0.5"/>
	<path class="st0" d="M363.4,307.3h-13"/>
	<path class="st0" d="M521,287.8v-13"/>
	<path class="st0" d="M325.9,327.7c0.6,0,1.2-0.5,1.2-1.2"/>
	<path class="st0" d="M349.2,288.2c0.3,0,0.5-0.2,0.5-0.5"/>
	<path class="st0" d="M387.7,274.7v13"/>
	<path class="st0" d="M530.6,312.8c0-0.3-0.2-0.5-0.5-0.5"/>
	<path class="st0" d="M485.6,331.8c0-0.3,0.2-0.5,0.6-0.5"/>
	<path class="st0" d="M482.4,345.3c0.3,0,0.5-0.2,0.5-0.5"/>
	<path class="st0" d="M405.8,329.9v0.9"/>
	<path class="st0" d="M349.9,306.8v-13"/>
	<path class="st0" d="M421.8,326.3h13"/>
	<path class="st0" d="M432,329.9v0.9"/>
	<path class="st0" d="M323,326.3v-52.1"/>
	<path class="st0" d="M479.4,329.9c0-0.3-0.2-0.5-0.5-0.5"/>
	<path class="st0" d="M354.7,274.7c0-0.3,0.2-0.5,0.5-0.5"/>
	<path class="st0" d="M491.9,312.3h-13"/>
	<path class="st0" d="M354.7,287.8v-13"/>
	<path class="st0" d="M425.8,287.8c0,0.3-0.2,0.5-0.5,0.5"/>
	<path class="st0" d="M530.5,329.4h-24.3"/>
	<path class="st0" d="M422.3,345.3c0,0,0.2,0,0.5,0"/>
	<path class="st0" d="M364.2,312.8v13"/>
	<path class="st0" d="M440.9,312.3c-0.3,0-0.5,0.2-0.5,0.5"/>
	<path class="st0" d="M480,331.3c-0.3,0-0.5-0.2-0.5-0.5"/>
	<path class="st0" d="M416.3,312.8c0-0.3-0.2-0.5-0.5-0.5"/>
	<path class="st0" d="M370.5,331.3c0.3,0,0.6,0.2,0.6,0.5"/>
	<path class="st0" d="M420.5,307.3h-13"/>
	<path class="st0" d="M468.6,293.8v13"/>
	<path class="st0" d="M430.8,287.8v-13"/>
	<path class="st0" d="M473.4,312.8c0-0.3-0.2-0.5-0.5-0.5"/>
	<path class="st0" d="M530.6,325.4c0-0.7,0-12.6,0-12.6"/>
	<path class="st0" d="M371,344.8"/>
	<path class="st0" d="M432,330.8c0,0.3-0.2,0.5-0.5,0.5"/>
	<path class="st0" d="M402.8,326.3h13"/>
	<path class="st0" d="M401.5,307.3h-13"/>
	<path class="st0" d="M450.3,329.3h-5.9"/>
	<path class="st0" d="M368.9,306.8v-13"/>
	<path class="st0" d="M440.9,326.3h13"/>
	<path class="st0" d="M402,293.8v13"/>
	<path class="st0" d="M340.1,325.8v-13"/>
	<path class="st0" d="M344.4,293.3c0.3,0,0.5,0.2,0.5,0.5"/>
	<path class="st0" d="M326.1,312.8v12.6"/>
	<path class="st0" d="M431.4,331.3h-6.2"/>
	<path class="st0" d="M414.8,331.3h-1.5"/>
	<path class="st0" d="M430.8,274.7c0-0.3,0.2-0.5,0.5-0.5"/>
	<path class="st0" d="M532,326.6c0-0.6-0.5-1.2-1.2-1.2"/>
	<path class="st0" d="M415.8,326.3c0.3,0,0.5-0.2,0.5-0.5"/>
	<path class="st0" d="M502,331.8v13"/>
	<path class="st0" d="M330.9,306.8v-13"/>
	<path class="st0" d="M349.2,274.3h-5.4"/>
	<path class="st0" d="M438.4,345.3c0.3,0,0.5,0,0.5,0"/>
	<path class="st0" d="M424.1,329.3h-5.9"/>
	<path class="st0" d="M501.5,274.2c0.3,0,0.5,0.2,0.5,0.5"/>
	<path class="st0" d="M327,326.6c0-0.1,0-0.2,0-0.2"/>
	<path class="st0" d="M392.8,287.8v-13"/>
	<path class="st0" d="M530.8,327.7c0.6,0,1.2-0.5,1.2-1.2"/>
	<path class="st0" d="M450.8,330.8v-0.9"/>
	<path class="st0" d="M462.8,330.8v-0.9"/>
	<path class="st0" d="M498,312.3c-0.3,0-0.5,0.2-0.5,0.5"/>
	<path class="st0" d="M383.6,329.3h-5.9"/>
	<path class="st0" d="M479.4,330.8v-0.9"/>
	<path class="st0" d="M473.4,325.8v-13"/>
	<path class="st0" d="M384.1,330.8v-0.9"/>
	<path class="st0" d="M525.3,293.3c0.3,0,0.5,0.2,0.5,0.5"/>
	<path class="st0" d="M396.7,326.3c0.3,0,0.5-0.2,0.5-0.5"/>
	<path class="st0" d="M394.4,345.3h5.9"/>
	<path class="st0" d="M440.4,312.8v13"/>
	<path class="st0" d="M425.8,274.7v13"/>
	<path class="st0" d="M341.5,274.3h-5.3"/>
	<path class="st0" d="M397.2,312.8c0-0.3-0.2-0.5-0.5-0.5"/>
	<path class="st0" d="M342.6,273.1c-0.6,0-1.2,0.5-1.2,1.2"/>
	<path class="st0" d="M453.9,326.3c0.3,0,0.5-0.2,0.5-0.5"/>
	<path class="st0" d="M373.7,287.8v-13"/>
	<path class="st0" d="M455.8,330.8c0,0.3-0.2,0.5-0.5,0.5"/>
	<path class="st0" d="M345.1,325.8c0,0.3,0.2,0.5,0.5,0.5"/>
	<path class="st0" d="M412.2,345.3c0.3,0,0.5,0,0.5,0"/>
	<path class="st0" d="M402,306.8c0,0.3-0.2,0.5-0.5,0.5"/>
	<path class="st0" d="M472.9,326.3c0.3,0,0.5-0.2,0.5-0.5"/>
	<path class="st0" d="M324.7,326.6c0,0.6,0.5,1.2,1.2,1.2"/>
	<path class="st0" d="M493.2,293.3h13"/>
	<path class="st0" d="M351.6,330.6c0-0.7-0.5-1.2-1.2-1.2"/>
	<path class="st0" d="M344.9,293.8v13"/>
	<path class="st0" d="M431.4,345.3c0.3,0,0.5,0,0.5,0"/>
	<path class="st0" d="M327,326.3h12.6"/>
	<path class="st0" d="M383.7,312.3c-0.3,0-0.5,0.2-0.5,0.5"/>
	<path class="st0" d="M463.3,331.3c-0.3,0-0.5-0.2-0.5-0.5"/>
	<path class="st0" d="M387.2,288.2h-13"/>
	<path class="st0" d="M392.8,274.7c0-0.3,0.2-0.5,0.5-0.5"/>
	<path class="st0" d="M411.8,274.7c0-0.3,0.2-0.5,0.5-0.5"/>
	<path class="st0" d="M394.4,329.3c-0.3,0-0.5,0.2-0.5,0.5"/>
	<path class="st0" d="M377.2,330.8c0,0.3-0.2,0.5-0.5,0.5"/>
	<path class="st0" d="M412.7,329.9c0-0.3-0.2-0.5-0.5-0.5"/>
	<path class="st0" d="M370.5,345.3h-15.3"/>
	<path class="st0" d="M506.7,293.8v13"/>
	<path class="st0" d="M417.2,329.3h-1.3"/>
	<path class="st0" d="M415.8,345.3h5.9"/>
	<path class="st0" d="M355.2,331.3h15.2"/>
	<path class="st0" d="M506.3,329.4c-0.7,0-1.2,0.5-1.2,1.2"/>
	<path class="st0" d="M412.7,330.8v-0.9"/>
	<path class="st0" d="M351.6,345.3v-14.7"/>
	<path class="st0" d="M376.6,331.3h-2.4"/>
	<path class="st0" d="M441.3,330.8v-0.9"/>
	<path class="st0" d="M368.7,287.8c0,0.3-0.2,0.5-0.5,0.5"/>
	<path class="st0" d="M444.8,274.7v13"/>
	<path class="st0" d="M525.3,307.3h-13"/>
	<path class="st0" d="M393.8,345.3c0,0,0.2,0,0.5,0"/>
	<path class="st0" d="M400.8,330.8v-0.9"/>
	<path class="st0" d="M402.3,325.8c0,0.3,0.2,0.5,0.5,0.5"/>
	<path class="st0" d="M350.4,307.3c-0.3,0-0.5-0.2-0.5-0.5"/>
	<path class="st0" d="M444.4,329.3c-0.3,0-0.5,0.2-0.5,0.5"/>
	<path class="st0" d="M326.6,312.3c-0.3,0-0.5,0.2-0.5,0.5"/>
	<path class="st0" d="M473,329.3c-0.3,0-0.5,0.2-0.5,0.5"/>
	<path class="st0" d="M501.5,288.2h-13"/>
	<path class="st0" d="M382.9,293.8v13"/>
	<path class="st0" d="M393.2,274.2h13"/>
	<path class="st0" d="M405.8,330.8c0,0.3-0.2,0.5-0.5,0.5"/>
	<path class="st0" d="M511.8,306.8v-13"/>
	<path class="st0" d="M455.1,293.3h13"/>
	<path class="st0" d="M492.4,325.8v-13"/>
	<path class="st0" d="M435.6,293.8c0-0.3,0.2-0.5,0.5-0.5"/>
	<path class="st0" d="M529.7,326.3c0,0.1,0,0.2,0,0.2"/>
	<path class="st0" d="M378.2,325.8v-13"/>
	<path class="st0" d="M339.6,312.3h-13"/>
	<path class="st0" d="M530.8,325.4c-0.1,0-0.2,0-0.2,0"/>
	<path class="st0" d="M355.2,274.2h13"/>
	<path class="st0" d="M498,326.3h13"/>
	<path class="st0" d="M482.9,331.8c0-0.3-0.2-0.5-0.5-0.5"/>
	<path class="st0" d="M326.1,271.1h204.4"/>
	<path class="st0" d="M400.8,329.9c0-0.3-0.2-0.5-0.5-0.5"/>
	<path class="st0" d="M418.2,329.3c-0.3,0-0.5,0-0.5,0"/>
	<path class="st0" d="M455.2,331.3h-3.9"/>
	<path class="st0" d="M512.3,293.3h13"/>
	<path class="st0" d="M407.5,307.3c-0.3,0-0.5-0.2-0.5-0.5"/>
	<path class="st0" d="M497.5,312.8v13"/>
	<path class="st0" d="M406.3,329.3c-0.3,0-0.5,0.2-0.5,0.5"/>
	<path class="st0" d="M407,306.8v-13"/>
	<path class="st0" d="M371,331.8v13"/>
	<path class="st0" d="M512.9,274.3h-5.4"/>
	<path class="st0" d="M502,348.4H354.7"/>
	<path class="st0" d="M405.8,345.3c0,0,0.2,0,0.5,0"/>
	<path class="st0" d="M335.7,287.7c0,0.3,0.2,0.5,0.5,0.5"/>
</g>
<path class="st1" d="M1161.7,339.6"/>
<path class="st0" d="M487.7,306.8c0,0.3-0.2,0.5-0.5,0.5"/>
<path class="st0" d="M473.7,293.8c0-0.3,0.2-0.5,0.5-0.5"/>
<path class="st0" d="M474.2,293.3h13"/>
<path class="st0" d="M473.7,306.8v-13"/>
<path class="st0" d="M474.2,307.3c-0.3,0-0.5-0.2-0.5-0.5"/>
<path class="st0" d="M487.7,293.8v13"/>
<path class="st0" d="M487.2,293.3c0.3,0,0.5,0.2,0.5,0.5"/>
<path class="st0" d="M487.2,307.3h-13"/>
<path class="st1" d="M1068.7,339.6"/>
<path class="st0" d="M482.9,287.8c0,0.3-0.2,0.5-0.5,0.5"/>
<path class="st0" d="M468.9,274.7c0-0.3,0.2-0.5,0.5-0.5"/>
<path class="st0" d="M469.4,274.2h13"/>
<path class="st0" d="M468.9,287.8v-13"/>
<path class="st0" d="M469.4,288.2c-0.3,0-0.5-0.2-0.5-0.5"/>
<path class="st0" d="M482.9,274.7v13"/>
<path class="st0" d="M482.4,274.2c0.3,0,0.5,0.2,0.5,0.5"/>
<path class="st0" d="M482.4,288.2h-13"/>
</svg>
