<?xml version="1.0" encoding="utf-8"?>
<!-- Generator: Adobe Illustrator 26.5.0, SVG Export Plug-In . SVG Version: 6.00 Build 0)  -->
<svg version="1.1" id="Layer_3" xmlns="http://www.w3.org/2000/svg" xmlns:xlink="http://www.w3.org/1999/xlink" x="0px" y="0px"
	 viewBox="0 0 607.2 229.2" style="enable-background:new 0 0 607.2 229.2;" xml:space="preserve">
<style type="text/css">
	.st0{fill:none;stroke:#000000;stroke-width:5.000000e-02;stroke-linecap:round;stroke-linejoin:round;stroke-miterlimit:10;}
	.st1{fill:none;stroke:#000000;stroke-width:5.000000e-02;stroke-linecap:round;stroke-linejoin:round;stroke-miterlimit:11.3386;}
</style>
<path class="st0" d="M349.9,111.6c-0.3,0-0.5-0.2-0.5-0.5v-13c0-0.3,0.2-0.5,0.5-0.5h13c0.3,0,0.5,0.2,0.5,0.5v13
	c0,0.3-0.2,0.5-0.5,0.5L349.9,111.6L349.9,111.6z"/>
<path class="st0" d="M296.8,111.1c0,0.3-0.2,0.5-0.5,0.5h-13c-0.3,0-0.5-0.2-0.5-0.5v-13c0-0.3,0.2-0.5,0.5-0.5h13
	c0.3,0,0.5,0.2,0.5,0.5V111.1z"/>
<path class="st0" d="M382.5,111.1c0,0.3-0.2,0.5-0.5,0.5h-13c-0.3,0-0.5-0.2-0.5-0.5v-13c0-0.3,0.2-0.5,0.5-0.5h13
	c0.3,0,0.5,0.2,0.5,0.5V111.1z"/>
<path class="st0" d="M258.7,111.1c0,0.3-0.2,0.5-0.5,0.5h-13c-0.3,0-0.5-0.2-0.5-0.5v-13c0-0.3,0.2-0.5,0.5-0.5h13
	c0.3,0,0.5,0.2,0.5,0.5V111.1z"/>
<path class="st0" d="M344.4,111.1c0,0.3-0.2,0.5-0.5,0.5h-13c-0.3,0-0.5-0.2-0.5-0.5v-13c0-0.3,0.2-0.5,0.5-0.5h13
	c0.3,0,0.5,0.2,0.5,0.5V111.1z"/>
<path class="st0" d="M325.3,111.1c0,0.3-0.2,0.5-0.5,0.5h-13c-0.3,0-0.5-0.2-0.5-0.5v-13c0-0.3,0.2-0.5,0.5-0.5h13
	c0.3,0,0.5,0.2,0.5,0.5V111.1z"/>
<path class="st0" d="M401.5,111.1c0,0.3-0.2,0.5-0.5,0.5h-13c-0.3,0-0.5-0.2-0.5-0.5v-13c0-0.3,0.2-0.5,0.5-0.5h13
	c0.3,0,0.5,0.2,0.5,0.5V111.1z"/>
<path class="st0" d="M239.6,111.1c0,0.3-0.2,0.5-0.5,0.5h-13c-0.3,0-0.5-0.2-0.5-0.5v-13c0-0.3,0.2-0.5,0.5-0.5h13
	c0.3,0,0.5,0.2,0.5,0.5V111.1z"/>
<path class="st0" d="M220.6,111.1c0,0.3-0.2,0.5-0.5,0.5h-13c-0.3,0-0.5-0.2-0.5-0.5v-13c0-0.3,0.2-0.5,0.5-0.5h13
	c0.3,0,0.5,0.2,0.5,0.5V111.1z"/>
<path class="st0" d="M277.7,111.1c0,0.3-0.2,0.5-0.5,0.5h-13c-0.3,0-0.5-0.2-0.5-0.5v-13c0-0.3,0.2-0.5,0.5-0.5h13
	c0.3,0,0.5,0.2,0.5,0.5V111.1z"/>
<path class="st0" d="M345.2,92.5c-0.3,0-0.5-0.2-0.5-0.5V79c0-0.3,0.2-0.5,0.5-0.5h13c0.3,0,0.5,0.2,0.5,0.5v13
	c0,0.3-0.2,0.5-0.5,0.5L345.2,92.5L345.2,92.5z"/>
<path class="st0" d="M301.5,92.1c0,0.3-0.2,0.5-0.5,0.5h-13c-0.3,0-0.5-0.2-0.5-0.5v-13c0-0.3,0.2-0.5,0.5-0.5h13
	c0.3,0,0.5,0.2,0.5,0.5V92.1z"/>
<path class="st0" d="M377.7,92c0,0.3-0.2,0.5-0.5,0.5h-13c-0.3,0-0.5-0.2-0.5-0.5V79c0-0.3,0.2-0.5,0.5-0.5h13
	c0.3,0,0.5,0.2,0.5,0.5V92z"/>
<path class="st0" d="M263.4,92.1c0,0.3-0.2,0.5-0.5,0.5h-13c-0.3,0-0.5-0.2-0.5-0.5v-13c0-0.3,0.2-0.5,0.5-0.5h13
	c0.3,0,0.5,0.2,0.5,0.5V92.1z"/>
<path class="st0" d="M339.6,92.1c0,0.3-0.2,0.5-0.5,0.5h-13c-0.3,0-0.5-0.2-0.5-0.5v-13c0-0.3,0.2-0.5,0.5-0.5h13
	c0.3,0,0.5,0.2,0.5,0.5V92.1z"/>
<path class="st0" d="M320.6,92.1c0,0.3-0.2,0.5-0.5,0.5h-13c-0.3,0-0.5-0.2-0.5-0.5v-13c0-0.3,0.2-0.5,0.5-0.5h13
	c0.3,0,0.5,0.2,0.5,0.5V92.1z"/>
<path class="st0" d="M244.4,92c0,0.3-0.2,0.5-0.5,0.5h-13c-0.3,0-0.5-0.2-0.5-0.5V79c0-0.3,0.2-0.5,0.5-0.5h13
	c0.3,0,0.5,0.2,0.5,0.5V92z"/>
<path class="st0" d="M282.5,92.1c0,0.3-0.2,0.5-0.5,0.5h-13c-0.3,0-0.5-0.2-0.5-0.5v-13c0-0.3,0.2-0.5,0.5-0.5h13
	c0.3,0,0.5,0.2,0.5,0.5V92.1z"/>
<path class="st0" d="M367.7,116.6h-13c-0.3,0-0.5,0.2-0.5,0.5v13c0,0.3,0.2,0.5,0.5,0.5h13c0.3,0,0.5-0.2,0.5-0.5v-13
	C368.2,116.9,368,116.6,367.7,116.6z"/>
<path class="st0" d="M291.5,116.6h-13c-0.3,0-0.5,0.2-0.5,0.5v13c0,0.3,0.2,0.5,0.5,0.5h13c0.3,0,0.5-0.2,0.5-0.5v-13
	C292,116.9,291.8,116.6,291.5,116.6z"/>
<path class="st0" d="M386.7,116.6h-13c-0.3,0-0.5,0.2-0.5,0.5v13c0,0.3,0.2,0.5,0.5,0.5h13c0.3,0,0.5-0.2,0.5-0.5v-13
	C387.2,116.9,387,116.6,386.7,116.6z"/>
<path class="st0" d="M253.4,116.6h-13c-0.3,0-0.5,0.2-0.5,0.5v13c0,0.3,0.2,0.5,0.5,0.5h13c0.3,0,0.5-0.2,0.5-0.5v-13
	C253.9,116.9,253.7,116.6,253.4,116.6z"/>
<path class="st0" d="M348.6,116.6h-13c-0.3,0-0.5,0.2-0.5,0.5v13c0,0.3,0.2,0.5,0.5,0.5h13c0.3,0,0.5-0.2,0.5-0.5v-13
	C349.1,116.9,348.9,116.6,348.6,116.6z"/>
<path class="st0" d="M329.6,116.6h-13c-0.3,0-0.5,0.2-0.5,0.5v13c0,0.3,0.2,0.5,0.5,0.5h13c0.3,0,0.5-0.2,0.5-0.5v-13
	C330.1,116.9,329.9,116.6,329.6,116.6z"/>
<path class="st0" d="M234.4,116.6h-13c-0.3,0-0.5,0.2-0.5,0.5v13c0,0.3,0.2,0.5,0.5,0.5h13c0.3,0,0.5-0.2,0.5-0.5v-13
	C234.9,116.9,234.7,116.6,234.4,116.6z"/>
<path class="st0" d="M215.3,116.6h-13c-0.3,0-0.5,0.2-0.5,0.5v12.6c-0.1,0-0.2,0-0.2,0c-0.6,0-1.2,0.5-1.2,1.2
	c0,0.6,0.5,1.2,1.2,1.2c0.6,0,1.2-0.5,1.2-1.2c0-0.1,0-0.2,0-0.2h12.6c0.3,0,0.5-0.2,0.5-0.5v-13
	C215.8,116.9,215.6,116.6,215.3,116.6z"/>
<path class="st0" d="M272.5,116.6h-13c-0.3,0-0.5,0.2-0.5,0.5v13c0,0.3,0.2,0.5,0.5,0.5h13c0.3,0,0.5-0.2,0.5-0.5v-13
	C273,116.9,272.8,116.6,272.5,116.6z"/>
<path class="st0" d="M406.5,129.7c-0.1,0-0.2,0-0.2,0c0-0.7,0-12.6,0-12.6c0-0.3-0.2-0.5-0.5-0.5h-13c-0.3,0-0.5,0.2-0.5,0.5v13
	c0,0.3,0.2,0.5,0.5,0.5h12.6c0,0.1,0,0.2,0,0.2c0,0.6,0.5,1.2,1.2,1.2s1.2-0.5,1.2-1.2C407.7,130.3,407.2,129.7,406.5,129.7z"/>
<path class="st0" d="M396.2,78.6h-5.3v0c0-0.6-0.5-1.2-1.2-1.2s-1.2,0.5-1.2,1.2v0h-5.4c-0.3,0-0.5,0.2-0.5,0.5v13
	c0,0.3,0.2,0.5,0.5,0.5h13c0.3,0,0.5-0.2,0.5-0.5v-13C396.7,78.8,396.5,78.6,396.2,78.6z"/>
<path class="st0" d="M409.4,130.6c0,1.7-1.4,3.1-3.1,3.1H382c-0.7,0-1.2,0.5-1.2,1.2v14.7c0,1.7-1.4,3.1-3.1,3.1H230.4
	c-1.7,0-3.1-1.4-3.1-3.1v-14.7c0-0.7-0.5-1.2-1.2-1.2h-24.3c-1.7,0-3.1-1.4-3.1-3.1V78.6c0-1.7,1.4-3.1,3.1-3.1h204.4
	c1.7,0,3.1,1.4,3.1,3.1V130.6z"/>
<path class="st0" d="M224.9,78.6h-5.4c0-0.6-0.5-1.2-1.2-1.2c-0.6,0-1.2,0.5-1.2,1.2h-5.3c-0.3,0-0.5,0.2-0.5,0.5v13
	c0,0.3,0.2,0.5,0.5,0.5h13c0.3,0,0.5-0.2,0.5-0.5V79C225.4,78.8,225.2,78.6,224.9,78.6z"/>
<path class="st0" d="M310.6,116.6h-13c-0.3,0-0.5,0.2-0.5,0.5v13c0,0.3,0.2,0.5,0.5,0.5h13c0.3,0,0.5-0.2,0.5-0.5v-13
	C311,116.9,310.8,116.6,310.6,116.6z"/>
<path class="st0" d="M246.8,149.1c0,0.3-0.2,0.5-0.6,0.5H231c-0.3,0-0.6-0.2-0.6-0.5v-13c0-0.3,0.2-0.5,0.6-0.5h15.2
	c0.3,0,0.6,0.2,0.6,0.5L246.8,149.1L246.8,149.1z"/>
<path class="st0" d="M377.7,149.1c0,0.3-0.2,0.5-0.6,0.5h-15.2c-0.3,0-0.6-0.2-0.6-0.5v-13c0-0.3,0.2-0.5,0.6-0.5h15.2
	c0.3,0,0.6,0.2,0.6,0.5V149.1z"/>
<g>
	<path class="st1" d="M358.7,136.2c0-0.3-0.2-0.5-0.5-0.5h-2.4c-0.3,0-0.5-0.2-0.5-0.5v-0.9c0-0.3-0.2-0.5-0.5-0.5h-5.9
		c-0.3,0-0.5,0.2-0.5,0.5v0.9c0,0.3-0.2,0.5-0.5,0.5H339c-0.3,0-0.5-0.2-0.5-0.5v-0.9c0-0.3-0.2-0.5-0.5-0.5H332
		c-0.3,0-0.5,0.2-0.5,0.5v0.9c0,0.3-0.2,0.5-0.5,0.5h-3.9c-0.3,0-0.5-0.2-0.5-0.5v-0.9c0-0.3-0.2-0.5-0.5-0.5h-5.9
		c-0.3,0-0.5,0.2-0.5,0.5v0.9c0,0.3-0.2,0.5-0.5,0.5h-1.5c-0.3,0-0.5-0.2-0.5-0.5v-0.9c0-0.3-0.2-0.5-0.5-0.5h-5.9
		c-0.3,0-0.5,0-0.5,0s-0.2,0-0.5,0h-1.3c-0.3,0-0.5,0.2-0.5,0.5v0.9c0,0.3-0.2,0.5-0.5,0.5h-6.2c-0.3,0-0.5-0.2-0.5-0.5v-0.9
		c0-0.3-0.2-0.5-0.5-0.5h-5.9c-0.3,0-0.5,0-0.5,0s-0.2,0-0.5,0h-1.3c-0.3,0-0.5,0.2-0.5,0.5v0.9c0,0.3-0.2,0.5-0.5,0.5H289
		c-0.3,0-0.5-0.2-0.5-0.5v-0.9c0-0.3-0.2-0.5-0.5-0.5H282c-0.3,0-0.5,0.2-0.5,0.5v0.9c0,0.3-0.2,0.5-0.5,0.5h-3.9
		c-0.3,0-0.5-0.2-0.5-0.5v-0.9c0-0.3-0.2-0.5-0.5-0.5h-5.9c-0.3,0-0.5,0.2-0.5,0.5v0.9c0,0.3-0.2,0.5-0.5,0.5h-8.6
		c-0.3,0-0.5-0.2-0.5-0.5v-0.9c0-0.3-0.2-0.5-0.5-0.5h-5.9c-0.3,0-0.5,0.2-0.5,0.5v0.9c0,0.3-0.2,0.5-0.5,0.5h-2.4
		c-0.3,0-0.5,0.2-0.5,0.5v12.9c0,0.3,0.2,0.5,0.5,0.5h19.1c0.3,0,0.5,0,0.5,0s0.2,0,0.5,0h5.9c0.3,0,0.5,0,0.5,0s0.2,0,0.5,0h3.9
		c0.3,0,0.5,0,0.5,0s0.2,0,0.5,0h5.9c0.3,0,0.5,0,0.5,0s0.2,0,0.5,0h1.5c0.3,0,0.5,0,0.5,0s0.2,0,0.5,0h5.9c0.3,0,0.5,0,0.5,0
		s0.2,0,0.5,0h8.6c0.3,0,0.5,0,0.5,0s0.2,0,0.5,0h5.9c0.3,0,0.5,0,0.5,0s0.2,0,0.5,0h42.9c0.3,0,0.5-0.2,0.5-0.5V136.2L358.7,136.2z
		"/>
</g>
</svg>
